<?xml version="1.0" encoding="UTF-8"?>
<svg id="Calque_2" data-name="Calque 2" xmlns="http://www.w3.org/2000/svg" viewBox="0 0 119.15 198.77">
  <defs>
    <style>
      .cls-1, .cls-2, .cls-3, .cls-4, .cls-5, .cls-6, .cls-7, .cls-8, .cls-9, .cls-10, .cls-11 {
        stroke: #fe4f02;
      }

      .cls-1, .cls-2, .cls-3, .cls-5, .cls-12, .cls-6 {
        fill: none;
      }

      .cls-1, .cls-2, .cls-5, .cls-8, .cls-9, .cls-11 {
        stroke-miterlimit: 10;
      }

      .cls-1, .cls-2, .cls-6, .cls-7, .cls-8, .cls-9, .cls-10 {
        stroke-width: 2px;
      }

      .cls-1, .cls-3, .cls-4, .cls-5, .cls-12, .cls-6, .cls-7, .cls-8, .cls-9, .cls-10, .cls-11 {
        stroke-linecap: round;
      }

      .cls-13, .cls-4, .cls-7, .cls-8 {
        fill: #fe4f02;
      }

      .cls-3, .cls-4, .cls-12, .cls-6, .cls-7, .cls-10 {
        stroke-linejoin: round;
      }

      .cls-14, .cls-9, .cls-10, .cls-11 {
        fill: #fff;
      }

      .cls-12 {
        stroke: #fff;
        stroke-width: 16px;
      }
    </style>
  </defs>
  <g id="ILLU_5">
    <g>
      <g>
        <path class="cls-12" d="M83.85,160.68c-4.09,1.76-14.4,4.69-25.15,4.63-10.44-.05-20.38-2.9-24.39-4.63"/>
        <g>
          <path class="cls-12" d="M97.62,96.52c.68,5.23,1.11,9.12.58,16.18-.28,3.72-.78,8.15-1.38,11.26"/>
          <path class="cls-12" d="M20.56,97.52c-.68,5.23-1.11,8.12-.58,15.17.28,3.72.78,8.15,1.38,11.26"/>
        </g>
        <path class="cls-12" d="M83.49,182.92c-1.61-3.27-3.7-8.47-4.48-15.18-.88-7.52.25-13.68,1.22-17.39h-42.28c.97,3.71,2.11,9.86,1.22,17.39-.79,6.71-2.87,11.91-4.48,15.18,1.9,1.74,11.14,9.86,25.22,9.54,13.05-.3,21.51-7.63,23.58-9.54Z"/>
        <path class="cls-12" d="M58.71,171.56c.21.45.47,1.11.62,1.95.3,1.7.06,3.73-.43,3.8-.3.04-.72-.64-.79-1.26-.06-.5.11-.89.2-1.06"/>
        <g>
          <g>
            <path class="cls-12" d="M84.19,92.79c.62-3.46,1.05-8.2.31-13.75-.95-7.08-3.43-12.61-5.41-16.17l-40.37.87c-1.77,3.5-3.84,8.56-4.84,14.88-.95,6.03-.62,11.19-.06,14.91,4.93,1.48,11.01,2.8,18.04,3.3,3.13.22,8.67.43,15.52-.35,6.87-.79,12.57-2.28,16.81-3.69Z"/>
            <path class="cls-12" d="M83.66,92.26c.18-1.03,1.63-1.57,1.76-2.81.11-1.08-1.31-2.32-1.28-3.54.02-1.1,1.51-2.27,1.44-3.48-.06-1.11-1.66-2.11-1.82-3.3-.2-1.47,1.01-3.15.7-4.49-.34-1.46-2.18-2.43-2.61-3.71-.49-1.45.38-3.33-.16-4.54-.64-1.45-2.05-1.68-2.66-2.78-5.03-.41-5-1.39-10.05-1.28s-5.01,1.61-10.06,1.72-5.08-1.39-10.13-1.28-4.98,1.11-9.99,1.71c-.53,1.05-1.87,1.21-2.42,2.54-.47,1.13.48,2.88.04,4.2-.39,1.19-2.19,2.04-2.51,3.37-.3,1.23.91,2.8.7,4.15-.2,1.28-1.84,2.34-1.93,3.54-.11,1.3,1.34,2.61,1.34,3.8,0,1.32-1.46,2.63-1.37,3.79.1,1.36,1.52,2.01,1.68,3.12,1.39.42,2.16,2.08,3.73,2.46,1.43.34,3.24-.8,4.8-.52,1.46.27,2.74,1.98,4.31,2.18,1.48.19,3.15-1.15,4.72-1.04,1.04.07,2.28,1.64,3.81,1.68,1.17.03,2.47-1.47,3.89-1.5,1.21-.03,2.58,1.41,3.95,1.32,1.23-.08,2.39-1.69,3.74-1.85,1.48-.17,3.11,1.11,4.48.89,1.48-.25,2.61-1.99,3.95-2.29,1.48-.32,3.24.78,4.55.43,1.5-.41,2.14-2.08,3.39-2.5Z"/>
          </g>
          <path class="cls-12" d="M67.4,98.48c0,.5,0,1-.02,1.51,0,.15,0,.3,0,.44,0,.12,0,.24,0,.35-.55.57-3.05,3.03-6.99,3.18-5.01.19-8.11-3.5-8.53-4.02,0-.01-.01-.02-.02-.03-.01-.36-.03-.73-.03-1.1-.06-1.89-.1-3.95-.17-5.79,0-.1,0-10.2,0-10.3l15.63.35c.01.19.02,10.37.03,10.56.08,1.59.12,3.21.12,4.85Z"/>
          <path class="cls-12" d="M43.3,68.34c-.18,2.36-.19,5.8.71,9.81.51,2.27,1.01,4.51,2.51,7.07.66,1.13,4.29,7.31,11.14,8.5.59.1,1.38.24,2.36.23.84-.02,1.53-.14,2.05-.23,6.85-1.2,10.47-7.38,11.14-8.5,1.5-2.56,2-4.8,2.51-7.07.9-4,.89-7.44.71-9.81"/>
          <path class="cls-12" d="M38.99,59.1c.32-1.82,1.71-8.42,7.57-12.5,4.27-2.97,8.68-3.06,12.46-3.13,4.31-.09,9.45-.19,13.95,3.39,4.62,3.68,5.77,9.02,6.09,11.01"/>
          <path class="cls-12" d="M37.06,64.47c.06.64.64,1.09,1.28,1,6.33-.84,13.37-1.47,21.02-1.7,7.4-.22,14.24-.01,20.43.42.65.05,1.21-.46,1.21-1.12,0-.49-.01-1.02-.06-1.58-.09-1.05-.27-1.98-.47-2.77-.12-.47-.53-.8-1.01-.84-6.13-.44-12.87-.64-20.11-.43-7.58.22-14.54.86-20.77,1.7-.4.05-.75.32-.9.7-.23.6-.46,1.35-.58,2.23-.12.9-.11,1.71-.04,2.38Z"/>
          <g>
            <line class="cls-12" x1="74.66" y1="63.91" x2="74.14" y2="57.59"/>
            <line class="cls-12" x1="68.43" y1="63.72" x2="68.08" y2="57.4"/>
            <line class="cls-12" x1="62.22" y1="63.72" x2="62.07" y2="57.4"/>
            <line class="cls-12" x1="56.06" y1="57.58" x2="56.01" y2="63.9"/>
            <line class="cls-12" x1="50.04" y1="57.95" x2="49.79" y2="64.28"/>
            <line class="cls-12" x1="44.01" y1="58.5" x2="43.54" y2="64.85"/>
          </g>
          <path class="cls-12" d="M61.03,83.31c-.09.06-.42.24-1.03.31-.16.02-.65.07-1.21-.03,0,0-.01,0-.02,0-.52-.1-.88-.52-.87-.99.02-.54.08-1.13.2-1.77.26-1.36.72-2.48,1.15-3.31"/>
          <path class="cls-12" d="M55.3,88.52s2.56,1.14,4.13,1.31c2.62.29,4.6-1.28,4.6-1.28"/>
          <path class="cls-12" d="M78.5,66.14v3.17c-.96,1.53-1.68,1.85-2.18,1.81-.97-.08-1.14-1.47-2.33-1.74-1.14-.26-1.49.91-2.97,1.03-2,.17-2.66-1.86-4.52-1.62-1.42.18-1.57,1.42-2.97,1.41-1.25-.01-1.44-1.01-2.76-1.15-1.54-.16-1.83,1.15-3.53,1.31-2.14.2-2.66-1.68-4.78-1.5-1.86.15-2.07,1.64-3.66,1.5-1.83-.16-2.53-2.04-3.73-1.7-1.06.3-1.05,1.93-2.02,2.11-.73.13-1.51-.66-2.12-1.48l-.29-1.8"/>
          <g>
            <path class="cls-12" d="M71.08,72.21c-.67-.17-1.61-.33-2.73-.27-1.44.08-2.56.5-3.26.82"/>
            <path class="cls-12" d="M48.7,72.21c.67-.17,1.61-.33,2.73-.27,1.44.08,2.56.5,3.26.82"/>
          </g>
          <g>
            <g>
              <ellipse class="cls-12" cx="67.62" cy="76.66" rx="1.12" ry="1.8"/>
              <path class="cls-12" d="M64.03,76.57c.42-.41.96-.83,1.63-1.16,2.9-1.39,5.97.1,6.52.38-.1.23-.23.48-.4.76-.22.35-.46.62-.66.83"/>
            </g>
            <g>
              <ellipse class="cls-12" cx="52.12" cy="76.66" rx="1.12" ry="1.8"/>
              <path class="cls-12" d="M55.71,76.57c-.42-.41-.96-.83-1.63-1.16-2.9-1.39-5.97.1-6.52.38.1.23.23.48.4.76.22.35.46.62.66.83"/>
            </g>
          </g>
        </g>
        <g>
          <polygon class="cls-12" points="20.74 58.12 60.45 56.66 99.57 54.96 98.43 28.24 96.52 1.04 56.65 2.75 16.76 3.64 18.46 30.88 20.74 58.12"/>
          <polygon class="cls-12" points="20.74 58.12 60.45 56.66 99.57 54.96 98.43 28.24 96.52 1.04 56.65 2.75 16.76 3.64 18.46 30.88 20.74 58.12"/>
        </g>
        <g>
          <g>
            <path class="cls-12" d="M114.58,70.69c-.59-2.79-1.25-5.84-1.98-9.18-1.26-5.78-2.37-10.79-3.23-14.68-.22-.98-.52-1.93-.91-2.84-.39-.92-1.26-2.89-3.12-4.75-.59-.59-5.59-3.65-7.75-3.84-1.28-.11-4.13.3-4.99,1.26-.42.47-.3,1.88-.34,2.51-.03.51-.12,1.56,0,2.06.07.31.52.83.57,1.14.07.43-.48,1.36-.23,1.71.34.49,1.77.31,2.33.51,1.16.42,3.71,1.22,4.39,2.25.73,1.11.17,2.76,1.46,5.12.53.98,1.2,1.66,1.67,2.07.63,6.79.87,12.36.97,16.25.16,6.19-.01,5.84.39,10.71.38,4.61,1.05,6.85,1.7,10.91-3.56,4.15-10.17,6.57-14,7.72-3.41,1.02-11.12,2.88-13.61,4.19l-1.77,18.06c1.58-1.32,5.46-3.28,7.44-4.45,3.99-2.37,18.62-6.91,22.67-9.19,2.74-1.54,7.78-4.96,9.54-8.17,3.69-6.75,3.02-9.68-1.15-29.37Z"/>
            <path class="cls-12" d="M105.33,39.25c-1.05-.97-5.93-5.13-7.43-5.39-1.08-.19-3.25.4-4.34.49-.91.08-2.85.16-3.59.71-.35.26-1.02,1.17-.82,1.56.36.73,2.4.58,3.21.57,1.27-.02,6.3,7.38,6.49,6.13"/>
            <path class="cls-12" d="M100.05,38.19c-1.12-.55-2.33-1.4-3.45-1.53s-4.1.22-5.15.52c-.88.25-2.85.16-3.59.71-.35.26-1.03,1.17-.82,1.56.38.72,2.4.61,3.21.57,1.32-.06,6.16-.32,6.16-.32"/>
            <path class="cls-12" d="M99.73,41.2c-1.3-.84-2.41-1.41-3.31-1.51-1.09-.11-3.25.4-4.34.49-.91.08-2.85.16-3.59.71-.35.26-1.02,1.17-.82,1.56.36.73,2.4.63,3.21.57,1.32-.1,3.96-.59,5.29-.49.98.07,2.19.54,3.7,1.3"/>
            <path class="cls-12" d="M99.87,43.83c-2.61-1.33-2.71-1.59-4.25-1.46-1,.09-4.86.66-5.46,1.47-.23.31-.95.97-.79,1.32.34.74,2.4.62,3.22.56,1.16-.08,3.51-.64,4.65-.38.61.14,1.67.98,2.08,1.37"/>
          </g>
          <g>
            <path class="cls-12" d="M4.56,70.69c.59-2.79,1.25-5.84,1.98-9.18,1.26-5.78,2.37-10.79,3.23-14.68.22-.98.52-1.93.91-2.84.39-.92,1.26-2.89,3.12-4.75.59-.59,5.59-3.65,7.75-3.84,1.28-.11,4.13.3,4.99,1.26.42.47.3,1.88.34,2.51.03.51.12,1.56,0,2.06-.07.31-.52.83-.57,1.14-.07.43.48,1.36.23,1.71-.34.49-1.77.31-2.33.51-1.16.42-3.71,1.22-4.39,2.25-.73,1.11-.17,2.76-1.46,5.12-.53.98-1.2,1.66-1.67,2.07-.63,6.79-.87,12.36-.97,16.25-.16,6.19.01,5.84-.39,10.71-.38,4.61-1.05,6.85-1.7,10.91,3.56,4.15,10.17,6.57,14,7.72,3.41,1.02,11.12,2.88,13.61,4.19l1.77,18.06c-1.58-1.32-5.46-3.28-7.44-4.45-3.99-2.37-18.62-6.91-22.67-9.19-2.74-1.54-7.78-4.96-9.54-8.17-3.69-6.75-3.02-9.68,1.15-29.37Z"/>
            <path class="cls-12" d="M13.82,39.25c1.05-.97,5.93-5.13,7.43-5.39,1.08-.19,3.25.4,4.34.49.91.08,2.85.16,3.59.71.35.26,1.02,1.17.82,1.56-.36.73-2.4.58-3.21.57-1.27-.02-6.3,7.38-6.49,6.13"/>
            <path class="cls-12" d="M19.1,38.19c1.12-.55,2.33-1.4,3.45-1.53s4.1.22,5.15.52c.88.25,2.85.16,3.59.71.35.26,1.03,1.17.82,1.56-.38.72-2.4.61-3.21.57-1.32-.06-6.16-.32-6.16-.32"/>
            <path class="cls-12" d="M19.42,41.2c1.3-.84,2.41-1.41,3.31-1.51,1.09-.11,3.25.4,4.34.49.91.08,2.85.16,3.59.71.35.26,1.02,1.17.82,1.56-.36.73-2.4.63-3.21.57-1.32-.1-3.96-.59-5.29-.49-.98.07-2.19.54-3.7,1.3"/>
            <path class="cls-12" d="M19.28,43.83c2.61-1.33,2.71-1.59,4.25-1.46,1,.09,4.86.66,5.46,1.47.23.31.95.97.79,1.32-.34.74-2.4.62-3.22.56-1.16-.08-3.51-.64-4.65-.38-.61.14-1.67.98-2.08,1.37"/>
          </g>
        </g>
        <path class="cls-12" d="M96.05,113.64c.06,3.73.35,7.18.77,10.32-2.72-.03-7.47.31-9.47,3.42-.77,1.2-.85,2.38-.92,3.42-.77,10.56-2.59,21.41-2.26,25.46.02.23.1,1.08.02,2.22-.06.96-.21,1.75-.33,2.28-4-1.05-13.92-2.8-24.39-2.84h-.76c-10.47.04-20.39,1.79-24.39,2.84-.13-.58-.27-1.36-.33-2.28-.06-.94-.02-1.64,0-1.85.26-4.36-.76-16.93-1.9-26.29-.11-.92-.26-2.01-1-3.11-2.14-3.17-7.08-3.36-9.72-3.26.41-3.14.7-6.59.77-10.32.12-7.08-1.58-17.12-1.58-17.12,0,0,15.53,4.75,18.82,4.4.31-.03,1.25-.15,2.89-.32,3.96-.39,7.25-.57,9.58-.66.33.41,3.65,4.35,8.53,4.02.56-.04,3.87-.27,6.13-2.79.41-.45.69-.88.87-1.19,2.23.1,5.14.28,8.54.62,1.64.17,2.58.29,2.89.32,3.29.35,18.81-4.4,18.81-4.4,0,0-1.7,10.04-1.57,17.12Z"/>
        <path class="cls-12" d="M87.04,191.87c-5.17,2.3-15.61,6.16-29.35,5.89-12.2-.24-21.51-3.64-26.55-5.89,0-1.29.14-3.11.79-5.17.5-1.57,1.15-2.83,1.72-3.77,4.59,2.24,13.06,5.64,24.17,5.89,12.5.27,22.01-3.59,26.72-5.89.63,1.14,1.33,2.68,1.83,4.58.45,1.67.62,3.17.67,4.37Z"/>
        <path class="cls-12" d="M49.24,144.47c1.25-.49,4.4-1.58,8.7-1.49,5.55.12,9.18,2.13,10.15,2.69l.65.39c-.55-.14-1.1-.29-1.1-.29-.96-.25-2.12-.49-3.48-.65-2.67-.32-4.96-.18-6.52,0"/>
      </g>
      <g>
        <path class="cls-6" d="M83.85,160.68c-4.09,1.76-14.4,4.69-25.15,4.63-10.44-.05-20.38-2.9-24.39-4.63"/>
        <g>
          <path class="cls-6" d="M97.62,96.52c.68,5.23,1.11,9.12.58,16.18-.28,3.72-.78,8.15-1.38,11.26"/>
          <path class="cls-6" d="M20.56,97.52c-.68,5.23-1.11,8.12-.58,15.17.28,3.72.78,8.15,1.38,11.26"/>
        </g>
        <path class="cls-9" d="M83.49,182.92c-1.61-3.27-3.7-8.47-4.48-15.18-.88-7.52.25-13.68,1.22-17.39h-42.28c.97,3.71,2.11,9.86,1.22,17.39-.79,6.71-2.87,11.91-4.48,15.18,1.9,1.74,11.14,9.86,25.22,9.54,13.05-.3,21.51-7.63,23.58-9.54Z"/>
        <path class="cls-5" d="M58.71,171.56c.21.45.47,1.11.62,1.95.3,1.7.06,3.73-.43,3.8-.3.04-.72-.64-.79-1.26-.06-.5.11-.89.2-1.06"/>
        <g>
          <g>
            <path class="cls-13" d="M84.19,92.79c.62-3.46,1.05-8.2.31-13.75-.95-7.08-3.43-12.61-5.41-16.17l-40.37.87c-1.77,3.5-3.84,8.56-4.84,14.88-.95,6.03-.62,11.19-.06,14.91,4.93,1.48,11.01,2.8,18.04,3.3,3.13.22,8.67.43,15.52-.35,6.87-.79,12.57-2.28,16.81-3.69Z"/>
            <path class="cls-2" d="M83.66,92.26c.18-1.03,1.63-1.57,1.76-2.81.11-1.08-1.31-2.32-1.28-3.54.02-1.1,1.51-2.27,1.44-3.48-.06-1.11-1.66-2.11-1.82-3.3-.2-1.47,1.01-3.15.7-4.49-.34-1.46-2.18-2.43-2.61-3.71-.49-1.45.38-3.33-.16-4.54-.64-1.45-2.05-1.68-2.66-2.78-5.03-.41-5-1.39-10.05-1.28s-5.01,1.61-10.06,1.72-5.08-1.39-10.13-1.28-4.98,1.11-9.99,1.71c-.53,1.05-1.87,1.21-2.42,2.54-.47,1.13.48,2.88.04,4.2-.39,1.19-2.19,2.04-2.51,3.37-.3,1.23.91,2.8.7,4.15-.2,1.28-1.84,2.34-1.93,3.54-.11,1.3,1.34,2.61,1.34,3.8,0,1.32-1.46,2.63-1.37,3.79.1,1.36,1.52,2.01,1.68,3.12,1.39.42,2.16,2.08,3.73,2.46,1.43.34,3.24-.8,4.8-.52,1.46.27,2.74,1.98,4.31,2.18,1.48.19,3.15-1.15,4.72-1.04,1.04.07,2.28,1.64,3.81,1.68,1.17.03,2.47-1.47,3.89-1.5,1.21-.03,2.58,1.41,3.95,1.32,1.23-.08,2.39-1.69,3.74-1.85,1.48-.17,3.11,1.11,4.48.89,1.48-.25,2.61-1.99,3.95-2.29,1.48-.32,3.24.78,4.55.43,1.5-.41,2.14-2.08,3.39-2.5Z"/>
          </g>
          <path class="cls-11" d="M67.4,98.48c0,.5,0,1-.02,1.51,0,.15,0,.3,0,.44,0,.12,0,.24,0,.35-.55.57-3.05,3.03-6.99,3.18-5.01.19-8.11-3.5-8.53-4.02,0-.01-.01-.02-.02-.03-.01-.36-.03-.73-.03-1.1-.06-1.89-.1-3.95-.17-5.79,0-.1,0-10.2,0-10.3l15.63.35c.01.19.02,10.37.03,10.56.08,1.59.12,3.21.12,4.85Z"/>
          <path class="cls-11" d="M43.3,68.34c-.18,2.36-.19,5.8.71,9.81.51,2.27,1.01,4.51,2.51,7.07.66,1.13,4.29,7.31,11.14,8.5.59.1,1.38.24,2.36.23.84-.02,1.53-.14,2.05-.23,6.85-1.2,10.47-7.38,11.14-8.5,1.5-2.56,2-4.8,2.51-7.07.9-4,.89-7.44.71-9.81"/>
          <path class="cls-9" d="M38.99,59.1c.32-1.82,1.71-8.42,7.57-12.5,4.27-2.97,8.68-3.06,12.46-3.13,4.31-.09,9.45-.19,13.95,3.39,4.62,3.68,5.77,9.02,6.09,11.01"/>
          <path class="cls-9" d="M37.06,64.47c.06.64.64,1.09,1.28,1,6.33-.84,13.37-1.47,21.02-1.7,7.4-.22,14.24-.01,20.43.42.65.05,1.21-.46,1.21-1.12,0-.49-.01-1.02-.06-1.58-.09-1.05-.27-1.98-.47-2.77-.12-.47-.53-.8-1.01-.84-6.13-.44-12.87-.64-20.11-.43-7.58.22-14.54.86-20.77,1.7-.4.05-.75.32-.9.7-.23.6-.46,1.35-.58,2.23-.12.9-.11,1.71-.04,2.38Z"/>
          <g>
            <line class="cls-5" x1="74.66" y1="63.91" x2="74.14" y2="57.59"/>
            <line class="cls-5" x1="68.43" y1="63.72" x2="68.08" y2="57.4"/>
            <line class="cls-5" x1="62.22" y1="63.72" x2="62.07" y2="57.4"/>
            <line class="cls-5" x1="56.06" y1="57.58" x2="56.01" y2="63.9"/>
            <line class="cls-5" x1="50.04" y1="57.95" x2="49.79" y2="64.28"/>
            <line class="cls-5" x1="44.01" y1="58.5" x2="43.54" y2="64.85"/>
          </g>
          <path class="cls-5" d="M61.03,83.31c-.09.06-.42.24-1.03.31-.16.02-.65.07-1.21-.03,0,0-.01,0-.02,0-.52-.1-.88-.52-.87-.99.02-.54.08-1.13.2-1.77.26-1.36.72-2.48,1.15-3.31"/>
          <path class="cls-5" d="M55.3,88.52s2.56,1.14,4.13,1.31c2.62.29,4.6-1.28,4.6-1.28"/>
          <path class="cls-8" d="M78.5,66.14v3.17c-.96,1.53-1.68,1.85-2.18,1.81-.97-.08-1.14-1.47-2.33-1.74-1.14-.26-1.49.91-2.97,1.03-2,.17-2.66-1.86-4.52-1.62-1.42.18-1.57,1.42-2.97,1.41-1.25-.01-1.44-1.01-2.76-1.15-1.54-.16-1.83,1.15-3.53,1.31-2.14.2-2.66-1.68-4.78-1.5-1.86.15-2.07,1.64-3.66,1.5-1.83-.16-2.53-2.04-3.73-1.7-1.06.3-1.05,1.93-2.02,2.11-.73.13-1.51-.66-2.12-1.48l-.29-1.8"/>
          <g>
            <path class="cls-5" d="M71.08,72.21c-.67-.17-1.61-.33-2.73-.27-1.44.08-2.56.5-3.26.82"/>
            <path class="cls-5" d="M48.7,72.21c.67-.17,1.61-.33,2.73-.27,1.44.08,2.56.5,3.26.82"/>
          </g>
          <g>
            <g>
              <ellipse class="cls-4" cx="67.62" cy="76.66" rx="1.12" ry="1.8"/>
              <path class="cls-3" d="M64.03,76.57c.42-.41.96-.83,1.63-1.16,2.9-1.39,5.97.1,6.52.38-.1.23-.23.48-.4.76-.22.35-.46.62-.66.83"/>
            </g>
            <g>
              <ellipse class="cls-4" cx="52.12" cy="76.66" rx="1.12" ry="1.8"/>
              <path class="cls-3" d="M55.71,76.57c-.42-.41-.96-.83-1.63-1.16-2.9-1.39-5.97.1-6.52.38.1.23.23.48.4.76.22.35.46.62.66.83"/>
            </g>
          </g>
        </g>
        <g>
          <polygon class="cls-14" points="20.74 58.12 60.45 56.66 99.57 54.96 98.43 28.24 96.52 1.04 56.65 2.75 16.76 3.64 18.46 30.88 20.74 58.12"/>
          <polygon class="cls-1" points="20.74 58.12 60.45 56.66 99.57 54.96 98.43 28.24 96.52 1.04 56.65 2.75 16.76 3.64 18.46 30.88 20.74 58.12"/>
        </g>
        <g>
          <g>
            <path class="cls-9" d="M114.58,70.69c-.59-2.79-1.25-5.84-1.98-9.18-1.26-5.78-2.37-10.79-3.23-14.68-.22-.98-.52-1.93-.91-2.84-.39-.92-1.26-2.89-3.12-4.75-.59-.59-5.59-3.65-7.75-3.84-1.28-.11-4.13.3-4.99,1.26-.42.47-.3,1.88-.34,2.51-.03.51-.12,1.56,0,2.06.07.31.52.83.57,1.14.07.43-.48,1.36-.23,1.71.34.49,1.77.31,2.33.51,1.16.42,3.71,1.22,4.39,2.25.73,1.11.17,2.76,1.46,5.12.53.98,1.2,1.66,1.67,2.07.63,6.79.87,12.36.97,16.25.16,6.19-.01,5.84.39,10.71.38,4.61,1.05,6.85,1.7,10.91-3.56,4.15-10.17,6.57-14,7.72-3.41,1.02-11.12,2.88-13.61,4.19l-1.77,18.06c1.58-1.32,5.46-3.28,7.44-4.45,3.99-2.37,18.62-6.91,22.67-9.19,2.74-1.54,7.78-4.96,9.54-8.17,3.69-6.75,3.02-9.68-1.15-29.37Z"/>
            <path class="cls-9" d="M105.33,39.25c-1.05-.97-5.93-5.13-7.43-5.39-1.08-.19-3.25.4-4.34.49-.91.08-2.85.16-3.59.71-.35.26-1.02,1.17-.82,1.56.36.73,2.4.58,3.21.57,1.27-.02,6.3,7.38,6.49,6.13"/>
            <path class="cls-9" d="M100.05,38.19c-1.12-.55-2.33-1.4-3.45-1.53s-4.1.22-5.15.52c-.88.25-2.85.16-3.59.71-.35.26-1.03,1.17-.82,1.56.38.72,2.4.61,3.21.57,1.32-.06,6.16-.32,6.16-.32"/>
            <path class="cls-9" d="M99.73,41.2c-1.3-.84-2.41-1.41-3.31-1.51-1.09-.11-3.25.4-4.34.49-.91.08-2.85.16-3.59.71-.35.26-1.02,1.17-.82,1.56.36.73,2.4.63,3.21.57,1.32-.1,3.96-.59,5.29-.49.98.07,2.19.54,3.7,1.3"/>
            <path class="cls-9" d="M99.87,43.83c-2.61-1.33-2.71-1.59-4.25-1.46-1,.09-4.86.66-5.46,1.47-.23.31-.95.97-.79,1.32.34.74,2.4.62,3.22.56,1.16-.08,3.51-.64,4.65-.38.61.14,1.67.98,2.08,1.37"/>
          </g>
          <g>
            <path class="cls-9" d="M4.56,70.69c.59-2.79,1.25-5.84,1.98-9.18,1.26-5.78,2.37-10.79,3.23-14.68.22-.98.52-1.93.91-2.84.39-.92,1.26-2.89,3.12-4.75.59-.59,5.59-3.65,7.75-3.84,1.28-.11,4.13.3,4.99,1.26.42.47.3,1.88.34,2.51.03.51.12,1.56,0,2.06-.07.31-.52.83-.57,1.14-.07.43.48,1.36.23,1.71-.34.49-1.77.31-2.33.51-1.16.42-3.71,1.22-4.39,2.25-.73,1.11-.17,2.76-1.46,5.12-.53.98-1.2,1.66-1.67,2.07-.63,6.79-.87,12.36-.97,16.25-.16,6.19.01,5.84-.39,10.71-.38,4.61-1.05,6.85-1.7,10.91,3.56,4.15,10.17,6.57,14,7.72,3.41,1.02,11.12,2.88,13.61,4.19l1.77,18.06c-1.58-1.32-5.46-3.28-7.44-4.45-3.99-2.37-18.62-6.91-22.67-9.19-2.74-1.54-7.78-4.96-9.54-8.17-3.69-6.75-3.02-9.68,1.15-29.37Z"/>
            <path class="cls-9" d="M13.82,39.25c1.05-.97,5.93-5.13,7.43-5.39,1.08-.19,3.25.4,4.34.49.91.08,2.85.16,3.59.71.35.26,1.02,1.17.82,1.56-.36.73-2.4.58-3.21.57-1.27-.02-6.3,7.38-6.49,6.13"/>
            <path class="cls-9" d="M19.1,38.19c1.12-.55,2.33-1.4,3.45-1.53s4.1.22,5.15.52c.88.25,2.85.16,3.59.71.35.26,1.03,1.17.82,1.56-.38.72-2.4.61-3.21.57-1.32-.06-6.16-.32-6.16-.32"/>
            <path class="cls-9" d="M19.42,41.2c1.3-.84,2.41-1.41,3.31-1.51,1.09-.11,3.25.4,4.34.49.91.08,2.85.16,3.59.71.35.26,1.02,1.17.82,1.56-.36.73-2.4.63-3.21.57-1.32-.1-3.96-.59-5.29-.49-.98.07-2.19.54-3.7,1.3"/>
            <path class="cls-9" d="M19.28,43.83c2.61-1.33,2.71-1.59,4.25-1.46,1,.09,4.86.66,5.46,1.47.23.31.95.97.79,1.32-.34.74-2.4.62-3.22.56-1.16-.08-3.51-.64-4.65-.38-.61.14-1.67.98-2.08,1.37"/>
          </g>
        </g>
        <path class="cls-10" d="M96.05,113.64c.06,3.73.35,7.18.77,10.32-2.72-.03-7.47.31-9.47,3.42-.77,1.2-.85,2.38-.92,3.42-.77,10.56-2.59,21.41-2.26,25.46.02.23.1,1.08.02,2.22-.06.96-.21,1.75-.33,2.28-4-1.05-13.92-2.8-24.39-2.84h-.76c-10.47.04-20.39,1.79-24.39,2.84-.13-.58-.27-1.36-.33-2.28-.06-.94-.02-1.64,0-1.85.26-4.36-.76-16.93-1.9-26.29-.11-.92-.26-2.01-1-3.11-2.14-3.17-7.08-3.36-9.72-3.26.41-3.14.7-6.59.77-10.32.12-7.08-1.58-17.12-1.58-17.12,0,0,15.53,4.75,18.82,4.4.31-.03,1.25-.15,2.89-.32,3.96-.39,7.25-.57,9.58-.66.33.41,3.65,4.35,8.53,4.02.56-.04,3.87-.27,6.13-2.79.41-.45.69-.88.87-1.19,2.23.1,5.14.28,8.54.62,1.64.17,2.58.29,2.89.32,3.29.35,18.81-4.4,18.81-4.4,0,0-1.7,10.04-1.57,17.12Z"/>
        <path class="cls-7" d="M87.04,191.87c-5.17,2.3-15.61,6.16-29.35,5.89-12.2-.24-21.51-3.64-26.55-5.89,0-1.29.14-3.11.79-5.17.5-1.57,1.15-2.83,1.72-3.77,4.59,2.24,13.06,5.64,24.17,5.89,12.5.27,22.01-3.59,26.72-5.89.63,1.14,1.33,2.68,1.83,4.58.45,1.67.62,3.17.67,4.37Z"/>
        <path class="cls-3" d="M49.24,144.47c1.25-.49,4.4-1.58,8.7-1.49,5.55.12,9.18,2.13,10.15,2.69l.65.39c-.55-.14-1.1-.29-1.1-.29-.96-.25-2.12-.49-3.48-.65-2.67-.32-4.96-.18-6.52,0"/>
      </g>
    </g>
  </g>
</svg>