<?xml version="1.0" encoding="UTF-8"?>
<svg id="Calque_2" data-name="Calque 2" xmlns="http://www.w3.org/2000/svg" viewBox="0 0 77.99 95.05">
  <defs>
    <style>
      .cls-1, .cls-2, .cls-3, .cls-4, .cls-5, .cls-6, .cls-7, .cls-8, .cls-9 {
        stroke-linecap: round;
      }

      .cls-1, .cls-2, .cls-3, .cls-7, .cls-10, .cls-11, .cls-12, .cls-9 {
        fill: none;
      }

      .cls-1, .cls-2, .cls-4, .cls-5, .cls-6, .cls-8, .cls-13, .cls-11, .cls-12, .cls-9 {
        stroke: #fe4f02;
      }

      .cls-1, .cls-5, .cls-6, .cls-8, .cls-13, .cls-11, .cls-12, .cls-9 {
        stroke-miterlimit: 10;
      }

      .cls-2, .cls-3, .cls-4, .cls-7 {
        stroke-linejoin: round;
      }

      .cls-14, .cls-4, .cls-5 {
        fill: #fe4f02;
      }

      .cls-3, .cls-10 {
        stroke: #fe4f02;
      }

      .cls-5, .cls-8, .cls-10, .cls-12, .cls-9 {
        stroke-width: 2px;
      }

      .cls-6, .cls-15, .cls-8, .cls-13 {
        fill: #fff;
      }

      .cls-7 {
        stroke: #fff;
        stroke-width: 16px;
      }
    </style>
  </defs>
  <g id="ILLU_3">
    <g>
      <g>
        <g>
          <path class="cls-7" d="M67.89,13.75c-1.25-2.9-4.45-4.81-7.69-4.27-2.98.49-5.33,2.92-5.72,5.36-.47,2.89,2.14,3.93,1.53,6.86-.48,2.32-2.31,2.57-2.88,5.16-.02.09-.04.18-.05.28-.23,1.35-.2,3.64,1,4.25,1.17.59,2.98-.63,3.94-1.65,1.88-2,.87-3.62,2.43-5.44,1.84-2.15,4.04-.83,6.11-2.86,1.76-1.71,2.51-4.94,1.33-7.69Z"/>
          <path class="cls-7" d="M56.71,80.16l-.1.23c-.11-.44-.32-.99-.78-1.47-.88-.9-2.08-.99-2.75-.96-.7-1.48-2.44-2.67-3.48-2.33-.42.14-.72.53-.92.99-.28.61-.41,1.33-.47,1.69,0,.02,0,.03,0,.04l-.05.2s0-.95.91-4.24c.26-.93.52-1.8.76-2.58.22.02.42.02.61-.04.63-.17,1.02-.69,1.42-1.21.36-.46.7-.92,1.2-1.08.08-.4.41-.67.78-.95.41-.34.86-.68.92-1.21.05-.44-.28-.94-.62-1.45-.33-.5-.66-1-.64-1.49.02-.45.41-.9.8-1.36.39-.46.78-.93.77-1.42,0-.46-.39-.9-.79-1.36-.39-.45-.78-.9-.82-1.39-.03-.45.29-.95.63-1.45.32-.5.65-1.02.58-1.51-.08-.6-.54-1.12-1.01-1.63-.47-.51-.96-1.01-1.07-1.57-.13-.59.1-1.26.32-1.91.22-.66.43-1.3.27-1.85-.17-.59-.71-1.04-1.25-1.47-.54-.44-1.09-.85-1.29-1.37-.22-.57-.11-1.27.02-1.95.11-.69.23-1.36,0-1.85-.32-.7-.92-.96-1.45-1.27-.11-.05-.2-.11-.3-.18.07,0,.14,0,.2.02h0c.66.05,1.22-.47,1.23-1.14,0-.5,0-1.05-.06-1.62-.09-1.07-.27-2.02-.48-2.83-.12-.47-.54-.81-1.03-.85-.14,0-.27-.02-.41-.03-.32-2.02-1.5-7.47-6.22-11.23-4.58-3.65-9.83-3.55-14.23-3.46-3.86.08-8.36.17-12.72,3.19-5.99,4.16-7.4,10.89-7.73,12.76-.14.02-.28.03-.42.05-.41.06-.76.32-.91.72-.24.6-.47,1.37-.6,2.28-.12.92-.11,1.75-.04,2.43.05.49.4.87.85.99.14.05.29.06.44.04-.03.53-.1,1.04-.26,1.42-.2.47-.74.81-1.29,1.15,0,0,0,0,0,0-.55.36-1.09.74-1.29,1.27-.17.49.02,1.11.21,1.73h0c.2.63.38,1.25.23,1.78-.14.5-.65.9-1.15,1.33h0c-.5.44-.99.87-1.11,1.41-.11.5.15,1.09.41,1.69.27.6.54,1.21.46,1.75-.08.52-.53.98-.96,1.44-.44.45-.87.9-.91,1.4-.05.53.28,1.07.63,1.6.34.53.69,1.05.68,1.54-.02.53-.41,1.04-.78,1.55-.38.5-.75,1-.74,1.49.02.54.41,1.04.82,1.53.41.48.81.96.86,1.44.05.59-.26,1.33-.54,2.03-.23.6-.44,1.17-.38,1.6.55.17,1.28.04,2.03-.11.81-.16,1.65-.32,2.31-.16.59.15,1.1.66,1.62,1.16.53.51,1.06,1.01,1.7,1.15.6.12,1.27-.14,1.95-.4.69-.26,1.38-.51,2.01-.41.6.1,1.15.56,1.72,1.02.57.46,1.15.91,1.79.99.61.08,1.26-.24,1.92-.56.6-.29,1.21-.6,1.8-.6,0,.26.02.5.02.75,0,.38.02.76.04,1.12h0c-3.11.67-6.49,1.17-10.14,2.4-3.49,1.18-6.63,2.47-9.4,3.76,3.12,2.16,7.73,4.79,13.75,6.45,10.92,3.02,20.23,1.14,24.72-.11.31.66.63,1.28.95,1.88.35.5.85,1.15,1.57,1.76.99.84,1.96,1.29,2.63,1.52l.57.11c.41.39,1.15.99,2.22,1.34,1.86.6,3.47.03,4.06-.19,1.62-.6,2.58-1.72,4.45-3.95.43-.47.96-1.09,1.55-1.87.31-.35.96-1.13,1.42-2.19.35-.78.6-1.71.53-2.73-.04-.58-.11-1.41-.73-2.15-.71-.82-1.67-1-2-1.05ZM36.41,76.03c0-.12,0-.23,0-.35,0-.41.02-.83.02-1.24.02,0,.05,0,.08,0,.6-.07,1.15-.51,1.67-.96.53-.45,1.05-.9,1.62-.99.6-.09,1.25.18,1.89.44.65.27,1.28.53,1.84.42.6-.11,1.1-.61,1.6-1.1.15-.15.3-.3.45-.44-.04.12-.07.23-.1.36-.44,1.6-.86,3.39-1.24,5.34l-7.64-1.46h-.19Z"/>
        </g>
        <g>
          <line class="cls-7" x1="36.6" y1="76.04" x2="46" y2="77.85"/>
          <g>
            <path class="cls-7" d="M60.2,9.47c-2.98.49-5.33,2.93-5.72,5.36-.47,2.9,2.14,3.93,1.53,6.86-.5,2.4-2.43,2.58-2.93,5.44-.23,1.35-.21,3.63,1,4.24,1.17.59,2.97-.62,3.94-1.65,1.88-2,.87-3.62,2.43-5.44,1.84-2.15,4.04-.83,6.11-2.85,1.75-1.71,2.51-4.94,1.33-7.69-1.24-2.9-4.45-4.81-7.69-4.27Z"/>
            <path class="cls-7" d="M55.89,22.8c.44-.01,1.24.03,2.13.41.95.41,1.55,1.02,1.84,1.36"/>
            <path class="cls-7" d="M54.23,24.89c.55-.01,1.55.03,2.67.52,1.19.52,1.94,1.28,2.3,1.71"/>
            <path class="cls-7" d="M52.86,26.85c.55-.01,1.55.03,2.67.52,1.19.52,1.94,1.28,2.3,1.71"/>
            <g>
              <line class="cls-7" x1="45.77" y1="15.91" x2="49.95" y2="16.1"/>
              <line class="cls-7" x1="50.83" y1="5.08" x2="53.65" y2="8.17"/>
              <line class="cls-7" x1="62.07" y1="1" x2="61.88" y2="5.18"/>
              <line class="cls-7" x1="72.91" y1="6.06" x2="69.82" y2="8.89"/>
              <line class="cls-7" x1="76.99" y1="17.31" x2="72.81" y2="17.12"/>
              <line class="cls-7" x1="71.92" y1="28.14" x2="69.1" y2="25.05"/>
            </g>
            <path class="cls-7" d="M57.34,22.97c3.29-7.68,3.88-10.23,3.37-10.51-.59-.32-3.23,2.03-2.84,4.15.38,2.04,3.52,3.59,5.42,2.7,2.06-.97,2.38-4.72,1.8-4.97-.5-.22-2.13,1.87-6.22,9.35"/>
          </g>
          <path class="cls-7" d="M20.55,75.16c-3.11.67-6.49,1.17-10.14,2.4-3.49,1.18-6.63,2.47-9.4,3.76"/>
          <g>
            <path class="cls-7" d="M53.58,69.92c.63-3.53,1.07-8.37.31-14.03-.97-7.23-3.5-12.87-5.52-16.5l-41.2.88c-1.81,3.57-3.92,8.74-4.94,15.19-.97,6.16-.63,11.42-.07,15.21,5.03,1.51,11.24,2.86,18.41,3.36,3.2.22,8.84.44,15.84-.36,7.01-.8,12.83-2.33,17.16-3.76Z"/>
            <path class="cls-7" d="M53.05,69.4c.19-1.05,1.64-1.61,1.77-2.88.11-1.1-1.31-2.36-1.28-3.61.03-1.12,1.51-2.32,1.44-3.55-.06-1.13-1.66-2.16-1.82-3.37-.2-1.51,1-3.21.68-4.58-.35-1.49-2.2-2.49-2.64-3.8-.5-1.48.36-3.38-.19-4.62-.66-1.48-2.07-1.74-2.7-2.85-5.13-.42-5.1-1.39-10.25-1.28s-5.12,1.61-10.26,1.72-5.18-1.39-10.33-1.28-5.08,1.11-10.2,1.72c-.54,1.07-1.9,1.26-2.45,2.61-.48,1.16.46,2.93.02,4.28-.39,1.21-2.21,2.09-2.53,3.45-.3,1.25.9,2.86.69,4.23-.21,1.31-1.84,2.4-1.94,3.62-.11,1.33,1.34,2.67,1.34,3.88,0,1.35-1.45,2.68-1.37,3.87.1,1.38,1.52,2.06,1.69,3.2,1.42.42,2.22,2.1,3.82,2.49,1.46.35,3.3-.79,4.9-.5,1.49.27,2.8,1.99,4.41,2.2,1.51.19,3.21-1.15,4.82-1.03,1.06.07,2.32,1.65,3.89,1.68,1.19.03,2.52-1.47,3.97-1.5,1.24-.03,2.63,1.41,4.03,1.32,1.26-.09,2.44-1.7,3.82-1.85,1.51-.17,3.17,1.11,4.57.87,1.51-.25,2.67-2,4.04-2.3,1.51-.33,3.3.77,4.63.4,1.53-.42,2.2-2.1,3.48-2.52Z"/>
          </g>
          <path class="cls-7" d="M20.33,67.82c.08,2.31.13,5.03.21,7.34.33.42,3.52,4.33,8.73,4.13,4.03-.16,6.57-2.66,7.13-3.24,0-.12,0-.24,0-.36.06-2.55.01-5.06-.13-7.52l-15.95-.35Z"/>
          <path class="cls-7" d="M11.85,44.98c-.18,2.41-.19,5.92.73,10.01.52,2.31,1.04,4.6,2.57,7.21.67,1.15,4.37,7.45,11.36,8.68.6.1,1.41.24,2.41.23.86-.02,1.56-.14,2.1-.23,6.99-1.22,10.69-7.53,11.36-8.68,1.53-2.61,2.05-4.9,2.57-7.21.92-4.08.91-7.6.73-10.01"/>
          <path class="cls-7" d="M7.46,35.55c.33-1.86,1.74-8.59,7.73-12.76,4.36-3.03,8.86-3.12,12.71-3.19,4.4-.09,9.64-.19,14.23,3.46,4.72,3.75,5.89,9.21,6.21,11.23"/>
          <path class="cls-7" d="M5.48,41.03c.07.65.66,1.11,1.3,1.02,6.45-.86,13.64-1.5,21.45-1.73,7.55-.22,14.53-.01,20.85.43.67.05,1.23-.47,1.24-1.14,0-.5-.01-1.04-.06-1.62-.09-1.07-.27-2.02-.48-2.83-.12-.48-.54-.82-1.03-.85-6.26-.45-13.13-.66-20.52-.44-7.74.22-14.84.87-21.2,1.73-.41.06-.76.32-.92.71-.24.61-.47,1.38-.59,2.28-.13.92-.11,1.75-.04,2.43Z"/>
          <g>
            <line class="cls-7" x1="43.86" y1="40.45" x2="43.33" y2="34"/>
            <line class="cls-7" x1="37.49" y1="40.26" x2="37.14" y2="33.82"/>
            <line class="cls-7" x1="31.16" y1="40.26" x2="31" y2="33.81"/>
            <line class="cls-7" x1="24.87" y1="33.99" x2="24.82" y2="40.45"/>
            <line class="cls-7" x1="18.73" y1="34.37" x2="18.48" y2="40.84"/>
            <line class="cls-7" x1="12.58" y1="34.93" x2="12.1" y2="41.41"/>
          </g>
          <path class="cls-7" d="M29.95,60.25c-.1.06-.43.25-1.05.32-.16.02-.66.07-1.23-.03,0,0-.01,0-.02,0-.53-.1-.9-.53-.88-1.02.02-.55.08-1.16.2-1.81.27-1.39.74-2.53,1.18-3.38"/>
          <path class="cls-7" d="M28.59,64.31c-.72-.02-1.4.53-1.45,1.25-.04.61.38,1.16.89,1.34.85.3,1.96-.44,1.94-1.31-.01-.64-.63-1.26-1.38-1.28Z"/>
          <path class="cls-7" d="M47.77,42.73v3.23c-.98,1.56-1.71,1.88-2.23,1.84-.99-.08-1.17-1.5-2.38-1.78-1.16-.26-1.52.92-3.03,1.05-2.04.18-2.71-1.9-4.61-1.66-1.45.18-1.61,1.45-3.03,1.44-1.27-.01-1.47-1.03-2.82-1.17-1.58-.17-1.87,1.17-3.61,1.34-2.18.2-2.71-1.71-4.87-1.54-1.9.16-2.12,1.68-3.74,1.54-1.87-.16-2.58-2.08-3.81-1.74-1.08.3-1.07,1.97-2.06,2.15-.75.13-1.54-.67-2.16-1.51l-.3-1.84"/>
          <g>
            <path class="cls-7" d="M16.66,49.96c.64-.35,1.55-.76,2.72-1,1.5-.31,2.77-.2,3.58-.07"/>
            <path class="cls-7" d="M40.86,49.74c-.61-.35-1.49-.76-2.61-1-1.44-.31-2.66-.2-3.43-.07"/>
          </g>
          <g>
            <g>
              <path class="cls-7" d="M48.14,78.53s0-.95.92-4.24c.82-2.97,1.66-5.35,1.92-6.07,1.51-4.26,2.32-5.73,1.59-7.46-.15-.36-.57-1.35-1.24-1.41-1.47-.15-3.02,4.14-4.16,7.36-.96,2.73-2.17,6.66-3.09,11.64l-.47,1.82-1.44,2.13c-.19.21-.37.42-.56.63-.18-.08-.86-.34-1.66-.08-.18.06-.83.28-1.22.94-.58.96-.12,2-.08,2.11.25.58.52,1.17.82,1.78.32.65.63,1.28.95,1.87.34.51.85,1.15,1.58,1.77.99.84,1.96,1.28,2.63,1.52l.57.11c.41.39,1.14.99,2.21,1.34,1.86.6,3.48.03,4.07-.18,1.62-.6,2.58-1.72,4.45-3.95.81-.97,1.87-2.32,2.98-4.06"/>
              <path class="cls-7" d="M38.65,85.89c.48.47.97.94,1.45,1.41.86.89,1.73,1.85,2.61,2.88.52.61,1.01,1.21,1.48,1.81.45.47,1.03.67,1.51.51.44-.15.65-.57.71-.69.31-.64.1-1.34-.58-2.93-.77-1.83-1.16-2.74-1.58-3.34-.78-1.12-1.67-1.94-2.44-2.52"/>
              <g>
                <g>
                  <path class="cls-7" d="M46.41,73.17c.05.11.2.36.5.54.41.23.81.16.91.13"/>
                  <path class="cls-7" d="M47.97,68.36c.05.11.2.36.5.54.41.23.81.16.91.13"/>
                  <path class="cls-7" d="M45.14,82.67c.12-.02.45-.04.89.15.6.26.99.72,1.09.83l2.87,2.89,1.2,1.32"/>
                </g>
                <g>
                  <path class="cls-7" d="M46.41,73.17c.05.11.2.36.5.54.41.23.81.16.91.13"/>
                  <path class="cls-7" d="M47.97,68.36c.05.11.2.36.5.54.41.23.81.16.91.13"/>
                  <path class="cls-7" d="M45.14,82.67c.12-.02.45-.04.89.15.6.26.99.72,1.09.83l2.87,2.89,1.2,1.32"/>
                </g>
                <g>
                  <path class="cls-7" d="M46.41,73.17c.05.11.2.36.5.54.41.23.81.16.91.13"/>
                  <path class="cls-7" d="M47.97,68.36c.05.11.2.36.5.54.41.23.81.16.91.13"/>
                  <path class="cls-7" d="M45.14,82.67c.12-.02.45-.04.89.15.6.26.99.72,1.09.83l2.87,2.89,1.2,1.32"/>
                </g>
              </g>
              <path class="cls-7" d="M56.7,80.17c.33.05,1.3.23,2,1.05.63.73.69,1.56.73,2.14.15,2.41-1.42,4.32-1.96,4.92-.58.78-1.12,1.4-1.55,1.87-1.03,1.12-1.63,1.57-2.37,1.77-.63.17-.87.04-.92,0-.43-.28-.5-1.1-.17-2.1"/>
              <path class="cls-7" d="M52.26,81.86c-.76.99-.36,1.09-.72,1.75-.56,1.03-1.19,2.22-1.4,3.84-.1.72-.31,2.3.4,2.7.42.24.99-.04,1.26-.17,1.36-.67,1.59-1.88,2.86-4.31,1.41-2.71,2.15-3.18,2.05-4.6-.03-.36-.11-1.37-.88-2.16-1.2-1.22-2.99-.96-3.22-.93l-3.93-1.38-.53,1.92"/>
              <path class="cls-7" d="M50.4,77.85c-.55.8-1.31,2.02-2.03,3.59-.69,1.51-2.54,5.34-1.53,6.15.24.2.59.15.91.1,1.01-.14,1.69-.97,2.14-1.59,1.62-2.25,3.14-5.78,3.45-6.51.02-.13.03-.26.03-.41-.01-1.94-2.47-3.99-3.78-3.55-1.21.41-1.38,2.92-1.45,2.9"/>
            </g>
            <g>
              <path class="cls-7" d="M48.14,78.53s0-.95.92-4.24c.82-2.97,1.66-5.35,1.92-6.07,1.51-4.26,2.32-5.73,1.59-7.46-.15-.36-.57-1.35-1.24-1.41-1.47-.15-3.02,4.14-4.16,7.36-.96,2.73-2.17,6.66-3.09,11.64l-.47,1.82-1.44,2.13c-.19.21-.37.42-.56.63-.18-.08-.86-.34-1.66-.08-.18.06-.83.28-1.22.94-.58.96-.12,2-.08,2.11.25.58.52,1.17.82,1.78.32.65.63,1.28.95,1.87.34.51.85,1.15,1.58,1.77.99.84,1.96,1.28,2.63,1.52l.57.11c.41.39,1.14.99,2.21,1.34,1.86.6,3.48.03,4.07-.18,1.62-.6,2.58-1.72,4.45-3.95.81-.97,1.87-2.32,2.98-4.06"/>
              <path class="cls-7" d="M38.65,85.89c.48.47.97.94,1.45,1.41.86.89,1.73,1.85,2.61,2.88.52.61,1.01,1.21,1.48,1.81.45.47,1.03.67,1.51.51.44-.15.65-.57.71-.69.31-.64.1-1.34-.58-2.93-.77-1.83-1.16-2.74-1.58-3.34-.78-1.12-1.67-1.94-2.44-2.52"/>
              <g>
                <g>
                  <path class="cls-7" d="M46.41,73.17c.05.11.2.36.5.54.41.23.81.16.91.13"/>
                  <path class="cls-7" d="M47.97,68.36c.05.11.2.36.5.54.41.23.81.16.91.13"/>
                  <path class="cls-7" d="M45.14,82.67c.12-.02.45-.04.89.15.6.26.99.72,1.09.83l2.87,2.89,1.2,1.32"/>
                </g>
                <g>
                  <path class="cls-7" d="M46.41,73.17c.05.11.2.36.5.54.41.23.81.16.91.13"/>
                  <path class="cls-7" d="M47.97,68.36c.05.11.2.36.5.54.41.23.81.16.91.13"/>
                  <path class="cls-7" d="M45.14,82.67c.12-.02.45-.04.89.15.6.26.99.72,1.09.83l2.87,2.89,1.2,1.32"/>
                </g>
                <g>
                  <path class="cls-7" d="M46.41,73.17c.05.11.2.36.5.54.41.23.81.16.91.13"/>
                  <path class="cls-7" d="M47.97,68.36c.05.11.2.36.5.54.41.23.81.16.91.13"/>
                  <path class="cls-7" d="M45.14,82.67c.12-.02.45-.04.89.15.6.26.99.72,1.09.83l2.87,2.89,1.2,1.32"/>
                </g>
              </g>
              <path class="cls-7" d="M56.7,80.17c.33.05,1.3.23,2,1.05.63.73.69,1.56.73,2.14.15,2.41-1.42,4.32-1.96,4.92-.58.78-1.12,1.4-1.55,1.87-1.03,1.12-1.63,1.57-2.37,1.77-.63.17-.87.04-.92,0-.43-.28-.5-1.1-.17-2.1"/>
              <path class="cls-7" d="M52.26,81.86c-.76.99-.36,1.09-.72,1.75-.56,1.03-1.19,2.22-1.4,3.84-.1.72-.31,2.3.4,2.7.42.24.99-.04,1.26-.17,1.36-.67,1.59-1.88,2.86-4.31,1.41-2.71,2.15-3.18,2.05-4.6-.03-.36-.11-1.37-.88-2.16-1.2-1.22-2.99-.96-3.22-.93l-3.93-1.38-.53,1.92"/>
              <path class="cls-7" d="M50.4,77.85c-.55.8-1.31,2.02-2.03,3.59-.69,1.51-2.54,5.34-1.53,6.15.24.2.59.15.91.1,1.01-.14,1.69-.97,2.14-1.59,1.62-2.25,3.14-5.78,3.45-6.51.02-.13.03-.26.03-.41-.01-1.94-2.47-3.99-3.78-3.55-1.21.41-1.38,2.92-1.45,2.9"/>
            </g>
            <g>
              <path class="cls-7" d="M48.14,78.53s0-.95.92-4.24c.82-2.97,1.66-5.35,1.92-6.07,1.51-4.26,2.32-5.73,1.59-7.46-.15-.36-.57-1.35-1.24-1.41-1.47-.15-3.02,4.14-4.16,7.36-.96,2.73-2.17,6.66-3.09,11.64l-.47,1.82-1.44,2.13c-.19.21-.37.42-.56.63-.18-.08-.86-.34-1.66-.08-.18.06-.83.28-1.22.94-.58.96-.12,2-.08,2.11.25.58.52,1.17.82,1.78.32.65.63,1.28.95,1.87.34.51.85,1.15,1.58,1.77.99.84,1.96,1.28,2.63,1.52l.57.11c.41.39,1.14.99,2.21,1.34,1.86.6,3.48.03,4.07-.18,1.62-.6,2.58-1.72,4.45-3.95.81-.97,1.87-2.32,2.98-4.06"/>
              <path class="cls-7" d="M38.65,85.89c.48.47.97.94,1.45,1.41.86.89,1.73,1.85,2.61,2.88.52.61,1.01,1.21,1.48,1.81.45.47,1.03.67,1.51.51.44-.15.65-.57.71-.69.31-.64.1-1.34-.58-2.93-.77-1.83-1.16-2.74-1.58-3.34-.78-1.12-1.67-1.94-2.44-2.52"/>
              <g>
                <g>
                  <path class="cls-7" d="M46.41,73.17c.05.11.2.36.5.54.41.23.81.16.91.13"/>
                  <path class="cls-7" d="M47.97,68.36c.05.11.2.36.5.54.41.23.81.16.91.13"/>
                  <path class="cls-7" d="M45.14,82.67c.12-.02.45-.04.89.15.6.26.99.72,1.09.83l2.87,2.89,1.2,1.32"/>
                </g>
                <g>
                  <path class="cls-7" d="M46.41,73.17c.05.11.2.36.5.54.41.23.81.16.91.13"/>
                  <path class="cls-7" d="M47.97,68.36c.05.11.2.36.5.54.41.23.81.16.91.13"/>
                  <path class="cls-7" d="M45.14,82.67c.12-.02.45-.04.89.15.6.26.99.72,1.09.83l2.87,2.89,1.2,1.32"/>
                </g>
                <g>
                  <path class="cls-7" d="M46.41,73.17c.05.11.2.36.5.54.41.23.81.16.91.13"/>
                  <path class="cls-7" d="M47.97,68.36c.05.11.2.36.5.54.41.23.81.16.91.13"/>
                  <path class="cls-7" d="M45.14,82.67c.12-.02.45-.04.89.15.6.26.99.72,1.09.83l2.87,2.89,1.2,1.32"/>
                </g>
              </g>
              <path class="cls-7" d="M56.7,80.17c.33.05,1.3.23,2,1.05.63.73.69,1.56.73,2.14.15,2.41-1.42,4.32-1.96,4.92-.58.78-1.12,1.4-1.55,1.87-1.03,1.12-1.63,1.57-2.37,1.77-.63.17-.87.04-.92,0-.43-.28-.5-1.1-.17-2.1"/>
              <path class="cls-7" d="M52.26,81.86c-.76.99-.36,1.09-.72,1.75-.56,1.03-1.19,2.22-1.4,3.84-.1.72-.31,2.3.4,2.7.42.24.99-.04,1.26-.17,1.36-.67,1.59-1.88,2.86-4.31,1.41-2.71,2.15-3.18,2.05-4.6-.03-.36-.11-1.37-.88-2.16-1.2-1.22-2.99-.96-3.22-.93l-3.93-1.38-.53,1.92"/>
              <path class="cls-7" d="M50.4,77.85c-.55.8-1.31,2.02-2.03,3.59-.69,1.51-2.54,5.34-1.53,6.15.24.2.59.15.91.1,1.01-.14,1.69-.97,2.14-1.59,1.62-2.25,3.14-5.78,3.45-6.51.02-.13.03-.26.03-.41-.01-1.94-2.47-3.99-3.78-3.55-1.21.41-1.38,2.92-1.45,2.9"/>
            </g>
          </g>
          <g>
            <g>
              <ellipse class="cls-7" cx="36.67" cy="53.46" rx="1.14" ry="1.84"/>
              <path class="cls-7" d="M33.01,53.37c.43-.42.98-.85,1.66-1.18,2.96-1.42,6.09.1,6.66.39-.1.23-.23.49-.41.77-.23.35-.46.64-.67.85"/>
            </g>
            <g>
              <ellipse class="cls-7" cx="20.85" cy="53.46" rx="1.14" ry="1.84"/>
              <path class="cls-7" d="M24.52,53.37c-.43-.42-.98-.85-1.66-1.18-2.96-1.42-6.09.1-6.66.39.1.23.23.49.41.77.23.35.46.64.67.85"/>
            </g>
          </g>
        </g>
      </g>
      <g>
        <g>
          <path class="cls-15" d="M67.89,13.75c-1.25-2.9-4.45-4.81-7.69-4.27-2.98.49-5.33,2.92-5.72,5.36-.47,2.89,2.14,3.93,1.53,6.86-.48,2.32-2.31,2.57-2.88,5.16-.02.09-.04.18-.05.28-.23,1.35-.2,3.64,1,4.25,1.17.59,2.98-.63,3.94-1.65,1.88-2,.87-3.62,2.43-5.44,1.84-2.15,4.04-.83,6.11-2.86,1.76-1.71,2.51-4.94,1.33-7.69Z"/>
          <path class="cls-15" d="M56.71,80.16l-.1.23c-.11-.44-.32-.99-.78-1.47-.88-.9-2.08-.99-2.75-.96-.7-1.48-2.44-2.67-3.48-2.33-.42.14-.72.53-.92.99-.28.61-.41,1.33-.47,1.69,0,.02,0,.03,0,.04l-.05.2s0-.95.91-4.24c.26-.93.52-1.8.76-2.58.22.02.42.02.61-.04.63-.17,1.02-.69,1.42-1.21.36-.46.7-.92,1.2-1.08.08-.4.41-.67.78-.95.41-.34.86-.68.92-1.21.05-.44-.28-.94-.62-1.45-.33-.5-.66-1-.64-1.49.02-.45.41-.9.8-1.36.39-.46.78-.93.77-1.42,0-.46-.39-.9-.79-1.36-.39-.45-.78-.9-.82-1.39-.03-.45.29-.95.63-1.45.32-.5.65-1.02.58-1.51-.08-.6-.54-1.12-1.01-1.63-.47-.51-.96-1.01-1.07-1.57-.13-.59.1-1.26.32-1.91.22-.66.43-1.3.27-1.85-.17-.59-.71-1.04-1.25-1.47-.54-.44-1.09-.85-1.29-1.37-.22-.57-.11-1.27.02-1.95.11-.69.23-1.36,0-1.85-.32-.7-.92-.96-1.45-1.27-.11-.05-.2-.11-.3-.18.07,0,.14,0,.2.02h0c.66.05,1.22-.47,1.23-1.14,0-.5,0-1.05-.06-1.62-.09-1.07-.27-2.02-.48-2.83-.12-.47-.54-.81-1.03-.85-.14,0-.27-.02-.41-.03-.32-2.02-1.5-7.47-6.22-11.23-4.58-3.65-9.83-3.55-14.23-3.46-3.86.08-8.36.17-12.72,3.19-5.99,4.16-7.4,10.89-7.73,12.76-.14.02-.28.03-.42.05-.41.06-.76.32-.91.72-.24.6-.47,1.37-.6,2.28-.12.92-.11,1.75-.04,2.43.05.49.4.87.85.99.14.05.29.06.44.04-.03.53-.1,1.04-.26,1.42-.2.47-.74.81-1.29,1.15,0,0,0,0,0,0-.55.36-1.09.74-1.29,1.27-.17.49.02,1.11.21,1.73h0c.2.63.38,1.25.23,1.78-.14.5-.65.9-1.15,1.33h0c-.5.44-.99.87-1.11,1.41-.11.5.15,1.09.41,1.69.27.6.54,1.21.46,1.75-.08.52-.53.98-.96,1.44-.44.45-.87.9-.91,1.4-.05.53.28,1.07.63,1.6.34.53.69,1.05.68,1.54-.02.53-.41,1.04-.78,1.55-.38.5-.75,1-.74,1.49.02.54.41,1.04.82,1.53.41.48.81.96.86,1.44.05.59-.26,1.33-.54,2.03-.23.6-.44,1.17-.38,1.6.55.17,1.28.04,2.03-.11.81-.16,1.65-.32,2.31-.16.59.15,1.1.66,1.62,1.16.53.51,1.06,1.01,1.7,1.15.6.12,1.27-.14,1.95-.4.69-.26,1.38-.51,2.01-.41.6.1,1.15.56,1.72,1.02.57.46,1.15.91,1.79.99.61.08,1.26-.24,1.92-.56.6-.29,1.21-.6,1.8-.6,0,.26.02.5.02.75,0,.38.02.76.04,1.12h0c-3.11.67-6.49,1.17-10.14,2.4-3.49,1.18-6.63,2.47-9.4,3.76,3.12,2.16,7.73,4.79,13.75,6.45,10.92,3.02,20.23,1.14,24.72-.11.31.66.63,1.28.95,1.88.35.5.85,1.15,1.57,1.76.99.84,1.96,1.29,2.63,1.52l.57.11c.41.39,1.15.99,2.22,1.34,1.86.6,3.47.03,4.06-.19,1.62-.6,2.58-1.72,4.45-3.95.43-.47.96-1.09,1.55-1.87.31-.35.96-1.13,1.42-2.19.35-.78.6-1.71.53-2.73-.04-.58-.11-1.41-.73-2.15-.71-.82-1.67-1-2-1.05ZM36.41,76.03c0-.12,0-.23,0-.35,0-.41.02-.83.02-1.24.02,0,.05,0,.08,0,.6-.07,1.15-.51,1.67-.96.53-.45,1.05-.9,1.62-.99.6-.09,1.25.18,1.89.44.65.27,1.28.53,1.84.42.6-.11,1.1-.61,1.6-1.1.15-.15.3-.3.45-.44-.04.12-.07.23-.1.36-.44,1.6-.86,3.39-1.24,5.34l-7.64-1.46h-.19Z"/>
        </g>
        <g>
          <line class="cls-9" x1="36.6" y1="76.04" x2="46" y2="77.85"/>
          <g>
            <path class="cls-12" d="M60.2,9.47c-2.98.49-5.33,2.93-5.72,5.36-.47,2.9,2.14,3.93,1.53,6.86-.5,2.4-2.43,2.58-2.93,5.44-.23,1.35-.21,3.63,1,4.24,1.17.59,2.97-.62,3.94-1.65,1.88-2,.87-3.62,2.43-5.44,1.84-2.15,4.04-.83,6.11-2.85,1.75-1.71,2.51-4.94,1.33-7.69-1.24-2.9-4.45-4.81-7.69-4.27Z"/>
            <path class="cls-11" d="M55.89,22.8c.44-.01,1.24.03,2.13.41.95.41,1.55,1.02,1.84,1.36"/>
            <path class="cls-11" d="M54.23,24.89c.55-.01,1.55.03,2.67.52,1.19.52,1.94,1.28,2.3,1.71"/>
            <path class="cls-11" d="M52.86,26.85c.55-.01,1.55.03,2.67.52,1.19.52,1.94,1.28,2.3,1.71"/>
            <g>
              <line class="cls-9" x1="45.77" y1="15.91" x2="49.95" y2="16.1"/>
              <line class="cls-9" x1="50.83" y1="5.08" x2="53.65" y2="8.17"/>
              <line class="cls-9" x1="62.07" y1="1" x2="61.88" y2="5.18"/>
              <line class="cls-9" x1="72.91" y1="6.06" x2="69.82" y2="8.89"/>
              <line class="cls-9" x1="76.99" y1="17.31" x2="72.81" y2="17.12"/>
              <line class="cls-9" x1="71.92" y1="28.14" x2="69.1" y2="25.05"/>
            </g>
            <path class="cls-1" d="M57.34,22.97c3.29-7.68,3.88-10.23,3.37-10.51-.59-.32-3.23,2.03-2.84,4.15.38,2.04,3.52,3.59,5.42,2.7,2.06-.97,2.38-4.72,1.8-4.97-.5-.22-2.13,1.87-6.22,9.35"/>
          </g>
          <path class="cls-9" d="M20.55,75.16c-3.11.67-6.49,1.17-10.14,2.4-3.49,1.18-6.63,2.47-9.4,3.76"/>
          <g>
            <path class="cls-14" d="M53.58,69.92c.63-3.53,1.07-8.37.31-14.03-.97-7.23-3.5-12.87-5.52-16.5l-41.2.88c-1.81,3.57-3.92,8.74-4.94,15.19-.97,6.16-.63,11.42-.07,15.21,5.03,1.51,11.24,2.86,18.41,3.36,3.2.22,8.84.44,15.84-.36,7.01-.8,12.83-2.33,17.16-3.76Z"/>
            <path class="cls-12" d="M53.05,69.4c.19-1.05,1.64-1.61,1.77-2.88.11-1.1-1.31-2.36-1.28-3.61.03-1.12,1.51-2.32,1.44-3.55-.06-1.13-1.66-2.16-1.82-3.37-.2-1.51,1-3.21.68-4.58-.35-1.49-2.2-2.49-2.64-3.8-.5-1.48.36-3.38-.19-4.62-.66-1.48-2.07-1.74-2.7-2.85-5.13-.42-5.1-1.39-10.25-1.28s-5.12,1.61-10.26,1.72-5.18-1.39-10.33-1.28-5.08,1.11-10.2,1.72c-.54,1.07-1.9,1.26-2.45,2.61-.48,1.16.46,2.93.02,4.28-.39,1.21-2.21,2.09-2.53,3.45-.3,1.25.9,2.86.69,4.23-.21,1.31-1.84,2.4-1.94,3.62-.11,1.33,1.34,2.67,1.34,3.88,0,1.35-1.45,2.68-1.37,3.87.1,1.38,1.52,2.06,1.69,3.2,1.42.42,2.22,2.1,3.82,2.49,1.46.35,3.3-.79,4.9-.5,1.49.27,2.8,1.99,4.41,2.2,1.51.19,3.21-1.15,4.82-1.03,1.06.07,2.32,1.65,3.89,1.68,1.19.03,2.52-1.47,3.97-1.5,1.24-.03,2.63,1.41,4.03,1.32,1.26-.09,2.44-1.7,3.82-1.85,1.51-.17,3.17,1.11,4.57.87,1.51-.25,2.67-2,4.04-2.3,1.51-.33,3.3.77,4.63.4,1.53-.42,2.2-2.1,3.48-2.52Z"/>
          </g>
          <path class="cls-6" d="M20.33,67.82c.08,2.31.13,5.03.21,7.34.33.42,3.52,4.33,8.73,4.13,4.03-.16,6.57-2.66,7.13-3.24,0-.12,0-.24,0-.36.06-2.55.01-5.06-.13-7.52l-15.95-.35Z"/>
          <path class="cls-6" d="M11.85,44.98c-.18,2.41-.19,5.92.73,10.01.52,2.31,1.04,4.6,2.57,7.21.67,1.15,4.37,7.45,11.36,8.68.6.1,1.41.24,2.41.23.86-.02,1.56-.14,2.1-.23,6.99-1.22,10.69-7.53,11.36-8.68,1.53-2.61,2.05-4.9,2.57-7.21.92-4.08.91-7.6.73-10.01"/>
          <path class="cls-9" d="M7.46,35.55c.33-1.86,1.74-8.59,7.73-12.76,4.36-3.03,8.86-3.12,12.71-3.19,4.4-.09,9.64-.19,14.23,3.46,4.72,3.75,5.89,9.21,6.21,11.23"/>
          <path class="cls-8" d="M5.48,41.03c.07.65.66,1.11,1.3,1.02,6.45-.86,13.64-1.5,21.45-1.73,7.55-.22,14.53-.01,20.85.43.67.05,1.23-.47,1.24-1.14,0-.5-.01-1.04-.06-1.62-.09-1.07-.27-2.02-.48-2.83-.12-.48-.54-.82-1.03-.85-6.26-.45-13.13-.66-20.52-.44-7.74.22-14.84.87-21.2,1.73-.41.06-.76.32-.92.71-.24.61-.47,1.38-.59,2.28-.13.92-.11,1.75-.04,2.43Z"/>
          <g>
            <line class="cls-1" x1="43.86" y1="40.45" x2="43.33" y2="34"/>
            <line class="cls-1" x1="37.49" y1="40.26" x2="37.14" y2="33.82"/>
            <line class="cls-1" x1="31.16" y1="40.26" x2="31" y2="33.81"/>
            <line class="cls-1" x1="24.87" y1="33.99" x2="24.82" y2="40.45"/>
            <line class="cls-1" x1="18.73" y1="34.37" x2="18.48" y2="40.84"/>
            <line class="cls-1" x1="12.58" y1="34.93" x2="12.1" y2="41.41"/>
          </g>
          <path class="cls-1" d="M29.95,60.25c-.1.06-.43.25-1.05.32-.16.02-.66.07-1.23-.03,0,0-.01,0-.02,0-.53-.1-.9-.53-.88-1.02.02-.55.08-1.16.2-1.81.27-1.39.74-2.53,1.18-3.38"/>
          <path class="cls-1" d="M28.59,64.31c-.72-.02-1.4.53-1.45,1.25-.04.61.38,1.16.89,1.34.85.3,1.96-.44,1.94-1.31-.01-.64-.63-1.26-1.38-1.28Z"/>
          <path class="cls-5" d="M47.77,42.73v3.23c-.98,1.56-1.71,1.88-2.23,1.84-.99-.08-1.17-1.5-2.38-1.78-1.16-.26-1.52.92-3.03,1.05-2.04.18-2.71-1.9-4.61-1.66-1.45.18-1.61,1.45-3.03,1.44-1.27-.01-1.47-1.03-2.82-1.17-1.58-.17-1.87,1.17-3.61,1.34-2.18.2-2.71-1.71-4.87-1.54-1.9.16-2.12,1.68-3.74,1.54-1.87-.16-2.58-2.08-3.81-1.74-1.08.3-1.07,1.97-2.06,2.15-.75.13-1.54-.67-2.16-1.51l-.3-1.84"/>
          <g>
            <path class="cls-1" d="M16.66,49.96c.64-.35,1.55-.76,2.72-1,1.5-.31,2.77-.2,3.58-.07"/>
            <path class="cls-1" d="M40.86,49.74c-.61-.35-1.49-.76-2.61-1-1.44-.31-2.66-.2-3.43-.07"/>
          </g>
          <g>
            <g>
              <path class="cls-10" d="M48.14,78.53s0-.95.92-4.24c.82-2.97,1.66-5.35,1.92-6.07,1.51-4.26,2.32-5.73,1.59-7.46-.15-.36-.57-1.35-1.24-1.41-1.47-.15-3.02,4.14-4.16,7.36-.96,2.73-2.17,6.66-3.09,11.64l-.47,1.82-1.44,2.13c-.19.21-.37.42-.56.63-.18-.08-.86-.34-1.66-.08-.18.06-.83.28-1.22.94-.58.96-.12,2-.08,2.11.25.58.52,1.17.82,1.78.32.65.63,1.28.95,1.87.34.51.85,1.15,1.58,1.77.99.84,1.96,1.28,2.63,1.52l.57.11c.41.39,1.14.99,2.21,1.34,1.86.6,3.48.03,4.07-.18,1.62-.6,2.58-1.72,4.45-3.95.81-.97,1.87-2.32,2.98-4.06"/>
              <path class="cls-10" d="M38.65,85.89c.48.47.97.94,1.45,1.41.86.89,1.73,1.85,2.61,2.88.52.61,1.01,1.21,1.48,1.81.45.47,1.03.67,1.51.51.44-.15.65-.57.71-.69.31-.64.1-1.34-.58-2.93-.77-1.83-1.16-2.74-1.58-3.34-.78-1.12-1.67-1.94-2.44-2.52"/>
              <g>
                <g>
                  <path class="cls-10" d="M46.41,73.17c.05.11.2.36.5.54.41.23.81.16.91.13"/>
                  <path class="cls-10" d="M47.97,68.36c.05.11.2.36.5.54.41.23.81.16.91.13"/>
                  <path class="cls-10" d="M45.14,82.67c.12-.02.45-.04.89.15.6.26.99.72,1.09.83l2.87,2.89,1.2,1.32"/>
                </g>
                <g>
                  <path class="cls-10" d="M46.41,73.17c.05.11.2.36.5.54.41.23.81.16.91.13"/>
                  <path class="cls-10" d="M47.97,68.36c.05.11.2.36.5.54.41.23.81.16.91.13"/>
                  <path class="cls-10" d="M45.14,82.67c.12-.02.45-.04.89.15.6.26.99.72,1.09.83l2.87,2.89,1.2,1.32"/>
                </g>
                <g>
                  <path class="cls-10" d="M46.41,73.17c.05.11.2.36.5.54.41.23.81.16.91.13"/>
                  <path class="cls-10" d="M47.97,68.36c.05.11.2.36.5.54.41.23.81.16.91.13"/>
                  <path class="cls-10" d="M45.14,82.67c.12-.02.45-.04.89.15.6.26.99.72,1.09.83l2.87,2.89,1.2,1.32"/>
                </g>
              </g>
              <path class="cls-10" d="M56.7,80.17c.33.05,1.3.23,2,1.05.63.73.69,1.56.73,2.14.15,2.41-1.42,4.32-1.96,4.92-.58.78-1.12,1.4-1.55,1.87-1.03,1.12-1.63,1.57-2.37,1.77-.63.17-.87.04-.92,0-.43-.28-.5-1.1-.17-2.1"/>
              <path class="cls-10" d="M52.26,81.86c-.76.99-.36,1.09-.72,1.75-.56,1.03-1.19,2.22-1.4,3.84-.1.72-.31,2.3.4,2.7.42.24.99-.04,1.26-.17,1.36-.67,1.59-1.88,2.86-4.31,1.41-2.71,2.15-3.18,2.05-4.6-.03-.36-.11-1.37-.88-2.16-1.2-1.22-2.99-.96-3.22-.93l-3.93-1.38-.53,1.92"/>
              <path class="cls-10" d="M50.4,77.85c-.55.8-1.31,2.02-2.03,3.59-.69,1.51-2.54,5.34-1.53,6.15.24.2.59.15.91.1,1.01-.14,1.69-.97,2.14-1.59,1.62-2.25,3.14-5.78,3.45-6.51.02-.13.03-.26.03-.41-.01-1.94-2.47-3.99-3.78-3.55-1.21.41-1.38,2.92-1.45,2.9"/>
            </g>
            <g>
              <path class="cls-6" d="M48.14,78.53s0-.95.92-4.24c.82-2.97,1.66-5.35,1.92-6.07,1.51-4.26,2.32-5.73,1.59-7.46-.15-.36-.57-1.35-1.24-1.41-1.47-.15-3.02,4.14-4.16,7.36-.96,2.73-2.17,6.66-3.09,11.64l-.47,1.82-1.44,2.13c-.19.21-.37.42-.56.63-.18-.08-.86-.34-1.66-.08-.18.06-.83.28-1.22.94-.58.96-.12,2-.08,2.11.25.58.52,1.17.82,1.78.32.65.63,1.28.95,1.87.34.51.85,1.15,1.58,1.77.99.84,1.96,1.28,2.63,1.52l.57.11c.41.39,1.14.99,2.21,1.34,1.86.6,3.48.03,4.07-.18,1.62-.6,2.58-1.72,4.45-3.95.81-.97,1.87-2.32,2.98-4.06"/>
              <path class="cls-6" d="M38.65,85.89c.48.47.97.94,1.45,1.41.86.89,1.73,1.85,2.61,2.88.52.61,1.01,1.21,1.48,1.81.45.47,1.03.67,1.51.51.44-.15.65-.57.71-.69.31-.64.1-1.34-.58-2.93-.77-1.83-1.16-2.74-1.58-3.34-.78-1.12-1.67-1.94-2.44-2.52"/>
              <g>
                <g>
                  <path class="cls-3" d="M46.41,73.17c.05.11.2.36.5.54.41.23.81.16.91.13"/>
                  <path class="cls-3" d="M47.97,68.36c.05.11.2.36.5.54.41.23.81.16.91.13"/>
                  <path class="cls-3" d="M45.14,82.67c.12-.02.45-.04.89.15.6.26.99.72,1.09.83l2.87,2.89,1.2,1.32"/>
                </g>
                <g>
                  <path class="cls-1" d="M46.41,73.17c.05.11.2.36.5.54.41.23.81.16.91.13"/>
                  <path class="cls-1" d="M47.97,68.36c.05.11.2.36.5.54.41.23.81.16.91.13"/>
                  <path class="cls-6" d="M45.14,82.67c.12-.02.45-.04.89.15.6.26.99.72,1.09.83l2.87,2.89,1.2,1.32"/>
                </g>
              </g>
              <path class="cls-13" d="M56.7,80.17c.33.05,1.3.23,2,1.05.63.73.69,1.56.73,2.14.15,2.41-1.42,4.32-1.96,4.92-.58.78-1.12,1.4-1.55,1.87-1.03,1.12-1.63,1.57-2.37,1.77-.63.17-.87.04-.92,0-.43-.28-.5-1.1-.17-2.1"/>
              <path class="cls-6" d="M52.26,81.86c-.76.99-.36,1.09-.72,1.75-.56,1.03-1.19,2.22-1.4,3.84-.1.72-.31,2.3.4,2.7.42.24.99-.04,1.26-.17,1.36-.67,1.59-1.88,2.86-4.31,1.41-2.71,2.15-3.18,2.05-4.6-.03-.36-.11-1.37-.88-2.16-1.2-1.22-2.99-.96-3.22-.93l-3.93-1.38-.53,1.92"/>
              <path class="cls-6" d="M50.4,77.85c-.55.8-1.31,2.02-2.03,3.59-.69,1.51-2.54,5.34-1.53,6.15.24.2.59.15.91.1,1.01-.14,1.69-.97,2.14-1.59,1.62-2.25,3.14-5.78,3.45-6.51.02-.13.03-.26.03-.41-.01-1.94-2.47-3.99-3.78-3.55-1.21.41-1.38,2.92-1.45,2.9"/>
            </g>
          </g>
          <g>
            <g>
              <ellipse class="cls-4" cx="36.67" cy="53.46" rx="1.14" ry="1.84"/>
              <path class="cls-2" d="M33.01,53.37c.43-.42.98-.85,1.66-1.18,2.96-1.42,6.09.1,6.66.39-.1.23-.23.49-.41.77-.23.35-.46.64-.67.85"/>
            </g>
            <g>
              <ellipse class="cls-4" cx="20.85" cy="53.46" rx="1.14" ry="1.84"/>
              <path class="cls-2" d="M24.52,53.37c-.43-.42-.98-.85-1.66-1.18-2.96-1.42-6.09.1-6.66.39.1.23.23.49.41.77.23.35.46.64.67.85"/>
            </g>
          </g>
        </g>
      </g>
    </g>
  </g>
</svg>