<?xml version="1.0" encoding="UTF-8"?>
<svg id="Calque_2" data-name="Calque 2" xmlns="http://www.w3.org/2000/svg" viewBox="0 0 77.39 282.75">
  <defs>
    <style>
      .cls-1, .cls-2, .cls-3, .cls-4, .cls-5, .cls-6, .cls-7, .cls-8, .cls-9, .cls-10, .cls-11, .cls-12, .cls-13, .cls-14, .cls-15 {
        stroke-linecap: round;
      }

      .cls-1, .cls-2, .cls-3, .cls-5, .cls-6, .cls-8, .cls-10, .cls-13, .cls-15 {
        stroke: #fe4f02;
      }

      .cls-1, .cls-3, .cls-5, .cls-8, .cls-10, .cls-15 {
        stroke-miterlimit: 10;
      }

      .cls-1, .cls-9, .cls-11, .cls-13, .cls-15 {
        fill: none;
      }

      .cls-16, .cls-3, .cls-4, .cls-6, .cls-8 {
        fill: #fe4f02;
      }

      .cls-2, .cls-3, .cls-6, .cls-10, .cls-11, .cls-13, .cls-14, .cls-15 {
        stroke-width: 2px;
      }

      .cls-2, .cls-4, .cls-6, .cls-7, .cls-9, .cls-11, .cls-12, .cls-13, .cls-14 {
        stroke-linejoin: round;
      }

      .cls-2, .cls-5, .cls-17, .cls-7, .cls-10, .cls-14 {
        fill: #fff;
      }

      .cls-4, .cls-7, .cls-11, .cls-12, .cls-14 {
        stroke: #fe4f02;
      }

      .cls-9 {
        stroke: #fff;
        stroke-width: 16px;
      }

      .cls-12 {
        fill: #fe4f02;
      }
    </style>
  </defs>
  <g id="Calque_22" data-name="Calque 22">
    <g>
      <g>
        <g>
          <path class="cls-9" d="M75.83,268.91c-.35-.36-.72-.52-.85-.58-1.47-.66-5.18-2.42-10.25-4.83h.02c.08,0,.16.01.24.01.44.03.88.05,1.32.07h0c-.2-.73-.48-1.82-.7-3.16-.09-.55-.17-1.08-.23-1.59-.03-.25-.06-.5-.08-.74-.03-.24-.05-.47-.06-.7-.09-1.19-.1-2.19-.08-2.91,0-.45.02-.79.03-1.01.02-.4.04-.87.06-1.39.01-.26.02-.53.03-.82v-.08c.01-.16.01-.32.02-.49.01-.41.03-.86.04-1.32.04-.98.07-2.05.1-3.21v-.15c.02-.63.04-1.28.06-1.96.03-.84.05-1.71.07-2.61.02-.53.03-1.08.05-1.64.01-.74.03-1.49.05-2.26,0-.17,0-.34,0-.5.03-.88.05-1.77.07-2.66.02-.61.03-1.23.04-1.84.03-1.15.06-2.3.08-3.45.07-2.87.13-5.74.19-8.45,0-.3.01-.6.02-.9.01-.58.02-1.15.03-1.71,0-.28,0-.56.02-.84.01-.55.02-1.09.03-1.62,0-.14,0-.28.01-.42,0-.35,0-.68.02-1.02,0-.21,0-.41.01-.61v-.37c0-.21.01-.41.01-.61.01-.12.01-.23.01-.34.01-.34.01-.67.02-1,0-.2,0-.4.01-.59v-.35c0-.14,0-.28.01-.41v-.15c.01-.21.01-.41.01-.6,0-.2.01-.39.01-.58,0-.27.01-.53.01-.78,0-.75.02-1.4.02-1.95.01-.68.01-1.36.01-2.02,0-1.34-.02-2.66-.04-3.95,0-.1,0-.2-.01-.3-.01-.56-.02-1.11-.04-1.65-.01-.28-.01-.56-.03-.83-.01-.54-.04-1.07-.06-1.6h0c-.01-.55-.03-1.07-.06-1.59-.01-.4-.03-.8-.06-1.2-.02-.4-.04-.8-.06-1.19-.01-.15-.02-.3-.03-.44-.03-.64-.07-1.27-.12-1.9-.04-.59-.08-1.18-.12-1.76-.02-.19-.03-.37-.04-.55-.02-.19-.03-.38-.05-.56-.04-.57-.09-1.13-.14-1.69-.06-.75-.13-1.49-.2-2.23-.06-.62-.12-1.23-.18-1.84v-.04c-.04-.36-.07-.72-.11-1.07-.07-.67-.14-1.34-.22-2.01-.07-.67-.14-1.34-.22-2-.15-1.32-.3-2.63-.46-3.94-.16-1.34-.32-2.67-.48-4-.08-.69-.17-1.38-.26-2.06-.08-.63-.16-1.25-.24-1.87-.11-.83-.23-1.65-.34-2.47-.07-.52-.15-1.04-.22-1.56,0-.01-.01-.02-.01-.03-.09-.63-.18-1.26-.27-1.88v-.02c-.05-.3-.1-.6-.14-.9-.01-.01-.01-.03-.01-.04-.05-.34-.1-.66-.15-.99-.09-.58-.18-1.15-.27-1.72-.23-1.47-.47-2.89-.71-4.26-.1-.6-.2-1.2-.3-1.78-.01-.03-.01-.07-.02-.1-.14-.77-.27-1.53-.41-2.28-.04-.22-.08-.44-.12-.66-.05-.29-.11-.57-.16-.86-.01-.09-.03-.17-.05-.26-.24-1.3-.48-2.55-.72-3.75-.02-.11-.05-.23-.07-.34h0c0-.81-.04-1.75-.19-2.78-.17-1.16-.43-2.18-.7-3.03-.25.06-.51.11-.77.17l-.27-1.02c-.49-1.76-.99-4.23-.97-7.19.01-2.49.38-4.62.81-6.3.27-1.07.4-2.16.44-3.26l.14-4.08c.74-.19,1.46-.4,2.15-.62.82-.27,1.39-1.02,1.42-1.89.22-5.5.66-10.22,1.12-14,.64-5.2.97-5.9.74-8.21-.33-3.31-1.84-6.43-4.73-11.67v-.18c.06-1.59.07-7.14-3.88-12.34-3.48-4.59-8.02-6.21-9.64-6.71h-.58c-.25-.65-.49-1.36-.7-2.14.47.14.93.26,1.37.18.49-.09.93-.43,1.36-.77.43-.35.86-.69,1.33-.79.49-.11,1.03.02,1.57.14.53.14,1.06.26,1.52.14.49-.12.91-.5,1.31-.87h.01c.41-.38.79-.75,1.25-.88.49-.14,1.04-.06,1.58.03.54.09,1.08.18,1.53.03.52-.18.86-.57,1.2-.94.29-.33.59-.65,1-.8.1-.6.38-1.1.68-1.6.31-.55.63-1.07.68-1.68.06-.63-.15-1.26-.38-1.88-.21-.62-.44-1.22-.44-1.8.01-.64.25-1.27.47-1.88.24-.61.46-1.21.42-1.78-.05-.66-.36-1.27-.68-1.85-.31-.56-.62-1.11-.71-1.65-.1-.66.02-1.34.15-1.98.13-.65.25-1.25.13-1.77-.14-.57-.52-1.07-.89-1.56h-.01c-.38-.5-.75-.98-.89-1.51-.15-.57-.07-1.19.01-1.81.07-.62.14-1.23-.04-1.75-.19-.55-.63-.99-1.09-1.41-.45-.42-.92-.82-1.18-1.31-.28-.51-.38-1.13-.51-1.74-.13-.61-.28-1.19-.67-1.61-.38-.4-.94-.59-1.53-.75h-.01c-.24-.07-.5-.13-.74-.21-.02-.14-.06-.29-.12-.43-.09-.26-.25-.52-.49-.77-.3-.31-.81-.43-1.36-.56h-.02c.43-.09.86-.16,1.29-.23.41-.07.68-.44.6-.85-.13-.66-.34-1.45-.71-2.29-.41-.93-.88-1.66-1.3-2.22-.16-.21-.42-.31-.68-.27-.72.1-1.45.21-2.19.33l1.35-.39c-.8-1.67-3.14-5.99-8.1-8.26-5.33-2.44-10.36-1.02-13.97,0-3.57,1.01-7.95,2.24-11.09,6.49-3.61,4.89-3.11,10.47-2.92,12.05h0c-.22.1-.45.2-.67.29-.21.09-.37.28-.42.5-.13.61-.24,1.36-.21,2.22.03,1.33.35,2.43.67,3.22.1.26.34.42.59.44.12.02.24,0,.36-.05.05-.02.1-.04.15-.06-.05.24-.12.47-.23.68-.23.48-.69.87-1.15,1.28-.46.41-.91.84-1.13,1.4-.2.5-.16,1.1-.11,1.71.04.61.1,1.24-.08,1.8-.16.51-.56.98-.95,1.46-.39.47-.77.97-.91,1.53-.13.6-.01,1.25.12,1.88.14.63.29,1.26.2,1.83-.1.61-.42,1.18-.74,1.75h0c-.31.58-.6,1.13-.64,1.7-.04.62.17,1.23.4,1.83.23.61.48,1.2.49,1.77.01.65-.23,1.29-.45,1.91-.22.6-.42,1.17-.37,1.71.06.7.38,1.27.69,1.79.3.48.58.93.67,1.42.3.08.51.31.73.56.26.3.52.63.95.71.34.06.74-.12,1.15-.3.41-.19.83-.38,1.22-.32.36.05.68.33,1.02.63.35.29.7.58,1.09.62.36.03.74-.18,1.12-.41.39-.22.79-.46,1.18-.44.37.02.73.28,1.09.53.38.26.75.52,1.14.51.48,0,.92-.27,1.37-.53.46-.27.9-.55,1.35-.58.48-.04.97.17,1.46.38.48.2.95.39,1.39.33.47-.06.9-.38,1.31-.7.41-.32.82-.64,1.25-.73.47-.09.98.05,1.47.19.38.1.75.21,1.09.21.03,1.1,0,2.11-.06,3.03-.95.42-2.03.83-3.24,1.17-1,.28-1.95.56-2.86.8-.32.08-.62.16-.92.24.08.02.16.04.24.07-.17.06-.34.13-.5.2-.11-.05-.23-.1-.35-.14-1.18.27-2.25.43-3.18.38l2.43-.61c-.3-.08-.62-.13-.96-.15h-.03c-.15,0-.29.03-.44.06-3.59.61-5.14,4.18-5.26,4.46-.19.59-.38,1.19-.56,1.8-1.91,3.5-2.94,8.33-3.42,13.53-.15.73-.29,1.47-.43,2.22-.84,4.57-1.41,8.87-1.77,12.85-1.71-.28-3.37-.57-4.98-.88-.59,5.27-2.91,26.65-1.54,36.43.1.72.31,1.99,1.16,3.27,2.47,3.7,7.56,3.33,17.45,3.97-.02.05-.04.11-.06.16-.19.48-.39.97-.59,1.48,0,0,0,.01-.01.02-.19.5-.38,1.01-.57,1.53-.37,1.01-.73,2.06-1.07,3.16-.11.33-.21.67-.31,1.01-.28.92-.55,1.87-.8,2.85-.15.61-.3,1.23-.45,1.86-.03.14-.07.29-.1.45-.01.04-.02.08-.03.12-.02.1-.05.21-.07.31-.03.15-.06.31-.1.48-.02.07-.03.15-.05.23,0,.02-.01.04-.01.06-.07.34-.15.72-.22,1.12-.01.04-.02.09-.03.13-.04.25-.09.51-.14.79-.02.13-.05.27-.07.41-.03.17-.06.33-.08.5-.03.16-.05.33-.08.5-.02.11-.04.23-.05.35-.01.05-.02.09-.02.14-.01.01-.01.02-.01.03-.02.16-.05.33-.07.5,0,.01,0,.02,0,.03-.01.09-.03.17-.03.26-.02.09-.03.17-.04.26-.02.19-.05.37-.07.56-.01.01-.01.03-.01.04-.01.09-.02.18-.03.27-.01.09-.03.18-.03.27-.01.02-.01.03-.01.04-.02.12-.03.24-.04.36-.01.07-.02.13-.02.2-.01.03-.01.06-.01.08-.02.17-.04.35-.06.53-.02.19-.04.38-.06.58-.01.03-.01.06-.01.09,0,.19-.03.39-.05.59-.01.02-.01.04-.01.06-.01.14-.03.28-.03.42-.01.06-.02.12-.02.18-.02.22-.03.44-.05.66-.01.23-.03.46-.05.69v.05c0,.06-.01.13-.01.19-.02.36-.04.74-.06,1.12v.04c-.01.14-.02.29-.02.43-.03.47-.04.96-.05,1.45-.01.51-.02,1.03-.02,1.57-.01.16-.01.31-.01.47,0,.44.01.87.02,1.27.01.35.02.69.03,1.02,0,.27.03.54.04.8.02.38.05.76.08,1.14.02.32.05.65.08.97,0,.08.01.16.02.25.01.12.02.26.04.39.01.12.03.24.04.37,0,.03,0,.07.01.1.01.13.02.27.04.41.02.18.04.37.07.56,0,.1.02.2.03.3.03.3.07.61.11.92,0,.03,0,.05.01.07v.06c.05.44.11.91.17,1.4.01.09.02.18.04.28,0,.09.01.18.03.27.01.11.02.23.04.35.02.19.04.38.07.58.03.23.05.46.08.7.03.23.05.46.08.7.04.27.07.55.1.84.05.47.11.97.17,1.49.12,1.01.23,2.02.33,3,.12,1.13.24,2.24.35,3.32.07.72.14,1.43.21,2.13.07.69.13,1.37.19,2.03.03.33.06.66.09.98.06.67.12,1.32.17,1.94.05.57.1,1.12.15,1.65,0,.06.01.11.01.16.05.61.1,1.19.14,1.75.03.41.06.8.09,1.18.02.25.04.49.06.72,0,.06.01.12.01.18.02.29.04.57.06.83,0,.06.01.12.01.18.06.9.12,1.78.16,2.66.05.88.1,1.76.13,2.62.03.72.06,1.44.08,2.14,0,.11.01.21.01.32,0,.13.01.26.01.4.02.51.03,1.03.04,1.54.01.47.02.94.03,1.41.01.23.01.46.01.69,0,.29,0,.57,0,.85.01,1.65.01,3.27,0,4.84-.04,4.84-.21,9.3-.38,13.28-.02.53-.05,1.05-.07,1.56-.03.69-.07,1.37-.09,2.03-.03.73-.06,1.44-.1,2.13-.01.32-.03.64-.04.96,0,.16-.01.31-.02.46,0,.09-.01.18-.01.27,0,.07-.01.14-.01.2-.02.53-.04,1.04-.05,1.53-.01.09-.01.17-.01.25-.02.7-.04,1.36-.04,2-.01.02-.01.03,0,.04-.01.55-.02,1.07-.01,1.58,0,.27,0,.54.01.8,0,.5.02.98.05,1.42.01.2.02.39.03.58.03.28.05.55.08.8.01.06.02.15.03.26,0,.11.03.24.04.38s.03.3.04.48c.02.18.03.38.04.6,0,.2.02.41.03.64.01.16.01.34.01.52.02.91,0,1.99-.11,3.19-.18,1.93-.53,3.49-.78,4.46.72.19,1.43.36,2.12.52.07.02.14.03.21.05l3.61.14-2.63,9.41c-.01.13,0-.13,0,0-.03,2.52,1.82,5.24,2.36,5.53.03.01.05.01.06.01,10.04.01,17.07.03,27.11.04.06-.01.11-.02.17-.03,7.45.01,13.64.02,21.83.03,2.59-.44,4.63-2,5.12-4,.07-.3.14-.69.15-1.12.02-.93-.18-2.04-.92-2.79ZM50.83,20.97s-.02.05-.03.07c0-.02,0-.03,0-.04.02,0,.03-.02.04-.03Z"/>
          <g>
            <path class="cls-9" d="M76.17,273.76c-.59,1.97-2.71,3.42-5.32,3.73-10.03-.54-17.05-.92-27.07-1.46,0,0-.03,0-.05,0-2.67-.37-4.51-2.87-4.12-5.53l1.37-9.28,3.72-8.71,8.55,6.35,10.63,4.48c5.41,2.93,9.39,5.08,10.91,5.86.13.07.49.25.82.62,1.02,1.14.85,3,.56,3.94Z"/>
            <path class="cls-9" d="M56.44,259.03c-.72.84-1.49,1.87-1.29,2.36.43,1.06,5.04-1.56,5.6-.35.5,1.06-2.62,4.1-2.14,4.95.54.96,4.98-2.03,5.61-.89.32.58-.64,1.68-.26,2.56.29.67,1.17.79,2.01.74"/>
            <path class="cls-9" d="M39.56,270.88c.8.24,1.22.37.81.37l26.28,1.79c5.25.32,7.51.12,9.72-.39"/>
          </g>
          <g>
            <path class="cls-9" d="M55.9,278.72c-.84,1.88-3.12,3.05-5.75,3.02-9.88-1.8-16.79-3.07-26.67-4.87,0,0-.02,0-.05-.01-2.6-.7-4.11-3.41-3.39-6.01l2.53-9.03,4.79-8.17,7.68,7.37,9.98,5.79c5,3.59,8.67,6.22,10.08,7.19.12.08.45.31.73.72.87,1.26.47,3.08.06,3.98Z"/>
            <path class="cls-9" d="M38.18,261.61c-.82.74-1.71,1.67-1.58,2.17.29,1.11,5.19-.91,5.6.36.36,1.12-3.12,3.74-2.75,4.64.42,1.02,5.2-1.38,5.68-.17.24.61-.84,1.59-.58,2.5.2.7,1.06.93,1.9.99"/>
            <path class="cls-9" d="M19.94,271.24c.76.34,1.17.53.76.47l25.85,5.09c5.17.98,7.44,1.07,9.7.84"/>
          </g>
        </g>
        <g>
          <g>
            <path class="cls-9" d="M57.83,262.92c-.91-.1-1.83-.21-2.77-.34-.59-.08-1.18-.16-1.76-.25-.45-.07-.9-.14-1.34-.21-1.1-.17-2.17-.36-3.21-.56-.12-1.95-.25-4.38-.37-7.2,1.86.23,3.85.39,5.95.47,1.07.04,2.12.06,3.13.05.12,3.14.25,5.84.37,8.04Z"/>
            <path class="cls-9" d="M48.38,254.36c-.95-.1-1.88-.23-2.76-.37,0-.32,0-.62.01-.9.07-1.57.26-2.67.31-2.98.18-1.13.32-2.57.41-4.23.58.09,1.17.16,1.77.23.05,2.24.11,4.33.18,6.27.03.68.05,1.34.08,1.98Z"/>
            <path class="cls-9" d="M48.83,205.02c-1.01-.06-1.97-.15-2.89-.25-.08-2.29-.15-4.59-.22-6.89-.01-.45-.03-.9-.04-1.35.98.11,2.03.2,3.13.26,0,.25.01.5.01.75.03,2.81.03,5.34.01,7.48Z"/>
            <path class="cls-9" d="M66.31,263.57c-.99-.04-2-.1-3.03-.17-.79-.05-1.59-.11-2.4-.18-.46-.04-.92-.08-1.39-.13-.55-.05-1.1-.11-1.66-.17-.12-2.2-.25-4.9-.37-8.04,2.79-.01,5.37-.16,7.7-.41-.02.72-.01,1.72.08,2.91.01.23.03.46.06.7.02.24.05.49.08.74.06.51.13,1.04.23,1.59.22,1.34.5,2.43.7,3.16Z"/>
            <path class="cls-9" d="M48.83,205.02v.34c-.01,3.34-.06,5.7-.08,6.65-.01.4-.02.8-.02,1.19-.07.02-.14.03-.2.04-.79-.06-1.55-.14-2.28-.22-.03-.82-.05-1.29-.05-1.29-.08-1.99-.15-3.98-.23-5.98-.01-.33-.02-.65-.03-.98.92.1,1.88.19,2.89.25Z"/>
            <path class="cls-9" d="M57.48,205.01c-.6.04-1.22.08-1.85.1-2.44.1-4.71.06-6.8-.09.02-2.14.02-4.67-.01-7.48,0-.25-.01-.5-.01-.75,2.15.14,4.51.17,7.04.04.5-.03,1-.06,1.48-.09.09,3.05.13,5.84.15,8.27Z"/>
            <path class="cls-9" d="M48.48,221.46c-.09,2.57-.18,5.01-.26,7.5,0,.23-.01.46-.02.7-.54-.05-1.06-.11-1.57-.17v-.2c-.03-2.76-.08-5.45-.13-7.86v-.17c.2.03.39.05.59.07h.02c.45.05.91.09,1.37.13Z"/>
            <path class="cls-9" d="M57.21,246.55c-.86.02-1.75.01-2.66-.01-2.29-.05-4.44-.21-6.43-.43,0-.49-.01-.98-.02-1.48-.04-2.45-.05-4.68-.04-6.76,2.06.22,4.31.36,6.71.39.8.01,1.58,0,2.34-.02,0,.74,0,1.5.01,2.3.02,2.09.05,4.1.09,6.01Z"/>
            <path class="cls-9" d="M48.2,229.66c-.06,2.27-.11,4.61-.13,7.16,0,.35-.01.7-.01,1.05-.49-.05-.97-.1-1.44-.16.01-.19.01-.38.01-.57.03-2.5.02-5.1,0-7.65.51.06,1.03.12,1.57.17Z"/>
            <path class="cls-9" d="M57.35,221.61c-.06,2.82-.14,5.43-.19,8.32-.71.02-1.44.04-2.18.04-2.43,0-4.7-.11-6.78-.31,0-.24.02-.47.02-.7.08-2.49.17-4.93.26-7.5,2.07.17,4.32.26,6.72.22.73-.01,1.45-.04,2.15-.07Z"/>
            <path class="cls-9" d="M48.68,188.94c-1.13-.05-2.2-.13-3.21-.23-.06-2.2-.12-4.41-.17-6.62l-.03-1.2c.99.08,2.04.14,3.14.18.01.28.02.56.03.83.1,2.41.18,4.77.24,7.04Z"/>
            <path class="cls-9" d="M46.74,157.39c-.13.01-.27.01-.4.01-.59,0-1.16-.01-1.72-.03-.06-2.2-.12-4.53-.19-7-.01-.28-.01-.57-.02-.86.49,0,.98,0,1.48-.02.04.31.07.62.1.93.28,2.4.53,4.72.75,6.97Z"/>
            <path class="cls-9" d="M54.13,156.88c-1.53.19-3.12.33-4.76.43-.9.05-1.78.08-2.63.08-.22-2.25-.47-4.57-.75-6.97-.03-.31-.06-.62-.1-.93.71-.02,1.44-.05,2.18-.09,1.66-.1,3.28-.25,4.84-.43.46,2.73.86,5.37,1.22,7.91Z"/>
            <path class="cls-9" d="M55.99,172.78c-1.3.15-2.64.26-4.03.34-1.38.07-2.71.09-3.97.07-.13-2.2-.29-4.52-.47-6.97-.03-.31-.05-.62-.07-.93,1.03.01,2.1-.02,3.21-.08,1.56-.09,3.06-.23,4.5-.39.33,2.8.6,5.46.83,7.96Z"/>
            <path class="cls-9" d="M48.41,181.07c-1.1-.04-2.15-.1-3.14-.18l-.18-6.72c0-.37-.02-.73-.03-1.1.93.06,1.91.1,2.93.12.02.29.04.58.06.87.13,2.19.23,4.24.32,6.15.01.29.03.58.04.86Z"/>
            <path class="cls-9" d="M57.05,188.73c-.81.08-1.65.14-2.5.19-2.09.11-4.05.11-5.87.02-.06-2.27-.14-4.63-.24-7.04-.01-.27-.02-.55-.03-.83,1.52.05,3.14.04,4.84-.05,1.16-.06,2.28-.15,3.36-.27.18,2.73.33,5.41.44,7.98Z"/>
            <path class="cls-9" d="M48.81,196.79c-1.1-.06-2.15-.15-3.13-.26-.06-2.17-.12-4.35-.18-6.53l-.03-1.29c1.01.1,2.08.18,3.21.23,0,.26.01.51.02.77.05,2.49.09,4.87.11,7.08Z"/>
            <path class="cls-9" d="M65.67,237.53c0,.15,0,.31-.01.46-.01.29-.01.58-.02.88,0,.31-.01.62-.02.92-.02.56-.03,1.11-.05,1.64-.04,1.62-.08,3.15-.13,4.57-2.46.3-5.22.52-8.23.55-.04-1.91-.07-3.92-.09-6.01-.01-.8-.01-1.56-.01-2.3,3.16-.08,6.03-.35,8.56-.71Z"/>
            <path class="cls-9" d="M66.06,220.63c-.06,2.71-.12,5.57-.19,8.45-2.56.41-5.48.74-8.71.85.05-2.89.13-5.5.19-8.32,3.24-.15,6.16-.53,8.71-.98Z"/>
            <path class="cls-9" d="M66.32,203.76c0,.66,0,1.34-.01,2.02,0,.55-.01,1.2-.02,1.95,0,.25-.01.51-.01.78-.02,1.08-.04,2.32-.06,3.68-2.54.5-5.47.92-8.74,1.11.01-.29.01-.59.01-.89.01-1.74.02-4.28-.01-7.4,3.32-.23,6.29-.7,8.84-1.25Z"/>
            <path class="cls-9" d="M66.22,212.19c0,.31-.01.63-.02.95,0,.32-.01.65-.01.98-.01.34-.02.68-.02,1.02,0,.14-.01.28-.01.42-.01.53-.02,1.07-.03,1.62-.01.28-.01.56-.02.84-.01.56-.02,1.13-.03,1.71-.01.3-.01.6-.02.9-2.55.45-5.47.83-8.71.98.06-2.49.11-5.15.13-8.31,3.27-.19,6.2-.61,8.74-1.11Z"/>
            <path class="cls-9" d="M66.32,203.76c-2.55.55-5.52,1.02-8.84,1.25-.02-2.43-.06-5.22-.15-8.27,3.3-.26,6.26-.74,8.81-1.31.04.81.07,1.63.09,2.47.02.53.03,1.06.04,1.6.01.08.01.17.01.26.01.53.02,1.07.02,1.61.01.39.01.79.01,1.19.01.4.01.8.01,1.2Z"/>
            <path class="cls-9" d="M65.69,187.35c-2.52.59-5.41,1.1-8.64,1.38-.11-2.57-.26-5.25-.44-7.98,3.1-.32,5.9-.82,8.36-1.38.04.36.07.71.11,1.07.06.63.12,1.25.18,1.88.07.74.14,1.48.2,2.23.05.61.1,1.22.15,1.84.03.32.05.64.08.96Z"/>
            <path class="cls-9" d="M66.14,195.42h0c-2.55.58-5.51,1.06-8.81,1.32-.06-2.52-.15-5.2-.28-8.01,3.23-.28,6.12-.79,8.64-1.38.04.58.08,1.17.12,1.76.04.54.07,1.08.1,1.63.01.1.02.2.02.3.05.76.09,1.53.12,2.31.04.68.07,1.37.09,2.07Z"/>
            <path class="cls-9" d="M64.07,171.41h0c-2.41.55-5.12,1.04-8.08,1.37-.23-2.5-.5-5.16-.83-7.96,2.88-.33,5.53-.8,7.93-1.33.17,1.29.34,2.6.5,3.94.16,1.32.32,2.65.48,3.98Z"/>
            <path class="cls-9" d="M61.95,155.6c-2.4.51-5.01.96-7.82,1.28-.36-2.54-.76-5.18-1.22-7.91,2.75-.31,5.33-.74,7.74-1.23.01.03.01.07.02.1.1.58.2,1.18.3,1.78.33,1.91.66,3.9.98,5.98Z"/>
            <path class="cls-9" d="M63.09,163.49c-2.4.53-5.05,1-7.93,1.33-.29-2.53-.63-5.18-1.03-7.94,2.81-.32,5.42-.77,7.82-1.28.14.91.28,1.84.42,2.78.14.98.29,1.98.43,3,.09.7.19,1.4.29,2.11Z"/>
            <path class="cls-9" d="M60.65,147.74c-2.41.49-4.99.92-7.74,1.23-.42-2.55-.89-5.18-1.41-7.89,2.7-.29,5.26-.69,7.69-1.15.47,2.39.96,5,1.46,7.81Z"/>
            <path class="cls-9" d="M64.97,179.37c-2.46.56-5.26,1.06-8.36,1.38-.01-.16-.02-.32-.03-.48-.15-2.31-.34-4.81-.59-7.49,2.96-.33,5.67-.82,8.08-1.36.16,1.31.31,2.62.46,3.94.08.66.15,1.33.22,2,.08.67.15,1.34.22,2.01Z"/>
            <path class="cls-9" d="M65.87,229.08c-.02,1.15-.05,2.3-.08,3.46-.01.61-.02,1.22-.04,1.84-.02.91-.05,1.8-.07,2.68,0,.15,0,.31-.01.47-2.53.36-5.4.63-8.56.71-.01-3.17.01-5.84.05-8.31,3.23-.11,6.15-.44,8.71-.85Z"/>
            <path class="cls-9" d="M65.44,246v.15c0,.23-.01.45-.02.67-.01.22-.02.43-.02.64,0,.12,0,.24,0,.36,0,.2-.01.4-.02.59-.01.12-.01.23-.01.35,0,.2-.01.4-.02.6,0,.46-.03.91-.04,1.32-.01.18-.01.35-.02.52v.05c-.01.29-.02.57-.03.83-.02.52-.04.99-.06,1.39-.01.22-.03.55-.03,1-2.33.25-4.91.4-7.7.41-.1-2.51-.19-5.3-.25-8.33,3.01-.03,5.77-.25,8.23-.55Z"/>
            <path class="cls-9" d="M48.75,261.56c-.78-.14-1.55-.29-2.3-.45l-.45-2.17c-.21-1.18-.36-2.54-.39-4.04,0-.31,0-.62.01-.91.88.14,1.81.27,2.76.37.12,2.82.25,5.25.37,7.2Z"/>
            <path class="cls-9" d="M48.12,246.11c-.6-.07-1.19-.14-1.77-.23.02-.27.04-.55.05-.84.12-2.19.19-4.7.22-7.33.47.06.95.11,1.44.16-.01,2.08,0,4.31.04,6.76.01.5.02.99.02,1.48Z"/>
            <path class="cls-9" d="M57.33,196.74c-.48.03-.98.06-1.48.09-2.53.13-4.89.1-7.04-.04-.02-2.21-.06-4.59-.11-7.08-.01-.26-.02-.51-.02-.77,1.82.09,3.78.09,5.87-.02.85-.05,1.69-.11,2.5-.19.13,2.81.22,5.49.28,8.01Z"/>
            <path class="cls-9" d="M56.61,180.75c-1.08.12-2.2.21-3.36.27-1.7.09-3.32.1-4.84.05-.01-.28-.03-.57-.04-.86-.09-1.91-.19-3.96-.32-6.15-.02-.29-.04-.58-.06-.87,1.26.02,2.59,0,3.97-.07,1.39-.08,2.73-.19,4.03-.34.25,2.68.44,5.18.59,7.49,0,.16.02.32.03.48Z"/>
            <path class="cls-9" d="M55.16,164.82c-1.44.16-2.94.3-4.5.39-1.11.06-2.18.09-3.21.08-.18-2.22-.39-4.54-.61-6.95-.04-.32-.07-.63-.1-.95.85,0,1.73-.03,2.63-.08,1.64-.1,3.23-.24,4.76-.43.4,2.76.74,5.41,1.03,7.94Z"/>
            <path class="cls-9" d="M57.11,238.24c-.76.02-1.54.03-2.34.02-2.4-.03-4.65-.17-6.71-.39,0-.35.01-.7.01-1.05.02-2.55.07-4.89.13-7.16,2.08.2,4.35.32,6.78.31.74,0,1.47-.02,2.18-.04-.04,2.47-.06,5.14-.05,8.31Z"/>
            <path class="cls-9" d="M57.48,213.3c-.02,3.16-.07,5.82-.13,8.31-.7.03-1.42.06-2.15.07-2.4.04-4.65-.05-6.72-.22.01-.13.01-.26.02-.39.08-2.42.16-4.97.22-7.82,2.06.16,4.3.22,6.69.15.7-.02,1.39-.05,2.07-.1Z"/>
            <path class="cls-9" d="M52.91,148.97c-1.56.18-3.18.33-4.84.43-.74.04-1.47.07-2.18.09-.27-2.28-.56-4.63-.88-7.04-.04-.28-.08-.57-.12-.86.63-.02,1.26-.05,1.89-.09,1.62-.1,3.19-.24,4.72-.42.52,2.71.99,5.34,1.41,7.89Z"/>
            <path class="cls-9" d="M45.89,149.49c-.5.02-.99.02-1.48.02-.06-2.26-.12-4.63-.17-7.1-.01-.27-.01-.53-.02-.8.22,0,.45-.01.67-.02.04.29.08.58.12.86.32,2.41.61,4.76.88,7.04Z"/>
            <path class="cls-9" d="M47.45,165.29c-.9,0-1.78-.03-2.61-.07,0-.66-.03-1.31-.05-1.97-.04-1.55-.09-3.19-.14-4.93,0-.31-.02-.63-.03-.95.56.02,1.13.03,1.72.03.13,0,.27,0,.4-.01.03.32.06.63.1.95.22,2.41.43,4.73.61,6.95Z"/>
            <path class="cls-9" d="M57.49,212.41c0,.3,0,.6-.01.89-.68.05-1.37.08-2.07.1-2.39.07-4.63.01-6.69-.15,0-.02,0-.03.01-.05,0-.39.01-.79.02-1.19.02-.95.07-3.31.08-6.65v-.34c2.09.15,4.36.19,6.8.09.63-.02,1.25-.06,1.85-.1.03,3.12.02,5.66.01,7.4Z"/>
            <path class="cls-9" d="M57.46,254.88c-1.01.01-2.06-.01-3.13-.05-2.1-.08-4.09-.24-5.95-.47-.03-.64-.05-1.3-.08-1.98-.07-1.94-.13-4.03-.18-6.27,1.99.22,4.14.38,6.43.43.91.02,1.8.03,2.66.01.06,3.03.15,5.82.25,8.33Z"/>
            <path class="cls-9" d="M48.72,213.25c-.06,2.85-.14,5.4-.22,7.82-.47.1-.94.19-1.39.26h-.02c-.2-.02-.39-.04-.59-.07-.08-3.24-.17-5.96-.23-7.65h0c0-.22,0-.41-.02-.59.73.08,1.49.16,2.28.22.06,0,.13.01.19.01Z"/>
            <path class="cls-9" d="M47.99,173.19c-1.02-.02-2-.06-2.93-.12-.06-2.27-.12-4.55-.19-6.82-.01-.34-.01-.69-.03-1.03.83.04,1.71.07,2.61.07.02.31.04.62.07.93.18,2.45.34,4.77.47,6.97Z"/>
          </g>
          <g>
            <path class="cls-9" d="M46.45,261.11c-1.47.46-3.44.99-5.79,1.4-.17.03-.41.07-.74.12-.16.02-.33.04-.52.07-.32.05-.69.09-1.1.14-.32.04-.68.08-1.06.11-.02.01-.05.01-.07.01l-.08-.94-.35-7.6c.31-.02.63-.04.95-.07.33-.03.66-.06,1-.09.1-.01.2-.02.3-.03.53-.06,1.08-.12,1.64-.2.44-.06.89-.13,1.34-.21.22-.03.44-.07.67-.11l.18-.03c.15-.03.31-.06.46-.09h.01c.5-.09,1.01-.2,1.53-.32.27-.05.54-.11.81-.18-.01.28-.01.58-.01.9-.01.29-.01.6-.01.91.03,1.5.18,2.86.39,4.04.13.81.29,1.54.45,2.17Z"/>
            <path class="cls-9" d="M26.91,254.1c-.11,2.91-.21,5.83-.3,8.74v.06c-2.87-.27-6.24-.8-9.98-1.79.25-.97.6-2.52.78-4.46.13-1.43.14-2.7.1-3.71-.01-.23-.02-.44-.03-.64,1.72.45,3.72.9,5.96,1.28.94.16,2.11.36,3.47.52Z"/>
            <path class="cls-9" d="M37.17,262.96c-1.68.14-3.85.25-6.39.19-1.23-.03-2.63-.1-4.18-.25v-.06c.1-2.91.2-5.83.31-8.74,2.3.29,5.17.51,8.51.38.42,0,.86-.04,1.32-.06l.35,7.6.08.94Z"/>
            <path class="cls-9" d="M46.63,237.14c0,.19,0,.38-.01.57-.03,2.63-.1,5.14-.22,7.33-.81.19-1.6.35-2.37.49-.27.05-.54.1-.8.14-2.48.42-4.72.61-6.65.7v-8.05c.36-.01.74-.02,1.12-.04.14,0,.28-.01.43-.02.28-.02.56-.03.85-.06.42-.03.85-.06,1.29-.11.44-.04.89-.08,1.35-.14.42-.04.85-.1,1.29-.16h.01s.04,0,.06,0c.11-.02.23-.03.34-.05.14-.02.28-.04.42-.06.38-.06.78-.13,1.17-.2h.01c.56-.1,1.13-.21,1.71-.33Z"/>
            <path class="cls-9" d="M46.4,245.04c0,.29-.03.57-.05.84-.09,1.66-.23,3.1-.41,4.23-.05.31-.24,1.41-.31,2.98-.27.07-.54.13-.81.18-.52.12-1.03.23-1.53.32h-.01c-.15.03-.31.06-.46.09l-.18.03c-.23.04-.45.08-.67.11-.45.08-.9.15-1.34.21-.56.08-1.11.14-1.64.2-.1.01-.2.02-.3.03-.34.03-.67.06-1,.09-.32.03-.64.05-.95.07l-.16-3.37v-4.68c1.93-.09,4.17-.28,6.65-.7.26-.04.53-.09.8-.14.77-.14,1.56-.3,2.37-.49Z"/>
            <path class="cls-9" d="M46.63,229.29c-.22.04-.44.08-.66.11h-.01c-.45.08-.9.15-1.34.22-.12.03-.24.04-.36.06-.41.06-.81.11-1.2.16-.57.07-1.12.13-1.66.17-.43.04-.84.08-1.25.11-.05,0-.1,0-.16.01-.3.02-.6.04-.9.05-.3.02-.59.03-.88.04-.58.02-1.13.03-1.67.04l-.17-8.06c.38,0,.77,0,1.17-.01.23,0,.47,0,.71-.01.02.01.05.01.08,0,.6-.01,1.21-.03,1.84-.07.66-.03,1.34-.08,2.04-.14.3-.02.6-.05.9-.09.5-.05,1.02-.11,1.54-.18.24-.03.49-.06.74-.1.37-.05.74-.11,1.11-.17.05,2.41.1,5.1.13,7.86Z"/>
            <path class="cls-9" d="M46.63,237.14c-.58.12-1.15.23-1.71.33h-.01c-.39.07-.79.14-1.17.2-.14.02-.28.04-.42.06-.11.02-.23.03-.34.05-.02,0-.04,0-.06,0h-.01c-.44.06-.87.12-1.29.16-.46.06-.91.1-1.35.14-.44.05-.87.08-1.29.11-.29.03-.57.04-.85.06-.15.01-.29.02-.43.02-.38.02-.76.03-1.12.04v-6.34l-.04-1.72c.54-.01,1.09-.02,1.67-.04.29-.01.58-.02.88-.04.3-.01.6-.03.9-.05.06-.01.11-.01.16-.01.41-.03.82-.07,1.25-.11.54-.04,1.09-.1,1.66-.17.39-.05.79-.1,1.2-.16.12-.02.24-.03.36-.06.44-.06.88-.13,1.34-.22h.01c.22-.03.44-.07.66-.11v.2c.02,2.55.03,5.15,0,7.65Z"/>
            <path class="cls-9" d="M46.27,213.6h0c-3.56.48-6.8.6-9.61.56-.15,0-.3-.01-.45-.01l-.05-2.4-.12-5.67c2.9.11,6.25.08,9.93-.33.08,2,.15,3.99.23,5.98,0,0,.02.47.05,1.29.01.18.01.37.02.58Z"/>
            <path class="cls-9" d="M46.5,221.26v.17c-.37.06-.74.12-1.11.17-.25.04-.5.07-.74.1-.52.07-1.04.13-1.54.18-.3.04-.6.07-.9.09-.7.06-1.38.11-2.04.14-.63.04-1.24.06-1.84.07-.03.01-.06.01-.08,0-.24.01-.48.01-.71.01-.4.01-.79.01-1.17.01l-.16-8.05c.15,0,.3.01.45.01,2.81.04,6.05-.08,9.61-.55.06,1.69.15,4.41.23,7.65Z"/>
            <path class="cls-9" d="M45.72,197.88c-3.62.31-6.94.28-9.85.13v-.27s.2-7.78.2-7.78c2.84.18,6.01.24,9.43.04.06,2.18.12,4.36.18,6.53.01.45.03.9.04,1.35Z"/>
            <path class="cls-9" d="M45.3,182.09c-3.24.13-6.26.03-9.02-.18l.22-8.03c2.66.22,5.54.35,8.59.29l.18,6.72.03,1.2Z"/>
            <path class="cls-9" d="M45.5,190c-3.42.2-6.59.14-9.43-.04l.21-8.05c2.76.21,5.78.31,9.02.18.05,2.21.11,4.42.17,6.62l.03,1.29Z"/>
            <path class="cls-9" d="M44.87,166.25c-.79,0-1.57-.02-2.33-.04-.68-.02-1.35-.05-2.01-.09-.65-.03-1.29-.07-1.92-.12-.64-.05-1.26-.09-1.87-.15l.25-8.03c.57.06,1.14.12,1.73.17,1.9.17,3.88.28,5.93.33.05,1.74.1,3.38.14,4.93.02.66.04,1.31.05,1.97.02.34.02.69.03,1.03Z"/>
            <path class="cls-9" d="M45.09,174.17c-3.05.06-5.93-.07-8.59-.29l.08-3.1.16-4.93c.61.06,1.23.1,1.87.15.63.05,1.27.09,1.92.12.66.04,1.33.07,2.01.09.76.02,1.54.04,2.33.04.07,2.27.13,4.55.19,6.82.01.37.02.73.03,1.1Z"/>
            <path class="cls-9" d="M44.43,150.37c-2.49-.1-4.89-.3-7.19-.56l.26-8.02c2.18.27,4.42.48,6.74.62.05,2.47.11,4.84.17,7.1.01.29.01.58.02.86Z"/>
            <path class="cls-9" d="M44.65,158.32c-2.05-.05-4.03-.16-5.93-.33-.59-.05-1.16-.11-1.73-.17l.25-8.01c2.3.26,4.7.46,7.19.56.07,2.47.13,4.8.19,7,.01.32.02.64.03.95Z"/>
            <path class="cls-9" d="M45.97,205.75c-3.68.41-7.03.44-9.93.33l-.17-8.07c2.91.15,6.23.18,9.85-.13.07,2.3.14,4.6.22,6.89.01.33.02.65.03.98Z"/>
            <path class="cls-9" d="M36.58,231.98v6.34c-.41.01-.81.02-1.2.02-3.35.03-6.26-.25-8.65-.58-.01-1.49,0-3.04.02-4.66.02-1.66.05-2.36.09-3.49,2.38.35,5.25.64,8.52.66.38,0,.77,0,1.18-.01l.04,1.72Z"/>
            <path class="cls-9" d="M36.37,222.2c-.35,0-.69,0-1.03-.01-3.14-.06-5.93-.35-8.3-.7.03-2.2.06-5.13.07-8.15,2.37.37,5.13.68,8.21.78.29.01.59.02.89.03l.16,8.05Z"/>
            <path class="cls-9" d="M36.04,206.08c-.25-.01-.5-.02-.74-.03-3.11-.15-5.9-.48-8.33-.88-.1-2.94-.26-5.62-.42-8.24,2.55.46,5.47.85,8.72,1.05l.6.03.17,8.07Z"/>
            <path class="cls-9" d="M36.28,181.91l-.21,8.05c-.28-.01-.55-.03-.82-.05-3.43-.25-6.52-.71-9.22-1.23-.13-2.54-.24-5.22-.28-8.21,2.79.56,5.97,1.06,9.48,1.36.35.03.7.06,1.05.08Z"/>
            <path class="cls-9" d="M36.74,165.85l-.16,4.93-.08,3.1c-.44-.04-.87-.08-1.29-.12-3.44-.34-6.6-.86-9.41-1.44.05-1.83.1-2.5.33-8.09,2.75.58,5.78,1.1,9.06,1.46.51.05,1.03.11,1.55.16Z"/>
            <path class="cls-9" d="M26.85,245.93c-1.37-.18-2.55-.38-3.53-.55-2.3-.4-4.35-.89-6.12-1.37,0-.42.02-.85.04-1.3.02-.79.05-1.63.09-2.5.02-.34.04-.69.05-1.04,0-.08.01-.17.01-.25.03-.71.07-1.43.1-2.18.01-.28.02-.56.04-.85,1.67.44,3.57.89,5.66,1.28,1,.19,2.18.4,3.54.59.01,3.04.06,5.78.12,8.17Z"/>
            <path class="cls-9" d="M36.54,230.26c-.41.01-.8.01-1.18.01-3.27-.02-6.14-.31-8.52-.66.04-.91.08-2.1.13-4.3,0,0,.03-1.51.07-3.82,2.37.35,5.16.64,8.3.7.34.01.68.01,1.03.01l.17,8.06Z"/>
            <path class="cls-9" d="M27.04,221.49c-.04,2.31-.07,3.82-.07,3.82-.05,2.2-.09,3.39-.13,4.3-1.43-.21-2.7-.44-3.77-.65-1.9-.37-3.64-.78-5.21-1.2,0-.25.01-.5.02-.76.02-.68.04-1.37.05-2.07.01-.69.03-1.4.04-2.13.01-.52.02-1.05.02-1.58.01-.54.01-1.08.01-1.62,1.5.39,3.16.79,4.95,1.15,1.17.24,2.54.5,4.09.74Z"/>
            <path class="cls-9" d="M36.21,214.15c-.3-.01-.6-.02-.89-.03-3.08-.1-5.84-.41-8.21-.78v-.59c0-2.76-.05-5.25-.14-7.58,2.43.4,5.22.73,8.33.88.24.01.49.02.74.03l.17,8.07Z"/>
            <path class="cls-9" d="M27.11,212.75v.59c-1.61-.25-3.05-.53-4.29-.79-1.77-.38-3.42-.78-4.92-1.19-.07-2.63-.2-5.35-.39-8.14,0-.06-.01-.12-.01-.18,1.59.45,3.33.89,5.2,1.3,1.26.28,2.69.57,4.27.83.09,2.33.14,4.82.14,7.58Z"/>
            <path class="cls-9" d="M27.11,213.34c-.01,3.02-.04,5.95-.07,8.15-1.55-.24-2.92-.5-4.09-.74-1.79-.36-3.45-.76-4.95-1.15.02-2.64-.01-5.39-.1-8.24,1.5.41,3.15.81,4.92,1.19,1.24.26,2.68.54,4.29.79Z"/>
            <path class="cls-9" d="M35.86,197.74v.27s-.59-.03-.59-.03c-3.25-.2-6.17-.59-8.72-1.05-.18-2.74-.37-5.41-.52-8.25,2.7.52,5.79.98,9.22,1.23.27.02.54.04.82.05l-.21,7.78Z"/>
            <path class="cls-9" d="M26.55,196.93c-1.45-.25-2.77-.52-3.97-.8-2.09-.48-4.02-.99-5.77-1.5-.07-.84-.15-1.7-.24-2.6-.18-1.85-.38-3.82-.6-5.86,1.95.6,4.12,1.2,6.49,1.75,1.1.26,2.29.52,3.57.76.15,2.84.34,5.51.52,8.25Z"/>
            <path class="cls-9" d="M36.5,173.88l-.22,8.03c-.35-.02-.7-.05-1.05-.08-3.51-.3-6.69-.8-9.48-1.36-.03-2.23-.02-4.64.03-7.29.01-.32.01-.6.02-.86,2.81.58,5.97,1.1,9.41,1.44.42.04.85.08,1.29.12Z"/>
            <path class="cls-9" d="M25.78,173.18c-.05,2.65-.06,5.06-.03,7.29-1.21-.25-2.36-.5-3.42-.76-2.7-.65-5.16-1.35-7.33-2.05-.12-.96-.22-1.8-.31-2.58-.03-.29-.06-.56-.09-.83-.03-.28-.06-.54-.08-.8-.03-.26-.05-.51-.07-.76-.03-.26-.04-.51-.06-.76-.02-.19-.03-.39-.04-.59-.04-.68-.07-1.38-.09-2.14,2.33.78,5,1.57,7.95,2.31,1.12.28,2.32.55,3.59.81-.01.26-.01.54-.02.86Z"/>
            <path class="cls-9" d="M26.03,188.68c-1.28-.24-2.47-.5-3.57-.76-2.37-.55-4.54-1.15-6.49-1.75-.1-.98-.21-1.99-.33-3-.12-1.04-.23-1.98-.33-2.84-.05-.44-.1-.85-.14-1.24-.04-.29-.08-.58-.1-.85-.03-.2-.05-.39-.07-.58,2.17.7,4.63,1.4,7.33,2.05,1.06.26,2.21.51,3.42.76.04,2.99.15,5.67.28,8.21Z"/>
            <path class="cls-9" d="M26.45,156.15c-.14,3.5-.24,6.1-.32,8.08-1.42-.29-2.77-.61-4.04-.93-2.77-.71-5.3-1.47-7.56-2.22.26-3.16.66-5.82,1.04-7.86,1.96.64,4.1,1.27,6.39,1.87,1.41.37,2.91.73,4.49,1.06Z"/>
            <path class="cls-9" d="M26.13,164.23c-.23,5.59-.28,6.26-.33,8.09-1.27-.26-2.47-.53-3.59-.81-2.95-.74-5.62-1.53-7.95-2.31,0-.4-.01-.83-.01-1.27s0-.85.01-1.26c0-.26,0-.52,0-.78.02-.64.04-1.27.07-1.88.02-.47.04-.94.07-1.4.04-.53.07-1.04.12-1.53,2.26.75,4.79,1.51,7.56,2.22,1.27.32,2.62.64,4.04.93Z"/>
            <path class="cls-9" d="M26.97,205.17c-1.58-.26-3.01-.55-4.27-.83-1.87-.41-3.61-.85-5.2-1.3-.02-.32-.05-.66-.07-1.01-.05-.61-.1-1.28-.16-1.99-.03-.49-.08-1-.12-1.53-.1-1.2-.21-2.5-.34-3.88,1.75.51,3.68,1.02,5.77,1.5,1.2.28,2.52.55,3.97.8.16,2.62.32,5.3.42,8.24Z"/>
            <path class="cls-9" d="M36.58,238.32v8.05c-.41.02-.8.03-1.18.04-3.33.08-6.22-.17-8.55-.48-.06-2.39-.11-5.13-.12-8.17,2.39.33,5.3.61,8.65.58.39,0,.79-.01,1.2-.02Z"/>
            <path class="cls-9" d="M27.02,250.81c-.04,1.1-.08,2.19-.11,3.29-1.36-.16-2.53-.36-3.47-.52-2.24-.38-4.24-.83-5.96-1.28-.01-.21-.02-.41-.04-.59-.01-.19-.03-.35-.04-.5,0-.15-.03-.27-.04-.38-.01-.1-.02-.19-.03-.25-.19-1.68-.21-3.89-.13-6.57,1.77.48,3.82.97,6.12,1.37.98.17,2.16.37,3.53.55.05,1.85.11,3.49.17,4.88Z"/>
            <path class="cls-9" d="M36.74,254.42c-.46.02-.9.05-1.32.06-3.34.13-6.21-.09-8.51-.38.03-1.1.07-2.19.11-3.29-.06-1.39-.12-3.03-.17-4.88,2.33.31,5.22.56,8.55.48.38-.01.77-.02,1.18-.04v4.68l.16,3.37Z"/>
            <path class="cls-9" d="M26.75,233.1c-.02,1.62-.03,3.17-.02,4.66-1.36-.19-2.54-.4-3.54-.59-2.09-.39-3.99-.84-5.66-1.28h0c.03-.63.06-1.27.08-1.92.09-1.96.17-4.03.25-6.21,1.57.42,3.31.83,5.21,1.2,1.07.21,2.34.44,3.77.65-.04,1.13-.07,1.83-.09,3.49Z"/>
            <path class="cls-9" d="M36.99,157.82l-.25,8.03c-.52-.05-1.04-.11-1.55-.16-3.28-.36-6.31-.88-9.06-1.46.08-1.98.18-4.58.32-8.08,2.69.58,5.6,1.09,8.72,1.47.6.07,1.2.14,1.82.2Z"/>
            <path class="cls-9" d="M37.24,149.81l-.25,8.01c-.62-.06-1.22-.13-1.82-.2-3.12-.38-6.03-.89-8.72-1.47,0-.4.02-.83.04-1.26.09-2.45.17-4.73.24-6.82,2.63.57,5.44,1.08,8.42,1.48.69.09,1.38.18,2.09.26Z"/>
            <path class="cls-9" d="M26.73,148.07c-.07,2.09-.15,4.37-.24,6.82-.02.43-.03.86-.04,1.26-1.58-.33-3.08-.69-4.49-1.06-2.29-.6-4.43-1.23-6.39-1.87.23-1.19.44-2.16.61-2.9.27-1.16.55-2.28.86-3.37.12-.45.25-.9.39-1.34,1.4.44,2.87.86,4.41,1.27,1.55.42,3.18.82,4.89,1.19Z"/>
            <path class="cls-9" d="M27.01,139.99c-.08,2.15-.17,4.88-.28,8.08-1.71-.37-3.34-.77-4.89-1.19-1.54-.41-3.01-.83-4.41-1.27.1-.34.2-.68.31-1.01.34-1.1.7-2.15,1.07-3.16.19-.52.38-1.03.57-1.53.01-.01.01-.02.01-.02.2-.51.4-1,.59-1.48.03-.07.06-.14.08-.2,2.18.63,4.5,1.23,6.95,1.78Z"/>
            <path class="cls-9" d="M37.5,141.79l-.26,8.02c-.71-.08-1.4-.17-2.09-.26-2.98-.4-5.79-.91-8.42-1.48.11-3.2.2-5.93.28-8.08,3.27.72,6.77,1.35,10.49,1.8Z"/>
          </g>
          <path class="cls-9" d="M59.12,139.59c1.46,7.33,3.11,16.77,4.47,27.84,1.42,11.59,2.84,23.25,2.72,38.36-.06,8.12-.75,39.88-1.12,47.68-.04.84-.17,3.51.41,6.95.23,1.34.5,2.43.7,3.15-3.48-.14-7.25-.45-11.25-.99-3.05-.41-5.92-.91-8.61-1.47-1.47.46-3.44.99-5.8,1.4-.95.16-4.63.77-9.88.64-3.5-.09-8.39-.52-14.15-2.04.25-.97.6-2.53.78-4.46.29-3.11,0-5.47-.08-6.07-.85-7.37,1.69-25.09.18-47.36-.29-4.22-.94-11.78-1.87-20.05-.94-8.32-1.38-10.4-1.4-15.24-.02-8.37,1.27-14.75,1.93-17.61,1.2-5.22,2.82-9.68,4.4-13.31,6.47,2.37,16.13,4.87,27.79,4.14,3.97-.25,7.57-.83,10.75-1.57Z"/>
          <g>
            <path class="cls-9" d="M44.87,166.25c.07,2.27.13,4.55.19,6.82.01.37.02.73.03,1.1"/>
            <path class="cls-9" d="M45.09,174.17l.18,6.72.03,1.2c.05,2.21.11,4.42.17,6.62l.03,1.29c.06,2.18.12,4.36.18,6.53.01.45.03.9.04,1.35.07,2.3.14,4.6.22,6.89.01.33.02.65.03.98.08,2,.15,3.99.23,5.98,0,0,.02.47.05,1.29.01.18.01.37.02.59.06,1.69.15,4.41.23,7.65v.17c.05,2.41.1,5.1.13,7.86v.2c.02,2.55.03,5.15,0,7.65,0,.19,0,.38-.01.57-.03,2.63-.1,5.14-.22,7.33,0,.29-.03.57-.05.84-.09,1.66-.23,3.1-.41,4.23-.05.31-.24,1.41-.31,2.98-.01.28-.01.58-.01.9-.01.29-.01.6-.01.91.03,1.5.18,2.86.39,4.04.13.81.29,1.54.45,2.17"/>
          </g>
          <path class="cls-9" d="M58.31,82.18v-6.65c.06-1.59.07-7.14-3.88-12.34-3.49-4.59-8.02-6.21-9.65-6.71h-7.23"/>
          <path class="cls-9" d="M57.61,111.68l-.15,4.51c-.04,1.1-.17,2.2-.44,3.26-.43,1.68-.79,3.82-.81,6.3-.02,2.97.47,5.43.97,7.19l1.4,5.26c-1.14.76-2.89,1.73-5.19,2.33-2.98.78-5.53.59-7.04.36-2.22-.36-4.44-.72-6.67-1.08"/>
          <path class="cls-9" d="M53.03,125.8c-.37,3.49-.19,4.4.09,4.46.29.07.83-.77,1-1.52.16-.71-.02-1.29-.11-1.53"/>
          <path class="cls-9" d="M44.32,56.77c1.99,1.73,4.65,4.31,7.3,7.84,1.77,2.36,2.88,4.32,5.03,8.15,3.99,7.11,5.99,10.75,6.38,14.63.23,2.31-.1,3.01-.74,8.21-.46,3.78-.91,8.5-1.13,14-.03.86-.6,1.62-1.42,1.88-1.29.42-2.7.8-4.2,1.11-5.72,1.19-10.75.97-14.47.44"/>
          <path class="cls-9" d="M59.12,139.59c-3.18.73-6.78,1.32-10.75,1.57-11.65.73-21.32-1.78-27.79-4.14-.1-.78-.16-1.82,0-3.04.16-1.23.48-2.23.77-2.96,6.33,2.35,15.72,4.82,27.01,4.14,3.61-.22,6.92-.72,9.86-1.37.27.85.53,1.86.7,3.03.15,1.03.2,1.96.19,2.77Z"/>
          <path class="cls-9" d="M22.42,60.86c-2.9,1-4.18,3.95-4.29,4.2-1.64,5.11-3.2,10.98-4.41,17.55-.85,4.61-1.68,9.87-2.04,13.88l-3.74-.92c.36-4.01.93-8.35,1.78-12.96,1.21-6.57,2.77-12.44,4.41-17.55.12-.28,1.67-3.85,5.26-4.46.45-.08.89-.1,1.3-.08.63.03,1.21.16,1.73.34Z"/>
          <path class="cls-9" d="M40.74,97.49c.33,3.55,2.41,26.21,2.17,36.94-.02.74-.06,2.02-.88,3.2-2.34,3.37-7.94,1.57-21.44.66-10.25-.69-15.49-.22-18-4-.85-1.28-1.06-2.54-1.16-3.27-1.37-9.78.95-31.16,1.54-36.42,7.12,1.36,15.2,2.44,24.12,2.84,4.81.22,9.38.22,13.66.06Z"/>
          <path class="cls-9" d="M37.09,97.57c-.75-3.64-1.51-7.27-2.28-10.91-1.33-6.3-2.67-12.6-4-18.9-.1-.71-.54-3.25-2.63-5.19-.37-.33-1.87-1.73-4.04-2.01h-1.37s-3.08-.04-3.08-.04c.63.03,1.21.16,1.73.34,1.47.52,2.47,1.45,2.76,1.71,2.09,1.94,2.53,4.48,2.63,5.19,1.33,6.3,2.67,12.6,4,18.9.77,3.64,1.53,7.28,2.29,10.92h3.99Z"/>
          <path class="cls-9" d="M14.21,65.78c-7.64,11.7-3.15,42.45-2.67,45.61.24,1.55.36,2.33.49,2.93,2.04,9.14,8.38,15.96,16.25,24.26.54.57,4.57,4.33,5.23,8.24.05.27.17,1.09.42,2.55.19,1.1.5,2.95.87,4.75.55,2.68.68,2.6,1.33,5.48,1.01,4.49.77,5.06,1.64,6.11,1.19,1.44,3.52,2.63,5.31,1.98,1.79-.64,2.4-3.04,3.64-7.83.53-2.06.84-3.31.89-5.11.05-2.01.11-4.64-1.46-6.85-.49-.69-.61-.58-2.69-2.77-1.07-1.12-1.92-2.07-2.46-2.69-7.94-15.62-11.19-21.21-12.59-23.13-1.5-2.06-2.66-4.37-4.35-6.28-.17-.19-.57-.64-.87-1.36-.7-1.66-.23-3.3-.08-3.85,1.67-6.16,3.45-24.29,3.45-29.89,0,0,0,0,0,0,0-.03.37-3.32-.48-7.56-.54-2.67-.91-4.4-2.41-5.92-.56-.57-2.41-2.44-5.01-2.12-.57.07-2.45.44-4.43,3.47Z"/>
          <g>
            <path class="cls-9" d="M35.65,16.66c1.84-.6,9.02-2.7,14.92.8,5.01,2.97,6.29,8.31,7.8,14.61.94,3.91,1.87,10.17.58,18.03-3.81,1.44-8.57,2.91-14.16,3.94-5.47,1.01-10.37,1.35-14.41,1.38"/>
            <path class="cls-9" d="M35.49,16.18c.56-.18,1.86.46,3.23.2.9-.17,1.81-1.31,2.93-1.37.98-.05,1.99.95,3.05,1.07.99.11,2.21-.67,3.21-.35.95.3,1.49,1.61,2.4,2.16,1.03.61,2.53.55,3.28,1.36s.62,2.34,1.17,3.35,1.88,1.61,2.27,2.72c.36,1.04-.27,2.42.03,3.56.28,1.07,1.52,1.93,1.79,3.07.25,1.03-.49,2.41-.28,3.75.17,1.1,1.3,2.2,1.4,3.5.08,1.14-.88,2.38-.89,3.66-.01,1.16.93,2.42.82,3.68-.1,1.16-1.16,2.04-1.37,3.28-.87.33-1.23,1.42-2.2,1.75-.89.3-2.13-.35-3.11-.06-.91.27-1.59,1.5-2.57,1.75-.92.24-2.11-.5-3.1-.28s-1.7,1.38-2.69,1.57c-.97.18-2.1-.65-3.03-.51s-1.81,1.26-2.75,1.37c-.99.11-2.05-.79-2.98-.72-1,.08-1.9,1.13-2.83,1.17-1.01.04-2-.93-2.92-.92"/>
          </g>
          <path class="cls-9" d="M27.52,45.5c.49,1.48.95,3.21,1.28,5.17.51,3.05.54,5.76.4,7.92,1.38.56,4.7,1.69,8.84.91,2.98-.56,5.12-1.88,6.28-2.72-.35-.87-.68-1.87-.95-2.98-.46-1.85-.62-3.53-.65-4.9-5.06-1.13-10.13-2.26-15.19-3.39Z"/>
          <path class="cls-9" d="M23.42,45.59c2.56,1.2,8.58,3.87,14.29,4.94,1.64.31,3.54.52,5.29-.45,1.11-.61,1.71-1.45,2.84-3.06.49-.69,1.77-2.55,2.76-4.94,2.17-5.27,2.17-11.39,2.14-13.1-.13-2.55-.05-4.57.05-5.95.08-1.09.2-2.22-.28-2.44l-7.01.2-22.09,6.49,2,18.32Z"/>
          <path class="cls-9" d="M35.65,28.45c-.76-.1-1.73-.16-2.84-.02-2.04.25-3.58,1.02-4.48,1.57"/>
          <path class="cls-9" d="M44.2,25.98c.53-.41,1.36-.95,2.48-1.3.66-.21,1.26-.3,1.75-.33"/>
          <path class="cls-9" d="M42.31,34c.4.62.9,1.46,1.42,2.49.66,1.32.72,1.7.68,2.02-.14,1.23-1.59,1.86-1.85,1.97"/>
          <path class="cls-9" d="M38.97,44.57c.88.14,2.25.23,3.82-.18.76-.2,1.4-.47,1.91-.74"/>
          <path class="cls-9" d="M49.64,29.29c.33-.58.45-1.14.48-1.56.03-.28-.23-.51-.51-.48-.36.04-.75.09-1.16.17-.37.06-.76.15-1.16.26-.17.05-.33.1-.49.15-1.41.45-2.51,1.06-3.29,1.57"/>
          <path class="cls-9" d="M58.26,97c-.48-.03-1.48-.07-2.76.01-1.53.1-2.57.32-3.51.52-.57.12-1.4.32-2.11.59"/>
          <path class="cls-9" d="M38.73,157.48c-.04,2.57-.09,5.13-.13,7.7"/>
          <path class="cls-9" d="M41.23,158.51c.07,1.1.03,3.42-.17,4.95-.18,1.39-.48,2.6-.8,3.58"/>
          <path class="cls-9" d="M43.71,159.14c-.03,1.14-.14,2.46-.4,3.92-.31,1.7-.75,3.17-1.19,4.38"/>
          <path class="cls-9" d="M45.43,150.91c.33,1.57.61,3.3.8,5.18.1,1.06.17,2.08.2,3.05"/>
          <g>
            <path class="cls-9" d="M40.1,11.1c5.29,2.57,12.15,6.44,11.46,8.97-.42,1.56-3.53,1.93-12.1,3.45-6.57,1.16-11.87,2.2-15.27,2.89-.11,3.82.18,9.45,2.21,15.87,1.62,5.14,3.85,9.16,5.72,11.98-3.22,1.06-7.88,2.18-13.56,2.23-4.45.04-8.24-.59-11.1-1.29-.66-3.91-1.21-10.25.53-17.77,1.68-7.25,4.82-12.37,6.69-15.38,2.14-3.45,4.3-6.14,5.99-8.05"/>
            <path class="cls-9" d="M40.32,10.65c.87.42,1.33,1.77,2.25,2.25s2.27.09,3.13.59c.91.53,1.23,1.92,2.02,2.46.92.64,2.37.52,2.99,1.14.94.95.6,2.07.39,2.84-.17.63-.14,1.67-1.36,2.06-.65.21-1.73-.56-2.75-.35-.74.15-1.39,1.29-2.34,1.46-.77.14-1.79-.7-2.71-.54-.79.14-1.46,1.27-2.37,1.43-1.05.19-2.25-.61-3.24-.43-1.06.19-1.9,1.36-2.88,1.55-1.07.2-2.28-.59-3.24-.4-1.09.21-1.92,1.39-2.86,1.57-1.14.22-2.64-.38-3.53-.2-.03.96.86,2.33.91,3.51.04,1-.89,2.15-.77,3.28.11,1.02,1.24,1.94,1.43,3.05.18,1.02-.59,2.27-.32,3.36.25,1.01,1.5,1.78,1.83,2.83.28.87-.38,2.04-.07,2.85.33.86,1.59,1.3,1.94,2.09.38.85-.14,2.08.25,2.84.43.83,1.73,1.13,2.15,1.86.48.82.05,1.65.5,2.34-.8.26-1.09,1.18-2.05,1.43-.84.22-1.96-.55-2.91-.36-.86.17-1.61,1.31-2.56,1.44-.88.12-1.9-.78-2.85-.71-.89.06-1.77,1.1-2.72,1.11-.77,0-1.5-1.01-2.23-1.04-.77-.03-1.58.92-2.31.85-.77-.07-1.4-1.15-2.11-1.25-.77-.11-1.67.75-2.37.62-.78-.15-1-1.09-1.68-1.26-.17-1.02-1.24-1.88-1.36-3.21-.1-1.1.84-2.34.82-3.62-.01-1.13-.98-2.35-.89-3.61.08-1.14,1.2-2.22,1.38-3.45.17-1.14-.59-2.5-.31-3.7.26-1.14,1.53-1.96,1.85-2.99.35-1.12-.21-2.51.19-3.51.44-1.1,1.82-1.73,2.28-2.68.53-1.09.18-2.55.69-3.45.63-1.11,2.09-1.56,2.59-2.37.36-.59-.11-1.69.25-2.23.39-.58,1.59-.56,1.97-1.09.41-.57,0-1.7.4-2.21.43-.56,1.63-.46,2.03-.95.46-.55.13-1.71.54-2.17"/>
          </g>
          <path class="cls-9" d="M47.67,10.61c-.8-1.67-3.14-5.99-8.1-8.26-5.32-2.44-10.36-1.02-13.96,0-3.57,1.01-7.96,2.24-11.09,6.49-3.62,4.9-3.11,10.49-2.92,12.06l36.07-10.29Z"/>
          <path class="cls-9" d="M10.51,21.68c.05-.23.21-.41.42-.5,5.56-2.39,12.06-4.78,19.45-6.79,6.57-1.79,12.68-2.96,18.14-3.73.26-.04.52.06.67.27.42.56.9,1.29,1.3,2.22.37.85.59,1.63.72,2.3.08.4-.19.78-.6.85-5.66.93-11.89,2.24-18.55,4.12-7.56,2.13-14.29,4.6-20.14,7.09-.37.16-.8-.01-.95-.38-.32-.79-.64-1.9-.68-3.23-.02-.86.08-1.61.22-2.21Z"/>
          <g>
            <line class="cls-9" x1="45.38" y1="17.24" x2="43.21" y2="11.51"/>
            <line class="cls-9" x1="39.56" y1="18.48" x2="37.62" y2="12.62"/>
            <line class="cls-9" x1="33.83" y1="19.93" x2="32.13" y2="13.93"/>
            <polyline class="cls-9" points="26.71 15.44 28.16 21.57 28.16 21.58"/>
            <line class="cls-9" x1="22.53" y1="23.42" x2="21.33" y2="17.17"/>
            <line class="cls-9" x1="16.91" y1="25.47" x2="15.97" y2="19.12"/>
          </g>
          <path class="cls-9" d="M18.39,61.31c1.99.1,4.62-.72,7.57-1.55,1.21-.34,2.3-.75,3.24-1.17"/>
          <g>
            <path class="cls-9" d="M37.09,31.27c-.97-.12-2.57-.18-4.44.32-1.43.38-2.55.96-3.34,1.47-.28.18-.29.59-.01.79l1.38.98"/>
            <path class="cls-9" d="M36.01,31.19c.08.29.13.64.13,1,0,1.13-.42,2.04-.95,2.04s-.95-.91-.95-2.04c0-.34.04-.66.11-.94"/>
          </g>
          <path class="cls-9" d="M48.63,28.6c0,1.12-.43,2.04-.95,2.04s-.96-.92-.96-2.04c0-.28.03-.53.08-.77.16-.05.32-.1.49-.15.4-.11.79-.2,1.16-.26.11.33.18.73.18,1.18Z"/>
        </g>
      </g>
      <g>
        <g>
          <path class="cls-17" d="M75.83,268.91c-.35-.36-.72-.52-.85-.58-1.47-.66-5.18-2.42-10.25-4.83h.02c.08,0,.16.01.24.01.44.03.88.05,1.32.07h0c-.2-.73-.48-1.82-.7-3.16-.09-.55-.17-1.08-.23-1.59-.03-.25-.06-.5-.08-.74-.03-.24-.05-.47-.06-.7-.09-1.19-.1-2.19-.08-2.91,0-.45.02-.79.03-1.01.02-.4.04-.87.06-1.39.01-.26.02-.53.03-.82v-.08c.01-.16.01-.32.02-.49.01-.41.03-.86.04-1.32.04-.98.07-2.05.1-3.21v-.15c.02-.63.04-1.28.06-1.96.03-.84.05-1.71.07-2.61.02-.53.03-1.08.05-1.64.01-.74.03-1.49.05-2.26,0-.17,0-.34,0-.5.03-.88.05-1.77.07-2.66.02-.61.03-1.23.04-1.84.03-1.15.06-2.3.08-3.45.07-2.87.13-5.74.19-8.45,0-.3.01-.6.02-.9.01-.58.02-1.15.03-1.71,0-.28,0-.56.02-.84.01-.55.02-1.09.03-1.62,0-.14,0-.28.01-.42,0-.35,0-.68.02-1.02,0-.21,0-.41.01-.61v-.37c0-.21.01-.41.01-.61.01-.12.01-.23.01-.34.01-.34.01-.67.02-1,0-.2,0-.4.01-.59v-.35c0-.14,0-.28.01-.41v-.15c.01-.21.01-.41.01-.6,0-.2.01-.39.01-.58,0-.27.01-.53.01-.78,0-.75.02-1.4.02-1.95.01-.68.01-1.36.01-2.02,0-1.34-.02-2.66-.04-3.95,0-.1,0-.2-.01-.3-.01-.56-.02-1.11-.04-1.65-.01-.28-.01-.56-.03-.83-.01-.54-.04-1.07-.06-1.6h0c-.01-.55-.03-1.07-.06-1.59-.01-.4-.03-.8-.06-1.2-.02-.4-.04-.8-.06-1.19-.01-.15-.02-.3-.03-.44-.03-.64-.07-1.27-.12-1.9-.04-.59-.08-1.18-.12-1.76-.02-.19-.03-.37-.04-.55-.02-.19-.03-.38-.05-.56-.04-.57-.09-1.13-.14-1.69-.06-.75-.13-1.49-.2-2.23-.06-.62-.12-1.23-.18-1.84v-.04c-.04-.36-.07-.72-.11-1.07-.07-.67-.14-1.34-.22-2.01-.07-.67-.14-1.34-.22-2-.15-1.32-.3-2.63-.46-3.94-.16-1.34-.32-2.67-.48-4-.08-.69-.17-1.38-.26-2.06-.08-.63-.16-1.25-.24-1.87-.11-.83-.23-1.65-.34-2.47-.07-.52-.15-1.04-.22-1.56,0-.01-.01-.02-.01-.03-.09-.63-.18-1.26-.27-1.88v-.02c-.05-.3-.1-.6-.14-.9-.01-.01-.01-.03-.01-.04-.05-.34-.1-.66-.15-.99-.09-.58-.18-1.15-.27-1.72-.23-1.47-.47-2.89-.71-4.26-.1-.6-.2-1.2-.3-1.78-.01-.03-.01-.07-.02-.1-.14-.77-.27-1.53-.41-2.28-.04-.22-.08-.44-.12-.66-.05-.29-.11-.57-.16-.86-.01-.09-.03-.17-.05-.26-.24-1.3-.48-2.55-.72-3.75-.02-.11-.05-.23-.07-.34h0c0-.81-.04-1.75-.19-2.78-.17-1.16-.43-2.18-.7-3.03-.25.06-.51.11-.77.17l-.27-1.02c-.49-1.76-.99-4.23-.97-7.19.01-2.49.38-4.62.81-6.3.27-1.07.4-2.16.44-3.26l.14-4.08c.74-.19,1.46-.4,2.15-.62.82-.27,1.39-1.02,1.42-1.89.22-5.5.66-10.22,1.12-14,.64-5.2.97-5.9.74-8.21-.33-3.31-1.84-6.43-4.73-11.67v-.18c.06-1.59.07-7.14-3.88-12.34-3.48-4.59-8.02-6.21-9.64-6.71h-.58c-.25-.65-.49-1.36-.7-2.14.47.14.93.26,1.37.18.49-.09.93-.43,1.36-.77.43-.35.86-.69,1.33-.79.49-.11,1.03.02,1.57.14.53.14,1.06.26,1.52.14.49-.12.91-.5,1.31-.87h.01c.41-.38.79-.75,1.25-.88.49-.14,1.04-.06,1.58.03.54.09,1.08.18,1.53.03.52-.18.86-.57,1.2-.94.29-.33.59-.65,1-.8.1-.6.38-1.1.68-1.6.31-.55.63-1.07.68-1.68.06-.63-.15-1.26-.38-1.88-.21-.62-.44-1.22-.44-1.8.01-.64.25-1.27.47-1.88.24-.61.46-1.21.42-1.78-.05-.66-.36-1.27-.68-1.85-.31-.56-.62-1.11-.71-1.65-.1-.66.02-1.34.15-1.98.13-.65.25-1.25.13-1.77-.14-.57-.52-1.07-.89-1.56h-.01c-.38-.5-.75-.98-.89-1.51-.15-.57-.07-1.19.01-1.81.07-.62.14-1.23-.04-1.75-.19-.55-.63-.99-1.09-1.41-.45-.42-.92-.82-1.18-1.31-.28-.51-.38-1.13-.51-1.74-.13-.61-.28-1.19-.67-1.61-.38-.4-.94-.59-1.53-.75h-.01c-.24-.07-.5-.13-.74-.21-.02-.14-.06-.29-.12-.43-.09-.26-.25-.52-.49-.77-.3-.31-.81-.43-1.36-.56h-.02c.43-.09.86-.16,1.29-.23.41-.07.68-.44.6-.85-.13-.66-.34-1.45-.71-2.29-.41-.93-.88-1.66-1.3-2.22-.16-.21-.42-.31-.68-.27-.72.1-1.45.21-2.19.33l1.35-.39c-.8-1.67-3.14-5.99-8.1-8.26-5.33-2.44-10.36-1.02-13.97,0-3.57,1.01-7.95,2.24-11.09,6.49-3.61,4.89-3.11,10.47-2.92,12.05h0c-.22.1-.45.2-.67.29-.21.09-.37.28-.42.5-.13.61-.24,1.36-.21,2.22.03,1.33.35,2.43.67,3.22.1.26.34.42.59.44.12.02.24,0,.36-.05.05-.02.1-.04.15-.06-.05.24-.12.47-.23.68-.23.48-.69.87-1.15,1.28-.46.41-.91.84-1.13,1.4-.2.5-.16,1.1-.11,1.71.04.61.1,1.24-.08,1.8-.16.51-.56.98-.95,1.46-.39.47-.77.97-.91,1.53-.13.6-.01,1.25.12,1.88.14.63.29,1.26.2,1.83-.1.61-.42,1.18-.74,1.75h0c-.31.58-.6,1.13-.64,1.7-.04.62.17,1.23.4,1.83.23.61.48,1.2.49,1.77.01.65-.23,1.29-.45,1.91-.22.6-.42,1.17-.37,1.71.06.7.38,1.27.69,1.79.3.48.58.93.67,1.42.3.08.51.31.73.56.26.3.52.63.95.71.34.06.74-.12,1.15-.3.41-.19.83-.38,1.22-.32.36.05.68.33,1.02.63.35.29.7.58,1.09.62.36.03.74-.18,1.12-.41.39-.22.79-.46,1.18-.44.37.02.73.28,1.09.53.38.26.75.52,1.14.51.48,0,.92-.27,1.37-.53.46-.27.9-.55,1.35-.58.48-.04.97.17,1.46.38.48.2.95.39,1.39.33.47-.06.9-.38,1.31-.7.41-.32.82-.64,1.25-.73.47-.09.98.05,1.47.19.38.1.75.21,1.09.21.03,1.1,0,2.11-.06,3.03-.95.42-2.03.83-3.24,1.17-1,.28-1.95.56-2.86.8-.32.08-.62.16-.92.24.08.02.16.04.24.07-.17.06-.34.13-.5.2-.11-.05-.23-.1-.35-.14-1.18.27-2.25.43-3.18.38l2.43-.61c-.3-.08-.62-.13-.96-.15h-.03c-.15,0-.29.03-.44.06-3.59.61-5.14,4.18-5.26,4.46-.19.59-.38,1.19-.56,1.8-1.91,3.5-2.94,8.33-3.42,13.53-.15.73-.29,1.47-.43,2.22-.84,4.57-1.41,8.87-1.77,12.85-1.71-.28-3.37-.57-4.98-.88-.59,5.27-2.91,26.65-1.54,36.43.1.72.31,1.99,1.16,3.27,2.47,3.7,7.56,3.33,17.45,3.97-.02.05-.04.11-.06.16-.19.48-.39.97-.59,1.48,0,0,0,.01-.01.02-.19.5-.38,1.01-.57,1.53-.37,1.01-.73,2.06-1.07,3.16-.11.33-.21.67-.31,1.01-.28.92-.55,1.87-.8,2.85-.15.61-.3,1.23-.45,1.86-.03.14-.07.29-.1.45-.01.04-.02.08-.03.12-.02.1-.05.21-.07.31-.03.15-.06.31-.1.48-.02.07-.03.15-.05.23,0,.02-.01.04-.01.06-.07.34-.15.72-.22,1.12-.01.04-.02.09-.03.13-.04.25-.09.51-.14.79-.02.13-.05.27-.07.41-.03.17-.06.33-.08.5-.03.16-.05.33-.08.5-.02.11-.04.23-.05.35-.01.05-.02.09-.02.14-.01.01-.01.02-.01.03-.02.16-.05.33-.07.5,0,.01,0,.02,0,.03-.01.09-.03.17-.03.26-.02.09-.03.17-.04.26-.02.19-.05.37-.07.56-.01.01-.01.03-.01.04-.01.09-.02.18-.03.27-.01.09-.03.18-.03.27-.01.02-.01.03-.01.04-.02.12-.03.24-.04.36-.01.07-.02.13-.02.2-.01.03-.01.06-.01.08-.02.17-.04.35-.06.53-.02.19-.04.38-.06.58-.01.03-.01.06-.01.09,0,.19-.03.39-.05.59-.01.02-.01.04-.01.06-.01.14-.03.28-.03.42-.01.06-.02.12-.02.18-.02.22-.03.44-.05.66-.01.23-.03.46-.05.69v.05c0,.06-.01.13-.01.19-.02.36-.04.74-.06,1.12v.04c-.01.14-.02.29-.02.43-.03.47-.04.96-.05,1.45-.01.51-.02,1.03-.02,1.57-.01.16-.01.31-.01.47,0,.44.01.87.02,1.27.01.35.02.69.03,1.02,0,.27.03.54.04.8.02.38.05.76.08,1.14.02.32.05.65.08.97,0,.08.01.16.02.25.01.12.02.26.04.39.01.12.03.24.04.37,0,.03,0,.07.01.1.01.13.02.27.04.41.02.18.04.37.07.56,0,.1.02.2.03.3.03.3.07.61.11.92,0,.03,0,.05.01.07v.06c.05.44.11.91.17,1.4.01.09.02.18.04.28,0,.09.01.18.03.27.01.11.02.23.04.35.02.19.04.38.07.58.03.23.05.46.08.7.03.23.05.46.08.7.04.27.07.55.1.84.05.47.11.97.17,1.49.12,1.01.23,2.02.33,3,.12,1.13.24,2.24.35,3.32.07.72.14,1.43.21,2.13.07.69.13,1.37.19,2.03.03.33.06.66.09.98.06.67.12,1.32.17,1.94.05.57.1,1.12.15,1.65,0,.06.01.11.01.16.05.61.1,1.19.14,1.75.03.41.06.8.09,1.18.02.25.04.49.06.72,0,.06.01.12.01.18.02.29.04.57.06.83,0,.06.01.12.01.18.06.9.12,1.78.16,2.66.05.88.1,1.76.13,2.62.03.72.06,1.44.08,2.14,0,.11.01.21.01.32,0,.13.01.26.01.4.02.51.03,1.03.04,1.54.01.47.02.94.03,1.41.01.23.01.46.01.69,0,.29,0,.57,0,.85.01,1.65.01,3.27,0,4.84-.04,4.84-.21,9.3-.38,13.28-.02.53-.05,1.05-.07,1.56-.03.69-.07,1.37-.09,2.03-.03.73-.06,1.44-.1,2.13-.01.32-.03.64-.04.96,0,.16-.01.31-.02.46,0,.09-.01.18-.01.27,0,.07-.01.14-.01.2-.02.53-.04,1.04-.05,1.53-.01.09-.01.17-.01.25-.02.7-.04,1.36-.04,2-.01.02-.01.03,0,.04-.01.55-.02,1.07-.01,1.58,0,.27,0,.54.01.8,0,.5.02.98.05,1.42.01.2.02.39.03.58.03.28.05.55.08.8.01.06.02.15.03.26,0,.11.03.24.04.38s.03.3.04.48c.02.18.03.38.04.6,0,.2.02.41.03.64.01.16.01.34.01.52.02.91,0,1.99-.11,3.19-.18,1.93-.53,3.49-.78,4.46.72.19,1.43.36,2.12.52.07.02.14.03.21.05l3.61.14-2.63,9.41c-.01.13,0-.13,0,0-.03,2.52,1.82,5.24,2.36,5.53.03.01.05.01.06.01,10.04.01,17.07.03,27.11.04.06-.01.11-.02.17-.03,7.45.01,13.64.02,21.83.03,2.59-.44,4.63-2,5.12-4,.07-.3.14-.69.15-1.12.02-.93-.18-2.04-.92-2.79ZM50.83,20.97s-.02.05-.03.07c0-.02,0-.03,0-.04.02,0,.03-.02.04-.03Z"/>
          <g>
            <path class="cls-10" d="M76.17,273.76c-.59,1.97-2.71,3.42-5.32,3.73-10.03-.54-17.05-.92-27.07-1.46,0,0-.03,0-.05,0-2.67-.37-4.51-2.87-4.12-5.53l1.37-9.28,3.72-8.71,8.55,6.35,10.63,4.48c5.41,2.93,9.39,5.08,10.91,5.86.13.07.49.25.82.62,1.02,1.14.85,3,.56,3.94Z"/>
            <path class="cls-1" d="M56.44,259.03c-.72.84-1.49,1.87-1.29,2.36.43,1.06,5.04-1.56,5.6-.35.5,1.06-2.62,4.1-2.14,4.95.54.96,4.98-2.03,5.61-.89.32.58-.64,1.68-.26,2.56.29.67,1.17.79,2.01.74"/>
            <path class="cls-1" d="M39.56,270.88c.8.24,1.22.37.81.37l26.28,1.79c5.25.32,7.51.12,9.72-.39"/>
          </g>
          <g>
            <path class="cls-10" d="M55.9,278.72c-.84,1.88-3.12,3.05-5.75,3.02-9.88-1.8-16.79-3.07-26.67-4.87,0,0-.02,0-.05-.01-2.6-.7-4.11-3.41-3.39-6.01l2.53-9.03,4.79-8.17,7.68,7.37,9.98,5.79c5,3.59,8.67,6.22,10.08,7.19.12.08.45.31.73.72.87,1.26.47,3.08.06,3.98Z"/>
            <path class="cls-1" d="M38.18,261.61c-.82.74-1.71,1.67-1.58,2.17.29,1.11,5.19-.91,5.6.36.36,1.12-3.12,3.74-2.75,4.64.42,1.02,5.2-1.38,5.68-.17.24.61-.84,1.59-.58,2.5.2.7,1.06.93,1.9.99"/>
            <path class="cls-1" d="M19.94,271.24c.76.34,1.17.53.76.47l25.85,5.09c5.17.98,7.44,1.07,9.7.84"/>
          </g>
        </g>
        <g>
          <g>
            <path class="cls-4" d="M57.83,262.92c-.91-.1-1.83-.21-2.77-.34-.59-.08-1.18-.16-1.76-.25-.45-.07-.9-.14-1.34-.21-1.1-.17-2.17-.36-3.21-.56-.12-1.95-.25-4.38-.37-7.2,1.86.23,3.85.39,5.95.47,1.07.04,2.12.06,3.13.05.12,3.14.25,5.84.37,8.04Z"/>
            <path class="cls-4" d="M48.38,254.36c-.95-.1-1.88-.23-2.76-.37,0-.32,0-.62.01-.9.07-1.57.26-2.67.31-2.98.18-1.13.32-2.57.41-4.23.58.09,1.17.16,1.77.23.05,2.24.11,4.33.18,6.27.03.68.05,1.34.08,1.98Z"/>
            <path class="cls-4" d="M48.83,205.02c-1.01-.06-1.97-.15-2.89-.25-.08-2.29-.15-4.59-.22-6.89-.01-.45-.03-.9-.04-1.35.98.11,2.03.2,3.13.26,0,.25.01.5.01.75.03,2.81.03,5.34.01,7.48Z"/>
            <path class="cls-7" d="M66.31,263.57c-.99-.04-2-.1-3.03-.17-.79-.05-1.59-.11-2.4-.18-.46-.04-.92-.08-1.39-.13-.55-.05-1.1-.11-1.66-.17-.12-2.2-.25-4.9-.37-8.04,2.79-.01,5.37-.16,7.7-.41-.02.72-.01,1.72.08,2.91.01.23.03.46.06.7.02.24.05.49.08.74.06.51.13,1.04.23,1.59.22,1.34.5,2.43.7,3.16Z"/>
            <path class="cls-7" d="M48.83,205.02v.34c-.01,3.34-.06,5.7-.08,6.65-.01.4-.02.8-.02,1.19-.07.02-.14.03-.2.04-.79-.06-1.55-.14-2.28-.22-.03-.82-.05-1.29-.05-1.29-.08-1.99-.15-3.98-.23-5.98-.01-.33-.02-.65-.03-.98.92.1,1.88.19,2.89.25Z"/>
            <path class="cls-7" d="M57.48,205.01c-.6.04-1.22.08-1.85.1-2.44.1-4.71.06-6.8-.09.02-2.14.02-4.67-.01-7.48,0-.25-.01-.5-.01-.75,2.15.14,4.51.17,7.04.04.5-.03,1-.06,1.48-.09.09,3.05.13,5.84.15,8.27Z"/>
            <path class="cls-7" d="M48.48,221.46c-.09,2.57-.18,5.01-.26,7.5,0,.23-.01.46-.02.7-.54-.05-1.06-.11-1.57-.17v-.2c-.03-2.76-.08-5.45-.13-7.86v-.17c.2.03.39.05.59.07h.02c.45.05.91.09,1.37.13Z"/>
            <path class="cls-4" d="M57.21,246.55c-.86.02-1.75.01-2.66-.01-2.29-.05-4.44-.21-6.43-.43,0-.49-.01-.98-.02-1.48-.04-2.45-.05-4.68-.04-6.76,2.06.22,4.31.36,6.71.39.8.01,1.58,0,2.34-.02,0,.74,0,1.5.01,2.3.02,2.09.05,4.1.09,6.01Z"/>
            <path class="cls-4" d="M48.2,229.66c-.06,2.27-.11,4.61-.13,7.16,0,.35-.01.7-.01,1.05-.49-.05-.97-.1-1.44-.16.01-.19.01-.38.01-.57.03-2.5.02-5.1,0-7.65.51.06,1.03.12,1.57.17Z"/>
            <path class="cls-4" d="M57.35,221.61c-.06,2.82-.14,5.43-.19,8.32-.71.02-1.44.04-2.18.04-2.43,0-4.7-.11-6.78-.31,0-.24.02-.47.02-.7.08-2.49.17-4.93.26-7.5,2.07.17,4.32.26,6.72.22.73-.01,1.45-.04,2.15-.07Z"/>
            <path class="cls-4" d="M48.68,188.94c-1.13-.05-2.2-.13-3.21-.23-.06-2.2-.12-4.41-.17-6.62l-.03-1.2c.99.08,2.04.14,3.14.18.01.28.02.56.03.83.1,2.41.18,4.77.24,7.04Z"/>
            <path class="cls-4" d="M46.74,157.39c-.13.01-.27.01-.4.01-.59,0-1.16-.01-1.72-.03-.06-2.2-.12-4.53-.19-7-.01-.28-.01-.57-.02-.86.49,0,.98,0,1.48-.02.04.31.07.62.1.93.28,2.4.53,4.72.75,6.97Z"/>
            <path class="cls-7" d="M54.13,156.88c-1.53.19-3.12.33-4.76.43-.9.05-1.78.08-2.63.08-.22-2.25-.47-4.57-.75-6.97-.03-.31-.06-.62-.1-.93.71-.02,1.44-.05,2.18-.09,1.66-.1,3.28-.25,4.84-.43.46,2.73.86,5.37,1.22,7.91Z"/>
            <path class="cls-7" d="M55.99,172.78c-1.3.15-2.64.26-4.03.34-1.38.07-2.71.09-3.97.07-.13-2.2-.29-4.52-.47-6.97-.03-.31-.05-.62-.07-.93,1.03.01,2.1-.02,3.21-.08,1.56-.09,3.06-.23,4.5-.39.33,2.8.6,5.46.83,7.96Z"/>
            <path class="cls-7" d="M48.41,181.07c-1.1-.04-2.15-.1-3.14-.18l-.18-6.72c0-.37-.02-.73-.03-1.1.93.06,1.91.1,2.93.12.02.29.04.58.06.87.13,2.19.23,4.24.32,6.15.01.29.03.58.04.86Z"/>
            <path class="cls-7" d="M57.05,188.73c-.81.08-1.65.14-2.5.19-2.09.11-4.05.11-5.87.02-.06-2.27-.14-4.63-.24-7.04-.01-.27-.02-.55-.03-.83,1.52.05,3.14.04,4.84-.05,1.16-.06,2.28-.15,3.36-.27.18,2.73.33,5.41.44,7.98Z"/>
            <path class="cls-7" d="M48.81,196.79c-1.1-.06-2.15-.15-3.13-.26-.06-2.17-.12-4.35-.18-6.53l-.03-1.29c1.01.1,2.08.18,3.21.23,0,.26.01.51.02.77.05,2.49.09,4.87.11,7.08Z"/>
            <path class="cls-7" d="M65.67,237.53c0,.15,0,.31-.01.46-.01.29-.01.58-.02.88,0,.31-.01.62-.02.92-.02.56-.03,1.11-.05,1.64-.04,1.62-.08,3.15-.13,4.57-2.46.3-5.22.52-8.23.55-.04-1.91-.07-3.92-.09-6.01-.01-.8-.01-1.56-.01-2.3,3.16-.08,6.03-.35,8.56-.71Z"/>
            <path class="cls-7" d="M66.06,220.63c-.06,2.71-.12,5.57-.19,8.45-2.56.41-5.48.74-8.71.85.05-2.89.13-5.5.19-8.32,3.24-.15,6.16-.53,8.71-.98Z"/>
            <path class="cls-7" d="M66.32,203.76c0,.66,0,1.34-.01,2.02,0,.55-.01,1.2-.02,1.95,0,.25-.01.51-.01.78-.02,1.08-.04,2.32-.06,3.68-2.54.5-5.47.92-8.74,1.11.01-.29.01-.59.01-.89.01-1.74.02-4.28-.01-7.4,3.32-.23,6.29-.7,8.84-1.25Z"/>
            <path class="cls-4" d="M66.22,212.19c0,.31-.01.63-.02.95,0,.32-.01.65-.01.98-.01.34-.02.68-.02,1.02,0,.14-.01.28-.01.42-.01.53-.02,1.07-.03,1.62-.01.28-.01.56-.02.84-.01.56-.02,1.13-.03,1.71-.01.3-.01.6-.02.9-2.55.45-5.47.83-8.71.98.06-2.49.11-5.15.13-8.31,3.27-.19,6.2-.61,8.74-1.11Z"/>
            <path class="cls-4" d="M66.32,203.76c-2.55.55-5.52,1.02-8.84,1.25-.02-2.43-.06-5.22-.15-8.27,3.3-.26,6.26-.74,8.81-1.31.04.81.07,1.63.09,2.47.02.53.03,1.06.04,1.6.01.08.01.17.01.26.01.53.02,1.07.02,1.61.01.39.01.79.01,1.19.01.4.01.8.01,1.2Z"/>
            <path class="cls-4" d="M65.69,187.35c-2.52.59-5.41,1.1-8.64,1.38-.11-2.57-.26-5.25-.44-7.98,3.1-.32,5.9-.82,8.36-1.38.04.36.07.71.11,1.07.06.63.12,1.25.18,1.88.07.74.14,1.48.2,2.23.05.61.1,1.22.15,1.84.03.32.05.64.08.96Z"/>
            <path class="cls-7" d="M66.14,195.42h0c-2.55.58-5.51,1.06-8.81,1.32-.06-2.52-.15-5.2-.28-8.01,3.23-.28,6.12-.79,8.64-1.38.04.58.08,1.17.12,1.76.04.54.07,1.08.1,1.63.01.1.02.2.02.3.05.76.09,1.53.12,2.31.04.68.07,1.37.09,2.07Z"/>
            <path class="cls-4" d="M64.07,171.41h0c-2.41.55-5.12,1.04-8.08,1.37-.23-2.5-.5-5.16-.83-7.96,2.88-.33,5.53-.8,7.93-1.33.17,1.29.34,2.6.5,3.94.16,1.32.32,2.65.48,3.98Z"/>
            <path class="cls-4" d="M61.95,155.6c-2.4.51-5.01.96-7.82,1.28-.36-2.54-.76-5.18-1.22-7.91,2.75-.31,5.33-.74,7.74-1.23.01.03.01.07.02.1.1.58.2,1.18.3,1.78.33,1.91.66,3.9.98,5.98Z"/>
            <path class="cls-7" d="M63.09,163.49c-2.4.53-5.05,1-7.93,1.33-.29-2.53-.63-5.18-1.03-7.94,2.81-.32,5.42-.77,7.82-1.28.14.91.28,1.84.42,2.78.14.98.29,1.98.43,3,.09.7.19,1.4.29,2.11Z"/>
            <path class="cls-7" d="M60.65,147.74c-2.41.49-4.99.92-7.74,1.23-.42-2.55-.89-5.18-1.41-7.89,2.7-.29,5.26-.69,7.69-1.15.47,2.39.96,5,1.46,7.81Z"/>
            <path class="cls-7" d="M64.97,179.37c-2.46.56-5.26,1.06-8.36,1.38-.01-.16-.02-.32-.03-.48-.15-2.31-.34-4.81-.59-7.49,2.96-.33,5.67-.82,8.08-1.36.16,1.31.31,2.62.46,3.94.08.66.15,1.33.22,2,.08.67.15,1.34.22,2.01Z"/>
            <path class="cls-4" d="M65.87,229.08c-.02,1.15-.05,2.3-.08,3.46-.01.61-.02,1.22-.04,1.84-.02.91-.05,1.8-.07,2.68,0,.15,0,.31-.01.47-2.53.36-5.4.63-8.56.71-.01-3.17.01-5.84.05-8.31,3.23-.11,6.15-.44,8.71-.85Z"/>
            <path class="cls-4" d="M65.44,246v.15c0,.23-.01.45-.02.67-.01.22-.02.43-.02.64,0,.12,0,.24,0,.36,0,.2-.01.4-.02.59-.01.12-.01.23-.01.35,0,.2-.01.4-.02.6,0,.46-.03.91-.04,1.32-.01.18-.01.35-.02.52v.05c-.01.29-.02.57-.03.83-.02.52-.04.99-.06,1.39-.01.22-.03.55-.03,1-2.33.25-4.91.4-7.7.41-.1-2.51-.19-5.3-.25-8.33,3.01-.03,5.77-.25,8.23-.55Z"/>
            <path class="cls-7" d="M48.75,261.56c-.78-.14-1.55-.29-2.3-.45l-.45-2.17c-.21-1.18-.36-2.54-.39-4.04,0-.31,0-.62.01-.91.88.14,1.81.27,2.76.37.12,2.82.25,5.25.37,7.2Z"/>
            <path class="cls-7" d="M48.12,246.11c-.6-.07-1.19-.14-1.77-.23.02-.27.04-.55.05-.84.12-2.19.19-4.7.22-7.33.47.06.95.11,1.44.16-.01,2.08,0,4.31.04,6.76.01.5.02.99.02,1.48Z"/>
            <path class="cls-4" d="M57.33,196.74c-.48.03-.98.06-1.48.09-2.53.13-4.89.1-7.04-.04-.02-2.21-.06-4.59-.11-7.08-.01-.26-.02-.51-.02-.77,1.82.09,3.78.09,5.87-.02.85-.05,1.69-.11,2.5-.19.13,2.81.22,5.49.28,8.01Z"/>
            <path class="cls-4" d="M56.61,180.75c-1.08.12-2.2.21-3.36.27-1.7.09-3.32.1-4.84.05-.01-.28-.03-.57-.04-.86-.09-1.91-.19-3.96-.32-6.15-.02-.29-.04-.58-.06-.87,1.26.02,2.59,0,3.97-.07,1.39-.08,2.73-.19,4.03-.34.25,2.68.44,5.18.59,7.49,0,.16.02.32.03.48Z"/>
            <path class="cls-4" d="M55.16,164.82c-1.44.16-2.94.3-4.5.39-1.11.06-2.18.09-3.21.08-.18-2.22-.39-4.54-.61-6.95-.04-.32-.07-.63-.1-.95.85,0,1.73-.03,2.63-.08,1.64-.1,3.23-.24,4.76-.43.4,2.76.74,5.41,1.03,7.94Z"/>
            <path class="cls-7" d="M57.11,238.24c-.76.02-1.54.03-2.34.02-2.4-.03-4.65-.17-6.71-.39,0-.35.01-.7.01-1.05.02-2.55.07-4.89.13-7.16,2.08.2,4.35.32,6.78.31.74,0,1.47-.02,2.18-.04-.04,2.47-.06,5.14-.05,8.31Z"/>
            <path class="cls-7" d="M57.48,213.3c-.02,3.16-.07,5.82-.13,8.31-.7.03-1.42.06-2.15.07-2.4.04-4.65-.05-6.72-.22.01-.13.01-.26.02-.39.08-2.42.16-4.97.22-7.82,2.06.16,4.3.22,6.69.15.7-.02,1.39-.05,2.07-.1Z"/>
            <path class="cls-4" d="M52.91,148.97c-1.56.18-3.18.33-4.84.43-.74.04-1.47.07-2.18.09-.27-2.28-.56-4.63-.88-7.04-.04-.28-.08-.57-.12-.86.63-.02,1.26-.05,1.89-.09,1.62-.1,3.19-.24,4.72-.42.52,2.71.99,5.34,1.41,7.89Z"/>
            <path class="cls-7" d="M45.89,149.49c-.5.02-.99.02-1.48.02-.06-2.26-.12-4.63-.17-7.1-.01-.27-.01-.53-.02-.8.22,0,.45-.01.67-.02.04.29.08.58.12.86.32,2.41.61,4.76.88,7.04Z"/>
            <path class="cls-7" d="M47.45,165.29c-.9,0-1.78-.03-2.61-.07,0-.66-.03-1.31-.05-1.97-.04-1.55-.09-3.19-.14-4.93,0-.31-.02-.63-.03-.95.56.02,1.13.03,1.72.03.13,0,.27,0,.4-.01.03.32.06.63.1.95.22,2.41.43,4.73.61,6.95Z"/>
            <path class="cls-4" d="M57.49,212.41c0,.3,0,.6-.01.89-.68.05-1.37.08-2.07.1-2.39.07-4.63.01-6.69-.15,0-.02,0-.03.01-.05,0-.39.01-.79.02-1.19.02-.95.07-3.31.08-6.65v-.34c2.09.15,4.36.19,6.8.09.63-.02,1.25-.06,1.85-.1.03,3.12.02,5.66.01,7.4Z"/>
            <path class="cls-7" d="M57.46,254.88c-1.01.01-2.06-.01-3.13-.05-2.1-.08-4.09-.24-5.95-.47-.03-.64-.05-1.3-.08-1.98-.07-1.94-.13-4.03-.18-6.27,1.99.22,4.14.38,6.43.43.91.02,1.8.03,2.66.01.06,3.03.15,5.82.25,8.33Z"/>
            <path class="cls-4" d="M48.72,213.25c-.06,2.85-.14,5.4-.22,7.82-.47.1-.94.19-1.39.26h-.02c-.2-.02-.39-.04-.59-.07-.08-3.24-.17-5.96-.23-7.65h0c0-.22,0-.41-.02-.59.73.08,1.49.16,2.28.22.06,0,.13.01.19.01Z"/>
            <path class="cls-4" d="M47.99,173.19c-1.02-.02-2-.06-2.93-.12-.06-2.27-.12-4.55-.19-6.82-.01-.34-.01-.69-.03-1.03.83.04,1.71.07,2.61.07.02.31.04.62.07.93.18,2.45.34,4.77.47,6.97Z"/>
          </g>
          <g>
            <path class="cls-12" d="M46.45,261.11c-1.47.46-3.44.99-5.79,1.4-.17.03-.41.07-.74.12-.16.02-.33.04-.52.07-.32.05-.69.09-1.1.14-.32.04-.68.08-1.06.11-.02.01-.05.01-.07.01l-.08-.94-.35-7.6c.31-.02.63-.04.95-.07.33-.03.66-.06,1-.09.1-.01.2-.02.3-.03.53-.06,1.08-.12,1.64-.2.44-.06.89-.13,1.34-.21.22-.03.44-.07.67-.11l.18-.03c.15-.03.31-.06.46-.09h.01c.5-.09,1.01-.2,1.53-.32.27-.05.54-.11.81-.18-.01.28-.01.58-.01.9-.01.29-.01.6-.01.91.03,1.5.18,2.86.39,4.04.13.81.29,1.54.45,2.17Z"/>
            <path class="cls-12" d="M26.91,254.1c-.11,2.91-.21,5.83-.3,8.74v.06c-2.87-.27-6.24-.8-9.98-1.79.25-.97.6-2.52.78-4.46.13-1.43.14-2.7.1-3.71-.01-.23-.02-.44-.03-.64,1.72.45,3.72.9,5.96,1.28.94.16,2.11.36,3.47.52Z"/>
            <path class="cls-7" d="M37.17,262.96c-1.68.14-3.85.25-6.39.19-1.23-.03-2.63-.1-4.18-.25v-.06c.1-2.91.2-5.83.31-8.74,2.3.29,5.17.51,8.51.38.42,0,.86-.04,1.32-.06l.35,7.6.08.94Z"/>
            <path class="cls-12" d="M46.63,237.14c0,.19,0,.38-.01.57-.03,2.63-.1,5.14-.22,7.33-.81.19-1.6.35-2.37.49-.27.05-.54.1-.8.14-2.48.42-4.72.61-6.65.7v-8.05c.36-.01.74-.02,1.12-.04.14,0,.28-.01.43-.02.28-.02.56-.03.85-.06.42-.03.85-.06,1.29-.11.44-.04.89-.08,1.35-.14.42-.04.85-.1,1.29-.16h.01s.04,0,.06,0c.11-.02.23-.03.34-.05.14-.02.28-.04.42-.06.38-.06.78-.13,1.17-.2h.01c.56-.1,1.13-.21,1.71-.33Z"/>
            <path class="cls-7" d="M46.4,245.04c0,.29-.03.57-.05.84-.09,1.66-.23,3.1-.41,4.23-.05.31-.24,1.41-.31,2.98-.27.07-.54.13-.81.18-.52.12-1.03.23-1.53.32h-.01c-.15.03-.31.06-.46.09l-.18.03c-.23.04-.45.08-.67.11-.45.08-.9.15-1.34.21-.56.08-1.11.14-1.64.2-.1.01-.2.02-.3.03-.34.03-.67.06-1,.09-.32.03-.64.05-.95.07l-.16-3.37v-4.68c1.93-.09,4.17-.28,6.65-.7.26-.04.53-.09.8-.14.77-.14,1.56-.3,2.37-.49Z"/>
            <path class="cls-12" d="M46.63,229.29c-.22.04-.44.08-.66.11h-.01c-.45.08-.9.15-1.34.22-.12.03-.24.04-.36.06-.41.06-.81.11-1.2.16-.57.07-1.12.13-1.66.17-.43.04-.84.08-1.25.11-.05,0-.1,0-.16.01-.3.02-.6.04-.9.05-.3.02-.59.03-.88.04-.58.02-1.13.03-1.67.04l-.17-8.06c.38,0,.77,0,1.17-.01.23,0,.47,0,.71-.01.02.01.05.01.08,0,.6-.01,1.21-.03,1.84-.07.66-.03,1.34-.08,2.04-.14.3-.02.6-.05.9-.09.5-.05,1.02-.11,1.54-.18.24-.03.49-.06.74-.1.37-.05.74-.11,1.11-.17.05,2.41.1,5.1.13,7.86Z"/>
            <path class="cls-7" d="M46.63,237.14c-.58.12-1.15.23-1.71.33h-.01c-.39.07-.79.14-1.17.2-.14.02-.28.04-.42.06-.11.02-.23.03-.34.05-.02,0-.04,0-.06,0h-.01c-.44.06-.87.12-1.29.16-.46.06-.91.1-1.35.14-.44.05-.87.08-1.29.11-.29.03-.57.04-.85.06-.15.01-.29.02-.43.02-.38.02-.76.03-1.12.04v-6.34l-.04-1.72c.54-.01,1.09-.02,1.67-.04.29-.01.58-.02.88-.04.3-.01.6-.03.9-.05.06-.01.11-.01.16-.01.41-.03.82-.07,1.25-.11.54-.04,1.09-.1,1.66-.17.39-.05.79-.1,1.2-.16.12-.02.24-.03.36-.06.44-.06.88-.13,1.34-.22h.01c.22-.03.44-.07.66-.11v.2c.02,2.55.03,5.15,0,7.65Z"/>
            <path class="cls-12" d="M46.27,213.6h0c-3.56.48-6.8.6-9.61.56-.15,0-.3-.01-.45-.01l-.05-2.4-.12-5.67c2.9.11,6.25.08,9.93-.33.08,2,.15,3.99.23,5.98,0,0,.02.47.05,1.29.01.18.01.37.02.58Z"/>
            <path class="cls-7" d="M46.5,221.26v.17c-.37.06-.74.12-1.11.17-.25.04-.5.07-.74.1-.52.07-1.04.13-1.54.18-.3.04-.6.07-.9.09-.7.06-1.38.11-2.04.14-.63.04-1.24.06-1.84.07-.03.01-.06.01-.08,0-.24.01-.48.01-.71.01-.4.01-.79.01-1.17.01l-.16-8.05c.15,0,.3.01.45.01,2.81.04,6.05-.08,9.61-.55.06,1.69.15,4.41.23,7.65Z"/>
            <path class="cls-12" d="M45.72,197.88c-3.62.31-6.94.28-9.85.13v-.27s.2-7.78.2-7.78c2.84.18,6.01.24,9.43.04.06,2.18.12,4.36.18,6.53.01.45.03.9.04,1.35Z"/>
            <path class="cls-12" d="M45.3,182.09c-3.24.13-6.26.03-9.02-.18l.22-8.03c2.66.22,5.54.35,8.59.29l.18,6.72.03,1.2Z"/>
            <path class="cls-7" d="M45.5,190c-3.42.2-6.59.14-9.43-.04l.21-8.05c2.76.21,5.78.31,9.02.18.05,2.21.11,4.42.17,6.62l.03,1.29Z"/>
            <path class="cls-12" d="M44.87,166.25c-.79,0-1.57-.02-2.33-.04-.68-.02-1.35-.05-2.01-.09-.65-.03-1.29-.07-1.92-.12-.64-.05-1.26-.09-1.87-.15l.25-8.03c.57.06,1.14.12,1.73.17,1.9.17,3.88.28,5.93.33.05,1.74.1,3.38.14,4.93.02.66.04,1.31.05,1.97.02.34.02.69.03,1.03Z"/>
            <path class="cls-7" d="M45.09,174.17c-3.05.06-5.93-.07-8.59-.29l.08-3.1.16-4.93c.61.06,1.23.1,1.87.15.63.05,1.27.09,1.92.12.66.04,1.33.07,2.01.09.76.02,1.54.04,2.33.04.07,2.27.13,4.55.19,6.82.01.37.02.73.03,1.1Z"/>
            <path class="cls-12" d="M44.43,150.37c-2.49-.1-4.89-.3-7.19-.56l.26-8.02c2.18.27,4.42.48,6.74.62.05,2.47.11,4.84.17,7.1.01.29.01.58.02.86Z"/>
            <path class="cls-7" d="M44.65,158.32c-2.05-.05-4.03-.16-5.93-.33-.59-.05-1.16-.11-1.73-.17l.25-8.01c2.3.26,4.7.46,7.19.56.07,2.47.13,4.8.19,7,.01.32.02.64.03.95Z"/>
            <path class="cls-7" d="M45.97,205.75c-3.68.41-7.03.44-9.93.33l-.17-8.07c2.91.15,6.23.18,9.85-.13.07,2.3.14,4.6.22,6.89.01.33.02.65.03.98Z"/>
            <path class="cls-12" d="M36.58,231.98v6.34c-.41.01-.81.02-1.2.02-3.35.03-6.26-.25-8.65-.58-.01-1.49,0-3.04.02-4.66.02-1.66.05-2.36.09-3.49,2.38.35,5.25.64,8.52.66.38,0,.77,0,1.18-.01l.04,1.72Z"/>
            <path class="cls-12" d="M36.37,222.2c-.35,0-.69,0-1.03-.01-3.14-.06-5.93-.35-8.3-.7.03-2.2.06-5.13.07-8.15,2.37.37,5.13.68,8.21.78.29.01.59.02.89.03l.16,8.05Z"/>
            <path class="cls-12" d="M36.04,206.08c-.25-.01-.5-.02-.74-.03-3.11-.15-5.9-.48-8.33-.88-.1-2.94-.26-5.62-.42-8.24,2.55.46,5.47.85,8.72,1.05l.6.03.17,8.07Z"/>
            <path class="cls-12" d="M36.28,181.91l-.21,8.05c-.28-.01-.55-.03-.82-.05-3.43-.25-6.52-.71-9.22-1.23-.13-2.54-.24-5.22-.28-8.21,2.79.56,5.97,1.06,9.48,1.36.35.03.7.06,1.05.08Z"/>
            <path class="cls-12" d="M36.74,165.85l-.16,4.93-.08,3.1c-.44-.04-.87-.08-1.29-.12-3.44-.34-6.6-.86-9.41-1.44.05-1.83.1-2.5.33-8.09,2.75.58,5.78,1.1,9.06,1.46.51.05,1.03.11,1.55.16Z"/>
            <path class="cls-12" d="M26.85,245.93c-1.37-.18-2.55-.38-3.53-.55-2.3-.4-4.35-.89-6.12-1.37,0-.42.02-.85.04-1.3.02-.79.05-1.63.09-2.5.02-.34.04-.69.05-1.04,0-.08.01-.17.01-.25.03-.71.07-1.43.1-2.18.01-.28.02-.56.04-.85,1.67.44,3.57.89,5.66,1.28,1,.19,2.18.4,3.54.59.01,3.04.06,5.78.12,8.17Z"/>
            <path class="cls-7" d="M36.54,230.26c-.41.01-.8.01-1.18.01-3.27-.02-6.14-.31-8.52-.66.04-.91.08-2.1.13-4.3,0,0,.03-1.51.07-3.82,2.37.35,5.16.64,8.3.7.34.01.68.01,1.03.01l.17,8.06Z"/>
            <path class="cls-12" d="M27.04,221.49c-.04,2.31-.07,3.82-.07,3.82-.05,2.2-.09,3.39-.13,4.3-1.43-.21-2.7-.44-3.77-.65-1.9-.37-3.64-.78-5.21-1.2,0-.25.01-.5.02-.76.02-.68.04-1.37.05-2.07.01-.69.03-1.4.04-2.13.01-.52.02-1.05.02-1.58.01-.54.01-1.08.01-1.62,1.5.39,3.16.79,4.95,1.15,1.17.24,2.54.5,4.09.74Z"/>
            <path class="cls-7" d="M36.21,214.15c-.3-.01-.6-.02-.89-.03-3.08-.1-5.84-.41-8.21-.78v-.59c0-2.76-.05-5.25-.14-7.58,2.43.4,5.22.73,8.33.88.24.01.49.02.74.03l.17,8.07Z"/>
            <path class="cls-12" d="M27.11,212.75v.59c-1.61-.25-3.05-.53-4.29-.79-1.77-.38-3.42-.78-4.92-1.19-.07-2.63-.2-5.35-.39-8.14,0-.06-.01-.12-.01-.18,1.59.45,3.33.89,5.2,1.3,1.26.28,2.69.57,4.27.83.09,2.33.14,4.82.14,7.58Z"/>
            <path class="cls-7" d="M27.11,213.34c-.01,3.02-.04,5.95-.07,8.15-1.55-.24-2.92-.5-4.09-.74-1.79-.36-3.45-.76-4.95-1.15.02-2.64-.01-5.39-.1-8.24,1.5.41,3.15.81,4.92,1.19,1.24.26,2.68.54,4.29.79Z"/>
            <path class="cls-7" d="M35.86,197.74v.27s-.59-.03-.59-.03c-3.25-.2-6.17-.59-8.72-1.05-.18-2.74-.37-5.41-.52-8.25,2.7.52,5.79.98,9.22,1.23.27.02.54.04.82.05l-.21,7.78Z"/>
            <path class="cls-12" d="M26.55,196.93c-1.45-.25-2.77-.52-3.97-.8-2.09-.48-4.02-.99-5.77-1.5-.07-.84-.15-1.7-.24-2.6-.18-1.85-.38-3.82-.6-5.86,1.95.6,4.12,1.2,6.49,1.75,1.1.26,2.29.52,3.57.76.15,2.84.34,5.51.52,8.25Z"/>
            <path class="cls-7" d="M36.5,173.88l-.22,8.03c-.35-.02-.7-.05-1.05-.08-3.51-.3-6.69-.8-9.48-1.36-.03-2.23-.02-4.64.03-7.29.01-.32.01-.6.02-.86,2.81.58,5.97,1.1,9.41,1.44.42.04.85.08,1.29.12Z"/>
            <path class="cls-12" d="M25.78,173.18c-.05,2.65-.06,5.06-.03,7.29-1.21-.25-2.36-.5-3.42-.76-2.7-.65-5.16-1.35-7.33-2.05-.12-.96-.22-1.8-.31-2.58-.03-.29-.06-.56-.09-.83-.03-.28-.06-.54-.08-.8-.03-.26-.05-.51-.07-.76-.03-.26-.04-.51-.06-.76-.02-.19-.03-.39-.04-.59-.04-.68-.07-1.38-.09-2.14,2.33.78,5,1.57,7.95,2.31,1.12.28,2.32.55,3.59.81-.01.26-.01.54-.02.86Z"/>
            <path class="cls-7" d="M26.03,188.68c-1.28-.24-2.47-.5-3.57-.76-2.37-.55-4.54-1.15-6.49-1.75-.1-.98-.21-1.99-.33-3-.12-1.04-.23-1.98-.33-2.84-.05-.44-.1-.85-.14-1.24-.04-.29-.08-.58-.1-.85-.03-.2-.05-.39-.07-.58,2.17.7,4.63,1.4,7.33,2.05,1.06.26,2.21.51,3.42.76.04,2.99.15,5.67.28,8.21Z"/>
            <path class="cls-12" d="M26.45,156.15c-.14,3.5-.24,6.1-.32,8.08-1.42-.29-2.77-.61-4.04-.93-2.77-.71-5.3-1.47-7.56-2.22.26-3.16.66-5.82,1.04-7.86,1.96.64,4.1,1.27,6.39,1.87,1.41.37,2.91.73,4.49,1.06Z"/>
            <path class="cls-7" d="M26.13,164.23c-.23,5.59-.28,6.26-.33,8.09-1.27-.26-2.47-.53-3.59-.81-2.95-.74-5.62-1.53-7.95-2.31,0-.4-.01-.83-.01-1.27s0-.85.01-1.26c0-.26,0-.52,0-.78.02-.64.04-1.27.07-1.88.02-.47.04-.94.07-1.4.04-.53.07-1.04.12-1.53,2.26.75,4.79,1.51,7.56,2.22,1.27.32,2.62.64,4.04.93Z"/>
            <path class="cls-7" d="M26.97,205.17c-1.58-.26-3.01-.55-4.27-.83-1.87-.41-3.61-.85-5.2-1.3-.02-.32-.05-.66-.07-1.01-.05-.61-.1-1.28-.16-1.99-.03-.49-.08-1-.12-1.53-.1-1.2-.21-2.5-.34-3.88,1.75.51,3.68,1.02,5.77,1.5,1.2.28,2.52.55,3.97.8.16,2.62.32,5.3.42,8.24Z"/>
            <path class="cls-7" d="M36.58,238.32v8.05c-.41.02-.8.03-1.18.04-3.33.08-6.22-.17-8.55-.48-.06-2.39-.11-5.13-.12-8.17,2.39.33,5.3.61,8.65.58.39,0,.79-.01,1.2-.02Z"/>
            <path class="cls-7" d="M27.02,250.81c-.04,1.1-.08,2.19-.11,3.29-1.36-.16-2.53-.36-3.47-.52-2.24-.38-4.24-.83-5.96-1.28-.01-.21-.02-.41-.04-.59-.01-.19-.03-.35-.04-.5,0-.15-.03-.27-.04-.38-.01-.1-.02-.19-.03-.25-.19-1.68-.21-3.89-.13-6.57,1.77.48,3.82.97,6.12,1.37.98.17,2.16.37,3.53.55.05,1.85.11,3.49.17,4.88Z"/>
            <path class="cls-12" d="M36.74,254.42c-.46.02-.9.05-1.32.06-3.34.13-6.21-.09-8.51-.38.03-1.1.07-2.19.11-3.29-.06-1.39-.12-3.03-.17-4.88,2.33.31,5.22.56,8.55.48.38-.01.77-.02,1.18-.04v4.68l.16,3.37Z"/>
            <path class="cls-7" d="M26.75,233.1c-.02,1.62-.03,3.17-.02,4.66-1.36-.19-2.54-.4-3.54-.59-2.09-.39-3.99-.84-5.66-1.28h0c.03-.63.06-1.27.08-1.92.09-1.96.17-4.03.25-6.21,1.57.42,3.31.83,5.21,1.2,1.07.21,2.34.44,3.77.65-.04,1.13-.07,1.83-.09,3.49Z"/>
            <path class="cls-7" d="M36.99,157.82l-.25,8.03c-.52-.05-1.04-.11-1.55-.16-3.28-.36-6.31-.88-9.06-1.46.08-1.98.18-4.58.32-8.08,2.69.58,5.6,1.09,8.72,1.47.6.07,1.2.14,1.82.2Z"/>
            <path class="cls-12" d="M37.24,149.81l-.25,8.01c-.62-.06-1.22-.13-1.82-.2-3.12-.38-6.03-.89-8.72-1.47,0-.4.02-.83.04-1.26.09-2.45.17-4.73.24-6.82,2.63.57,5.44,1.08,8.42,1.48.69.09,1.38.18,2.09.26Z"/>
            <path class="cls-7" d="M26.73,148.07c-.07,2.09-.15,4.37-.24,6.82-.02.43-.03.86-.04,1.26-1.58-.33-3.08-.69-4.49-1.06-2.29-.6-4.43-1.23-6.39-1.87.23-1.19.44-2.16.61-2.9.27-1.16.55-2.28.86-3.37.12-.45.25-.9.39-1.34,1.4.44,2.87.86,4.41,1.27,1.55.42,3.18.82,4.89,1.19Z"/>
            <path class="cls-12" d="M27.01,139.99c-.08,2.15-.17,4.88-.28,8.08-1.71-.37-3.34-.77-4.89-1.19-1.54-.41-3.01-.83-4.41-1.27.1-.34.2-.68.31-1.01.34-1.1.7-2.15,1.07-3.16.19-.52.38-1.03.57-1.53.01-.01.01-.02.01-.02.2-.51.4-1,.59-1.48.03-.07.06-.14.08-.2,2.18.63,4.5,1.23,6.95,1.78Z"/>
            <path class="cls-7" d="M37.5,141.79l-.26,8.02c-.71-.08-1.4-.17-2.09-.26-2.98-.4-5.79-.91-8.42-1.48.11-3.2.2-5.93.28-8.08,3.27.72,6.77,1.35,10.49,1.8Z"/>
          </g>
          <path class="cls-11" d="M59.12,139.59c1.46,7.33,3.11,16.77,4.47,27.84,1.42,11.59,2.84,23.25,2.72,38.36-.06,8.12-.75,39.88-1.12,47.68-.04.84-.17,3.51.41,6.95.23,1.34.5,2.43.7,3.15-3.48-.14-7.25-.45-11.25-.99-3.05-.41-5.92-.91-8.61-1.47-1.47.46-3.44.99-5.8,1.4-.95.16-4.63.77-9.88.64-3.5-.09-8.39-.52-14.15-2.04.25-.97.6-2.53.78-4.46.29-3.11,0-5.47-.08-6.07-.85-7.37,1.69-25.09.18-47.36-.29-4.22-.94-11.78-1.87-20.05-.94-8.32-1.38-10.4-1.4-15.24-.02-8.37,1.27-14.75,1.93-17.61,1.2-5.22,2.82-9.68,4.4-13.31,6.47,2.37,16.13,4.87,27.79,4.14,3.97-.25,7.57-.83,10.75-1.57Z"/>
          <g>
            <path class="cls-14" d="M44.87,166.25c.07,2.27.13,4.55.19,6.82.01.37.02.73.03,1.1"/>
            <path class="cls-11" d="M45.09,174.17l.18,6.72.03,1.2c.05,2.21.11,4.42.17,6.62l.03,1.29c.06,2.18.12,4.36.18,6.53.01.45.03.9.04,1.35.07,2.3.14,4.6.22,6.89.01.33.02.65.03.98.08,2,.15,3.99.23,5.98,0,0,.02.47.05,1.29.01.18.01.37.02.59.06,1.69.15,4.41.23,7.65v.17c.05,2.41.1,5.1.13,7.86v.2c.02,2.55.03,5.15,0,7.65,0,.19,0,.38-.01.57-.03,2.63-.1,5.14-.22,7.33,0,.29-.03.57-.05.84-.09,1.66-.23,3.1-.41,4.23-.05.31-.24,1.41-.31,2.98-.01.28-.01.58-.01.9-.01.29-.01.6-.01.91.03,1.5.18,2.86.39,4.04.13.81.29,1.54.45,2.17"/>
          </g>
          <path class="cls-10" d="M58.31,82.18v-6.65c.06-1.59.07-7.14-3.88-12.34-3.49-4.59-8.02-6.21-9.65-6.71h-7.23"/>
          <path class="cls-15" d="M57.61,111.68l-.15,4.51c-.04,1.1-.17,2.2-.44,3.26-.43,1.68-.79,3.82-.81,6.3-.02,2.97.47,5.43.97,7.19l1.4,5.26c-1.14.76-2.89,1.73-5.19,2.33-2.98.78-5.53.59-7.04.36-2.22-.36-4.44-.72-6.67-1.08"/>
          <path class="cls-1" d="M53.03,125.8c-.37,3.49-.19,4.4.09,4.46.29.07.83-.77,1-1.52.16-.71-.02-1.29-.11-1.53"/>
          <path class="cls-10" d="M44.32,56.77c1.99,1.73,4.65,4.31,7.3,7.84,1.77,2.36,2.88,4.32,5.03,8.15,3.99,7.11,5.99,10.75,6.38,14.63.23,2.31-.1,3.01-.74,8.21-.46,3.78-.91,8.5-1.13,14-.03.86-.6,1.62-1.42,1.88-1.29.42-2.7.8-4.2,1.11-5.72,1.19-10.75.97-14.47.44"/>
          <path class="cls-3" d="M59.12,139.59c-3.18.73-6.78,1.32-10.75,1.57-11.65.73-21.32-1.78-27.79-4.14-.1-.78-.16-1.82,0-3.04.16-1.23.48-2.23.77-2.96,6.33,2.35,15.72,4.82,27.01,4.14,3.61-.22,6.92-.72,9.86-1.37.27.85.53,1.86.7,3.03.15,1.03.2,1.96.19,2.77Z"/>
          <path class="cls-10" d="M22.42,60.86c-2.9,1-4.18,3.95-4.29,4.2-1.64,5.11-3.2,10.98-4.41,17.55-.85,4.61-1.68,9.87-2.04,13.88l-3.74-.92c.36-4.01.93-8.35,1.78-12.96,1.21-6.57,2.77-12.44,4.41-17.55.12-.28,1.67-3.85,5.26-4.46.45-.08.89-.1,1.3-.08.63.03,1.21.16,1.73.34Z"/>
          <path class="cls-10" d="M40.74,97.49c.33,3.55,2.41,26.21,2.17,36.94-.02.74-.06,2.02-.88,3.2-2.34,3.37-7.94,1.57-21.44.66-10.25-.69-15.49-.22-18-4-.85-1.28-1.06-2.54-1.16-3.27-1.37-9.78.95-31.16,1.54-36.42,7.12,1.36,15.2,2.44,24.12,2.84,4.81.22,9.38.22,13.66.06Z"/>
          <path class="cls-5" d="M37.09,97.57c-.75-3.64-1.51-7.27-2.28-10.91-1.33-6.3-2.67-12.6-4-18.9-.1-.71-.54-3.25-2.63-5.19-.37-.33-1.87-1.73-4.04-2.01h-1.37s-3.08-.04-3.08-.04c.63.03,1.21.16,1.73.34,1.47.52,2.47,1.45,2.76,1.71,2.09,1.94,2.53,4.48,2.63,5.19,1.33,6.3,2.67,12.6,4,18.9.77,3.64,1.53,7.28,2.29,10.92h3.99Z"/>
          <path class="cls-10" d="M14.21,65.78c-7.64,11.7-3.15,42.45-2.67,45.61.24,1.55.36,2.33.49,2.93,2.04,9.14,8.38,15.96,16.25,24.26.54.57,4.57,4.33,5.23,8.24.05.27.17,1.09.42,2.55.19,1.1.5,2.95.87,4.75.55,2.68.68,2.6,1.33,5.48,1.01,4.49.77,5.06,1.64,6.11,1.19,1.44,3.52,2.63,5.31,1.98,1.79-.64,2.4-3.04,3.64-7.83.53-2.06.84-3.31.89-5.11.05-2.01.11-4.64-1.46-6.85-.49-.69-.61-.58-2.69-2.77-1.07-1.12-1.92-2.07-2.46-2.69-7.94-15.62-11.19-21.21-12.59-23.13-1.5-2.06-2.66-4.37-4.35-6.28-.17-.19-.57-.64-.87-1.36-.7-1.66-.23-3.3-.08-3.85,1.67-6.16,3.45-24.29,3.45-29.89,0,0,0,0,0,0,0-.03.37-3.32-.48-7.56-.54-2.67-.91-4.4-2.41-5.92-.56-.57-2.41-2.44-5.01-2.12-.57.07-2.45.44-4.43,3.47Z"/>
          <g>
            <path class="cls-16" d="M35.65,16.66c1.84-.6,9.02-2.7,14.92.8,5.01,2.97,6.29,8.31,7.8,14.61.94,3.91,1.87,10.17.58,18.03-3.81,1.44-8.57,2.91-14.16,3.94-5.47,1.01-10.37,1.35-14.41,1.38"/>
            <path class="cls-13" d="M35.49,16.18c.56-.18,1.86.46,3.23.2.9-.17,1.81-1.31,2.93-1.37.98-.05,1.99.95,3.05,1.07.99.11,2.21-.67,3.21-.35.95.3,1.49,1.61,2.4,2.16,1.03.61,2.53.55,3.28,1.36s.62,2.34,1.17,3.35,1.88,1.61,2.27,2.72c.36,1.04-.27,2.42.03,3.56.28,1.07,1.52,1.93,1.79,3.07.25,1.03-.49,2.41-.28,3.75.17,1.1,1.3,2.2,1.4,3.5.08,1.14-.88,2.38-.89,3.66-.01,1.16.93,2.42.82,3.68-.1,1.16-1.16,2.04-1.37,3.28-.87.33-1.23,1.42-2.2,1.75-.89.3-2.13-.35-3.11-.06-.91.27-1.59,1.5-2.57,1.75-.92.24-2.11-.5-3.1-.28s-1.7,1.38-2.69,1.57c-.97.18-2.1-.65-3.03-.51s-1.81,1.26-2.75,1.37c-.99.11-2.05-.79-2.98-.72-1,.08-1.9,1.13-2.83,1.17-1.01.04-2-.93-2.92-.92"/>
          </g>
          <path class="cls-10" d="M27.52,45.5c.49,1.48.95,3.21,1.28,5.17.51,3.05.54,5.76.4,7.92,1.38.56,4.7,1.69,8.84.91,2.98-.56,5.12-1.88,6.28-2.72-.35-.87-.68-1.87-.95-2.98-.46-1.85-.62-3.53-.65-4.9-5.06-1.13-10.13-2.26-15.19-3.39Z"/>
          <path class="cls-5" d="M23.42,45.59c2.56,1.2,8.58,3.87,14.29,4.94,1.64.31,3.54.52,5.29-.45,1.11-.61,1.71-1.45,2.84-3.06.49-.69,1.77-2.55,2.76-4.94,2.17-5.27,2.17-11.39,2.14-13.1-.13-2.55-.05-4.57.05-5.95.08-1.09.2-2.22-.28-2.44l-7.01.2-22.09,6.49,2,18.32Z"/>
          <path class="cls-1" d="M35.65,28.45c-.76-.1-1.73-.16-2.84-.02-2.04.25-3.58,1.02-4.48,1.57"/>
          <path class="cls-1" d="M44.2,25.98c.53-.41,1.36-.95,2.48-1.3.66-.21,1.26-.3,1.75-.33"/>
          <path class="cls-1" d="M42.31,34c.4.62.9,1.46,1.42,2.49.66,1.32.72,1.7.68,2.02-.14,1.23-1.59,1.86-1.85,1.97"/>
          <path class="cls-1" d="M38.97,44.57c.88.14,2.25.23,3.82-.18.76-.2,1.4-.47,1.91-.74"/>
          <path class="cls-1" d="M49.64,29.29c.33-.58.45-1.14.48-1.56.03-.28-.23-.51-.51-.48-.36.04-.75.09-1.16.17-.37.06-.76.15-1.16.26-.17.05-.33.1-.49.15-1.41.45-2.51,1.06-3.29,1.57"/>
          <path class="cls-1" d="M58.26,97c-.48-.03-1.48-.07-2.76.01-1.53.1-2.57.32-3.51.52-.57.12-1.4.32-2.11.59"/>
          <path class="cls-1" d="M38.73,157.48c-.04,2.57-.09,5.13-.13,7.7"/>
          <path class="cls-1" d="M41.23,158.51c.07,1.1.03,3.42-.17,4.95-.18,1.39-.48,2.6-.8,3.58"/>
          <path class="cls-1" d="M43.71,159.14c-.03,1.14-.14,2.46-.4,3.92-.31,1.7-.75,3.17-1.19,4.38"/>
          <path class="cls-1" d="M45.43,150.91c.33,1.57.61,3.3.8,5.18.1,1.06.17,2.08.2,3.05"/>
          <g>
            <path class="cls-16" d="M40.1,11.1c5.29,2.57,12.15,6.44,11.46,8.97-.42,1.56-3.53,1.93-12.1,3.45-6.57,1.16-11.87,2.2-15.27,2.89-.11,3.82.18,9.45,2.21,15.87,1.62,5.14,3.85,9.16,5.72,11.98-3.22,1.06-7.88,2.18-13.56,2.23-4.45.04-8.24-.59-11.1-1.29-.66-3.91-1.21-10.25.53-17.77,1.68-7.25,4.82-12.37,6.69-15.38,2.14-3.45,4.3-6.14,5.99-8.05"/>
            <path class="cls-13" d="M40.32,10.65c.87.42,1.33,1.77,2.25,2.25s2.27.09,3.13.59c.91.53,1.23,1.92,2.02,2.46.92.64,2.37.52,2.99,1.14.94.95.6,2.07.39,2.84-.17.63-.14,1.67-1.36,2.06-.65.21-1.73-.56-2.75-.35-.74.15-1.39,1.29-2.34,1.46-.77.14-1.79-.7-2.71-.54-.79.14-1.46,1.27-2.37,1.43-1.05.19-2.25-.61-3.24-.43-1.06.19-1.9,1.36-2.88,1.55-1.07.2-2.28-.59-3.24-.4-1.09.21-1.92,1.39-2.86,1.57-1.14.22-2.64-.38-3.53-.2-.03.96.86,2.33.91,3.51.04,1-.89,2.15-.77,3.28.11,1.02,1.24,1.94,1.43,3.05.18,1.02-.59,2.27-.32,3.36.25,1.01,1.5,1.78,1.83,2.83.28.87-.38,2.04-.07,2.85.33.86,1.59,1.3,1.94,2.09.38.85-.14,2.08.25,2.84.43.83,1.73,1.13,2.15,1.86.48.82.05,1.65.5,2.34-.8.26-1.09,1.18-2.05,1.43-.84.22-1.96-.55-2.91-.36-.86.17-1.61,1.31-2.56,1.44-.88.12-1.9-.78-2.85-.71-.89.06-1.77,1.1-2.72,1.11-.77,0-1.5-1.01-2.23-1.04-.77-.03-1.58.92-2.31.85-.77-.07-1.4-1.15-2.11-1.25-.77-.11-1.67.75-2.37.62-.78-.15-1-1.09-1.68-1.26-.17-1.02-1.24-1.88-1.36-3.21-.1-1.1.84-2.34.82-3.62-.01-1.13-.98-2.35-.89-3.61.08-1.14,1.2-2.22,1.38-3.45.17-1.14-.59-2.5-.31-3.7.26-1.14,1.53-1.96,1.85-2.99.35-1.12-.21-2.51.19-3.51.44-1.1,1.82-1.73,2.28-2.68.53-1.09.18-2.55.69-3.45.63-1.11,2.09-1.56,2.59-2.37.36-.59-.11-1.69.25-2.23.39-.58,1.59-.56,1.97-1.09.41-.57,0-1.7.4-2.21.43-.56,1.63-.46,2.03-.95.46-.55.13-1.71.54-2.17"/>
          </g>
          <path class="cls-10" d="M47.67,10.61c-.8-1.67-3.14-5.99-8.1-8.26-5.32-2.44-10.36-1.02-13.96,0-3.57,1.01-7.96,2.24-11.09,6.49-3.62,4.9-3.11,10.49-2.92,12.06l36.07-10.29Z"/>
          <path class="cls-2" d="M10.51,21.68c.05-.23.21-.41.42-.5,5.56-2.39,12.06-4.78,19.45-6.79,6.57-1.79,12.68-2.96,18.14-3.73.26-.04.52.06.67.27.42.56.9,1.29,1.3,2.22.37.85.59,1.63.72,2.3.08.4-.19.78-.6.85-5.66.93-11.89,2.24-18.55,4.12-7.56,2.13-14.29,4.6-20.14,7.09-.37.16-.8-.01-.95-.38-.32-.79-.64-1.9-.68-3.23-.02-.86.08-1.61.22-2.21Z"/>
          <g>
            <line class="cls-1" x1="45.38" y1="17.24" x2="43.21" y2="11.51"/>
            <line class="cls-1" x1="39.56" y1="18.48" x2="37.62" y2="12.62"/>
            <line class="cls-1" x1="33.83" y1="19.93" x2="32.13" y2="13.93"/>
            <polyline class="cls-1" points="26.71 15.44 28.16 21.57 28.16 21.58"/>
            <line class="cls-1" x1="22.53" y1="23.42" x2="21.33" y2="17.17"/>
            <line class="cls-1" x1="16.91" y1="25.47" x2="15.97" y2="19.12"/>
          </g>
          <path class="cls-6" d="M18.39,61.31c1.99.1,4.62-.72,7.57-1.55,1.21-.34,2.3-.75,3.24-1.17"/>
          <g>
            <path class="cls-1" d="M37.09,31.27c-.97-.12-2.57-.18-4.44.32-1.43.38-2.55.96-3.34,1.47-.28.18-.29.59-.01.79l1.38.98"/>
            <path class="cls-8" d="M36.01,31.19c.08.29.13.64.13,1,0,1.13-.42,2.04-.95,2.04s-.95-.91-.95-2.04c0-.34.04-.66.11-.94"/>
          </g>
          <path class="cls-8" d="M48.63,28.6c0,1.12-.43,2.04-.95,2.04s-.96-.92-.96-2.04c0-.28.03-.53.08-.77.16-.05.32-.1.49-.15.4-.11.79-.2,1.16-.26.11.33.18.73.18,1.18Z"/>
        </g>
      </g>
    </g>
  </g>
</svg>