<?xml version="1.0" encoding="UTF-8"?>
<svg id="Calque_2" data-name="Calque 2" xmlns="http://www.w3.org/2000/svg" viewBox="0 0 102.27 213.71">
  <defs>
    <style>
      .cls-1, .cls-2 {
        stroke-dasharray: 25 5 5 3;
      }

      .cls-1, .cls-2, .cls-3, .cls-4, .cls-5, .cls-6, .cls-7, .cls-8, .cls-9, .cls-10 {
        stroke-linecap: round;
        stroke-linejoin: round;
      }

      .cls-1, .cls-2, .cls-3, .cls-4, .cls-5, .cls-6, .cls-7, .cls-8, .cls-10 {
        stroke: #fe4f02;
      }

      .cls-1, .cls-5, .cls-6, .cls-7 {
        fill: #fff;
      }

      .cls-2, .cls-3, .cls-9, .cls-10 {
        fill: none;
      }

      .cls-4, .cls-8 {
        fill: #fe4f02;
      }

      .cls-5 {
        stroke-width: .5px;
      }

      .cls-6, .cls-8, .cls-10 {
        stroke-width: 2px;
      }

      .cls-9 {
        stroke: #fff;
        stroke-width: 16px;
      }
    </style>
  </defs>
  <g id="Calque_12" data-name="Calque 12">
    <g>
      <g>
        <path class="cls-9" d="M101.27,85.2c-.55.3-1.22.64-2,.98.23,1.37.47,3.46.18,5.97-.25,2.22-.39,3.44-1.33,4.53-1.71,1.98-4.8,2.02-6.63,2.03-1.81.03-3.19-.36-4.58-.28-.18,0-.76.06-1.48-.15v80.05c0,.49-.22.96-.59,1.28l-.07.06-1.18,1s-.06.04-.08.07c-.28.22-.62.38-.96.46-.42.09-.86.08-1.29-.04h-.02l-2.64-.8-.14-.04c-.7-.22-1.19-.86-1.19-1.6v-52.34l-16.17,13.68v7.72c.09.07.18.13.28.2-.08.31-.16.62-.23.94,2.12,1.12,4.23,2.26,6.35,3.39.41.22.81.43,1.22.65.56.3.93.86,1,1.49.42,3.45.17,6.28-.14,8.21-.57,3.55-1.65,6.03-3.15,7.99-1.08,1.4-1.86,1.86-2.64,1.99-1.01.18-1.94-.19-2.68-.66v23.35c0,.49-.22.96-.59,1.28l-.07.06-1.18,1s-.06.04-.08.07c-.28.22-.62.38-.96.46-.42.09-.86.08-1.29-.04h-.02l-2.64-.8-.14-.04c-.7-.22-1.19-.86-1.19-1.6v-27.38c-.42.69-.84,1.36-1.26,2.01-.21.33-.43.65-.64.98-.22.32-.43.63-.64.94-.77-.55-2.58-1.85-3.36-2.41-.3-.22-.59-.43-.88-.63-.02.43-.04.84-.07,1.25,0,.05,0,.11,0,.16-.02.35-.03.69-.06,1.03-.02.32-.03.64-.06.94-.03.42-.05.83-.08,1.23,0,.2-.03.4-.04.59-.08,1.11-.16,2.15-.23,3.14-.08,1-.14,1.96-.2,2.9,0,.03,0,.08,0,.11-.03.59-.06,1.18-.08,1.77-.02.44-.03.89-.04,1.34-.02.71-.03,1.43,0,2.17,0,.47.02.94.03,1.42,0,.38.03.77.05,1.16.02.24.03.48.05.74.02.31.04.63.07.95.02.18.03.36.04.55.04.53.1,1.07.16,1.63.19,1.83.41,3.35.58,4.39-.64.18-1.35.37-2.14.54-.15.03-.3.07-.46.09-.44.1-.91.18-1.4.27-.25.04-.49.08-.75.12-.28.04-.55.08-.84.12-.35.04-.7.08-1.07.12-.17.03-.33.03-.51.05.03,1.66.07,3.3.11,4.96,0,.54.03,1.09.03,1.63.02.75-.28,1.45-.77,1.91-2.7,2.44-5.21,3.84-6.98,4.64-3.25,1.49-5.86,1.83-8.23,1.43-1.69-.29-2.45-.82-2.94-1.55-1.01-1.49-.74-3.62-.5-4.74,0-.03,0-.05.03-.08.09-.42.28-.79.54-1.09,2.25-2.7,4.5-5.4,6.75-8.1-.35-.08-.69-.18-1.03-.28-.19-.05-.38-.11-.56-.16-.92-.28-1.76-.57-2.53-.86,0-.43-.04-5.08-.05-5.51,0-.32,0-.63,0-.93,0-.38,0-.74,0-1.1,0-.91-.02-1.79-.03-2.63,0-1.48-.03-2.84-.03-4.11,0-.41,0-.8,0-1.19s0-.75,0-1.12c0-.73,0-1.42-.02-2.07,0-.32,0-.64,0-.94,0-.92,0-1.76-.02-2.52-.03-4.45-.03-6.45-.02-7.83,0-.58.03-1.05.03-1.54.04-1.71.08-3.29.12-4.77.02-.49.03-.98.04-1.45.04-1.4.09-2.71.15-3.92-1.05-.64-2.22-1.36-3.57-2.28-.61-.41-1.21-.83-1.82-1.24-.37-.25-.74-.51-1.1-.76v31.9c0,.49-.22.96-.59,1.28l-.07.06-1.18,1s-.06.04-.08.07c-.28.22-.62.38-.96.46-.42.09-.86.08-1.29-.04h-.02l-2.64-.8-.14-.04c-.7-.22-1.19-.86-1.19-1.6v-38.44s-.08-.07-.12-.1c-.29-.25-.58-.5-.85-.76-1.27-1.17-2.41-2.37-3.35-3.6-.23-.3-.45-.59-.66-.9-.11-.15-.21-.3-.31-.46-.09-.15-.19-.31-.28-.46-.03-.04-.06-.09-.08-.14-.1-.15-.18-.31-.28-.47-.04-.08-.09-.17-.13-.26-.1-.2-.2-.4-.29-.61-.08-.19-.17-.38-.24-.57-.08-.18-.15-.38-.22-.57-.18-.48-.31-.97-.41-1.47-.03-.16-.07-.31-.08-.47-.03-.11-.03-.22-.05-.32,0-.08-.02-.16-.03-.24-.02-.13-.03-.26-.03-.38-.02-.22-.03-.44-.03-.67v-.05c0-.27,0-.54.03-.79.02-.26.05-.52.09-.77v-.02c.03-.23.08-.45.13-.67.13-.55.31-1.1.54-1.63.08-.21.18-.41.28-.62.12-.23.23-.48.37-.71.33-.58.69-1.16,1.12-1.75.12-.17.24-.34.38-.52.42-.57.88-1.15,1.38-1.75.74-.89,1.56-1.82,2.44-2.83.69-.78,1.35-1.49,2.03-2.13.17-.17.33-.33.5-.48.5-.47,1.01-.91,1.52-1.33.26-.22.53-.43.79-.64.23-.18.46-.36.69-.54.06-.04.12-.09.18-.13.25-.19.49-.37.75-.55.1-.08.2-.15.3-.22.45-.33.92-.65,1.4-.97.87-.6,1.78-1.21,2.73-1.86.48-.33.97-.67,1.48-1.02.14-.11.28-.21.43-.31.43-.31.89-.64,1.35-.98.8-.59,1.65-1.22,2.53-1.91.51-.39,1.03-.81,1.56-1.25,1.23-1,2.54-2.12,3.95-3.38.59-.54,1.15-1.04,1.62-1.5.6-.55,1.1-1.04,1.48-1.4-.18-1.47.52-3.95.75-4.76-1.79-1.6-3.72-3.19-5.8-4.76-3.81-2.89-7.51-5.28-10.93-7.23.45-4.11.75-8.82.7-14.01-.15-.02-.3-.05-.44-.09-.08-.03-.17-.05-.24-.08-.24-.08-.46-.18-.64-.25-1.51-.66-2.3-1.68-2.53-2-.34-.48-.63-.89-.63-1.45s.28-.69.32-1.35c.03-.67-.25-.74-.38-1.6-.13-.84.13-.89.06-1.89-.08-1.01-.33-1.02-.32-1.78.02-.74.28-.89.54-1.96.3-1.15.12-1.42.29-2.07.19-.71.76-1.63,2.41-2.49l.14-.08c-1.56-9.91-4.18-18.19-6.66-24.52,6.54,2.37,16.8,7.18,25.96,16.94,1.53,1.63,2.91,3.28,4.14,4.88.07-.03.14-.06.21-.08,3.58-1.45,7.58-1.45,11.15,0,1.41.59,2.82,1.15,4.22,1.74.05-.33.08-.65.13-.99.07-.55.12-1.1.16-1.62-.56-.13-.79-.38-1.04-.63l-2.24-.65c-.33.06-.67.13-1.25-.03-.57-.17-.82-.4-1.05-.64h0s-2.28-.67-2.28-.67c0,0,0,0,0,0-.33.07-.66.13-1.24-.03-.72-.21-.94-.42-1.25-.69l-.94-.28c-.09-.34-.18-.73-.28-1.13-.23-.37-.48-.76-.58-1.29-.08-.38.03-.81.13-1.25-.11-.79-.2-1.64-.25-2.54,0,0,0,0,0,0-.18-.42-.35-.84-.36-1.29,0-.4.16-.81.33-1.23,0,0,0,0,0,0,.02-.82.08-1.68.18-2.57-.11-.43-.21-.87-.14-1.3.08-.58.35-1.1.62-1.62h0c.23-1.15.54-2.23.89-3.25v-.02c.03-.58.07-1.15.26-1.64.22-.56.59-1.03.98-1.47.5-1.1,1.05-2.11,1.58-3h0c.15-.57.3-1.1.59-1.51.35-.52.79-.9,1.21-1.24-.33-.31-.44-.8-.3-1.25l.89-2.87c.21-.67.89-1,1.48-.74.9-2.03,3.8-7.77,9.83-10.18,4.68-1.86,8.9-.78,13.16.32,3.66.94,6.34,1.64,8.74,4.08,4.21,4.26,4.33,10.55,4.27,12.68.4.18.69.6.69,1.11v3.21c0,.13-.02.27-.06.39h0c.17.34.3.69.38,1.07.1.48.07,1,.03,1.56.17.99.31,2.04.41,3.17.18.51.35,1.04.38,1.59.03.51-.08,1.03-.22,1.56,0,.53,0,1.07,0,1.62-.02.51-.04,1.01-.08,1.51.11.5.2,1,.15,1.47-.05.51-.24.99-.44,1.46,0,0,0,0,0,0-.13,1.05-.32,2.03-.52,2.94.03.51.05,1-.06,1.44-.16.62-.43,1.1-.69,1.55-.13.43-.26.84-.39,1.23l-1.34.23c-.74.3-1.13.45-2.48.68-.96.16-1.46.11-1.97.06l-3.9.64c-.45.22-.92.42-1.86.58-1.13.19-1.61.14-2.22.1l-.64.11c.02.22.04.43.07.65.04.3.08.59.13.88,10.84.11,20.51,2.07,28.31,4.38-1.47,2.36-2.99,4.94-4.52,7.76.05.67.62,2.49.8,3.74.74,5.2,2.01,7.63,2.88,11.67.38,1.79.82,4.42.84,7.76Z"/>
        <g>
          <line class="cls-9" x1="85.44" y1="114.78" x2="85.44" y2="70.88"/>
          <path class="cls-9" d="M85.44,111.1v67.23c0,.49-.22.96-.59,1.28l-.07.06-1.18,1s-.06.04-.08.07c-.28.22-.62.38-.96.46-.42.09-.86.08-1.29-.04h-.02l-2.64-.8-.14-.04c-.7-.22-1.19-.86-1.19-1.6v-60.7l5.28-4.47,2.88-2.44Z"/>
          <polygon class="cls-9" points="85.44 114.78 85.44 119.46 82.55 121.91 77.27 126.37 61.1 140.05 58.22 142.49 52.94 140.89 40.95 137.27 38.07 136.4 35.68 135.68 32.79 134.8 16.61 129.91 13.73 129.04 8.45 127.44 8.45 122.76 35.68 99.73 85.44 114.78"/>
          <g>
            <polygon class="cls-9" points="85.43 72.65 85.43 72.65 85.44 72.65 85.43 72.65"/>
            <polygon class="cls-9" points="35.68 57.6 85.43 72.65 85.44 72.65 35.68 57.6"/>
            <path class="cls-9" d="M85.43,72.65l-49.79-15.05h0c-.94.8-1.49,1.97-1.49,3.21v32.06c0,1.43.94,2.7,2.31,3.12l46.14,13.95c.83.25,1.74.06,2.4-.5l.42-.36v-36.43Z"/>
          </g>
          <polyline class="cls-9" points="85.44 72.65 35.68 57.6 85.44 72.65 35.64 57.6"/>
          <line class="cls-9" x1="82.55" y1="125.44" x2="82.55" y2="177.14"/>
          <polyline class="cls-9" points="83.44 74.57 83.43 74.57 82.63 75.27"/>
          <path class="cls-9" d="M37.58,61.54l39.8,12.04c2.84.86,4.78,3.47,4.78,6.43l.02,20.96"/>
          <line class="cls-9" x1="58.22" y1="137.81" x2="12.53" y2="123.99"/>
          <polyline class="cls-9" points="12.53 123.99 58.22 137.81 58.22 142.49"/>
          <line class="cls-9" x1="58.22" y1="137.81" x2="85.44" y2="114.78"/>
          <path class="cls-9" d="M16.61,129.91v51.8c0,.49-.22.96-.59,1.28l-.07.06-1.18,1s-.06.04-.08.07c-.28.22-.62.38-.96.46-.42.09-.86.08-1.29-.04h-.02l-2.64-.8-.14-.04c-.7-.22-1.19-.86-1.19-1.6v-54.65l5.28,1.6,2.88.87Z"/>
          <path class="cls-9" d="M40.95,137.27v35.8c0,.49-.22.96-.59,1.28l-.07.06-1.18,1s-.06.04-.08.07c-.28.22-.62.38-.96.46-.42.09-.86.08-1.29-.04h-.02l-2.64-.8-.14-.04c-.7-.22-1.19-.86-1.19-1.6v-38.66l2.88.88,2.39.72,2.88.88Z"/>
          <path class="cls-9" d="M61.1,140.05v55.27c0,.49-.22.96-.59,1.28l-.07.06-1.18,1s-.06.04-.08.07c-.28.22-.62.38-.96.46-.42.09-.86.08-1.29-.04h-.02l-2.64-.8-.14-.04c-.7-.22-1.19-.86-1.19-1.6v-54.81l5.28,1.6,2.88-2.44Z"/>
          <line class="cls-9" x1="13.73" y1="181.24" x2="13.73" y2="132.37"/>
          <line class="cls-9" x1="38.07" y1="138.77" x2="38.07" y2="173.57"/>
          <line class="cls-9" x1="58.22" y1="145.83" x2="58.22" y2="194.84"/>
        </g>
        <g>
          <path class="cls-9" d="M56.69,159.71c.92,3.46,1.84,6.93,2.77,10.39.1.38.29.72.57.99.7.69,2.13,1.82,3.75,1.54.79-.14,1.56-.6,2.64-2,1.51-1.96,2.59-4.44,3.16-7.99.31-1.93.56-4.76.14-8.21-.08-.63-.45-1.19-1.01-1.49-2.59-1.39-5.19-2.77-7.78-4.16"/>
          <path class="cls-9" d="M60.16,159.18c-.81,1.53,2.41-2.73,2.41-2.73,0,0-1.93,4.87-2.46,5.87s2.15-1.94,3-1.98-1.15,3.07-2.56,4.27"/>
          <path class="cls-9" d="M67.49,152.29c.55,3.78.29,6.87-.04,8.94-.57,3.55-1.65,6.03-3.15,7.99-1.08,1.4-1.86,1.86-2.64,1.99-.59.11-1.15.02-1.67-.17"/>
        </g>
        <g>
          <path class="cls-9" d="M27.76,196.21c-2.47,2.97-4.95,5.93-7.42,8.9-.27.32-.47.72-.56,1.16-.24,1.12-.51,3.25.5,4.74.49.73,1.25,1.25,2.94,1.54,2.37.4,4.97.06,8.23-1.42,1.77-.81,4.28-2.2,6.98-4.65.49-.45.79-1.15.77-1.9-.08-3.47-.15-6.94-.23-10.41"/>
          <path class="cls-9" d="M29.86,199.45c-1.68.07,3.45.88,3.45.88,0,0-5.02.86-6.11.91s2.66,1.07,3.1,1.93-3.13.61-4.82-.14"/>
          <path class="cls-9" d="M39.17,202.95c-2.92,2.78-5.64,4.31-7.54,5.17-3.26,1.49-5.86,1.83-8.23,1.43-1.69-.29-2.45-.82-2.94-1.55-.37-.54-.57-1.17-.65-1.81"/>
        </g>
        <g>
          <g>
            <path class="cls-9" d="M57.98,138.9c-1.15,1.2-2.19,2.16-3.32,3.04-.33.26-.64.51-.94.73-.82-.55-1.61-1.07-2.36-1.55,1.4-1.52,2.72-2.98,3.94-4.37,1,.73,1.89,1.46,2.68,2.15Z"/>
            <path class="cls-9" d="M69.42,125.78c-1.59,1.96-3.52,4.18-5.87,6.88-.85-.74-1.83-1.54-2.93-2.32,2.13-2.73,3.86-5.16,5.26-7.31,1.12.75,2.31,1.66,3.55,2.75Z"/>
            <path class="cls-9" d="M76.88,109.86c-.38,2.74-1.05,4.92-1.65,6.51-.26.69-.54,1.35-.86,1.99-1.5-1.19-2.94-2.14-4.28-2.9,1-2.27,1.45-3.9,1.63-4.95,1.94-.15,3.67-.39,5.16-.65Z"/>
            <path class="cls-9" d="M61.98,112.41c-.18.54-.38,1.13-.63,1.76-.94,2.38-2.09,4.23-2.96,5.44-.52-.13-.96-.21-1.31-.26-2.12-.33-4.83-.75-7.47-.64.1-.13.19-.25.28-.36.56-.7,2.57-3.1,4.06-6.82,3.85.13,7.76.84,8.03.88Z"/>
            <path class="cls-9" d="M74.37,118.37c-1.15,2.41-2.73,4.67-4.95,7.42-1.24-1.1-2.42-2-3.55-2.75,1.99-3.06,3.32-5.57,4.21-7.57,1.34.76,2.78,1.71,4.28,2.9Z"/>
            <path class="cls-9" d="M63.55,132.67s-.08.09-.12.13c-2.32,2.66-3.98,4.58-5.46,6.1-.79-.69-1.68-1.42-2.68-2.15,2.01-2.3,3.77-4.43,5.32-6.41,1.1.79,2.08,1.58,2.93,2.32Z"/>
            <path class="cls-9" d="M33.79,198.04c-.7-.04-1.41-.11-2.15-.19-1.59-.19-3.06-.48-4.41-.81-.07-2.24-.13-4.51-.17-6.79,1.6.3,3.33.54,5.17.69.48.04.97.07,1.45.09.03,2.36.07,4.69.12,7.02Z"/>
            <path class="cls-9" d="M46.24,196.69c-1.5.43-3.39.86-5.59,1.14-.15-1.89-.28-4.06-.38-6.44,0-.18-.02-.34-.02-.51,1.91-.17,3.66-.44,5.22-.76.05.69.12,1.42.2,2.18.19,1.83.41,3.35.58,4.39Z"/>
            <path class="cls-9" d="M40.64,197.83c-2.03.26-4.34.38-6.86.22-.05-2.32-.09-4.66-.12-7.02,2.36.11,4.56.04,6.57-.15,0,.17,0,.33.02.51.1,2.38.23,4.55.38,6.44Z"/>
            <path class="cls-9" d="M45.84,174.41c-.21,2.95-.43,5.42-.53,7.93-1.55.3-3.27.57-5.16.74.04-3,.17-5.53.24-7.84,2.01-.18,3.83-.48,5.44-.82Z"/>
            <path class="cls-9" d="M45.46,190.12c-1.56.32-3.3.59-5.22.76-.12-2.95-.13-5.52-.09-7.81,1.89-.17,3.61-.43,5.16-.74-.1,2.4-.08,4.84.15,7.78Z"/>
            <path class="cls-9" d="M46.15,169.21h0c-.09,1.93-.2,3.64-.32,5.2-1.61.33-3.44.64-5.44.82,0-.05,0-.1,0-.15.05-1.56.09-3.33.1-5.28,0-.77,0-1.57,0-2.4.8-.08,1.57-.17,2.32-.28.12-.02.23-.03.35-.05.89.64,1.89,1.36,2.99,2.14Z"/>
            <path class="cls-9" d="M27.25,156.41c-.03.86-.05,1.72-.08,2.58-.89-.17-1.74-.35-2.56-.55-.57-.14-1.13-.28-1.66-.43.04-1.41.09-2.71.15-3.92.88.52,1.68.97,2.46,1.4.57.31,1.12.61,1.68.92Z"/>
            <path class="cls-9" d="M27.01,166.78c-.02,1.08-.03,2.17-.04,3.26-.02,1.52-.03,3.04-.03,4.55-1.51-.29-2.88-.64-4.15-.99-.03-4.45-.03-6.45-.02-7.83,1.29.37,2.7.72,4.24,1.01Z"/>
            <path class="cls-9" d="M27.06,190.25c-1.5-.28-2.88-.62-4.15-.98-.03-2.99-.05-5.58-.07-7.83,1.25.36,2.62.69,4.11.98.02,2.63.06,5.25.11,7.83Z"/>
            <path class="cls-9" d="M26.95,182.42c-1.49-.28-2.86-.62-4.11-.98-.03-3.24-.05-5.79-.06-7.83,1.26.35,2.64.69,4.15.99,0,2.63,0,5.24.02,7.83Z"/>
            <path class="cls-9" d="M27.22,197.04c-1.6-.39-3.03-.86-4.26-1.33,0-.43-.04-5.08-.05-5.51,0-.32,0-.63,0-.93,1.26.36,2.65.69,4.15.98.04,2.28.1,4.55.17,6.79Z"/>
            <path class="cls-9" d="M27.17,159c-.08,2.58-.13,5.17-.17,7.78-1.54-.29-2.95-.64-4.24-1.01,0-.58.03-1.05.03-1.54.05-2.27.1-4.34.16-6.22.53.15,1.09.29,1.66.43.82.2,1.66.38,2.56.55Z"/>
            <path class="cls-9" d="M61.38,147.97c-.4,1.62-.89,3.36-1.49,5.18-2.1-1.56-4.53-3.3-7.32-5.14.54-1.87.94-3.65,1.25-5.27,2.28,1.51,4.82,3.26,7.56,5.23Z"/>
            <path class="cls-9" d="M53.82,142.74c-.31,1.62-.71,3.39-1.25,5.27h0c-.93-.61-1.9-1.24-2.9-1.86-1.66-1.05-3.44-2.12-5.31-3.19.95-1.79,1.76-3.39,2.39-4.77.9.56,1.75,1.1,2.56,1.61.65.41,1.34.85,2.06,1.33.75.48,1.54,1,2.36,1.55.03.02.07.04.1.07Z"/>
            <path class="cls-9" d="M39.87,134.05c-1.11,1.08-2.57,2.48-4.19,4.27-.35-.18-.69-.35-1.05-.52-1.09-.53-2.14-1.02-3.14-1.49-1.76-.8-3.39-1.53-4.87-2.21,2.2-1.69,4.39-2.74,6.15-3.39.19-.08.38-.14.57-.2.84.43,1.65.85,2.42,1.26,1.45.78,2.82,1.54,4.11,2.27Z"/>
            <path class="cls-9" d="M56.85,160.94c-.62,1.35-1.3,2.73-2.04,4.11-.6,1.12-1.22,2.2-1.83,3.23-2.18-1.52-4.39-3.04-6.65-4.57-.23-.15-.45-.3-.69-.46.23-.36.47-.73.7-1.1,1.1-1.76,2.18-3.73,3.19-5.93,2.34,1.5,4.77,3.07,7.31,4.72Z"/>
            <path class="cls-9" d="M52.98,168.28c-.86,1.41-1.72,2.74-2.58,3.97-.77-.55-2.58-1.85-3.36-2.41-.3-.22-.59-.43-.88-.63h0c-1.1-.79-2.09-1.51-2.99-2.15-.07-.04-.13-.09-.19-.14.87-1.09,1.77-2.31,2.67-3.67.23.16.46.31.69.46,2.26,1.52,4.46,3.04,6.65,4.57Z"/>
            <path class="cls-9" d="M27.14,151.35c-.65,1.51-1.16,2.92-1.57,4.14-.78-.43-1.58-.89-2.46-1.4-1.05-.64-2.22-1.36-3.57-2.28-.61-.41-1.21-.83-1.82-1.24.12-1.25.36-2.76.8-4.38,1.66.97,3.32,1.96,4.95,2.93,1.23.74,2.46,1.49,3.67,2.23Z"/>
            <path class="cls-9" d="M32.77,159.7c-.18-.02-.36-.03-.54-.04-1.8-.14-3.49-.37-5.05-.66.03-.86.04-1.72.08-2.58,1.63.89,3.31,1.83,5.52,3.29Z"/>
            <path class="cls-9" d="M40.5,167.39c-2.07.21-4.35.29-6.79.18.03-1.89.07-3.77.12-5.64,0-.51.02-1,.03-1.51.19.13.38.26.59.4.42.28.85.59,1.3.91.69.49,2.11,1.51,4.73,3.39h0c0,.79.02,1.53.02,2.26Z"/>
            <path class="cls-9" d="M10.24,141.43c-.4,1.08-.7,2.09-.92,2.97-2.69-2.24-4.97-4.56-6.45-7.03,2.44,1.31,4.89,2.68,7.37,4.06Z"/>
            <path class="cls-9" d="M13.59,135.32c-1.57,2.02-2.63,4.18-3.34,6.11-2.48-1.39-4.92-2.75-7.37-4.06h0c-.29-.48-.55-.98-.78-1.48.78-1.61,1.91-3.38,3.57-5.02.59-.59,1.21-1.11,1.85-1.58,1.06,3.08,3.99,4.93,6.08,6.03Z"/>
            <path class="cls-9" d="M18.52,146.19c-.44,1.62-.69,3.13-.8,4.38-2.96-2.02-5.86-4.06-8.39-6.17.22-.88.52-1.89.92-2.97.74.41,1.47.83,2.21,1.25,2.05,1.16,4.07,2.33,6.07,3.51Z"/>
            <path class="cls-9" d="M36.95,123.28c-1.36,1.15-3.1,2.7-5.31,4.78-.1-.08-.19-.14-.29-.2h0c-.78-1.36-1.81-2.88-3.19-4.41l4.92-5.54c1.76,1.86,3,3.76,3.88,5.37Z"/>
            <path class="cls-9" d="M28.15,123.45l-1.41,1.6c-2.28-1.17-5.01-2.27-8.13-2.96.92-.98,2.14-2.08,3.66-3.45.85.5,1.71,1.08,2.56,1.74,1.27.99,2.37,2.03,3.32,3.08Z"/>
            <path class="cls-9" d="M37.98,102.06c-.52.65-1.09,1.36-1.71,2.12-.2-.23-.38-.44-.56-.64-.97-1.08-2.3-2.35-4.11-3.64.6-.55,1.1-1.04,1.48-1.4,1.28,1.05,2.92,2.28,4.9,3.55Z"/>
            <path class="cls-9" d="M36.27,104.18c-.94,1.14-2.01,2.39-3.19,3.71-.32.36-.63.7-.94,1.05-1.48-1.35-3.47-2.81-6.1-4.16,1.23-1,2.54-2.12,3.95-3.38.59-.54,1.15-1.04,1.62-1.5,1.81,1.29,3.14,2.56,4.11,3.64.18.19.36.41.56.64Z"/>
            <path class="cls-9" d="M59.89,153.15c-.8,2.46-1.8,5.08-3.04,7.78-2.53-1.65-4.97-3.22-7.31-4.72.08-.18.18-.38.26-.57,1.19-2.65,2.08-5.23,2.78-7.64,2.78,1.84,5.22,3.58,7.32,5.14Z"/>
            <path class="cls-9" d="M31.34,127.85c-1.23-.89-2.78-1.86-4.6-2.8l1.41-1.6c1.37,1.52,2.41,3.04,3.19,4.4Z"/>
            <path class="cls-9" d="M60.62,130.34c-1.55,1.98-3.31,4.11-5.32,6.41-1.71-1.26-3.7-2.53-5.93-3.59,1.66-2.78,3.04-5.01,4.19-6.79,2.68,1.09,5.05,2.52,7.06,3.96Z"/>
            <path class="cls-9" d="M70.09,115.47c-.89,2-2.22,4.51-4.21,7.57-3.13-2.11-5.74-3.01-7.48-3.43.87-1.21,2.02-3.06,2.96-5.44.25-.63.45-1.21.63-1.76,1.56.28,4.47.97,8.11,3.06Z"/>
            <path class="cls-9" d="M65.88,123.03c-1.4,2.15-3.13,4.58-5.26,7.31-2.01-1.45-4.38-2.88-7.06-3.96,1.66-2.58,2.84-4.24,3.7-5.3.21-.26.62-.75,1.13-1.47,1.74.42,4.36,1.32,7.48,3.43Z"/>
            <path class="cls-9" d="M58.39,119.61c-.51.72-.92,1.21-1.13,1.47-.86,1.06-2.04,2.72-3.7,5.3h0c-2.43-.98-5.11-1.66-7.95-1.79,1.79-2.83,3.08-4.67,4.01-5.88,2.63-.12,5.34.31,7.47.64.35.05.79.13,1.31.26Z"/>
            <path class="cls-9" d="M45.6,124.59c-1.09,1.71-2.36,3.77-3.85,6.28-1.66-.23-3.38-.27-5.15-.07-.04,0-.08,0-.13.02.03-.04.08-.09.11-.14,1.3-1.76,2.63-3.83,3.63-5.64.73-.16,1.44-.28,2.12-.35,1.11-.13,2.2-.16,3.27-.1Z"/>
            <path class="cls-9" d="M35.68,138.32c-1.25,1.38-2.59,2.99-3.95,4.87-.35.48-.69.97-1,1.45-1.74-1.02-3.41-1.98-5.02-2.89-1.43-.8-2.8-1.56-4.13-2.28.57-.84,1.2-1.68,1.94-2.5,1-1.12,2.05-2.07,3.09-2.87,1.49.68,3.12,1.4,4.87,2.21,1,.47,2.06.96,3.14,1.49.35.17.69.34,1.05.52Z"/>
            <path class="cls-9" d="M40.22,150.37c-1.4,2.47-2.66,4.78-3.78,6.83-.81-.53-1.62-1.05-2.44-1.56-2.17-1.37-4.36-2.74-6.58-4.11-.09-.06-.18-.12-.28-.18.89-2.08,2.05-4.37,3.59-6.71,2.95,1.73,6.1,3.63,9.49,5.72Z"/>
            <path class="cls-9" d="M33.62,175.38c-.02,2.63-.02,5.23,0,7.82-.46-.02-.92-.05-1.39-.08-1.88-.14-3.65-.39-5.28-.7-.02-2.58-.03-5.19-.02-7.83,1.63.31,3.4.57,5.29.71.47.03.94.07,1.4.08Z"/>
            <path class="cls-9" d="M33.86,160.42h0c-.02.51-.03,1-.03,1.51-.05,1.86-.08,3.75-.12,5.64-.49-.03-.99-.05-1.49-.09-1.86-.14-3.6-.38-5.22-.69.04-2.62.09-5.21.17-7.78,1.56.29,3.25.52,5.05.66.18.02.37.03.54.04h0c.34.23.7.47,1.09.72Z"/>
            <path class="cls-9" d="M33.71,167.57c-.04,2.29-.07,4.6-.08,6.92,0,.3,0,.6,0,.89-.46-.02-.93-.05-1.4-.08-1.89-.14-3.66-.4-5.29-.71,0-1.51.02-3.03.03-4.55,0-1.1.03-2.18.04-3.26,1.61.31,3.35.55,5.22.69.5.04,1,.07,1.49.09Z"/>
            <path class="cls-9" d="M40.5,169.79c0,1.96-.05,3.72-.1,5.28,0,.05,0,.1,0,.15-2.07.2-4.34.28-6.77.16,0-.29,0-.59,0-.89.02-2.32.04-4.63.08-6.92,2.44.12,4.72.03,6.79-.18,0,.83,0,1.63,0,2.4Z"/>
            <path class="cls-9" d="M41.67,120.53c-.38-.32-1.57.13-4.72,2.75-.88-1.61-2.12-3.5-3.88-5.37l3.62-4.09c1.04,1.1,2.29,2.27,3.8,3.39.2.14.44.32.74.51-.02,1.12.22,2.12.44,2.81Z"/>
            <path class="cls-9" d="M40.96,109l-4.27,4.82c-1.15-1.2-2.05-2.31-2.78-3.13-.49-.54-1.08-1.14-1.76-1.76.32-.34.63-.69.94-1.05,1.18-1.32,2.24-2.58,3.19-3.71,1.14,1.31,2.63,3.1,4.69,4.82Z"/>
            <path class="cls-9" d="M44.1,105.45l-3.14,3.55c-2.06-1.71-3.55-3.5-4.69-4.82.63-.75,1.2-1.46,1.71-2.12,1.76,1.14,3.8,2.3,6.11,3.39Z"/>
            <path class="cls-9" d="M48.35,107.26c-1.14,1.24-2.41,2.64-3.69,4.13-1.07-.42-1.87-.97-2.37-1.34-.47-.34-.92-.69-1.34-1.05l3.14-3.55c1.33.64,2.75,1.25,4.26,1.81Z"/>
            <path class="cls-9" d="M49.62,118.71c-.94,1.2-2.22,3.04-4.01,5.88-1.07-.06-2.16-.03-3.27.1-.68.08-1.39.19-2.12.35,1.24-2.24,1.96-4.1,1.45-4.52-.23-.69-.46-1.69-.44-2.81.83.53,2.04,1.13,3.56,1.31,1.26.16,2.23-.03,2.65-.1.71-.13,1.44-.2,2.17-.22Z"/>
            <path class="cls-9" d="M53.95,111.53c-1.49,3.72-3.5,6.12-4.06,6.82-.09.11-.18.23-.28.36-.74.02-1.46.09-2.17.22-.42.08-1.39.26-2.65.1-1.52-.18-2.73-.79-3.56-1.31.02-.73.14-1.52.46-2.31.35-.88.81-1.44,1.15-1.86.6-.74,1.22-1.45,1.83-2.17.57.22,1.21.4,1.93.49,1.31.17,2.33-.04,2.65-.11,1.35-.26,3.02-.3,4.71-.24Z"/>
            <path class="cls-9" d="M71.72,110.52c-.18,1.05-.63,2.68-1.63,4.95-3.65-2.09-6.56-2.78-8.11-3.06.23-.76.4-1.42.51-1.94h0c1.44.13,2.68.19,3.7.22,1.98.04,3.84-.03,5.53-.17Z"/>
            <path class="cls-9" d="M54.76,109.2c-.19.66-.44,1.42-.76,2.23,0,.03-.03.06-.04.09-1.69-.06-3.36-.02-4.71.24-.32.07-1.34.28-2.65.11-.72-.09-1.36-.28-1.93-.49,1.28-1.49,2.55-2.89,3.69-4.13,1.22.46,2.51.89,3.85,1.28.87.25,1.72.48,2.56.67Z"/>
            <path class="cls-9" d="M62.49,110.47c-.11.52-.28,1.18-.51,1.94-.27-.04-4.18-.74-8.03-.88.02-.03.03-.06.04-.09.32-.81.57-1.57.76-2.23h0c2.9.7,5.54,1.07,7.73,1.26Z"/>
            <path class="cls-9" d="M19.3,130.28c-.15.08-.3.18-.45.27-2.2,1.35-3.92,3.02-5.26,4.77-2.09-1.1-5.02-2.95-6.08-6.03,2.92-2.17,6.18-3.19,9.12-3.6-.02.21-.02.43,0,.65.13,1.55,1.05,2.78,2.67,3.94Z"/>
            <path class="cls-9" d="M18.61,122.09c-1.2,1.3-1.88,2.38-1.98,3.6-2.94.41-6.2,1.42-9.12,3.6-.06-.16-.11-.33-.15-.49-.64-2.38,0-4.91,1.3-7.35,1.09-.1,2.23-.15,3.43-.13,2.32.03,4.51.33,6.52.78Z"/>
            <path class="cls-9" d="M26.74,125.05l-1.41,1.6c-.92-.4-1.76-.77-2.48-1.09h0c-1.61-.15-3.8-.21-6.2.13.1-1.22.78-2.31,1.98-3.6,3.12.69,5.84,1.79,8.13,2.96Z"/>
            <path class="cls-9" d="M36.69,113.82l-3.62,4.09c-.85-.9-1.83-1.81-2.94-2.67-.81-.63-1.62-1.18-2.44-1.66,1.37-1.35,2.86-2.88,4.46-4.64.69.62,1.27,1.21,1.76,1.76.74.82,1.64,1.92,2.78,3.13Z"/>
            <path class="cls-9" d="M7.36,128.8c.04.17.09.33.15.49-.64.47-1.25,1-1.85,1.58-1.66,1.64-2.79,3.41-3.57,5.02-.69-1.51-1.09-3.06-1.09-4.69-.02-3.41,1.65-6.05,4.31-9.26,1.04-.21,2.16-.38,3.34-.48-1.31,2.44-1.94,4.97-1.3,7.35Z"/>
            <path class="cls-9" d="M18.83,110.27c-1.7,1.37-3.7,3.12-5.57,5.08-.51-.08-1-.15-1.45-.2,2.11-1.74,4.3-3.16,6.86-4.91.05,0,.1.02.16.03Z"/>
            <path class="cls-9" d="M13.26,115.36c-1.8,1.87-3.46,3.95-4.6,6.09-1.19.11-2.31.28-3.34.48.74-.89,1.56-1.82,2.44-2.83,1.36-1.56,2.69-2.82,4.06-3.94.45.05.94.12,1.45.2Z"/>
            <path class="cls-9" d="M32.14,108.94c-1.6,1.76-3.09,3.29-4.46,4.64-3.18-1.91-6.32-2.85-8.85-3.3.47-.38.91-.73,1.32-1.05.02,0,.04-.03.06-.04.03-.02.04-.03.07-.05,1.72-1.21,3.62-2.61,5.76-4.36,2.63,1.35,4.62,2.81,6.1,4.16Z"/>
            <path class="cls-9" d="M22.27,118.64c-1.52,1.37-2.74,2.47-3.66,3.45-2.02-.45-4.2-.74-6.52-.78-1.2-.02-2.34.03-3.43.13,1.14-2.13,2.8-4.21,4.6-6.09,2.55.43,5.76,1.34,9.01,3.28Z"/>
            <path class="cls-9" d="M27.68,113.58c-2.08,2.06-3.9,3.7-5.41,5.06-3.25-1.94-6.46-2.85-9.01-3.28,1.86-1.96,3.87-3.71,5.57-5.08,2.53.45,5.68,1.39,8.85,3.3Z"/>
            <path class="cls-9" d="M33.07,117.91l-4.92,5.54c-.94-1.05-2.05-2.09-3.32-3.08-.85-.66-1.71-1.24-2.56-1.74,1.51-1.36,3.33-3,5.41-5.06.82.48,1.63,1.04,2.44,1.66,1.11.86,2.09,1.76,2.94,2.67Z"/>
            <path class="cls-9" d="M53.56,126.38c-1.15,1.78-2.53,4.01-4.19,6.79-2.31-1.09-4.87-1.94-7.62-2.3,1.49-2.51,2.76-4.57,3.85-6.28,2.84.13,5.52.81,7.95,1.79h0Z"/>
            <path class="cls-9" d="M49.37,133.17c-.87,1.46-1.82,3.08-2.87,4.87-1.96-1.23-4.16-2.57-6.63-3.98.66-1.14,1.29-2.19,1.88-3.19,2.74.36,5.31,1.21,7.62,2.3Z"/>
            <path class="cls-9" d="M30.73,144.65c-1.54,2.33-2.69,4.62-3.59,6.71-1.21-.74-2.44-1.49-3.67-2.23-1.63-.98-3.29-1.96-4.95-2.93.59-2.12,1.54-4.43,3.06-6.71,1.33.72,2.7,1.48,4.13,2.28,1.61.91,3.28,1.87,5.02,2.89Z"/>
            <path class="cls-9" d="M21.58,139.47c-1.52,2.28-2.47,4.6-3.06,6.71-2-1.18-4.02-2.35-6.07-3.51-.74-.42-1.47-.84-2.21-1.25.71-1.93,1.77-4.09,3.34-6.11.42.22.8.41,1.14.58,2.13,1.06,4.41,2.25,6.86,3.58Z"/>
            <path class="cls-9" d="M26.61,134.1c-1.05.8-2.09,1.75-3.09,2.87-.74.82-1.37,1.66-1.94,2.5-2.44-1.33-4.72-2.52-6.86-3.58-.33-.17-.72-.36-1.14-.58,1.34-1.75,3.06-3.41,5.26-4.77.15-.09.3-.18.45-.27,1.71,1.25,4.2,2.42,7.32,3.82Z"/>
            <path class="cls-9" d="M27.54,127.67c-1.08.11-2.36.32-3.75.71-1.42.4-2.95,1.01-4.5,1.91-1.61-1.16-2.54-2.39-2.67-3.94-.02-.23-.02-.44,0-.65,2.41-.34,4.6-.28,6.2-.13h0c.73.32,1.56.69,2.48,1.09.69.32,1.43.65,2.22,1.02Z"/>
            <path class="cls-9" d="M31.52,128.18c-.32.29-.64.6-.98.93-1.05-.52-2.06-1-3-1.44-.79-.37-1.52-.7-2.22-1.02l1.41-1.6c1.82.94,3.37,1.91,4.6,2.8h0c.07.12.13.22.18.33Z"/>
            <path class="cls-9" d="M33.34,130.51c-.18.06-.38.13-.57.2-1.76.65-3.95,1.71-6.15,3.39-3.12-1.4-5.6-2.58-7.32-3.82,1.55-.89,3.08-1.51,4.5-1.91,1.39-.39,2.67-.6,3.75-.71.94.43,1.95.92,3,1.44.96.47,1.89.94,2.79,1.4Z"/>
            <path class="cls-9" d="M41.76,130.87c-.59,1-1.22,2.05-1.88,3.19h0c-1.29-.74-2.65-1.51-4.11-2.28.23-.3.48-.62.72-.95.04,0,.08,0,.13-.02,1.77-.2,3.5-.16,5.15.07Z"/>
            <path class="cls-9" d="M55.3,136.76c-1.22,1.4-2.53,2.85-3.94,4.37-.72-.48-1.4-.92-2.06-1.33-.81-.51-1.66-1.05-2.56-1.61-.08-.05-.16-.1-.24-.15,1.05-1.79,2-3.4,2.87-4.87,2.23,1.05,4.22,2.32,5.93,3.59Z"/>
            <path class="cls-9" d="M46.75,138.18c-.64,1.38-1.44,2.98-2.39,4.77-.17-.1-.33-.2-.51-.29-2.14-1.23-4.41-2.46-6.82-3.67-.44-.23-.89-.45-1.35-.67,1.62-1.79,3.08-3.19,4.19-4.27h0c2.48,1.42,4.67,2.76,6.63,3.99.08.05.16.1.24.15Z"/>
            <path class="cls-9" d="M36.44,157.2c-.72,1.32-1.38,2.53-1.99,3.63-.2-.14-.39-.28-.59-.4h0c-.38-.26-.74-.5-1.09-.73h0c-2.21-1.45-3.89-2.4-5.52-3.29-.56-.31-1.11-.61-1.68-.92.41-1.22.92-2.63,1.57-4.14.09.06.18.12.28.18,2.22,1.36,4.41,2.73,6.58,4.11.82.52,1.63,1.04,2.44,1.56Z"/>
            <path class="cls-9" d="M45.64,163.25c-.89,1.36-1.8,2.58-2.67,3.67-.94-.66-1.76-1.26-2.49-1.78h0c-2.63-1.89-4.05-2.91-4.73-3.4-.45-.33-.89-.63-1.3-.91.61-1.1,1.27-2.31,1.99-3.63,1.25.8,2.48,1.61,3.71,2.41.06.04.13.08.18.12,1.79,1.18,3.56,2.35,5.31,3.53Z"/>
            <path class="cls-9" d="M49.54,156.22c-1.01,2.2-2.1,4.17-3.19,5.93-.23.38-.47.74-.7,1.1-1.75-1.18-3.52-2.35-5.31-3.53-.06-.04-.13-.08-.18-.12-1.23-.8-2.47-1.61-3.71-2.41,1.12-2.05,2.37-4.36,3.78-6.83h0c1.98,1.22,4.04,2.51,6.18,3.86,1.03.64,2.07,1.31,3.14,1.99Z"/>
            <path class="cls-9" d="M44.36,142.95c-1.03,1.93-2.23,4.1-3.6,6.47-.18.32-.36.64-.54.94-3.39-2.09-6.54-3.99-9.49-5.72.31-.48.64-.97,1-1.45,1.36-1.88,2.7-3.5,3.95-4.87.45.22.9.44,1.35.67,2.41,1.21,4.68,2.44,6.82,3.67.18.09.34.19.51.29Z"/>
            <path class="cls-9" d="M52.58,148.01c-.69,2.41-1.59,4.99-2.78,7.64-.08.19-.18.38-.26.57-1.06-.68-2.11-1.35-3.14-1.99-2.14-1.35-4.2-2.64-6.18-3.86h0c.18-.31.36-.63.54-.94,1.36-2.37,2.57-4.54,3.6-6.47,1.87,1.07,3.65,2.14,5.31,3.19,1,.63,1.97,1.25,2.9,1.86h0Z"/>
            <path class="cls-9" d="M33.67,191.03c-.48-.03-.96-.05-1.45-.09-1.84-.14-3.57-.38-5.17-.69-.05-2.58-.09-5.2-.11-7.83,1.63.31,3.39.56,5.28.7.47.03.93.07,1.39.08,0,2.63.03,5.23.06,7.83Z"/>
            <path class="cls-9" d="M40.39,175.23c-.08,2.32-.2,4.84-.24,7.84-2.01.18-4.2.25-6.54.13,0-2.58,0-5.19,0-7.82,2.43.12,4.7.04,6.77-.16Z"/>
            <path class="cls-9" d="M40.24,190.88c-2.02.19-4.21.26-6.57.15-.03-2.59-.06-5.2-.06-7.83,2.34.12,4.53.05,6.54-.13-.03,2.29-.03,4.86.09,7.81Z"/>
            <path class="cls-9" d="M43.17,167.07c-.12.02-.23.03-.35.05-.74.11-1.51.2-2.32.28,0-.73,0-1.47-.02-2.25.73.52,1.56,1.12,2.49,1.78.06.05.13.1.19.14Z"/>
          </g>
          <g>
            <path class="cls-9" d="M53.72,142.68c.29-.22.6-.47.94-.73,2.58-2.02,4.65-4.4,8.78-9.15,6.59-7.57,9.88-11.35,11.8-16.42.6-1.59,1.27-3.77,1.65-6.51"/>
            <path class="cls-9" d="M77.2,104.75c0-1.38-.11-2.85-.31-4.41"/>
            <path class="cls-9" d="M30.54,129.1c8.14-7.8,10.55-9.06,11.13-8.58.9.75-2.17,6.2-5.08,10.15-.28.38-.56.75-.83,1.1"/>
            <path class="cls-9" d="M23.11,154.09c-.13,2.83-.22,6.17-.31,10.14-.07,2.67-.07,4.59.12,25.97,0,.43.05,5.08.05,5.51,2.27.87,5.2,1.72,8.67,2.14,6.2.75,11.34-.23,14.6-1.16-.17-1.04-.38-2.56-.58-4.39-.97-9.09.03-13.26.49-23.09h0"/>
            <path class="cls-9" d="M33.08,98.51c-.68.66-1.75,1.68-3.1,2.89-10.98,9.87-16.21,10.83-22.22,17.7-4.06,4.64-6.77,7.74-6.76,12.1.03,8.04,9.31,14.34,18.54,20.61,6.61,4.49,8.67,4.56,16.21,9.93,1.13.8,4.19,3.02,11.28,8.11.78.56,2.59,1.85,3.36,2.41,1.48-2.13,2.98-4.53,4.42-7.2,3.35-6.25,5.35-12.16,6.57-17.08-4.72-3.4-8.86-6.12-12.08-8.17-4.56-2.89-10.54-6.66-18.76-10.7-3.26-1.6-6.02-2.82-7.99-3.66"/>
          </g>
          <path class="cls-9" d="M77.21,104.74c.13.53.23,1.18.24,1.93.02,1.35-.29,2.46-.55,3.18-2.8.49-6.44.91-10.69.82-3-.07-8.08-.43-14-2.15-9.09-2.64-15.5-7.08-19.11-10.03-.22-1.77.84-5.02.84-5.02,3.58,2.93,9.99,7.41,19.11,10.03,10.51,3.01,19.44,2.07,24.17,1.23Z"/>
        </g>
        <path class="cls-9" d="M38.83,48.39c.41-.17.81-.33,1.22-.5,3.57-1.46,7.57-1.45,11.14.01,1.9.78,3.81,1.56,5.71,2.34"/>
        <path class="cls-9" d="M88.95,34.35c-.03,1.03.44,2.05.34,2.99-.1,1.03-.77,1.93-.93,2.86-.18,1.03.13,2.11-.1,2.99-.1.4-.26.74-.43,1.05-.28.52-.61.96-.79,1.48,0,0,0,0-.02,0-.86.45-.79.66-1.76.82-.2.03-.37.03-.51.03-.54-.06-.75-.36-1.53-.23-.69.11-.84.4-1.21.62-.16.09-.36.18-.65.23-.9.16-1.05-.29-1.85-.23-.06,0-.12.02-.18.03-.06,0-.12.03-.17.03-.79.19-.76.66-1.66.81-.27.04-.48.03-.64,0-.43-.08-.67-.33-1.35-.21-.71.12-.84.43-1.25.66-.14.08-.33.14-.58.18-.14.03-.26.03-.37.03-.62.02-.77-.27-1.6-.24-.13,0-.24.02-.34.03.16-1.65,1.25-3.59,1.36-4.77,2.52-1.47,4.52-2.86,5.11-3.28.74.04,2.13.03,3.47-.77,3.11-1.84,3.88-6.61,2.78-7.38-.38-.27-1.25-.22-3.58,1.65.03-.44-.54-1-.59-1.58-.03-.51.49-1.17.3-1.69-.18-.48-.97-.63-1.35-1.03-.42-.45-.58-1.25-1.41-1.45-.49-.13-1.25.38-2.07.28-.56-.08-1.14-.78-1.9-.87-1.05-.13-2.01.41-2.76.33-1.19-.13-1.98-.84-2.63-.91-1.56-.16-2,.42-2.78.18-.84-.25-1.1-1.05-1.74-1.34-.48-.21-1.3.12-2.2-.23-.54-.21-.96-1.04-1.76-1.31-.5-.17-1.21.19-1.7,0-.51-.21-.86-1-1.36-1.06-.37-.05-.68.27-1,.56-.29.29-.73.63-1.29.67-.23.02-.38-.03-.45-.03-.46,0-1.11,1.66-2.02,8,0,0,.11,5.74,4.06,11.21,0,1.11-.05,2.31-.16,3.58-1.08-.25-.94-.93-2.06-1.25-1.15-.33-1.33.28-2.48-.06s-.97-.94-2.12-1.28c-1.15-.33-1.33.28-2.48-.06-1.15-.33-1-.67-2.05-1.25-.18-.7-.84-1.2-1-2.14-.14-.76.37-1.69.28-2.59-.08-.79-.75-1.61-.77-2.5,0-.8.64-1.63.71-2.51.06-.82-.48-1.73-.34-2.59.18-1.15,1.04-2.12,1.31-3.15.31-1.13.08-2.38.46-3.38.43-1.1,1.48-1.86,1.97-2.78.57-1.09.61-2.37,1.17-3.2.38-.57.88-.99,1.35-1.34,1.15.85,2.57,1.82,4.26,2.79,1.56.89,3.35,1.8,5.36,2.6,1.72.71,3.6,1.35,5.64,1.86.68.18,1.37.33,2.08.48,1.28.25,2.53.44,3.75.58,2.08.23,4.06.3,5.91.25,2.15-.06,4.12-.27,5.88-.56,1.91-.31,3.56-.71,4.92-1.1.24-.07.44-.21.59-.39.06.11.12.22.17.33.17.33.31.69.39,1.08.2.95-.13,2.09,0,3.21.13,1,.76,2,.82,3.1.06,1.01-.46,2.07-.49,3.17Z"/>
        <path class="cls-9" d="M76.86,47.84c-.31.12-.69.22-1.24.31-.6.1-1.02.13-1.37.14.41-.23.54-.54,1.25-.66.69-.12.92.13,1.35.21Z"/>
        <path class="cls-9" d="M55.85,42.67c.02,1.79-.06,3.8-.31,5.99-.2,1.76-.49,3.38-.81,4.85,6.33-.12,12.65-.23,18.98-.35-.36-1.18-.68-2.58-.88-4.15-.33-2.59-.21-4.84.02-6.59"/>
        <path class="cls-9" d="M101.27,85.2c-1.63.89-4.21,2.07-7.59,2.62-3.15.5-3.94.59-5.72.29l-2.22-.27c.74-2.31,1.56-4.68,2.46-7.1,1.26-3.35,2.58-6.52,3.96-9.51l.06-.12,4.54-9.09c.05.67.62,2.49.8,3.74.74,5.2,2.01,7.63,2.88,11.67.38,1.79.82,4.42.84,7.76Z"/>
        <path class="cls-9" d="M53.39,24.21c-.85,1.97-1.67,4.73-1.6,8.04,0,0,.15,7.54,6.04,13.57.49.5,1.13,1.06,2.06,1.44,1.59.65,3.27.46,5.19-.14,5.23-1.64,11.6-6.07,12.75-6.88.75.05,2.14.03,3.48-.76,3.1-1.84,3.88-6.62,2.78-7.39-.4-.28-1.37-.21-4.08,2.05"/>
        <path class="cls-9" d="M71.66,34.89c-.05.32-.17.61-.33.84-.59-.03-1.27-.08-2.04-.23-.1-.3-.13-.65-.08-1.01.12-.74.56-1.29,1.08-1.44.3.08.61.15.92.22.37.33.55.95.44,1.61Z"/>
        <path class="cls-9" d="M57.8,31.38c-.05.3-.15.57-.29.79-.6-.12-1.44-.33-2.25-.69,0-.17,0-.33.03-.51.12-.67.49-1.2.95-1.41.42.14.85.28,1.3.39.24.36.35.88.27,1.43Z"/>
        <path class="cls-9" d="M101.27,54.27c-4.31,6.89-9.05,15.74-13.08,26.47-4.3,11.47-6.59,21.88-7.85,30.29-4.08-2.11-9.46-4.41-16.01-6.03-8.5-2.1-15.92-2.32-21.3-2.05-3.82-4.34-8.76-9.22-15.01-13.96-3.81-2.89-7.51-5.27-10.93-7.24.74-6.66,1.07-14.86.17-24.16-1.26-13-4.5-23.68-7.55-31.45,6.54,2.38,16.8,7.19,25.96,16.94,3.62,3.86,6.36,7.72,8.41,11.17,2.57-.84,5.28-1.59,8.12-2.22,19.22-4.3,36.54-1.47,49.04,2.22Z"/>
        <g>
          <path class="cls-9" d="M43.44,58.64c-.33,3.09-.66,7.74-.47,13.43.1,2.95.3,4.9.44,6.62.36,4.43.6,10.88-.02,19.32"/>
          <g>
            <path class="cls-9" d="M52.61,62.82c.47.1.93.08,1.36-.16.66-.4,1.19-.62,1.47.26.94,2.81,1.16-3.38,5.03-1.58.98.42,1.88,1.12,2.2,2.2.3.9.44,2.2,1.65,1.31.44-.29.97-.67,1.5-.62.59.05,1.1.47,1.67.42.49-.02.98-.27,1.47-.37,1.95-.4,3.65,1.42,5.55,1.55,1.26.17,2.27-.76,3.47-.92,1.44-.23,2.84.59,4.3.83.7.13,1.4.28,2.08.49"/>
            <path class="cls-9" d="M51.73,85.94c1.8.57,3.43.32,4.65-1.23.61-.57,1.34-1.57,2.18-1.63.7.15.59,1.35.79,1.93.4,1.92,2.54,2.97,4.36,2.35.44-.11.86-.19,1.27.01.38.18.71.52,1.08.53.59.01,1.07-.44,1.64-.62,1.26-.38,2.59-.72,3.89-.91.71-.06,1.17.4,1.65.9,1.92,1.53,4.65-.04,6.73-.32"/>
            <path class="cls-9" d="M52.25,95.3c2.05,1.47,3.43-3.57,5.11-.35.29.66.37.95.82.64.39-.24.94-.62,1.43-.48.48.16.44,1.4,1,1.69,2.56.62,5.32-.08,7.94.26.96.14,1.76.76,2.73.86.59.07,1.55,0,2.11-.03"/>
            <path class="cls-9" d="M52.47,73.63c.66-.49,1.3-1.33,2.02-1.82.26-.18.56-.28.86-.18.34.13.65.41.91.87.75,1.32.85,3.07,1.54,3.45.14.08.27.02.46,0,.44-.06.92-.99,1.37-1.58.57-.74,1.25-1.43,1.99-.95.16.11.3.25.43.42.28.36.5.85.71,1.27.32.66.75,1.3,1.39,1.28.58-.01,1.31-.24,2.21-.57.57-.21,1.12-.2,1.61.1,1.31.8,2.33,1.76,3.24,2.2.78.38,1.53.74,2.54.44.47-.14.89-.53,1.29-.91.75-.72,1.66-1.26,2.81-1.34"/>
          </g>
          <g>
            <path class="cls-9" d="M23.74,54.33c.23.22.49.37.79.38.45.02.85.04.94.51.17.89.9.1,1.86-.5.7-.43,1.63-.88,2.29-.23.34.33.14,1.05.11,1.57s-.07,1.08-.06,1.6c.02.94.18,1.85,1.23,1.67.38-.07.79-.12,1.05.12.24.22.36.62.63.78.05.03.1.05.15.06.32.08.71-.02,1.06-.01.09,0,.18,0,.26.02,1.06.18,1.83.99,2.74,1.5.13.07.24.15.35.23.31.24.54.45.81.63.3.2.67.29,1.04.44"/>
            <path class="cls-9" d="M23.86,75.77c1.85-.78,3.01,1.47,3.1,2.98.04.34.04.76.28.99.38.3.92-.08,1.35-.13.93-.24,1.98.16,2.35,1.02.22.46.29,1.15.89,1.26.38.07.82.02,1.12.26.99.94,1.55,2.72,3,3.03.55.14,1.15.22,1.69.34"/>
            <path class="cls-9" d="M38.81,72.81c-.85.17-1.58.59-2.19,1.2-.35.31-.74.54-1.04.47-.72-.3-.66-1.3-.82-1.99-.15-1.34-.57-3.21-2.29-2.85-2.65.44-1.6-1.59-2.05-3.2-.61-1.16-1.97,1.02-2.65,1.3-1.81.93-.7-2.24-1.29-3.35-.14-.22-.39-.2-.6-.13-.59.29-1.15.69-1.83.75"/>
            <path class="cls-9" d="M20.02,41.78c.98-.42,3.04-1.15,3.29.42.17,1.1-.51,2.1-.61,3.13.05.97,1.16.28,1.86.13.82-.21,1.77-.32,2.1.55.12.32.13.77.16,1.13.03.54.24,1.14.85,1.2.96.05,2.24.03,2.74,1.19,1.81,4.74,5.44.84,8.28,3.52"/>
          </g>
        </g>
        <path class="cls-9" d="M85.9,86.13c-1.91.08-4.52-.65-7.17-1.22-.24-.05-.76-.16-1.07.13-.3.28-.28.8-.21,1.09.13.49.58.99,3.25,1.85,2.26.73,3.42,1.1,5.16,1.07.23,0,.46-.01.67-.03-.66.13-1.21.14-1.62.13-2.13-.06-5.1-.99-8.1-1.76-.28-.06-.87-.21-1.19.05-.31.25-.25.77-.15,1.07.17.49.72,1.02,3.76,2.08,2.43.84,3.74,1.3,5.51,1.44-.16.02-.3.03-.43.04-1.91.08-4.52-.65-7.17-1.22-.24-.05-.76-.16-1.07.13-.3.28-.28.8-.21,1.09.13.49.58.99,3.25,1.85,2.26.73,3.42,1.1,5.16,1.07h.3c-1.69.08-3.98-.25-6.34-.76-.21-.04-.68-.14-.95.11-.27.25-.25.71-.19.97.11.43.52.88,2.89,1.65,2.01.65,3.04.98,4.6.96.18.09.46.23.82.33.74.22,1.36.17,1.53.16,1.39-.08,2.77.3,4.59.28,1.82-.02,4.92-.05,6.63-2.03.94-1.08,1.08-2.31,1.33-4.53.3-2.61.04-4.77-.22-6.14-1.24.52-2.8,1.05-4.64,1.34-.56.09-1.03.16-1.44.22-1.15.17-1.81.21-2.57.14-.11,0-.21-.02-.32-.04-.13-.02-.27-.04-.42-.06.01.23,0,.43-.01.59-.04-.23-.06-.43-.06-.61-.01-.25,0-.52-.06-.81,0-.02,0-.04-.01-.06h0c-.04-.2-.11-.42-.23-.64-.25-.45-.59-.74-.85-.91h0s-1.56-1.28-1.56-1.28l-.74,2.22h-.41Z"/>
        <path class="cls-9" d="M66.9,33.27c.12-.13.28-.28.49-.42.37-.23.72-.3.94-.33.63.18,1.29.36,1.97.54.3.08.61.15.92.22.08.03.16.04.24.06,1.37.31,2.68.54,3.9.72-.19.36-.59.95-1.31,1.34-.43.23-.89.33-1.86.35-.25,0-.54,0-.84,0-.59-.03-1.27-.08-2.04-.23-.14-.03-.28-.05-.43-.08"/>
        <path class="cls-9" d="M69.19,29.9s3.98.07,5.97.96"/>
        <path class="cls-9" d="M59.8,27.51s-2.56-1.65-4.78-1.92"/>
        <path class="cls-9" d="M60.13,31.77c0-.15-.02-.35-.08-.59-.09-.33-.25-.58-.36-.72-.41-.08-.82-.17-1.24-.27-.31-.08-.62-.16-.92-.24-.44-.12-.88-.25-1.3-.39-.97-.32-1.86-.68-2.69-1.05-.1.26-.32.96,0,1.63.18.38.46.63.77.83.3.2.63.38.94.52.81.37,1.65.58,2.25.69.12.03.23.05.33.07"/>
        <path class="cls-9" d="M62.87,33.86c-.78,1.08-1.41,2.04-1.89,2.79-.53.84-.76,1.24-.7,1.75.1.96,1.09,1.56,1.44,1.76"/>
        <path class="cls-9" d="M58.71,41.43s2.25,1.98,5.63,1.68"/>
        <path class="cls-9" d="M51.53,12.34c2.66,2.34,8.26,6.62,16.46,8.4,9.03,1.96,16.33-.17,19.6-1.36.07-1.78.16-8.5-4.26-12.97-2.41-2.44-5.08-3.13-8.74-4.08-4.26-1.1-8.48-2.19-13.17-.32-6.18,2.47-9.08,8.45-9.9,10.33Z"/>
        <g>
          <path class="cls-9" d="M88.29,19.2v4.21c0,.54-.33,1.01-.82,1.16-4.31,1.31-11.67,2.78-20.46.88-8.08-1.73-13.96-5.57-17.38-8.31-.39-.31-.55-.85-.4-1.35l.89-3.87c.24-.76,1.08-1.07,1.7-.61,3.53,2.58,8.91,5.7,15.95,7.21,7.94,1.71,14.72.68,19.13-.5.71-.19,1.39.39,1.39,1.17Z"/>
          <g>
            <line class="cls-9" x1="82.78" y1="18.91" x2="82.55" y2="25.74"/>
            <line class="cls-9" x1="77.15" y1="19.42" x2="76.67" y2="26.34"/>
            <line class="cls-9" x1="71.49" y1="19.15" x2="70.77" y2="26.07"/>
            <line class="cls-9" x1="65.91" y1="18.08" x2="64.93" y2="24.95"/>
            <line class="cls-9" x1="60.5" y1="16.24" x2="59.28" y2="22.96"/>
            <line class="cls-9" x1="55.36" y1="13.65" x2="53.92" y2="20.17"/>
          </g>
        </g>
        <g>
          <path class="cls-9" d="M17.62,62.07h0s-.05-.03-.08-.04c.03.03.04.05.08.08.19.23.42.43.67.64.89.71,1.81,1.03,2.42,1.18.5.02.9.43.9.91,0,.45-.36.85-.83.9-.69.05-1.84.04-3.04-.43-.28-.12-.58-.26-.86-.43-.12-.08-.23-.15-.34-.23.23.3.58.67,1.05,1.03.06.04.12.08.18.12.44.32.85.52,1.19.65.51.22.82.54.78.8-.05.29-.56.42-.78.48-.41.1-.79.1-1.15.04-.54-.08-1-.28-1.33-.42-1.51-.66-2.3-1.68-2.53-2-.34-.48-.63-.89-.63-1.45s.28-.69.32-1.35c.03-.67-.25-.74-.38-1.6-.13-.84.13-.89.06-1.89-.08-1.01-.33-1.02-.32-1.78.02-.74.28-.89.54-1.96.3-1.15.12-1.42.29-2.07.19-.71.76-1.63,2.41-2.49l.14-.08c.21,1.32.39,2.67.56,4.04.32.43.76.89,1.34,1.33.94.7,1.86,1.03,2.42,1.18.5.02.9.43.9.91,0,.45-.36.85-.83.9-.65.04-1.71.04-2.83-.36.24.28.52.55.84.8,1,.79,2.02,1.15,2.7,1.31.56.02,1,.48,1,1.02,0,.5-.39.94-.92,1-.88.07-2.43.04-3.96-.75Z"/>
          <path class="cls-9" d="M16.55,64.63h0c.24.31.58.68,1.05,1.03.5.38.99.62,1.36.77.51.22.82.54.78.8-.05.29-.56.42-.78.47-1.01.25-1.92-.13-2.48-.38-1.51-.66-2.3-1.68-2.52-2-.34-.47-.62-.88-.63-1.45,0-.57.28-.69.32-1.35.03-.66-.25-.74-.38-1.59-.13-.84.13-.89.06-1.89-.07-1.01-.34-1.02-.32-1.78.02-.74.28-.9.55-1.96.29-1.15.11-1.43.29-2.08.2-.71.76-1.63,2.41-2.49"/>
          <path class="cls-9" d="M17.55,62.03c.22.25.47.48.74.71.89.71,1.81,1.03,2.42,1.18.5.02.9.43.9.91,0,.45-.36.85-.83.9-.86.06-2.42.03-3.9-.87-.12-.08-.23-.15-.34-.23h0c-.5-.37-.91-.8-1.24-1.25"/>
          <path class="cls-9" d="M15.37,56.79c.4.52.89.99,1.52,1.38,1.48.9,3.04.93,3.9.87.47-.05.82-.45.82-.9,0-.48-.4-.9-.9-.91-.57-.15-1.49-.47-2.42-1.18-1.05-.79-1.64-1.69-1.94-2.23"/>
          <path class="cls-9" d="M17.97,58.68c.24.28.52.55.84.8,1,.79,2.02,1.15,2.7,1.31.56.02,1,.48,1,1.02,0,.5-.39.94-.92,1-.89.07-2.48.04-4.04-.79-.1-.05-.2-.11-.3-.17-.78-.48-1.37-1.08-1.84-1.73"/>
        </g>
        <path class="cls-9" d="M88.63,96.06c.09-.6-.32-.8-.22-1.42.1-.65.59-.63.75-1.38.11-.53-.08-.6.06-1.18.15-.64.43-.63.53-1.18.1-.54-.15-.61-.14-1.36.01-.59.17-.69.22-1.3.03-.34.03-.86-.14-1.5"/>
        <path class="cls-9" d="M84.57,97.93c-1.55.02-2.59-.31-4.6-.96-2.38-.76-2.78-1.21-2.89-1.65-.07-.26-.08-.73.19-.97.28-.25.74-.16.96-.11,2.36.51,4.64.84,6.34.76"/>
        <path class="cls-9" d="M84.27,95c-1.74.02-2.9-.35-5.16-1.08-2.67-.86-3.12-1.36-3.24-1.85-.07-.29-.09-.82.21-1.09.31-.28.83-.18,1.07-.13,2.65.57,5.26,1.31,7.17,1.22.13,0,.27-.02.43-.04-1.77-.14-3.08-.6-5.51-1.44-3.05-1.06-3.59-1.59-3.77-2.08-.11-.3-.16-.82.15-1.07.33-.26.92-.11,1.19-.04,3,.77,5.97,1.7,8.1,1.76.41.01.97,0,1.63-.13-.22.02-.44.03-.67.03-1.74.02-2.9-.35-5.16-1.08-2.67-.86-3.12-1.36-3.24-1.85-.07-.29-.09-.82.21-1.09.31-.28.83-.18,1.07-.13,2.65.57,5.26,1.31,7.17,1.22"/>
        <path class="cls-9" d="M88.61,85.18c.26.17.61.46.85.91.3.56.28,1.07.3,1.51.02.48.11,1.12.38,1.9.04.13.25.19.82.28.99.16,1.77.06,2.23.01.55-.05,1.35-.09,2.33,0"/>
        <path class="cls-9" d="M83.44,34.17c.01-.18,0-.39-.14-.48-.37-.26-1.36.56-1.57.73-.35.29-.83.76-1.26,1.5.02.14.14.9-.36,1.5-.18.22-.39.35-.54.42"/>
      </g>
      <g>
        <path class="cls-5" d="M101.27,85.2c-.55.3-1.22.64-2,.98.23,1.37.47,3.46.18,5.97-.25,2.22-.39,3.44-1.33,4.53-1.71,1.98-4.8,2.02-6.63,2.03-1.81.03-3.19-.36-4.58-.28-.18,0-.76.06-1.48-.15v80.05c0,.49-.22.96-.59,1.28l-.07.06-1.18,1s-.06.04-.08.07c-.28.22-.62.38-.96.46-.42.09-.86.08-1.29-.04h-.02l-2.64-.8-.14-.04c-.7-.22-1.19-.86-1.19-1.6v-52.34l-16.17,13.68v7.72c.09.07.18.13.28.2-.08.31-.16.62-.23.94,2.12,1.12,4.23,2.26,6.35,3.39.41.22.81.43,1.22.65.56.3.93.86,1,1.49.42,3.45.17,6.28-.14,8.21-.57,3.55-1.65,6.03-3.15,7.99-1.08,1.4-1.86,1.86-2.64,1.99-1.01.18-1.94-.19-2.68-.66v23.35c0,.49-.22.96-.59,1.28l-.07.06-1.18,1s-.06.04-.08.07c-.28.22-.62.38-.96.46-.42.09-.86.08-1.29-.04h-.02l-2.64-.8-.14-.04c-.7-.22-1.19-.86-1.19-1.6v-27.38c-.42.69-.84,1.36-1.26,2.01-.21.33-.43.65-.64.98-.22.32-.43.63-.64.94-.77-.55-2.58-1.85-3.36-2.41-.3-.22-.59-.43-.88-.63-.02.43-.04.84-.07,1.25,0,.05,0,.11,0,.16-.02.35-.03.69-.06,1.03-.02.32-.03.64-.06.94-.03.42-.05.83-.08,1.23,0,.2-.03.4-.04.59-.08,1.11-.16,2.15-.23,3.14-.08,1-.14,1.96-.2,2.9,0,.03,0,.08,0,.11-.03.59-.06,1.18-.08,1.77-.02.44-.03.89-.04,1.34-.02.71-.03,1.43,0,2.17,0,.47.02.94.03,1.42,0,.38.03.77.05,1.16.02.24.03.48.05.74.02.31.04.63.07.95.02.18.03.36.04.55.04.53.1,1.07.16,1.63.19,1.83.41,3.35.58,4.39-.64.18-1.35.37-2.14.54-.15.03-.3.07-.46.09-.44.1-.91.18-1.4.27-.25.04-.49.08-.75.12-.28.04-.55.08-.84.12-.35.04-.7.08-1.07.12-.17.03-.33.03-.51.05.03,1.66.07,3.3.11,4.96,0,.54.03,1.09.03,1.63.02.75-.28,1.45-.77,1.91-2.7,2.44-5.21,3.84-6.98,4.64-3.25,1.49-5.86,1.83-8.23,1.43-1.69-.29-2.45-.82-2.94-1.55-1.01-1.49-.74-3.62-.5-4.74,0-.03,0-.05.03-.08.09-.42.28-.79.54-1.09,2.25-2.7,4.5-5.4,6.75-8.1-.35-.08-.69-.18-1.03-.28-.19-.05-.38-.11-.56-.16-.92-.28-1.76-.57-2.53-.86,0-.43-.04-5.08-.05-5.51,0-.32,0-.63,0-.93,0-.38,0-.74,0-1.1,0-.91-.02-1.79-.03-2.63,0-1.48-.03-2.84-.03-4.11,0-.41,0-.8,0-1.19s0-.75,0-1.12c0-.73,0-1.42-.02-2.07,0-.32,0-.64,0-.94,0-.92,0-1.76-.02-2.52-.03-4.45-.03-6.45-.02-7.83,0-.58.03-1.05.03-1.54.04-1.71.08-3.29.12-4.77.02-.49.03-.98.04-1.45.04-1.4.09-2.71.15-3.92-1.05-.64-2.22-1.36-3.57-2.28-.61-.41-1.21-.83-1.82-1.24-.37-.25-.74-.51-1.1-.76v31.9c0,.49-.22.96-.59,1.28l-.07.06-1.18,1s-.06.04-.08.07c-.28.22-.62.38-.96.46-.42.09-.86.08-1.29-.04h-.02l-2.64-.8-.14-.04c-.7-.22-1.19-.86-1.19-1.6v-38.44s-.08-.07-.12-.1c-.29-.25-.58-.5-.85-.76-1.27-1.17-2.41-2.37-3.35-3.6-.23-.3-.45-.59-.66-.9-.11-.15-.21-.3-.31-.46-.09-.15-.19-.31-.28-.46-.03-.04-.06-.09-.08-.14-.1-.15-.18-.31-.28-.47-.04-.08-.09-.17-.13-.26-.1-.2-.2-.4-.29-.61-.08-.19-.17-.38-.24-.57-.08-.18-.15-.38-.22-.57-.18-.48-.31-.97-.41-1.47-.03-.16-.07-.31-.08-.47-.03-.11-.03-.22-.05-.32,0-.08-.02-.16-.03-.24-.02-.13-.03-.26-.03-.38-.02-.22-.03-.44-.03-.67v-.05c0-.27,0-.54.03-.79.02-.26.05-.52.09-.77v-.02c.03-.23.08-.45.13-.67.13-.55.31-1.1.54-1.63.08-.21.18-.41.28-.62.12-.23.23-.48.37-.71.33-.58.69-1.16,1.12-1.75.12-.17.24-.34.38-.52.42-.57.88-1.15,1.38-1.75.74-.89,1.56-1.82,2.44-2.83.69-.78,1.35-1.49,2.03-2.13.17-.17.33-.33.5-.48.5-.47,1.01-.91,1.52-1.33.26-.22.53-.43.79-.64.23-.18.46-.36.69-.54.06-.04.12-.09.18-.13.25-.19.49-.37.75-.55.1-.08.2-.15.3-.22.45-.33.92-.65,1.4-.97.87-.6,1.78-1.21,2.73-1.86.48-.33.97-.67,1.48-1.02.14-.11.28-.21.43-.31.43-.31.89-.64,1.35-.98.8-.59,1.65-1.22,2.53-1.91.51-.39,1.03-.81,1.56-1.25,1.23-1,2.54-2.12,3.95-3.38.59-.54,1.15-1.04,1.62-1.5.6-.55,1.1-1.04,1.48-1.4-.18-1.47.52-3.95.75-4.76-1.79-1.6-3.72-3.19-5.8-4.76-3.81-2.89-7.51-5.28-10.93-7.23.45-4.11.75-8.82.7-14.01-.15-.02-.3-.05-.44-.09-.08-.03-.17-.05-.24-.08-.24-.08-.46-.18-.64-.25-1.51-.66-2.3-1.68-2.53-2-.34-.48-.63-.89-.63-1.45s.28-.69.32-1.35c.03-.67-.25-.74-.38-1.6-.13-.84.13-.89.06-1.89-.08-1.01-.33-1.02-.32-1.78.02-.74.28-.89.54-1.96.3-1.15.12-1.42.29-2.07.19-.71.76-1.63,2.41-2.49l.14-.08c-1.56-9.91-4.18-18.19-6.66-24.52,6.54,2.37,16.8,7.18,25.96,16.94,1.53,1.63,2.91,3.28,4.14,4.88.07-.03.14-.06.21-.08,3.58-1.45,7.58-1.45,11.15,0,1.41.59,2.82,1.15,4.22,1.74.05-.33.08-.65.13-.99.07-.55.12-1.1.16-1.62-.56-.13-.79-.38-1.04-.63l-2.24-.65c-.33.06-.67.13-1.25-.03-.57-.17-.82-.4-1.05-.64h0s-2.28-.67-2.28-.67c0,0,0,0,0,0-.33.07-.66.13-1.24-.03-.72-.21-.94-.42-1.25-.69l-.94-.28c-.09-.34-.18-.73-.28-1.13-.23-.37-.48-.76-.58-1.29-.08-.38.03-.81.13-1.25-.11-.79-.2-1.64-.25-2.54,0,0,0,0,0,0-.18-.42-.35-.84-.36-1.29,0-.4.16-.81.33-1.23,0,0,0,0,0,0,.02-.82.08-1.68.18-2.57-.11-.43-.21-.87-.14-1.3.08-.58.35-1.1.62-1.62h0c.23-1.15.54-2.23.89-3.25v-.02c.03-.58.07-1.15.26-1.64.22-.56.59-1.03.98-1.47.5-1.1,1.05-2.11,1.58-3h0c.15-.57.3-1.1.59-1.51.35-.52.79-.9,1.21-1.24-.33-.31-.44-.8-.3-1.25l.89-2.87c.21-.67.89-1,1.48-.74.9-2.03,3.8-7.77,9.83-10.18,4.68-1.86,8.9-.78,13.16.32,3.66.94,6.34,1.64,8.74,4.08,4.21,4.26,4.33,10.55,4.27,12.68.4.18.69.6.69,1.11v3.21c0,.13-.02.27-.06.39h0c.17.34.3.69.38,1.07.1.48.07,1,.03,1.56.17.99.31,2.04.41,3.17.18.51.35,1.04.38,1.59.03.51-.08,1.03-.22,1.56,0,.53,0,1.07,0,1.62-.02.51-.04,1.01-.08,1.51.11.5.2,1,.15,1.47-.05.51-.24.99-.44,1.46,0,0,0,0,0,0-.13,1.05-.32,2.03-.52,2.94.03.51.05,1-.06,1.44-.16.62-.43,1.1-.69,1.55-.13.43-.26.84-.39,1.23l-1.34.23c-.74.3-1.13.45-2.48.68-.96.16-1.46.11-1.97.06l-3.9.64c-.45.22-.92.42-1.86.58-1.13.19-1.61.14-2.22.1l-.64.11c.02.22.04.43.07.65.04.3.08.59.13.88,10.84.11,20.51,2.07,28.31,4.38-1.47,2.36-2.99,4.94-4.52,7.76.05.67.62,2.49.8,3.74.74,5.2,2.01,7.63,2.88,11.67.38,1.79.82,4.42.84,7.76Z"/>
        <g>
          <line class="cls-10" x1="85.44" y1="114.78" x2="85.44" y2="70.88"/>
          <path class="cls-6" d="M85.44,111.1v67.23c0,.49-.22.96-.59,1.28l-.07.06-1.18,1s-.06.04-.08.07c-.28.22-.62.38-.96.46-.42.09-.86.08-1.29-.04h-.02l-2.64-.8-.14-.04c-.7-.22-1.19-.86-1.19-1.6v-60.7l5.28-4.47,2.88-2.44Z"/>
          <polygon class="cls-6" points="85.44 114.78 85.44 119.46 82.55 121.91 77.27 126.37 61.1 140.05 58.22 142.49 52.94 140.89 40.95 137.27 38.07 136.4 35.68 135.68 32.79 134.8 16.61 129.91 13.73 129.04 8.45 127.44 8.45 122.76 35.68 99.73 85.44 114.78"/>
          <g>
            <polygon class="cls-6" points="85.43 72.65 85.43 72.65 85.44 72.65 85.43 72.65"/>
            <polygon class="cls-6" points="35.68 57.6 85.43 72.65 85.44 72.65 35.68 57.6"/>
            <path class="cls-6" d="M85.43,72.65l-49.79-15.05h0c-.94.8-1.49,1.97-1.49,3.21v32.06c0,1.43.94,2.7,2.31,3.12l46.14,13.95c.83.25,1.74.06,2.4-.5l.42-.36v-36.43Z"/>
          </g>
          <polyline class="cls-6" points="85.44 72.65 35.68 57.6 85.44 72.65 35.64 57.6"/>
          <line class="cls-7" x1="82.55" y1="125.44" x2="82.55" y2="177.14"/>
          <polyline class="cls-7" points="83.44 74.57 83.43 74.57 82.63 75.27"/>
          <path class="cls-1" d="M37.58,61.54l39.8,12.04c2.84.86,4.78,3.47,4.78,6.43l.02,20.96"/>
          <line class="cls-3" x1="58.22" y1="137.81" x2="12.53" y2="123.99"/>
          <polyline class="cls-3" points="12.53 123.99 58.22 137.81 58.22 142.49"/>
          <line class="cls-2" x1="58.22" y1="137.81" x2="85.44" y2="114.78"/>
          <path class="cls-6" d="M16.61,129.91v51.8c0,.49-.22.96-.59,1.28l-.07.06-1.18,1s-.06.04-.08.07c-.28.22-.62.38-.96.46-.42.09-.86.08-1.29-.04h-.02l-2.64-.8-.14-.04c-.7-.22-1.19-.86-1.19-1.6v-54.65l5.28,1.6,2.88.87Z"/>
          <path class="cls-6" d="M40.95,137.27v35.8c0,.49-.22.96-.59,1.28l-.07.06-1.18,1s-.06.04-.08.07c-.28.22-.62.38-.96.46-.42.09-.86.08-1.29-.04h-.02l-2.64-.8-.14-.04c-.7-.22-1.19-.86-1.19-1.6v-38.66l2.88.88,2.39.72,2.88.88Z"/>
          <path class="cls-6" d="M61.1,140.05v55.27c0,.49-.22.96-.59,1.28l-.07.06-1.18,1s-.06.04-.08.07c-.28.22-.62.38-.96.46-.42.09-.86.08-1.29-.04h-.02l-2.64-.8-.14-.04c-.7-.22-1.19-.86-1.19-1.6v-54.81l5.28,1.6,2.88-2.44Z"/>
          <line class="cls-7" x1="13.73" y1="181.24" x2="13.73" y2="132.37"/>
          <line class="cls-7" x1="38.07" y1="138.77" x2="38.07" y2="173.57"/>
          <line class="cls-7" x1="58.22" y1="145.83" x2="58.22" y2="194.84"/>
        </g>
        <g>
          <path class="cls-6" d="M56.69,159.71c.92,3.46,1.84,6.93,2.77,10.39.1.38.29.72.57.99.7.69,2.13,1.82,3.75,1.54.79-.14,1.56-.6,2.64-2,1.51-1.96,2.59-4.44,3.16-7.99.31-1.93.56-4.76.14-8.21-.08-.63-.45-1.19-1.01-1.49-2.59-1.39-5.19-2.77-7.78-4.16"/>
          <path class="cls-3" d="M60.16,159.18c-.81,1.53,2.41-2.73,2.41-2.73,0,0-1.93,4.87-2.46,5.87s2.15-1.94,3-1.98-1.15,3.07-2.56,4.27"/>
          <path class="cls-3" d="M67.49,152.29c.55,3.78.29,6.87-.04,8.94-.57,3.55-1.65,6.03-3.15,7.99-1.08,1.4-1.86,1.86-2.64,1.99-.59.11-1.15.02-1.67-.17"/>
        </g>
        <g>
          <path class="cls-6" d="M27.76,196.21c-2.47,2.97-4.95,5.93-7.42,8.9-.27.32-.47.72-.56,1.16-.24,1.12-.51,3.25.5,4.74.49.73,1.25,1.25,2.94,1.54,2.37.4,4.97.06,8.23-1.42,1.77-.81,4.28-2.2,6.98-4.65.49-.45.79-1.15.77-1.9-.08-3.47-.15-6.94-.23-10.41"/>
          <path class="cls-3" d="M29.86,199.45c-1.68.07,3.45.88,3.45.88,0,0-5.02.86-6.11.91s2.66,1.07,3.1,1.93-3.13.61-4.82-.14"/>
          <path class="cls-3" d="M39.17,202.95c-2.92,2.78-5.64,4.31-7.54,5.17-3.26,1.49-5.86,1.83-8.23,1.43-1.69-.29-2.45-.82-2.94-1.55-.37-.54-.57-1.17-.65-1.81"/>
        </g>
        <g>
          <g>
            <path class="cls-4" d="M57.98,138.9c-1.15,1.2-2.19,2.16-3.32,3.04-.33.26-.64.51-.94.73-.82-.55-1.61-1.07-2.36-1.55,1.4-1.52,2.72-2.98,3.94-4.37,1,.73,1.89,1.46,2.68,2.15Z"/>
            <path class="cls-4" d="M69.42,125.78c-1.59,1.96-3.52,4.18-5.87,6.88-.85-.74-1.83-1.54-2.93-2.32,2.13-2.73,3.86-5.16,5.26-7.31,1.12.75,2.31,1.66,3.55,2.75Z"/>
            <path class="cls-4" d="M76.88,109.86c-.38,2.74-1.05,4.92-1.65,6.51-.26.69-.54,1.35-.86,1.99-1.5-1.19-2.94-2.14-4.28-2.9,1-2.27,1.45-3.9,1.63-4.95,1.94-.15,3.67-.39,5.16-.65Z"/>
            <path class="cls-7" d="M61.98,112.41c-.18.54-.38,1.13-.63,1.76-.94,2.38-2.09,4.23-2.96,5.44-.52-.13-.96-.21-1.31-.26-2.12-.33-4.83-.75-7.47-.64.1-.13.19-.25.28-.36.56-.7,2.57-3.1,4.06-6.82,3.85.13,7.76.84,8.03.88Z"/>
            <path class="cls-7" d="M74.37,118.37c-1.15,2.41-2.73,4.67-4.95,7.42-1.24-1.1-2.42-2-3.55-2.75,1.99-3.06,3.32-5.57,4.21-7.57,1.34.76,2.78,1.71,4.28,2.9Z"/>
            <path class="cls-7" d="M63.55,132.67s-.08.09-.12.13c-2.32,2.66-3.98,4.58-5.46,6.1-.79-.69-1.68-1.42-2.68-2.15,2.01-2.3,3.77-4.43,5.32-6.41,1.1.79,2.08,1.58,2.93,2.32Z"/>
            <path class="cls-4" d="M33.79,198.04c-.7-.04-1.41-.11-2.15-.19-1.59-.19-3.06-.48-4.41-.81-.07-2.24-.13-4.51-.17-6.79,1.6.3,3.33.54,5.17.69.48.04.97.07,1.45.09.03,2.36.07,4.69.12,7.02Z"/>
            <path class="cls-4" d="M46.24,196.69c-1.5.43-3.39.86-5.59,1.14-.15-1.89-.28-4.06-.38-6.44,0-.18-.02-.34-.02-.51,1.91-.17,3.66-.44,5.22-.76.05.69.12,1.42.2,2.18.19,1.83.41,3.35.58,4.39Z"/>
            <path class="cls-7" d="M40.64,197.83c-2.03.26-4.34.38-6.86.22-.05-2.32-.09-4.66-.12-7.02,2.36.11,4.56.04,6.57-.15,0,.17,0,.33.02.51.1,2.38.23,4.55.38,6.44Z"/>
            <path class="cls-4" d="M45.84,174.41c-.21,2.95-.43,5.42-.53,7.93-1.55.3-3.27.57-5.16.74.04-3,.17-5.53.24-7.84,2.01-.18,3.83-.48,5.44-.82Z"/>
            <path class="cls-7" d="M45.46,190.12c-1.56.32-3.3.59-5.22.76-.12-2.95-.13-5.52-.09-7.81,1.89-.17,3.61-.43,5.16-.74-.1,2.4-.08,4.84.15,7.78Z"/>
            <path class="cls-7" d="M46.15,169.21h0c-.09,1.93-.2,3.64-.32,5.2-1.61.33-3.44.64-5.44.82,0-.05,0-.1,0-.15.05-1.56.09-3.33.1-5.28,0-.77,0-1.57,0-2.4.8-.08,1.57-.17,2.32-.28.12-.02.23-.03.35-.05.89.64,1.89,1.36,2.99,2.14Z"/>
            <path class="cls-4" d="M27.25,156.41c-.03.86-.05,1.72-.08,2.58-.89-.17-1.74-.35-2.56-.55-.57-.14-1.13-.28-1.66-.43.04-1.41.09-2.71.15-3.92.88.52,1.68.97,2.46,1.4.57.31,1.12.61,1.68.92Z"/>
            <path class="cls-4" d="M27.01,166.78c-.02,1.08-.03,2.17-.04,3.26-.02,1.52-.03,3.04-.03,4.55-1.51-.29-2.88-.64-4.15-.99-.03-4.45-.03-6.45-.02-7.83,1.29.37,2.7.72,4.24,1.01Z"/>
            <path class="cls-4" d="M27.06,190.25c-1.5-.28-2.88-.62-4.15-.98-.03-2.99-.05-5.58-.07-7.83,1.25.36,2.62.69,4.11.98.02,2.63.06,5.25.11,7.83Z"/>
            <path class="cls-7" d="M26.95,182.42c-1.49-.28-2.86-.62-4.11-.98-.03-3.24-.05-5.79-.06-7.83,1.26.35,2.64.69,4.15.99,0,2.63,0,5.24.02,7.83Z"/>
            <path class="cls-7" d="M27.22,197.04c-1.6-.39-3.03-.86-4.26-1.33,0-.43-.04-5.08-.05-5.51,0-.32,0-.63,0-.93,1.26.36,2.65.69,4.15.98.04,2.28.1,4.55.17,6.79Z"/>
            <path class="cls-7" d="M27.17,159c-.08,2.58-.13,5.17-.17,7.78-1.54-.29-2.95-.64-4.24-1.01,0-.58.03-1.05.03-1.54.05-2.27.1-4.34.16-6.22.53.15,1.09.29,1.66.43.82.2,1.66.38,2.56.55Z"/>
            <path class="cls-4" d="M61.38,147.97c-.4,1.62-.89,3.36-1.49,5.18-2.1-1.56-4.53-3.3-7.32-5.14.54-1.87.94-3.65,1.25-5.27,2.28,1.51,4.82,3.26,7.56,5.23Z"/>
            <path class="cls-7" d="M53.82,142.74c-.31,1.62-.71,3.39-1.25,5.27h0c-.93-.61-1.9-1.24-2.9-1.86-1.66-1.05-3.44-2.12-5.31-3.19.95-1.79,1.76-3.39,2.39-4.77.9.56,1.75,1.1,2.56,1.61.65.41,1.34.85,2.06,1.33.75.48,1.54,1,2.36,1.55.03.02.07.04.1.07Z"/>
            <path class="cls-7" d="M39.87,134.05c-1.11,1.08-2.57,2.48-4.19,4.27-.35-.18-.69-.35-1.05-.52-1.09-.53-2.14-1.02-3.14-1.49-1.76-.8-3.39-1.53-4.87-2.21,2.2-1.69,4.39-2.74,6.15-3.39.19-.08.38-.14.57-.2.84.43,1.65.85,2.42,1.26,1.45.78,2.82,1.54,4.11,2.27Z"/>
            <path class="cls-4" d="M56.85,160.94c-.62,1.35-1.3,2.73-2.04,4.11-.6,1.12-1.22,2.2-1.83,3.23-2.18-1.52-4.39-3.04-6.65-4.57-.23-.15-.45-.3-.69-.46.23-.36.47-.73.7-1.1,1.1-1.76,2.18-3.73,3.19-5.93,2.34,1.5,4.77,3.07,7.31,4.72Z"/>
            <path class="cls-7" d="M52.98,168.28c-.86,1.41-1.72,2.74-2.58,3.97-.77-.55-2.58-1.85-3.36-2.41-.3-.22-.59-.43-.88-.63h0c-1.1-.79-2.09-1.51-2.99-2.15-.07-.04-.13-.09-.19-.14.87-1.09,1.77-2.31,2.67-3.67.23.16.46.31.69.46,2.26,1.52,4.46,3.04,6.65,4.57Z"/>
            <path class="cls-4" d="M27.14,151.35c-.65,1.51-1.16,2.92-1.57,4.14-.78-.43-1.58-.89-2.46-1.4-1.05-.64-2.22-1.36-3.57-2.28-.61-.41-1.21-.83-1.82-1.24.12-1.25.36-2.76.8-4.38,1.66.97,3.32,1.96,4.95,2.93,1.23.74,2.46,1.49,3.67,2.23Z"/>
            <path class="cls-7" d="M32.77,159.7c-.18-.02-.36-.03-.54-.04-1.8-.14-3.49-.37-5.05-.66.03-.86.04-1.72.08-2.58,1.63.89,3.31,1.83,5.52,3.29Z"/>
            <path class="cls-7" d="M40.5,167.39c-2.07.21-4.35.29-6.79.18.03-1.89.07-3.77.12-5.64,0-.51.02-1,.03-1.51.19.13.38.26.59.4.42.28.85.59,1.3.91.69.49,2.11,1.51,4.73,3.39h0c0,.79.02,1.53.02,2.26Z"/>
            <path class="cls-4" d="M10.24,141.43c-.4,1.08-.7,2.09-.92,2.97-2.69-2.24-4.97-4.56-6.45-7.03,2.44,1.31,4.89,2.68,7.37,4.06Z"/>
            <path class="cls-7" d="M13.59,135.32c-1.57,2.02-2.63,4.18-3.34,6.11-2.48-1.39-4.92-2.75-7.37-4.06h0c-.29-.48-.55-.98-.78-1.48.78-1.61,1.91-3.38,3.57-5.02.59-.59,1.21-1.11,1.85-1.58,1.06,3.08,3.99,4.93,6.08,6.03Z"/>
            <path class="cls-7" d="M18.52,146.19c-.44,1.62-.69,3.13-.8,4.38-2.96-2.02-5.86-4.06-8.39-6.17.22-.88.52-1.89.92-2.97.74.41,1.47.83,2.21,1.25,2.05,1.16,4.07,2.33,6.07,3.51Z"/>
            <path class="cls-7" d="M36.95,123.28c-1.36,1.15-3.1,2.7-5.31,4.78-.1-.08-.19-.14-.29-.2h0c-.78-1.36-1.81-2.88-3.19-4.41l4.92-5.54c1.76,1.86,3,3.76,3.88,5.37Z"/>
            <path class="cls-7" d="M28.15,123.45l-1.41,1.6c-2.28-1.17-5.01-2.27-8.13-2.96.92-.98,2.14-2.08,3.66-3.45.85.5,1.71,1.08,2.56,1.74,1.27.99,2.37,2.03,3.32,3.08Z"/>
            <path class="cls-4" d="M37.98,102.06c-.52.65-1.09,1.36-1.71,2.12-.2-.23-.38-.44-.56-.64-.97-1.08-2.3-2.35-4.11-3.64.6-.55,1.1-1.04,1.48-1.4,1.28,1.05,2.92,2.28,4.9,3.55Z"/>
            <path class="cls-7" d="M36.27,104.18c-.94,1.14-2.01,2.39-3.19,3.71-.32.36-.63.7-.94,1.05-1.48-1.35-3.47-2.81-6.1-4.16,1.23-1,2.54-2.12,3.95-3.38.59-.54,1.15-1.04,1.62-1.5,1.81,1.29,3.14,2.56,4.11,3.64.18.19.36.41.56.64Z"/>
            <path class="cls-7" d="M59.89,153.15c-.8,2.46-1.8,5.08-3.04,7.78-2.53-1.65-4.97-3.22-7.31-4.72.08-.18.18-.38.26-.57,1.19-2.65,2.08-5.23,2.78-7.64,2.78,1.84,5.22,3.58,7.32,5.14Z"/>
            <path class="cls-4" d="M31.34,127.85c-1.23-.89-2.78-1.86-4.6-2.8l1.41-1.6c1.37,1.52,2.41,3.04,3.19,4.4Z"/>
            <path class="cls-4" d="M60.62,130.34c-1.55,1.98-3.31,4.11-5.32,6.41-1.71-1.26-3.7-2.53-5.93-3.59,1.66-2.78,3.04-5.01,4.19-6.79,2.68,1.09,5.05,2.52,7.06,3.96Z"/>
            <path class="cls-4" d="M70.09,115.47c-.89,2-2.22,4.51-4.21,7.57-3.13-2.11-5.74-3.01-7.48-3.43.87-1.21,2.02-3.06,2.96-5.44.25-.63.45-1.21.63-1.76,1.56.28,4.47.97,8.11,3.06Z"/>
            <path class="cls-7" d="M65.88,123.03c-1.4,2.15-3.13,4.58-5.26,7.31-2.01-1.45-4.38-2.88-7.06-3.96,1.66-2.58,2.84-4.24,3.7-5.3.21-.26.62-.75,1.13-1.47,1.74.42,4.36,1.32,7.48,3.43Z"/>
            <path class="cls-4" d="M58.39,119.61c-.51.72-.92,1.21-1.13,1.47-.86,1.06-2.04,2.72-3.7,5.3h0c-2.43-.98-5.11-1.66-7.95-1.79,1.79-2.83,3.08-4.67,4.01-5.88,2.63-.12,5.34.31,7.47.64.35.05.79.13,1.31.26Z"/>
            <path class="cls-4" d="M45.6,124.59c-1.09,1.71-2.36,3.77-3.85,6.28-1.66-.23-3.38-.27-5.15-.07-.04,0-.08,0-.13.02.03-.04.08-.09.11-.14,1.3-1.76,2.63-3.83,3.63-5.64.73-.16,1.44-.28,2.12-.35,1.11-.13,2.2-.16,3.27-.1Z"/>
            <path class="cls-4" d="M35.68,138.32c-1.25,1.38-2.59,2.99-3.95,4.87-.35.48-.69.97-1,1.45-1.74-1.02-3.41-1.98-5.02-2.89-1.43-.8-2.8-1.56-4.13-2.28.57-.84,1.2-1.68,1.94-2.5,1-1.12,2.05-2.07,3.09-2.87,1.49.68,3.12,1.4,4.87,2.21,1,.47,2.06.96,3.14,1.49.35.17.69.34,1.05.52Z"/>
            <path class="cls-4" d="M40.22,150.37c-1.4,2.47-2.66,4.78-3.78,6.83-.81-.53-1.62-1.05-2.44-1.56-2.17-1.37-4.36-2.74-6.58-4.11-.09-.06-.18-.12-.28-.18.89-2.08,2.05-4.37,3.59-6.71,2.95,1.73,6.1,3.63,9.49,5.72Z"/>
            <path class="cls-4" d="M33.62,175.38c-.02,2.63-.02,5.23,0,7.82-.46-.02-.92-.05-1.39-.08-1.88-.14-3.65-.39-5.28-.7-.02-2.58-.03-5.19-.02-7.83,1.63.31,3.4.57,5.29.71.47.03.94.07,1.4.08Z"/>
            <path class="cls-4" d="M33.86,160.42h0c-.02.51-.03,1-.03,1.51-.05,1.86-.08,3.75-.12,5.64-.49-.03-.99-.05-1.49-.09-1.86-.14-3.6-.38-5.22-.69.04-2.62.09-5.21.17-7.78,1.56.29,3.25.52,5.05.66.18.02.37.03.54.04h0c.34.23.7.47,1.09.72Z"/>
            <path class="cls-7" d="M33.71,167.57c-.04,2.29-.07,4.6-.08,6.92,0,.3,0,.6,0,.89-.46-.02-.93-.05-1.4-.08-1.89-.14-3.66-.4-5.29-.71,0-1.51.02-3.03.03-4.55,0-1.1.03-2.18.04-3.26,1.61.31,3.35.55,5.22.69.5.04,1,.07,1.49.09Z"/>
            <path class="cls-4" d="M40.5,169.79c0,1.96-.05,3.72-.1,5.28,0,.05,0,.1,0,.15-2.07.2-4.34.28-6.77.16,0-.29,0-.59,0-.89.02-2.32.04-4.63.08-6.92,2.44.12,4.72.03,6.79-.18,0,.83,0,1.63,0,2.4Z"/>
            <path class="cls-4" d="M41.67,120.53c-.38-.32-1.57.13-4.72,2.75-.88-1.61-2.12-3.5-3.88-5.37l3.62-4.09c1.04,1.1,2.29,2.27,3.8,3.39.2.14.44.32.74.51-.02,1.12.22,2.12.44,2.81Z"/>
            <path class="cls-4" d="M40.96,109l-4.27,4.82c-1.15-1.2-2.05-2.31-2.78-3.13-.49-.54-1.08-1.14-1.76-1.76.32-.34.63-.69.94-1.05,1.18-1.32,2.24-2.58,3.19-3.71,1.14,1.31,2.63,3.1,4.69,4.82Z"/>
            <path class="cls-7" d="M44.1,105.45l-3.14,3.55c-2.06-1.71-3.55-3.5-4.69-4.82.63-.75,1.2-1.46,1.71-2.12,1.76,1.14,3.8,2.3,6.11,3.39Z"/>
            <path class="cls-4" d="M48.35,107.26c-1.14,1.24-2.41,2.64-3.69,4.13-1.07-.42-1.87-.97-2.37-1.34-.47-.34-.92-.69-1.34-1.05l3.14-3.55c1.33.64,2.75,1.25,4.26,1.81Z"/>
            <path class="cls-7" d="M49.62,118.71c-.94,1.2-2.22,3.04-4.01,5.88-1.07-.06-2.16-.03-3.27.1-.68.08-1.39.19-2.12.35,1.24-2.24,1.96-4.1,1.45-4.52-.23-.69-.46-1.69-.44-2.81.83.53,2.04,1.13,3.56,1.31,1.26.16,2.23-.03,2.65-.1.71-.13,1.44-.2,2.17-.22Z"/>
            <path class="cls-4" d="M53.95,111.53c-1.49,3.72-3.5,6.12-4.06,6.82-.09.11-.18.23-.28.36-.74.02-1.46.09-2.17.22-.42.08-1.39.26-2.65.1-1.52-.18-2.73-.79-3.56-1.31.02-.73.14-1.52.46-2.31.35-.88.81-1.44,1.15-1.86.6-.74,1.22-1.45,1.83-2.17.57.22,1.21.4,1.93.49,1.31.17,2.33-.04,2.65-.11,1.35-.26,3.02-.3,4.71-.24Z"/>
            <path class="cls-7" d="M71.72,110.52c-.18,1.05-.63,2.68-1.63,4.95-3.65-2.09-6.56-2.78-8.11-3.06.23-.76.4-1.42.51-1.94h0c1.44.13,2.68.19,3.7.22,1.98.04,3.84-.03,5.53-.17Z"/>
            <path class="cls-7" d="M54.76,109.2c-.19.66-.44,1.42-.76,2.23,0,.03-.03.06-.04.09-1.69-.06-3.36-.02-4.71.24-.32.07-1.34.28-2.65.11-.72-.09-1.36-.28-1.93-.49,1.28-1.49,2.55-2.89,3.69-4.13,1.22.46,2.51.89,3.85,1.28.87.25,1.72.48,2.56.67Z"/>
            <path class="cls-4" d="M62.49,110.47c-.11.52-.28,1.18-.51,1.94-.27-.04-4.18-.74-8.03-.88.02-.03.03-.06.04-.09.32-.81.57-1.57.76-2.23h0c2.9.7,5.54,1.07,7.73,1.26Z"/>
            <path class="cls-4" d="M19.3,130.28c-.15.08-.3.18-.45.27-2.2,1.35-3.92,3.02-5.26,4.77-2.09-1.1-5.02-2.95-6.08-6.03,2.92-2.17,6.18-3.19,9.12-3.6-.02.21-.02.43,0,.65.13,1.55,1.05,2.78,2.67,3.94Z"/>
            <path class="cls-7" d="M18.61,122.09c-1.2,1.3-1.88,2.38-1.98,3.6-2.94.41-6.2,1.42-9.12,3.6-.06-.16-.11-.33-.15-.49-.64-2.38,0-4.91,1.3-7.35,1.09-.1,2.23-.15,3.43-.13,2.32.03,4.51.33,6.52.78Z"/>
            <path class="cls-4" d="M26.74,125.05l-1.41,1.6c-.92-.4-1.76-.77-2.48-1.09h0c-1.61-.15-3.8-.21-6.2.13.1-1.22.78-2.31,1.98-3.6,3.12.69,5.84,1.79,8.13,2.96Z"/>
            <path class="cls-7" d="M36.69,113.82l-3.62,4.09c-.85-.9-1.83-1.81-2.94-2.67-.81-.63-1.62-1.18-2.44-1.66,1.37-1.35,2.86-2.88,4.46-4.64.69.62,1.27,1.21,1.76,1.76.74.82,1.64,1.92,2.78,3.13Z"/>
            <path class="cls-4" d="M7.36,128.8c.04.17.09.33.15.49-.64.47-1.25,1-1.85,1.58-1.66,1.64-2.79,3.41-3.57,5.02-.69-1.51-1.09-3.06-1.09-4.69-.02-3.41,1.65-6.05,4.31-9.26,1.04-.21,2.16-.38,3.34-.48-1.31,2.44-1.94,4.97-1.3,7.35Z"/>
            <path class="cls-4" d="M18.83,110.27c-1.7,1.37-3.7,3.12-5.57,5.08-.51-.08-1-.15-1.45-.2,2.11-1.74,4.3-3.16,6.86-4.91.05,0,.1.02.16.03Z"/>
            <path class="cls-7" d="M13.26,115.36c-1.8,1.87-3.46,3.95-4.6,6.09-1.19.11-2.31.28-3.34.48.74-.89,1.56-1.82,2.44-2.83,1.36-1.56,2.69-2.82,4.06-3.94.45.05.94.12,1.45.2Z"/>
            <path class="cls-4" d="M32.14,108.94c-1.6,1.76-3.09,3.29-4.46,4.64-3.18-1.91-6.32-2.85-8.85-3.3.47-.38.91-.73,1.32-1.05.02,0,.04-.03.06-.04.03-.02.04-.03.07-.05,1.72-1.21,3.62-2.61,5.76-4.36,2.63,1.35,4.62,2.81,6.1,4.16Z"/>
            <path class="cls-4" d="M22.27,118.64c-1.52,1.37-2.74,2.47-3.66,3.45-2.02-.45-4.2-.74-6.52-.78-1.2-.02-2.34.03-3.43.13,1.14-2.13,2.8-4.21,4.6-6.09,2.55.43,5.76,1.34,9.01,3.28Z"/>
            <path class="cls-7" d="M27.68,113.58c-2.08,2.06-3.9,3.7-5.41,5.06-3.25-1.94-6.46-2.85-9.01-3.28,1.86-1.96,3.87-3.71,5.57-5.08,2.53.45,5.68,1.39,8.85,3.3Z"/>
            <path class="cls-4" d="M33.07,117.91l-4.92,5.54c-.94-1.05-2.05-2.09-3.32-3.08-.85-.66-1.71-1.24-2.56-1.74,1.51-1.36,3.33-3,5.41-5.06.82.48,1.63,1.04,2.44,1.66,1.11.86,2.09,1.76,2.94,2.67Z"/>
            <path class="cls-7" d="M53.56,126.38c-1.15,1.78-2.53,4.01-4.19,6.79-2.31-1.09-4.87-1.94-7.62-2.3,1.49-2.51,2.76-4.57,3.85-6.28,2.84.13,5.52.81,7.95,1.79h0Z"/>
            <path class="cls-4" d="M49.37,133.17c-.87,1.46-1.82,3.08-2.87,4.87-1.96-1.23-4.16-2.57-6.63-3.98.66-1.14,1.29-2.19,1.88-3.19,2.74.36,5.31,1.21,7.62,2.3Z"/>
            <path class="cls-7" d="M30.73,144.65c-1.54,2.33-2.69,4.62-3.59,6.71-1.21-.74-2.44-1.49-3.67-2.23-1.63-.98-3.29-1.96-4.95-2.93.59-2.12,1.54-4.43,3.06-6.71,1.33.72,2.7,1.48,4.13,2.28,1.61.91,3.28,1.87,5.02,2.89Z"/>
            <path class="cls-4" d="M21.58,139.47c-1.52,2.28-2.47,4.6-3.06,6.71-2-1.18-4.02-2.35-6.07-3.51-.74-.42-1.47-.84-2.21-1.25.71-1.93,1.77-4.09,3.34-6.11.42.22.8.41,1.14.58,2.13,1.06,4.41,2.25,6.86,3.58Z"/>
            <path class="cls-7" d="M26.61,134.1c-1.05.8-2.09,1.75-3.09,2.87-.74.82-1.37,1.66-1.94,2.5-2.44-1.33-4.72-2.52-6.86-3.58-.33-.17-.72-.36-1.14-.58,1.34-1.75,3.06-3.41,5.26-4.77.15-.09.3-.18.45-.27,1.71,1.25,4.2,2.42,7.32,3.82Z"/>
            <path class="cls-7" d="M27.54,127.67c-1.08.11-2.36.32-3.75.71-1.42.4-2.95,1.01-4.5,1.91-1.61-1.16-2.54-2.39-2.67-3.94-.02-.23-.02-.44,0-.65,2.41-.34,4.6-.28,6.2-.13h0c.73.32,1.56.69,2.48,1.09.69.32,1.43.65,2.22,1.02Z"/>
            <path class="cls-7" d="M31.52,128.18c-.32.29-.64.6-.98.93-1.05-.52-2.06-1-3-1.44-.79-.37-1.52-.7-2.22-1.02l1.41-1.6c1.82.94,3.37,1.91,4.6,2.8h0c.07.12.13.22.18.33Z"/>
            <path class="cls-4" d="M33.34,130.51c-.18.06-.38.13-.57.2-1.76.65-3.95,1.71-6.15,3.39-3.12-1.4-5.6-2.58-7.32-3.82,1.55-.89,3.08-1.51,4.5-1.91,1.39-.39,2.67-.6,3.75-.71.94.43,1.95.92,3,1.44.96.47,1.89.94,2.79,1.4Z"/>
            <path class="cls-7" d="M41.76,130.87c-.59,1-1.22,2.05-1.88,3.19h0c-1.29-.74-2.65-1.51-4.11-2.28.23-.3.48-.62.72-.95.04,0,.08,0,.13-.02,1.77-.2,3.5-.16,5.15.07Z"/>
            <path class="cls-7" d="M55.3,136.76c-1.22,1.4-2.53,2.85-3.94,4.37-.72-.48-1.4-.92-2.06-1.33-.81-.51-1.66-1.05-2.56-1.61-.08-.05-.16-.1-.24-.15,1.05-1.79,2-3.4,2.87-4.87,2.23,1.05,4.22,2.32,5.93,3.59Z"/>
            <path class="cls-4" d="M46.75,138.18c-.64,1.38-1.44,2.98-2.39,4.77-.17-.1-.33-.2-.51-.29-2.14-1.23-4.41-2.46-6.82-3.67-.44-.23-.89-.45-1.35-.67,1.62-1.79,3.08-3.19,4.19-4.27h0c2.48,1.42,4.67,2.76,6.63,3.99.08.05.16.1.24.15Z"/>
            <path class="cls-7" d="M36.44,157.2c-.72,1.32-1.38,2.53-1.99,3.63-.2-.14-.39-.28-.59-.4h0c-.38-.26-.74-.5-1.09-.73h0c-2.21-1.45-3.89-2.4-5.52-3.29-.56-.31-1.11-.61-1.68-.92.41-1.22.92-2.63,1.57-4.14.09.06.18.12.28.18,2.22,1.36,4.41,2.73,6.58,4.11.82.52,1.63,1.04,2.44,1.56Z"/>
            <path class="cls-4" d="M45.64,163.25c-.89,1.36-1.8,2.58-2.67,3.67-.94-.66-1.76-1.26-2.49-1.78h0c-2.63-1.89-4.05-2.91-4.73-3.4-.45-.33-.89-.63-1.3-.91.61-1.1,1.27-2.31,1.99-3.63,1.25.8,2.48,1.61,3.71,2.41.06.04.13.08.18.12,1.79,1.18,3.56,2.35,5.31,3.53Z"/>
            <path class="cls-7" d="M49.54,156.22c-1.01,2.2-2.1,4.17-3.19,5.93-.23.38-.47.74-.7,1.1-1.75-1.18-3.52-2.35-5.31-3.53-.06-.04-.13-.08-.18-.12-1.23-.8-2.47-1.61-3.71-2.41,1.12-2.05,2.37-4.36,3.78-6.83h0c1.98,1.22,4.04,2.51,6.18,3.86,1.03.64,2.07,1.31,3.14,1.99Z"/>
            <path class="cls-7" d="M44.36,142.95c-1.03,1.93-2.23,4.1-3.6,6.47-.18.32-.36.64-.54.94-3.39-2.09-6.54-3.99-9.49-5.72.31-.48.64-.97,1-1.45,1.36-1.88,2.7-3.5,3.95-4.87.45.22.9.44,1.35.67,2.41,1.21,4.68,2.44,6.82,3.67.18.09.34.19.51.29Z"/>
            <path class="cls-4" d="M52.58,148.01c-.69,2.41-1.59,4.99-2.78,7.64-.08.19-.18.38-.26.57-1.06-.68-2.11-1.35-3.14-1.99-2.14-1.35-4.2-2.64-6.18-3.86h0c.18-.31.36-.63.54-.94,1.36-2.37,2.57-4.54,3.6-6.47,1.87,1.07,3.65,2.14,5.31,3.19,1,.63,1.97,1.25,2.9,1.86h0Z"/>
            <path class="cls-7" d="M33.67,191.03c-.48-.03-.96-.05-1.45-.09-1.84-.14-3.57-.38-5.17-.69-.05-2.58-.09-5.2-.11-7.83,1.63.31,3.39.56,5.28.7.47.03.93.07,1.39.08,0,2.63.03,5.23.06,7.83Z"/>
            <path class="cls-7" d="M40.39,175.23c-.08,2.32-.2,4.84-.24,7.84-2.01.18-4.2.25-6.54.13,0-2.58,0-5.19,0-7.82,2.43.12,4.7.04,6.77-.16Z"/>
            <path class="cls-4" d="M40.24,190.88c-2.02.19-4.21.26-6.57.15-.03-2.59-.06-5.2-.06-7.83,2.34.12,4.53.05,6.54-.13-.03,2.29-.03,4.86.09,7.81Z"/>
            <path class="cls-4" d="M43.17,167.07c-.12.02-.23.03-.35.05-.74.11-1.51.2-2.32.28,0-.73,0-1.47-.02-2.25.73.52,1.56,1.12,2.49,1.78.06.05.13.1.19.14Z"/>
          </g>
          <g>
            <path class="cls-10" d="M53.72,142.68c.29-.22.6-.47.94-.73,2.58-2.02,4.65-4.4,8.78-9.15,6.59-7.57,9.88-11.35,11.8-16.42.6-1.59,1.27-3.77,1.65-6.51"/>
            <path class="cls-10" d="M77.2,104.75c0-1.38-.11-2.85-.31-4.41"/>
            <path class="cls-10" d="M30.54,129.1c8.14-7.8,10.55-9.06,11.13-8.58.9.75-2.17,6.2-5.08,10.15-.28.38-.56.75-.83,1.1"/>
            <path class="cls-10" d="M23.11,154.09c-.13,2.83-.22,6.17-.31,10.14-.07,2.67-.07,4.59.12,25.97,0,.43.05,5.08.05,5.51,2.27.87,5.2,1.72,8.67,2.14,6.2.75,11.34-.23,14.6-1.16-.17-1.04-.38-2.56-.58-4.39-.97-9.09.03-13.26.49-23.09h0"/>
            <path class="cls-10" d="M33.08,98.51c-.68.66-1.75,1.68-3.1,2.89-10.98,9.87-16.21,10.83-22.22,17.7-4.06,4.64-6.77,7.74-6.76,12.1.03,8.04,9.31,14.34,18.54,20.61,6.61,4.49,8.67,4.56,16.21,9.93,1.13.8,4.19,3.02,11.28,8.11.78.56,2.59,1.85,3.36,2.41,1.48-2.13,2.98-4.53,4.42-7.2,3.35-6.25,5.35-12.16,6.57-17.08-4.72-3.4-8.86-6.12-12.08-8.17-4.56-2.89-10.54-6.66-18.76-10.7-3.26-1.6-6.02-2.82-7.99-3.66"/>
          </g>
          <path class="cls-8" d="M77.21,104.74c.13.53.23,1.18.24,1.93.02,1.35-.29,2.46-.55,3.18-2.8.49-6.44.91-10.69.82-3-.07-8.08-.43-14-2.15-9.09-2.64-15.5-7.08-19.11-10.03-.22-1.77.84-5.02.84-5.02,3.58,2.93,9.99,7.41,19.11,10.03,10.51,3.01,19.44,2.07,24.17,1.23Z"/>
        </g>
        <path class="cls-10" d="M38.83,48.39c.41-.17.81-.33,1.22-.5,3.57-1.46,7.57-1.45,11.14.01,1.9.78,3.81,1.56,5.71,2.34"/>
        <path class="cls-8" d="M88.95,34.35c-.03,1.03.44,2.05.34,2.99-.1,1.03-.77,1.93-.93,2.86-.18,1.03.13,2.11-.1,2.99-.1.4-.26.74-.43,1.05-.28.52-.61.96-.79,1.48,0,0,0,0-.02,0-.86.45-.79.66-1.76.82-.2.03-.37.03-.51.03-.54-.06-.75-.36-1.53-.23-.69.11-.84.4-1.21.62-.16.09-.36.18-.65.23-.9.16-1.05-.29-1.85-.23-.06,0-.12.02-.18.03-.06,0-.12.03-.17.03-.79.19-.76.66-1.66.81-.27.04-.48.03-.64,0-.43-.08-.67-.33-1.35-.21-.71.12-.84.43-1.25.66-.14.08-.33.14-.58.18-.14.03-.26.03-.37.03-.62.02-.77-.27-1.6-.24-.13,0-.24.02-.34.03.16-1.65,1.25-3.59,1.36-4.77,2.52-1.47,4.52-2.86,5.11-3.28.74.04,2.13.03,3.47-.77,3.11-1.84,3.88-6.61,2.78-7.38-.38-.27-1.25-.22-3.58,1.65.03-.44-.54-1-.59-1.58-.03-.51.49-1.17.3-1.69-.18-.48-.97-.63-1.35-1.03-.42-.45-.58-1.25-1.41-1.45-.49-.13-1.25.38-2.07.28-.56-.08-1.14-.78-1.9-.87-1.05-.13-2.01.41-2.76.33-1.19-.13-1.98-.84-2.63-.91-1.56-.16-2,.42-2.78.18-.84-.25-1.1-1.05-1.74-1.34-.48-.21-1.3.12-2.2-.23-.54-.21-.96-1.04-1.76-1.31-.5-.17-1.21.19-1.7,0-.51-.21-.86-1-1.36-1.06-.37-.05-.68.27-1,.56-.29.29-.73.63-1.29.67-.23.02-.38-.03-.45-.03-.46,0-1.11,1.66-2.02,8,0,0,.11,5.74,4.06,11.21,0,1.11-.05,2.31-.16,3.58-1.08-.25-.94-.93-2.06-1.25-1.15-.33-1.33.28-2.48-.06s-.97-.94-2.12-1.28c-1.15-.33-1.33.28-2.48-.06-1.15-.33-1-.67-2.05-1.25-.18-.7-.84-1.2-1-2.14-.14-.76.37-1.69.28-2.59-.08-.79-.75-1.61-.77-2.5,0-.8.64-1.63.71-2.51.06-.82-.48-1.73-.34-2.59.18-1.15,1.04-2.12,1.31-3.15.31-1.13.08-2.38.46-3.38.43-1.1,1.48-1.86,1.97-2.78.57-1.09.61-2.37,1.17-3.2.38-.57.88-.99,1.35-1.34,1.15.85,2.57,1.82,4.26,2.79,1.56.89,3.35,1.8,5.36,2.6,1.72.71,3.6,1.35,5.64,1.86.68.18,1.37.33,2.08.48,1.28.25,2.53.44,3.75.58,2.08.23,4.06.3,5.91.25,2.15-.06,4.12-.27,5.88-.56,1.91-.31,3.56-.71,4.92-1.1.24-.07.44-.21.59-.39.06.11.12.22.17.33.17.33.31.69.39,1.08.2.95-.13,2.09,0,3.21.13,1,.76,2,.82,3.1.06,1.01-.46,2.07-.49,3.17Z"/>
        <path class="cls-8" d="M76.86,47.84c-.31.12-.69.22-1.24.31-.6.1-1.02.13-1.37.14.41-.23.54-.54,1.25-.66.69-.12.92.13,1.35.21Z"/>
        <path class="cls-7" d="M55.85,42.67c.02,1.79-.06,3.8-.31,5.99-.2,1.76-.49,3.38-.81,4.85,6.33-.12,12.65-.23,18.98-.35-.36-1.18-.68-2.58-.88-4.15-.33-2.59-.21-4.84.02-6.59"/>
        <path class="cls-6" d="M101.27,85.2c-1.63.89-4.21,2.07-7.59,2.62-3.15.5-3.94.59-5.72.29l-2.22-.27c.74-2.31,1.56-4.68,2.46-7.1,1.26-3.35,2.58-6.52,3.96-9.51l.06-.12,4.54-9.09c.05.67.62,2.49.8,3.74.74,5.2,2.01,7.63,2.88,11.67.38,1.79.82,4.42.84,7.76Z"/>
        <path class="cls-7" d="M53.39,24.21c-.85,1.97-1.67,4.73-1.6,8.04,0,0,.15,7.54,6.04,13.57.49.5,1.13,1.06,2.06,1.44,1.59.65,3.27.46,5.19-.14,5.23-1.64,11.6-6.07,12.75-6.88.75.05,2.14.03,3.48-.76,3.1-1.84,3.88-6.62,2.78-7.39-.4-.28-1.37-.21-4.08,2.05"/>
        <path class="cls-4" d="M71.66,34.89c-.05.32-.17.61-.33.84-.59-.03-1.27-.08-2.04-.23-.1-.3-.13-.65-.08-1.01.12-.74.56-1.29,1.08-1.44.3.08.61.15.92.22.37.33.55.95.44,1.61Z"/>
        <path class="cls-4" d="M57.8,31.38c-.05.3-.15.57-.29.79-.6-.12-1.44-.33-2.25-.69,0-.17,0-.33.03-.51.12-.67.49-1.2.95-1.41.42.14.85.28,1.3.39.24.36.35.88.27,1.43Z"/>
        <path class="cls-6" d="M101.27,54.27c-4.31,6.89-9.05,15.74-13.08,26.47-4.3,11.47-6.59,21.88-7.85,30.29-4.08-2.11-9.46-4.41-16.01-6.03-8.5-2.1-15.92-2.32-21.3-2.05-3.82-4.34-8.76-9.22-15.01-13.96-3.81-2.89-7.51-5.27-10.93-7.24.74-6.66,1.07-14.86.17-24.16-1.26-13-4.5-23.68-7.55-31.45,6.54,2.38,16.8,7.19,25.96,16.94,3.62,3.86,6.36,7.72,8.41,11.17,2.57-.84,5.28-1.59,8.12-2.22,19.22-4.3,36.54-1.47,49.04,2.22Z"/>
        <g>
          <path class="cls-3" d="M43.44,58.64c-.33,3.09-.66,7.74-.47,13.43.1,2.95.3,4.9.44,6.62.36,4.43.6,10.88-.02,19.32"/>
          <g>
            <path class="cls-3" d="M52.61,62.82c.47.1.93.08,1.36-.16.66-.4,1.19-.62,1.47.26.94,2.81,1.16-3.38,5.03-1.58.98.42,1.88,1.12,2.2,2.2.3.9.44,2.2,1.65,1.31.44-.29.97-.67,1.5-.62.59.05,1.1.47,1.67.42.49-.02.98-.27,1.47-.37,1.95-.4,3.65,1.42,5.55,1.55,1.26.17,2.27-.76,3.47-.92,1.44-.23,2.84.59,4.3.83.7.13,1.4.28,2.08.49"/>
            <path class="cls-3" d="M51.73,85.94c1.8.57,3.43.32,4.65-1.23.61-.57,1.34-1.57,2.18-1.63.7.15.59,1.35.79,1.93.4,1.92,2.54,2.97,4.36,2.35.44-.11.86-.19,1.27.01.38.18.71.52,1.08.53.59.01,1.07-.44,1.64-.62,1.26-.38,2.59-.72,3.89-.91.71-.06,1.17.4,1.65.9,1.92,1.53,4.65-.04,6.73-.32"/>
            <path class="cls-3" d="M52.25,95.3c2.05,1.47,3.43-3.57,5.11-.35.29.66.37.95.82.64.39-.24.94-.62,1.43-.48.48.16.44,1.4,1,1.69,2.56.62,5.32-.08,7.94.26.96.14,1.76.76,2.73.86.59.07,1.55,0,2.11-.03"/>
            <path class="cls-3" d="M52.47,73.63c.66-.49,1.3-1.33,2.02-1.82.26-.18.56-.28.86-.18.34.13.65.41.91.87.75,1.32.85,3.07,1.54,3.45.14.08.27.02.46,0,.44-.06.92-.99,1.37-1.58.57-.74,1.25-1.43,1.99-.95.16.11.3.25.43.42.28.36.5.85.71,1.27.32.66.75,1.3,1.39,1.28.58-.01,1.31-.24,2.21-.57.57-.21,1.12-.2,1.61.1,1.31.8,2.33,1.76,3.24,2.2.78.38,1.53.74,2.54.44.47-.14.89-.53,1.29-.91.75-.72,1.66-1.26,2.81-1.34"/>
          </g>
          <g>
            <path class="cls-3" d="M23.74,54.33c.23.22.49.37.79.38.45.02.85.04.94.51.17.89.9.1,1.86-.5.7-.43,1.63-.88,2.29-.23.34.33.14,1.05.11,1.57s-.07,1.08-.06,1.6c.02.94.18,1.85,1.23,1.67.38-.07.79-.12,1.05.12.24.22.36.62.63.78.05.03.1.05.15.06.32.08.71-.02,1.06-.01.09,0,.18,0,.26.02,1.06.18,1.83.99,2.74,1.5.13.07.24.15.35.23.31.24.54.45.81.63.3.2.67.29,1.04.44"/>
            <path class="cls-3" d="M23.86,75.77c1.85-.78,3.01,1.47,3.1,2.98.04.34.04.76.28.99.38.3.92-.08,1.35-.13.93-.24,1.98.16,2.35,1.02.22.46.29,1.15.89,1.26.38.07.82.02,1.12.26.99.94,1.55,2.72,3,3.03.55.14,1.15.22,1.69.34"/>
            <path class="cls-3" d="M38.81,72.81c-.85.17-1.58.59-2.19,1.2-.35.31-.74.54-1.04.47-.72-.3-.66-1.3-.82-1.99-.15-1.34-.57-3.21-2.29-2.85-2.65.44-1.6-1.59-2.05-3.2-.61-1.16-1.97,1.02-2.65,1.3-1.81.93-.7-2.24-1.29-3.35-.14-.22-.39-.2-.6-.13-.59.29-1.15.69-1.83.75"/>
            <path class="cls-3" d="M20.02,41.78c.98-.42,3.04-1.15,3.29.42.17,1.1-.51,2.1-.61,3.13.05.97,1.16.28,1.86.13.82-.21,1.77-.32,2.1.55.12.32.13.77.16,1.13.03.54.24,1.14.85,1.2.96.05,2.24.03,2.74,1.19,1.81,4.74,5.44.84,8.28,3.52"/>
          </g>
        </g>
        <path class="cls-6" d="M85.9,86.13c-1.91.08-4.52-.65-7.17-1.22-.24-.05-.76-.16-1.07.13-.3.28-.28.8-.21,1.09.13.49.58.99,3.25,1.85,2.26.73,3.42,1.1,5.16,1.07.23,0,.46-.01.67-.03-.66.13-1.21.14-1.62.13-2.13-.06-5.1-.99-8.1-1.76-.28-.06-.87-.21-1.19.05-.31.25-.25.77-.15,1.07.17.49.72,1.02,3.76,2.08,2.43.84,3.74,1.3,5.51,1.44-.16.02-.3.03-.43.04-1.91.08-4.52-.65-7.17-1.22-.24-.05-.76-.16-1.07.13-.3.28-.28.8-.21,1.09.13.49.58.99,3.25,1.85,2.26.73,3.42,1.1,5.16,1.07h.3c-1.69.08-3.98-.25-6.34-.76-.21-.04-.68-.14-.95.11-.27.25-.25.71-.19.97.11.43.52.88,2.89,1.65,2.01.65,3.04.98,4.6.96.18.09.46.23.82.33.74.22,1.36.17,1.53.16,1.39-.08,2.77.3,4.59.28,1.82-.02,4.92-.05,6.63-2.03.94-1.08,1.08-2.31,1.33-4.53.3-2.61.04-4.77-.22-6.14-1.24.52-2.8,1.05-4.64,1.34-.56.09-1.03.16-1.44.22-1.15.17-1.81.21-2.57.14-.11,0-.21-.02-.32-.04-.13-.02-.27-.04-.42-.06.01.23,0,.43-.01.59-.04-.23-.06-.43-.06-.61-.01-.25,0-.52-.06-.81,0-.02,0-.04-.01-.06h0c-.04-.2-.11-.42-.23-.64-.25-.45-.59-.74-.85-.91h0s-1.56-1.28-1.56-1.28l-.74,2.22h-.41Z"/>
        <path class="cls-3" d="M66.9,33.27c.12-.13.28-.28.49-.42.37-.23.72-.3.94-.33.63.18,1.29.36,1.97.54.3.08.61.15.92.22.08.03.16.04.24.06,1.37.31,2.68.54,3.9.72-.19.36-.59.95-1.31,1.34-.43.23-.89.33-1.86.35-.25,0-.54,0-.84,0-.59-.03-1.27-.08-2.04-.23-.14-.03-.28-.05-.43-.08"/>
        <path class="cls-3" d="M69.19,29.9s3.98.07,5.97.96"/>
        <path class="cls-3" d="M59.8,27.51s-2.56-1.65-4.78-1.92"/>
        <path class="cls-3" d="M60.13,31.77c0-.15-.02-.35-.08-.59-.09-.33-.25-.58-.36-.72-.41-.08-.82-.17-1.24-.27-.31-.08-.62-.16-.92-.24-.44-.12-.88-.25-1.3-.39-.97-.32-1.86-.68-2.69-1.05-.1.26-.32.96,0,1.63.18.38.46.63.77.83.3.2.63.38.94.52.81.37,1.65.58,2.25.69.12.03.23.05.33.07"/>
        <path class="cls-3" d="M62.87,33.86c-.78,1.08-1.41,2.04-1.89,2.79-.53.84-.76,1.24-.7,1.75.1.96,1.09,1.56,1.44,1.76"/>
        <path class="cls-3" d="M58.71,41.43s2.25,1.98,5.63,1.68"/>
        <path class="cls-6" d="M51.53,12.34c2.66,2.34,8.26,6.62,16.46,8.4,9.03,1.96,16.33-.17,19.6-1.36.07-1.78.16-8.5-4.26-12.97-2.41-2.44-5.08-3.13-8.74-4.08-4.26-1.1-8.48-2.19-13.17-.32-6.18,2.47-9.08,8.45-9.9,10.33Z"/>
        <g>
          <path class="cls-6" d="M88.29,19.2v4.21c0,.54-.33,1.01-.82,1.16-4.31,1.31-11.67,2.78-20.46.88-8.08-1.73-13.96-5.57-17.38-8.31-.39-.31-.55-.85-.4-1.35l.89-3.87c.24-.76,1.08-1.07,1.7-.61,3.53,2.58,8.91,5.7,15.95,7.21,7.94,1.71,14.72.68,19.13-.5.71-.19,1.39.39,1.39,1.17Z"/>
          <g>
            <line class="cls-3" x1="82.78" y1="18.91" x2="82.55" y2="25.74"/>
            <line class="cls-3" x1="77.15" y1="19.42" x2="76.67" y2="26.34"/>
            <line class="cls-3" x1="71.49" y1="19.15" x2="70.77" y2="26.07"/>
            <line class="cls-3" x1="65.91" y1="18.08" x2="64.93" y2="24.95"/>
            <line class="cls-3" x1="60.5" y1="16.24" x2="59.28" y2="22.96"/>
            <line class="cls-3" x1="55.36" y1="13.65" x2="53.92" y2="20.17"/>
          </g>
        </g>
        <g>
          <path class="cls-6" d="M17.62,62.07h0s-.05-.03-.08-.04c.03.03.04.05.08.08.19.23.42.43.67.64.89.71,1.81,1.03,2.42,1.18.5.02.9.43.9.91,0,.45-.36.85-.83.9-.69.05-1.84.04-3.04-.43-.28-.12-.58-.26-.86-.43-.12-.08-.23-.15-.34-.23.23.3.58.67,1.05,1.03.06.04.12.08.18.12.44.32.85.52,1.19.65.51.22.82.54.78.8-.05.29-.56.42-.78.48-.41.1-.79.1-1.15.04-.54-.08-1-.28-1.33-.42-1.51-.66-2.3-1.68-2.53-2-.34-.48-.63-.89-.63-1.45s.28-.69.32-1.35c.03-.67-.25-.74-.38-1.6-.13-.84.13-.89.06-1.89-.08-1.01-.33-1.02-.32-1.78.02-.74.28-.89.54-1.96.3-1.15.12-1.42.29-2.07.19-.71.76-1.63,2.41-2.49l.14-.08c.21,1.32.39,2.67.56,4.04.32.43.76.89,1.34,1.33.94.7,1.86,1.03,2.42,1.18.5.02.9.43.9.91,0,.45-.36.85-.83.9-.65.04-1.71.04-2.83-.36.24.28.52.55.84.8,1,.79,2.02,1.15,2.7,1.31.56.02,1,.48,1,1.02,0,.5-.39.94-.92,1-.88.07-2.43.04-3.96-.75Z"/>
          <path class="cls-10" d="M16.55,64.63h0c.24.31.58.68,1.05,1.03.5.38.99.62,1.36.77.51.22.82.54.78.8-.05.29-.56.42-.78.47-1.01.25-1.92-.13-2.48-.38-1.51-.66-2.3-1.68-2.52-2-.34-.47-.62-.88-.63-1.45,0-.57.28-.69.32-1.35.03-.66-.25-.74-.38-1.59-.13-.84.13-.89.06-1.89-.07-1.01-.34-1.02-.32-1.78.02-.74.28-.9.55-1.96.29-1.15.11-1.43.29-2.08.2-.71.76-1.63,2.41-2.49"/>
          <path class="cls-10" d="M17.55,62.03c.22.25.47.48.74.71.89.71,1.81,1.03,2.42,1.18.5.02.9.43.9.91,0,.45-.36.85-.83.9-.86.06-2.42.03-3.9-.87-.12-.08-.23-.15-.34-.23h0c-.5-.37-.91-.8-1.24-1.25"/>
          <path class="cls-10" d="M15.37,56.79c.4.52.89.99,1.52,1.38,1.48.9,3.04.93,3.9.87.47-.05.82-.45.82-.9,0-.48-.4-.9-.9-.91-.57-.15-1.49-.47-2.42-1.18-1.05-.79-1.64-1.69-1.94-2.23"/>
          <path class="cls-10" d="M17.97,58.68c.24.28.52.55.84.8,1,.79,2.02,1.15,2.7,1.31.56.02,1,.48,1,1.02,0,.5-.39.94-.92,1-.89.07-2.48.04-4.04-.79-.1-.05-.2-.11-.3-.17-.78-.48-1.37-1.08-1.84-1.73"/>
        </g>
        <path class="cls-3" d="M88.63,96.06c.09-.6-.32-.8-.22-1.42.1-.65.59-.63.75-1.38.11-.53-.08-.6.06-1.18.15-.64.43-.63.53-1.18.1-.54-.15-.61-.14-1.36.01-.59.17-.69.22-1.3.03-.34.03-.86-.14-1.5"/>
        <path class="cls-3" d="M84.57,97.93c-1.55.02-2.59-.31-4.6-.96-2.38-.76-2.78-1.21-2.89-1.65-.07-.26-.08-.73.19-.97.28-.25.74-.16.96-.11,2.36.51,4.64.84,6.34.76"/>
        <path class="cls-3" d="M84.27,95c-1.74.02-2.9-.35-5.16-1.08-2.67-.86-3.12-1.36-3.24-1.85-.07-.29-.09-.82.21-1.09.31-.28.83-.18,1.07-.13,2.65.57,5.26,1.31,7.17,1.22.13,0,.27-.02.43-.04-1.77-.14-3.08-.6-5.51-1.44-3.05-1.06-3.59-1.59-3.77-2.08-.11-.3-.16-.82.15-1.07.33-.26.92-.11,1.19-.04,3,.77,5.97,1.7,8.1,1.76.41.01.97,0,1.63-.13-.22.02-.44.03-.67.03-1.74.02-2.9-.35-5.16-1.08-2.67-.86-3.12-1.36-3.24-1.85-.07-.29-.09-.82.21-1.09.31-.28.83-.18,1.07-.13,2.65.57,5.26,1.31,7.17,1.22"/>
        <path class="cls-3" d="M88.61,85.18c.26.17.61.46.85.91.3.56.28,1.07.3,1.51.02.48.11,1.12.38,1.9.04.13.25.19.82.28.99.16,1.77.06,2.23.01.55-.05,1.35-.09,2.33,0"/>
        <path class="cls-3" d="M83.44,34.17c.01-.18,0-.39-.14-.48-.37-.26-1.36.56-1.57.73-.35.29-.83.76-1.26,1.5.02.14.14.9-.36,1.5-.18.22-.39.35-.54.42"/>
      </g>
    </g>
  </g>
</svg>