<?xml version="1.0" encoding="UTF-8"?>
<svg id="Calque_2" data-name="Calque 2" xmlns="http://www.w3.org/2000/svg" viewBox="0 0 156.73 184.37">
  <defs>
    <style>
      .cls-1 {
        stroke-dasharray: 15.05;
      }

      .cls-1, .cls-2, .cls-3, .cls-4, .cls-5, .cls-6, .cls-7, .cls-8, .cls-9, .cls-10, .cls-11, .cls-12, .cls-13, .cls-14, .cls-15, .cls-16, .cls-17, .cls-18, .cls-19, .cls-20, .cls-21 {
        stroke-linecap: round;
        stroke-linejoin: round;
      }

      .cls-1, .cls-2, .cls-4, .cls-10, .cls-12, .cls-13, .cls-16, .cls-21 {
        fill: none;
      }

      .cls-1, .cls-2, .cls-8, .cls-9, .cls-11, .cls-16, .cls-20, .cls-21 {
        stroke: #2e3192;
      }

      .cls-1, .cls-2, .cls-8, .cls-9, .cls-12, .cls-15, .cls-18, .cls-19, .cls-20, .cls-21 {
        stroke-width: 2px;
      }

      .cls-22, .cls-14 {
        fill: #fe4f02;
      }

      .cls-3 {
        stroke-dasharray: 80 10 20;
      }

      .cls-3, .cls-4, .cls-5, .cls-7, .cls-12, .cls-14, .cls-15, .cls-18, .cls-19 {
        stroke: #fe4f02;
      }

      .cls-3, .cls-23, .cls-7, .cls-9, .cls-11, .cls-18, .cls-20 {
        fill: #fff;
      }

      .cls-5, .cls-15 {
        fill: #fe4f02;
      }

      .cls-6 {
        stroke-dasharray: 3 3 3 3;
      }

      .cls-6, .cls-8, .cls-24, .cls-17, .cls-19 {
        fill: #2e3192;
      }

      .cls-6, .cls-10, .cls-13, .cls-17 {
        stroke: #fff;
      }

      .cls-9 {
        stroke-dasharray: 60 10 40 10 60 10;
      }

      .cls-10 {
        stroke-width: 16px;
      }

      .cls-21 {
        stroke-dasharray: 36.71 9.18 55.06 9.18;
      }
    </style>
  </defs>
  <g id="ILLU_5">
    <g>
      <g>
        <path class="cls-10" d="M155.4,117.08c-.28,1.95-.64,3.52-.88,4.51-1.09,4.19-2.77,7.68-6.72,13.87-.54.83-1.11,1.72-1.73,2.65.15,1.06.31,2.15.48,3.25-.49.14-.97.28-1.45.41,3.43,7.76,3.87,13.72,3.59,17.81-.17,2.38-.66,5.24-.85,10.48-.14,3.97-.04,7.24.07,9.4-7.82,2.11-17.95,3.95-29.75,3.89-1.44,0-2.91-.04-4.4-.1-5.62-.25-10.78-.91-15.38-1.77-.14-9.48.52-20.14,2.6-31.63.55-3.04,1.17-5.96,1.85-8.79-.81-.3-1.55-.58-2.23-.86.41-1.82.81-3.67,1.2-5.55-1.86.65-3.83,1.31-5.93,1.96-.47-.09-1.22-.3-1.93-.86-.85-.68-1.21-1.51-1.4-1.95-1.55.77-2.82,1.48-3.73,1.99-.65.37-1.25.71-1.81,1.02h-.01c-.06.18-.15.36-.28.54-.73.99-2,.89-2.07.88.02.13.07.85-.45,1.48-.5.59-1.16.68-1.3.7-.11.22-.31.53-.65.78-.96.72-2.23.39-2.59.29-.25-.07-.48-.16-.7-.29l.28.21c-.88.59-1.72.73-2.22.82-.83.14-1.81.3-2.59-.29-.34-.24-.53-.55-.64-.77-.14-.02-.81-.12-1.31-.71-.52-.63-.46-1.34-.45-1.48-.07.01-1.35.12-2.07-.87-.49-.67-.43-1.41-.41-1.6-.06-.01-.99-.15-1.4-1-.08-.17-.13-.35-.15-.53-8.11.36-14.74.95-19.56,1.48-.07.72-.19,1.44-.37,2.14-.45,1.76-.84,4.01-.85,6.62-.02,2.72.38,5.05.82,6.82.16-.04.31-.07.46-.1.15-.03.29-.06.44-.09.27.87.54,1.91.72,3.11.15,1.07.2,2.02.2,2.86h-.01c.33,1.69.67,3.48,1.02,5.38.13.69.25,1.39.38,2.1.01.03.01.07.02.1.05.29.1.59.15.9.05.3.1.61.15.91.34,1.94.67,3.96,1,6.07.13.93.28,1.87.42,2.83.14.99.3,2,.44,3.04.09.71.2,1.41.29,2.13h0s-.03.02-.1.03c-.02.01-.05.01-.08.02-.07.02-.17.04-.28.07-.02,0-.04,0-.05,0-.12.03-.28.07-.45.1-.1.03-.22.05-.35.08-.19.04-.39.08-.61.13-1.11.22-2.68.49-4.65.74-.05,0-.11,0-.17.02-.09.02-.19.03-.29.04-.32.05-.66.09-1.02.13-.34.04-.69.07-1.05.11h-.05c-.1.01-.21.02-.32.03-.09.01-.17.02-.26.03-.36.03-.73.06-1.1.09-.58.05-1.18.09-1.78.13h-.05c-.5.03-1.01.06-1.54.09-.54.03-1.09.05-1.66.07-.86.03-1.74.04-2.66.05-.73,0-1.47,0-2.23-.02-.63-.01-1.28-.03-1.93-.05-.65-.02-1.32-.05-1.99-.09-.67-.04-1.36-.08-2.05-.13-.85-.06-1.7-.13-2.58-.22-.87-.09-1.75-.18-2.65-.29s-1.81-.24-2.73-.37c-.93-.14-1.86-.29-2.81-.46h0c-1.86-.33-3.76-.72-5.69-1.17-.97-.22-1.95-.46-2.94-.72-.99-.25-1.99-.53-2.99-.82-.03,0-.05-.02-.08-.03-.02-.01-.04-.01-.05-.02-.02-.01-.03-.02-.05-.02.26-3.2.67-5.89,1.06-7.97h0c.23-1.22.44-2.2.62-2.95.27-1.18.55-2.31.87-3.42.12-.46.25-.91.39-1.36.11-.34.21-.69.32-1.02.34-1.12.71-2.19,1.09-3.21.19-.53.38-1.05.57-1.55h.01v-.03c.11-.26.21-.51.31-.76.1-.25.2-.5.29-.74.03-.07.22-.6.24-.66-.1-.81-.16-1.88,0-3.12.16-1.27.5-2.3.8-3.06.28.1.55.21.84.31.26-2.45.42-5.18.4-8.16-.02-2.49-.17-5.4-.39-7.63-.71-.13-1.2-.23-1.2-.23-1.24-.23-2.24-.43-2.88-.56.21-1.65.48-4.13.65-7.15.54-9.48-.46-14.81-.65-21.21-.12-4.09.06-9.75,1.38-16.67.33-1.74,1.01-3.41,2.02-4.87.96-1.38,2.11-2.86,3.5-4.35,1.43-1.53,2.85-2.79,4.15-3.83.23-.93.44-1.95.6-3.07-.91-.25-1.87-.82-2.87-.87-1.19-.06-2.53.79-3.81.59-1.03-.16-1.82-1.3-2.75-1.53-1.02-.24-2.24.42-3.15.13-1.01-.33-1.61-1.59-2.46-1.95-1.02-.42-2.53-.16-3.32-.56-.1-1.1.72-2.7.72-4.24.01-1.22-.9-2.61-.76-4.06.13-1.25,1.28-2.42,1.57-3.81.25-1.25-.36-2.79.05-4.12.4-1.29,1.75-2.16,2.23-3.3.52-1.25.2-2.83.78-3.9.65-1.22,2.16-1.83,2.81-2.81.54-.81.74-1.8,1.02-2.62-.7-.14-1.25-.78-1.23-1.55l.09-4.27c.01-.68.46-1.29,1.12-1.47.27-.08.54-.15.82-.23.48-2.24,2.2-8.63,8.01-12.24,3.55-2.22,7.08-2.43,10.08-2.61,3.81-.24,8.53-.52,12.97,2.46,4.61,3.1,6.23,7.92,6.78,10.03.36.05.72.1,1.07.16.68.12,1.2.66,1.29,1.35l.63,4.79c.12.89-.52,1.67-1.36,1.76-.21.36-.44.72-.42,1.03.07.9,1.07,1.67,1.02,2.02l-.42-.16.2.5-.38-.38-.02.44c-.64-.18-1.06-1.3-1.75-1.47-.03-.01-.06-.01-.09-.01.05.96.12,1.93.2,2.92.1,1.3-.34,4.92-.21,6.16.07.61.32,1.17.72,1.62.49.56.98,1.11,1.47,1.68.29.33.58.67.86,1,.96,1.11.93,2.77-.06,3.85-.59.65-1.19,1.3-1.78,1.94-.22.24-.4.52-.53.82l-3.79,7.82c-.48,1.12-1.6,1.82-2.82,1.76-1.32-.05-2.85-.24-4.53-.65-1.17-.29-2.09-.37-2.87-.4-.21,1.4-.32,3.1-.19,5.04,0,.18.02.37.04.54l.31-.04c2.1,1.82,4.9,4.54,7.68,8.24,1.86,2.47,3.03,4.53,5.29,8.56,4.19,7.48,6.3,11.29,6.71,15.38.24,2.42-.11,3.17-.77,8.63-.4,3.27-.79,7.21-1.04,11.73.29.01.59.04.89.06,3.74.28,8.92.77,15.23,1.7.42.13.94.23,1.52.24,2.7.03,3.53-2.01,5.99-2.02.78,0,1.5.28,2.6.85.87-.44,1.62-.72,2.58-.85,2.31-.31,3.12.66,5.8.84,1.13.08,2.78.02,4.85-.65.04-.41.09-.83.14-1.26,2.04-.69,4.39-1.61,6.92-2.85,1.48-.82,2.9-1.58,4.18-2.25.46-.27.94-.56,1.41-.86,2.27-15.8,2.97-30.45,2.77-43.57.13-1.28.37-3.08.88-5.18.71-2.87,1.37-5.54,3.2-8.1.82-1.16,2.65-3.36,6.08-5.04.02-.42.02-.86.01-1.32-.06-2.01-.38-3.75-.75-5.15-.3.1-.56.2-.73.31-.99.63-1.9.95-3.88,1.68-1.61.6-3.12.96-4.43,1.16-1.2.19-2.39-.38-2.99-1.43l-4.65-7.35c-.12-.19-.33-.46-.61-.75-.73-.75-1.39-.99-1.92-1.33-.87-.56-1.57-1.49-1.77-2.18-.6-2.1,3.19-3.16,3.76-6.66.33-2.06-.62-2.64-.9-6.09-.15-1.9.01-3.56.24-4.86-.69-.19-1.36-.46-1.89-.74-1.55-.83-3.89-2.8-3.72-5.08.2-2.6,3.65-5.29,8.37-4.87-3.06-.23-5.22-1.48-5.3-2.74-.1-1.43,2.46-2.72,4.15-3.17,3.22-.84,6.02.69,6.86,1.19-.19-.27-1.63-2.4-.84-3.87,1.03-1.93,5.01-1.17,5.81-1.01,3.15.61,5.27,2.59,6.34,3.81-.47-.64-2.12-2.99-1.35-4.17.86-1.32,4.4-.6,6.66.72,2.42,1.41,3.54,3.62,3.97,4.64.34-1.75,1.51-3.06,2.82-3.21,2.1-.26,3.42,2.58,3.61,2.98,1.16,2.49.11,4.98-.12,5.5.88-.01,3.45.11,5.2,2,1.03,1.11,2.09,3.18,1.36,4.03-.15.19-.55.5-1.61.38,2.65,3.4,3.66,6.47,2.61,7.66-.23.25-.66.54-1.54.57.72.88,1.82,2.5,1.75,4.56-.02.58-.07,2.23-.95,2.52-.64.2-1.57-.36-2.22-1.42.24,1.85.64,5.87-.59,6.31-.35.13-1.11.05-2.69-1.92.26.93.76,3.24-.45,5.29-.21.36-1.17,1.98-2.25,1.83-.34-.04-.63-.25-.86-.54,0,1.14.05,2.38.2,3.68.35,3.23,1.11,5.95,1.9,8.08h.12c1.3,1.04,2.72,2.31,4.15,3.84,1.39,1.48,2.55,2.96,3.51,4.35,1.01,1.45,1.68,3.12,2.01,4.87.25,1.33.47,2.61.64,3.84,2.53,3.24,3.97,6.74,6.5,15.89,5.06,18.25,4.9,24.34,4.25,28.93Z"/>
        <g>
          <path class="cls-10" d="M48.63,132.15l-.11,3.02c-.04,1.15-.17,2.3-.45,3.43-.45,1.76-.84,4.01-.85,6.62-.02,2.79.4,5.17.85,6.96-3.08.69-6.6,1.24-10.5,1.42-10.9.52-19.85-2.01-25.73-4.3.26-2.45.42-5.18.4-8.16-.02-2.77-.19-5.33-.45-7.64,4.65.89,10.53,1.61,17.31,1.46,7.86-.17,14.5-1.45,19.54-2.81Z"/>
          <path class="cls-10" d="M43.87,145.27c-.38,3.66-.2,4.62.09,4.69.31.07.87-.81,1.05-1.6.17-.75-.02-1.36-.11-1.6"/>
          <path class="cls-10" d="M53.61,113.54c-.48,3.97-.96,8.93-1.18,14.71-.05,1.14-1.16,1.62-1.5,1.98-.7.75-1.46,1.38-2.3,1.93-4.31,2.71-10.6,2.79-19.54,2.81-6.41.01-10.97-.45-14.18-.93-1.89-.28-4.26-.75-4.26-.75-1.23-.23-2.24-.43-2.88-.56.21-1.65.48-4.13.65-7.15.54-9.48-.46-14.81-.65-21.22-.12-4.09.06-9.75,1.38-16.66.33-1.74,1.01-3.41,2.02-4.87s2.12-2.86,3.51-4.35c1.43-1.53,2.85-2.8,4.15-3.83l15.89-1.91c2.1,1.82,4.9,4.54,7.68,8.23,1.86,2.48,3.03,4.54,5.28,8.56,4.19,7.48,6.3,11.29,6.71,15.38.24,2.42-.11,3.16-.77,8.63Z"/>
          <path class="cls-10" d="M53.71,181.28s-.06.02-.18.05c-.64.16-2.89.69-6.42,1.13-.14.02-.27.04-.42.06-.33.05-.67.09-1.03.13-.36.04-.73.08-1.1.12-.19.02-.39.04-.58.06l-.32.03c-.45.04-.92.08-1.38.11-.39.04-.77.06-1.17.09h0c-1.04.06-2.1.12-3.24.15-.86.03-1.74.04-2.66.05-2.53.02-5.27-.07-8.2-.29-3.37-.24-6.98-.67-10.77-1.34h0c-3.71-.67-7.6-1.54-11.61-2.72-.03,0-.06,0-.09-.02-.02,0-.04,0-.05-.02-.02,0-.03-.02-.05-.02.26-3.2.67-5.9,1.05-7.98.23-1.2.45-2.19.62-2.94.27-1.18.56-2.31.87-3.42.13-.46.25-.92.4-1.36.11-.35.2-.69.32-1.03.34-1.11.71-2.18,1.08-3.2.19-.53.39-1.04.58-1.56,0,0,0-.02,0-.02.2-.52.41-1.02.6-1.5.03-.08.06-.15.08-.2,2.22.64,4.57,1.25,7.05,1.8,3.32.74,6.87,1.37,10.65,1.83,2.21.28,4.48.49,6.84.63,0-.27,0-.53-.02-.81.22,0,.45,0,.68-.02.64-.02,1.28-.05,1.92-.09,1.64-.11,3.24-.24,4.79-.43,2.75-.3,5.34-.71,7.81-1.17.47,2.43.98,5.08,1.48,7.93,0,.03,0,.07.02.1.11.59.2,1.2.31,1.81.34,1.94.67,3.96,1,6.07.14.93.28,1.87.43,2.83.14,1,.29,2,.44,3.04.09.72.19,1.42.29,2.14Z"/>
          <g>
            <g>
              <path class="cls-10" d="M37.12,175.09c-.13.01-.27.01-.41.01-.6,0-1.18-.01-1.75-.03-.06-2.23-.12-4.6-.19-7.11-.01-.28-.01-.58-.02-.87.5,0,.99,0,1.5-.02.04.31.07.63.1.94.28,2.44.54,4.79.76,7.08Z"/>
              <path class="cls-10" d="M44.62,174.57c-1.55.19-3.17.33-4.83.44-.91.05-1.81.08-2.67.08-.22-2.28-.48-4.64-.76-7.08-.03-.31-.06-.63-.1-.94.72-.02,1.46-.05,2.21-.09,1.68-.1,3.33-.25,4.91-.44.47,2.77.87,5.45,1.24,8.03Z"/>
              <path class="cls-10" d="M37.84,183.11c1.04,0,2.13-.03,3.25-.08-1.03.07-2.11.12-3.25.16,0-.03,0-.05,0-.08Z"/>
              <polygon class="cls-10" points="41.1 183.03 41.11 183.03 41.1 183.03 41.1 183.03"/>
              <path class="cls-10" d="M45.66,182.64c-1.36.15-2.9.29-4.56.39,1.58-.1,3.1-.23,4.56-.4h0Z"/>
              <path class="cls-10" d="M45.66,182.63c.34-.04.68-.08,1.02-.12-.32.04-.66.09-1.02.13h0Z"/>
              <path class="cls-10" d="M53.53,181.32c-.67.17-3.08.72-6.84,1.19.62-.08,1.23-.17,1.82-.26.75-.12,1.48-.23,2.19-.37.35-.06.69-.13,1.04-.2.62-.12,1.22-.24,1.8-.37Z"/>
              <path class="cls-10" d="M52.56,173.28c-2.44.52-5.09.97-7.94,1.3-.37-2.58-.77-5.26-1.24-8.03,2.79-.31,5.41-.75,7.86-1.25.01.03.01.07.02.1.1.59.2,1.2.3,1.81.33,1.94.67,3.96.99,6.07Z"/>
              <path class="cls-10" d="M53.72,181.28s-.06.02-.19.04c-.58.13-1.18.25-1.8.37-.35.07-.69.13-1.04.2-.72.13-1.44.25-2.19.37-.92.14-1.86.27-2.84.38-.06-.58-.13-1.16-.21-1.76-.25-2.02-.52-4.12-.84-6.29,2.85-.33,5.5-.79,7.95-1.31.13.93.28,1.87.42,2.83.14.99.3,2,.44,3.04.09.72.2,1.42.3,2.14Z"/>
              <path class="cls-10" d="M51.24,165.3c-2.45.5-5.07.93-7.86,1.25-.43-2.59-.9-5.26-1.43-8.01,2.74-.29,5.34-.7,7.81-1.17.48,2.43.97,5.08,1.48,7.93Z"/>
              <path class="cls-10" d="M45.67,182.63c-1.46.16-2.98.3-4.57.4-1.13.06-2.21.09-3.26.08-.18-2.25-.4-4.61-.62-7.05-.04-.32-.07-.64-.1-.96.86,0,1.76-.03,2.67-.08,1.66-.1,3.28-.24,4.83-.44.41,2.8.75,5.49,1.05,8.06Z"/>
              <path class="cls-10" d="M43.38,166.55c-1.58.18-3.23.33-4.91.44-.75.04-1.49.07-2.21.09-.27-2.31-.57-4.7-.89-7.15-.04-.28-.08-.58-.12-.87.64-.02,1.28-.05,1.92-.09,1.64-.1,3.24-.24,4.79-.43.53,2.75,1,5.42,1.43,8.01Z"/>
              <path class="cls-10" d="M36.26,167.07c-.51.02-1,.02-1.5.02-.06-2.29-.12-4.7-.17-7.21-.01-.27-.01-.54-.02-.81.22,0,.46-.01.68-.02.04.29.08.59.12.87.32,2.45.62,4.83.89,7.15Z"/>
              <path class="cls-10" d="M37.84,183.11c-.91,0-1.81-.03-2.65-.07-.01-.67-.03-1.33-.05-2-.04-1.57-.09-3.24-.14-5-.01-.31-.02-.64-.03-.96.57.02,1.15.03,1.75.03.13,0,.27,0,.41-.01.03.32.06.64.1.96.22,2.45.44,4.8.62,7.05Z"/>
              <path class="cls-10" d="M37.85,183.19c-.86.03-1.74.04-2.66.04,0-.07,0-.13,0-.2.85.04,1.74.07,2.66.07,0,.03,0,.05,0,.08Z"/>
            </g>
            <g>
              <path class="cls-10" d="M35.2,183.24c-2.53.02-5.28-.07-8.2-.29l.1-2.99.13-4.44c.58.06,1.15.13,1.75.18,1.93.17,3.94.28,6.02.33.04,1.51.09,2.95.13,4.32,0,.23,0,.46.02.68.02.67.04,1.33.04,2,0,.06,0,.13,0,.2Z"/>
              <path class="cls-10" d="M34.77,167.97c-2.53-.1-4.96-.3-7.3-.57l.26-8.14c2.21.27,4.49.49,6.84.63.05,2.51.11,4.91.17,7.21.01.29.01.59.02.87Z"/>
              <path class="cls-10" d="M35,176.04c-2.08-.05-4.09-.16-6.02-.33-.6-.05-1.18-.11-1.76-.17l.25-8.13c2.33.26,4.77.47,7.3.57.07,2.51.13,4.87.19,7.11.01.32.02.65.03.96Z"/>
              <path class="cls-10" d="M16.52,173.84c-.02.45-.04.88-.05,1.29,0,.36-.03.71-.04,1.05-.02.45-.04.88-.05,1.29,0,.09,0,.19,0,.28,0,.23-.02.46-.03.68s-.02.44-.03.65c0,.13,0,.24-.02.36-.02.53-.04,1.03-.05,1.49,0,.23-.02.46-.03.68-3.7-.65-7.6-1.53-11.61-2.7-.03,0-.05-.02-.08-.03-.02,0-.04,0-.05-.02-.02,0-.03-.02-.04-.02.26-3.2.67-5.91,1.06-7.98,1.99.65,4.16,1.29,6.49,1.91,1.43.37,2.95.73,4.55,1.07Z"/>
              <path class="cls-10" d="M27.22,175.53l-.13,4.44-.1,2.99c-3.37-.24-6.98-.67-10.77-1.34h0c0-.23.02-.46.03-.69.02-.47.04-.97.05-1.49,0-.12,0-.23.02-.36,0-.21.02-.43.03-.65s.02-.45.03-.68c0-.09,0-.19,0-.28.02-.41.04-.84.05-1.29,0-.34.03-.69.04-1.05.02-.41.04-.84.05-1.29,2.73.59,5.68,1.1,8.85,1.49.61.06,1.23.13,1.85.2Z"/>
              <path class="cls-10" d="M27.48,167.4l-.25,8.13c-.63-.06-1.24-.13-1.85-.2-3.17-.39-6.12-.9-8.85-1.49.01-.41.02-.84.04-1.28.09-2.49.17-4.8.24-6.92,2.67.58,5.52,1.1,8.55,1.5.7.09,1.4.18,2.12.26Z"/>
              <path class="cls-10" d="M16.81,165.63c-.07,2.12-.15,4.44-.24,6.92-.02.44-.03.87-.04,1.28-1.6-.33-3.13-.7-4.56-1.08-2.32-.61-4.5-1.25-6.49-1.9.23-1.21.45-2.19.62-2.94.27-1.18.56-2.31.87-3.42.12-.46.25-.91.4-1.36,1.42.45,2.91.87,4.48,1.29,1.57.43,3.23.83,4.96,1.21Z"/>
              <path class="cls-10" d="M17.09,157.43c-.08,2.18-.17,4.95-.28,8.2-1.74-.38-3.39-.78-4.96-1.21-1.56-.42-3.06-.84-4.48-1.29.1-.35.2-.69.31-1.03.35-1.12.71-2.18,1.09-3.21.19-.53.39-1.05.58-1.55.01-.01.01-.02.01-.02.2-.52.41-1.02.6-1.5.03-.07.06-.14.08-.2,2.21.64,4.57,1.25,7.05,1.81Z"/>
              <path class="cls-10" d="M27.74,159.26l-.26,8.14c-.72-.08-1.42-.17-2.12-.26-3.02-.41-5.88-.92-8.55-1.5.11-3.25.2-6.02.28-8.2,3.32.73,6.87,1.37,10.65,1.83Z"/>
            </g>
          </g>
          <path class="cls-10" d="M49.85,157.81c-.3.07-.61.13-.92.21-3.04.65-6.43,1.18-10.15,1.4-1.63.1-3.23.14-4.78.13-9.85-.07-18.06-2.28-23.81-4.38-.11-.81-.16-1.88,0-3.12.16-1.27.49-2.3.8-3.05.28.1.55.21.84.3,6.49,2.32,15.81,4.63,26.95,3.95,3.54-.21,6.79-.7,9.71-1.32.15-.03.3-.05.44-.09.28.87.55,1.91.72,3.11.15,1.06.2,2.02.2,2.85Z"/>
          <path class="cls-10" d="M19.44,60.78c.24,1.62.41,3.5.39,5.58-.02,3.25-.48,6.06-1.02,8.27,1.33.83,4.56,2.6,8.99,2.54,2.82-.04,5.06-.81,6.48-1.44.3-.14.47-.45.41-.78-.15-.83-.28-1.74-.34-2.73-.14-2,0-3.76.21-5.19"/>
          <path class="cls-10" d="M50.43,115.88c-.51-.03-1.56-.07-2.9.01-1.6.1-2.7.34-3.69.55-.6.13-1.47.33-2.22.62"/>
          <path class="cls-10" d="M92.18,124.17c-.58,4.45-.34,7.95.37,9.62.19.44.54,1.28,1.4,1.96.71.57,1.47.78,1.93.87"/>
          <g>
            <path class="cls-10" d="M24.71,117.28c-.48.23-.97.45-1.49.65-2.67,1.01-5.15,1.16-7.01,1.07"/>
            <g>
              <path class="cls-10" d="M80.18,126.84c-1.94-1.06-2.92-1.59-3.98-1.59-2.46.01-3.29,2.04-5.99,2.01-.58,0-1.1-.11-1.52-.23-6.3-.93-11.49-1.43-15.23-1.71-3.07-.23-5.49-.35-7.94-.55-.48-.04-.91-.29-1.16-.7-.21-.33-.43-.67-.65-1.03-.8-1.28-1.49-2.46-2.09-3.55-1.29-2.3-2.58-4.95-3.24-6.28-.91-1.84-2.27-4.49-4.09-7.73l-11.55,8.17c1.15,2,2.22,3.75,3.15,5.24,1.2,1.9,2.2,3.39,2.78,4.25.58.86,1.19,1.73,2.31,3.32,2.12,2.99,4,5.54,5.55,7.54,1.11,1.43,2.79,2.32,4.6,2.44,3.08.2,5.31.24,6.46.11,5.13-.58,12.54-1.26,21.76-1.63"/>
              <path class="cls-10" d="M92.18,125.4c5.37-3.43,11.3-6.4,14.6-8.18,2.95-1.6,5.25-2.76,7.6-4.08.32-.18.57-.46.7-.81.25-.66.5-1.35.76-2.09.5-1.43.92-2.73,1.28-3.92.76-2.53,1.45-5.39,1.8-6.84.49-1.99,1.24-4.87,2.32-8.43l13.04,5.48c-.69,2.2-1.35,4.14-1.95,5.79-.76,2.11-1.41,3.79-1.79,4.75-.38.96-.79,1.94-1.54,3.74-1.58,3.75-2.99,6.9-4.15,9.3-.42.86-1.1,1.56-1.94,2.01-2.89,1.54-5.16,2.69-6.19,2.93-6.52,1.52-16.45,4.96-23.23,8.27-1.96.96-3.59,1.87-4.68,2.48-4.63,2.59-6.51,3.77-9.16,5.68"/>
            </g>
            <path class="cls-10" d="M11.32,87.86c-2.47,3.33-1.86,7.32-1.5,9.72.78,5.17,3.19,7.22,5.24,13.52.37,1.13,1.05,3.43,1.15,6.43.02.63.01,1.14,0,1.46,3.54-1.37,8.5-3.81,13.29-8.24,2.2-2.04,3.94-4.09,5.29-5.95-.88-2.39-2.32-5.79-4.58-9.6-3.76-6.33-6.5-10.93-10.94-11.31-3.21-.28-6.3,1.74-7.94,3.96Z"/>
          </g>
          <path class="cls-10" d="M68.54,133.44c-.55.56-.71,1.39-.4,2.06.41.85,1.34,1,1.4,1.01-.02.18-.09.93.41,1.6.73.99,2,.88,2.07.87,0,.14-.07.85.45,1.48.49.59,1.16.69,1.31.71.11.22.3.53.64.77.78.59,1.76.43,2.59.29.49-.09,1.34-.23,2.22-.82"/>
          <path class="cls-10" d="M77.46,140.08c.95.79,1.43,1.2,2.2,1.4.36.1,1.62.44,2.59-.28.34-.25.53-.56.64-.78.14-.02.81-.11,1.3-.7.52-.63.47-1.34.45-1.48.07,0,1.34.11,2.07-.88.49-.67.43-1.41.4-1.59.07,0,1-.15,1.4-1,.32-.67.16-1.5-.39-2.06-1.15-1.04-2.66-2.18-4.58-3.15-.75-.38-2.57-1.06-3.3-1.33"/>
          <path class="cls-10" d="M68.54,133.44c.45-.42,3.22-3.03,4.25-2.34.1.07.16.15.18.19.69,1.07-2.04,3.99-2.5,4.47,2.1-2.09,4.6-4.33,5.34-3.79.05.03.12.1.18.3.48,1.69-2.67,4.91-3.11,5.35.46-.62,3.06-4.09,4.22-3.55.13.06.2.15.23.19.82,1.07-1.94,4.51-2.39,5.06.5-.76,2.42-3.57,3.38-3.27.04.01.11.03.18.1.55.51-.01,2.36-1.1,3.49-.27.28-.52.46-.66.56"/>
          <g>
            <path class="cls-10" d="M17.87,63.71c-.05.97-.15,2.02-.34,3.13-.21,1.2-.49,2.27-.79,3.23"/>
            <path class="cls-10" d="M40.24,58.49s3.2,2.27,6.71,2.87"/>
            <path class="cls-10" d="M47.85,38.15c.06,1.13.14,2.27.23,3.44.1,1.3-.34,4.92-.21,6.16.06.6.32,1.17.72,1.62.49.55.98,1.11,1.47,1.67.29.33.58.67.86,1,.96,1.12.93,2.77-.06,3.85-.59.65-1.18,1.29-1.78,1.94-.22.24-.4.52-.53.82l-3.8,7.82c-.48,1.12-1.6,1.81-2.81,1.76-1.32-.06-2.86-.24-4.53-.65-3.08-.76-3.9-1.04-5.42-2.02"/>
            <path class="cls-10" d="M39.6,47.41c-.38-.79-.74-1.56-1.11-2.33.41-.21,2.58-1.19,4.64-.27.07.01.14.06.21.08.1.04.2.1.28.15.36.21.66.48.91.73"/>
            <path class="cls-10" d="M43.75,45.93c-.01.67-.22,1.21-.48,1.21-.24-.01-.43-.56-.42-1.22.01-.49.13-.91.28-1.09.07.01.14.06.21.08.1.04.2.1.28.15.08.22.14.53.13.87Z"/>
            <path class="cls-10" d="M43.76,41.68s-.99-.75-3.96-.18"/>
            <g>
              <path class="cls-10" d="M49.58,31.27c-.05.35-.65,1.58-.59,2.48.04.61,1.07,1.22,1.13,1.91s-.85,1.45-.8,2.07c.07.9,1.06,1.67,1.02,2.01,0,0-.89-.33-.89-.33s.67.67.67.67-.35-.88-.36-.88-.05.95-.05.95c-.63-.18-1.05-1.3-1.75-1.47-.65-.16-1.53.64-2.23.5-.66-.13-1.16-1.21-1.86-1.33-.67-.11-1.49.76-2.19.67-.89-.11-1.66-1.16-2.5-1.22-.9-.06-1.81.87-2.65.85-.9-.02-1.78-.98-2.6-.96-.91.03-1.33.78-2.14.85.12,1.33-.71,2.55-.65,4.07.05,1.36,1.04,2.78,1.01,4.27-.02,1.37-1.06,2.76-1.16,4.23-.1,1.38.73,2.9.55,4.36-.17,1.33-1.32,2.47-1.54,3.71-.23,1.33.46,2.79.18,4.01-.3,1.32-1.56,2.34-1.9,3.54-.37,1.32.06,3.03-.32,4.19-1.01.26-2.66-.3-4.07-.08-1.13.17-2.27,1.27-3.61,1.34-1.17.06-2.42-.91-3.73-.97-1.19-.06-2.52.78-3.81.59-1.03-.16-1.82-1.3-2.75-1.53-1.02-.24-2.24.42-3.14.13-1.01-.33-1.61-1.59-2.47-1.95-1.02-.42-2.53-.16-3.31-.56-.11-1.1.71-2.7.72-4.24,0-1.22-.91-2.61-.76-4.05.13-1.25,1.28-2.43,1.56-3.81.25-1.25-.36-2.79.05-4.12.4-1.28,1.75-2.16,2.23-3.29.52-1.25.21-2.83.78-3.9.66-1.23,2.16-1.83,2.81-2.81.82-1.23.87-2.89,1.55-3.73.36-.09,1.24.63,1.75.5.4-.1.61-1.15,1.09-1.26.41-.09,1.06.76,1.53.66.42-.09.67-1.13,1.13-1.23.47-.09,1.13.77,1.61.68s.78-1.13,1.26-1.21,1.11.8,1.59.73.82-1.1,1.3-1.17c2.45-.33,4.95.2,7.19-.26,2.43-.5,4.55-1.98,6.77-2.45,2.46-.52,4.95-.01,7.17-.27,2.49-.28,4.95-1.26,7.19-.87Z"/>
              <path class="cls-10" d="M49.58,31.27c-.05.35-.65,1.58-.59,2.48.04.61,1.07,1.22,1.13,1.91s-.85,1.45-.8,2.07c.07.9,1.06,1.67,1.02,2.01,0,0-.89-.33-.89-.33s.67.67.67.67-.35-.88-.36-.88-.05.95-.05.95c-.63-.18-1.05-1.3-1.75-1.47-.65-.16-1.53.64-2.23.5-.66-.13-1.16-1.21-1.86-1.33-.67-.11-1.49.76-2.19.67-.89-.11-1.66-1.16-2.5-1.22-.9-.06-1.81.87-2.65.85-.9-.02-1.78-.98-2.6-.96-.91.03-1.33.78-2.14.85.12,1.33-.71,2.55-.65,4.07.05,1.36,1.04,2.78,1.01,4.27-.02,1.37-1.06,2.76-1.16,4.23-.1,1.38.73,2.9.55,4.36-.17,1.33-1.32,2.47-1.54,3.71-.23,1.33.46,2.79.18,4.01-.3,1.32-1.56,2.34-1.9,3.54-.37,1.32.06,3.03-.32,4.19-1.01.26-2.66-.3-4.07-.08-1.13.17-2.27,1.27-3.61,1.34-1.17.06-2.42-.91-3.73-.97-1.19-.06-2.52.78-3.81.59-1.03-.16-1.82-1.3-2.75-1.53-1.02-.24-2.24.42-3.14.13-1.01-.33-1.61-1.59-2.47-1.95-1.02-.42-2.53-.16-3.31-.56-.11-1.1.71-2.7.72-4.24,0-1.22-.91-2.61-.76-4.05.13-1.25,1.28-2.43,1.56-3.81.25-1.25-.36-2.79.05-4.12.4-1.28,1.75-2.16,2.23-3.29.52-1.25.21-2.83.78-3.9.66-1.23,2.16-1.83,2.81-2.81.82-1.23.87-2.89,1.55-3.73.36-.09,1.24.63,1.75.5.4-.1.61-1.15,1.09-1.26.41-.09,1.06.76,1.53.66.42-.09.67-1.13,1.13-1.23.47-.09,1.13.77,1.61.68s.78-1.13,1.26-1.21,1.11.8,1.59.73.82-1.1,1.3-1.17c2.45-.33,4.95.2,7.19-.26,2.43-.5,4.55-1.98,6.77-2.45,2.46-.52,4.95-.01,7.17-.27,2.49-.28,4.95-1.26,7.19-.87Z"/>
            </g>
            <g>
              <path class="cls-10" d="M48.12,28.63c-.55-2.11-2.17-6.93-6.78-10.02-4.44-2.98-9.16-2.7-12.97-2.46-3,.18-6.53.39-10.08,2.61-5.81,3.61-7.53,10.01-8.01,12.25"/>
              <path class="cls-10" d="M8.33,32.7l-.09,4.26c-.02,1.03.93,1.8,1.93,1.56,6.9-1.67,15.59-3.03,25.62-2.9,4.94.06,9.47.48,13.54,1.08,1.03.15,1.91-.73,1.77-1.76l-.63-4.79c-.09-.68-.61-1.23-1.29-1.34-2.56-.42-5.27-.76-8.12-.96-12.45-.89-23.26,1-31.6,3.38-.66.19-1.11.79-1.13,1.48Z"/>
              <g>
                <line class="cls-10" x1="44.21" y1="28.13" x2="45.07" y2="36.15"/>
                <line class="cls-10" x1="38.19" y1="27.68" x2="38.86" y2="35.71"/>
                <line class="cls-10" x1="32.22" y1="27.66" x2="32.71" y2="35.63"/>
                <line class="cls-10" x1="26.27" y1="28.03" x2="26.59" y2="35.91"/>
                <line class="cls-10" x1="20.33" y1="28.79" x2="20.48" y2="36.56"/>
                <line class="cls-10" x1="14.36" y1="29.97" x2="14.35" y2="37.59"/>
              </g>
            </g>
          </g>
          <g>
            <path class="cls-10" d="M141.27,67.49c2.84,2.47,3.24,5.96,3.56,9.17.73,7.34-1.68,13.55-3.69,17.39-1.24,3.79-6.24,18.51-13.02,26.17-1.59,1.8-3.3,3.21-3.3,3.21-3.28,2.81-6.65,4.73-13.43,7.55-4.04,1.68-9.26,3.68-15.52,5.63.26-1.2.58-3.39-.05-6.01-.81-3.4-2.75-5.55-3.65-6.43,3.51-1.19,7.91-3.06,12.6-6.02,4.15-2.62,7.4-5.4,9.84-7.8,4.56-11.66,7.54-21.37,9.47-28.42,2.29-8.34,3.72-15.08,8.57-16.61,2.91-.91,6.42.25,8.61,2.16Z"/>
            <g>
              <path class="cls-10" d="M123.28,124.68c-2.86,2.18-6.16,3.91-11.88,6.3-4.04,1.68-9.26,3.68-15.52,5.63.26-1.2.58-3.39-.05-6.01-.81-3.4-2.75-5.55-3.65-6.43,3.51-1.19,7.91-3.06,12.6-6.02,4.15-2.62,7.4-5.4,9.84-7.8.42-1.08.83-2.15,1.23-3.2"/>
              <path class="cls-10" d="M118.96,98.52c2.23-6.49,3.89-12.08,5.13-16.58,2.29-8.34,3.72-15.08,8.57-16.61,2.91-.91,6.42.25,8.61,2.16,2.84,2.47,3.24,5.96,3.56,9.17.73,7.34-1.68,13.55-3.69,17.39-1.24,3.79-6.24,18.51-13.02,26.17-.47.53-.94,1.02-1.38,1.45"/>
            </g>
          </g>
          <g>
            <path class="cls-10" d="M109.29,126.01c.38,3.66.2,4.62-.09,4.69-.31.07-.87-.81-1.05-1.6-.17-.75.02-1.36.11-1.6"/>
            <path class="cls-10" d="M102.83,141.06c-.68,2.83-1.3,5.76-1.85,8.8-2.08,11.49-2.74,22.15-2.6,31.63,4.61.86,9.76,1.52,15.39,1.77,13.69.61,25.37-1.43,34.15-3.79-.11-2.16-.21-5.43-.07-9.41.19-5.23.68-8.09.84-10.47.29-4.15-.16-10.21-3.72-18.11"/>
            <path class="cls-10" d="M118.16,183.35c-.26-3.67-.43-7.55-.46-11.62-.05-5.31.13-10.31.46-14.96l1.51-20.15"/>
            <path class="cls-10" d="M134.81,143.68s4.61,2.94,2.48,24.81c-.32,3.3-.3,10.43-.3,13.12"/>
            <path class="cls-10" d="M127.54,145.2c-1.42-1.96-1.92-3.72-1.92-3.72"/>
            <path class="cls-10" d="M117.69,159.05s-4.66-1.62-1.31-16.7"/>
            <path class="cls-10" d="M136.99,150.89c-.31-.02-.63-.04-.96-.07-.42-.04-.82-.09-1.21-.17-7.07-1.29-9.2-8.23-9.2-8.23"/>
            <path class="cls-10" d="M103.99,122.75c-.98,6.09-2.13,11.91-3.39,17.45,2.71,1.11,6.51,2.42,11.17,3.34,7.42,1.46,13.24,1.15,17.1.92,4.54-.27,10.66-1.03,17.69-3.1-2.35-15.16-2.32-26.93-1.81-35.06.45-7.06.45-14.14.65-21.22.12-4.09-.06-9.75-1.38-16.66-.33-1.74-1.01-3.41-2.02-4.87-.96-1.38-2.12-2.86-3.51-4.35-1.43-1.53-2.85-2.8-4.15-3.83-5.23.16-10.46.32-15.68.48-4.11,1.72-6.22,4.25-7.12,5.52-1.83,2.57-2.49,5.24-3.2,8.1-.52,2.11-.76,3.9-.88,5.18.22,14.36-.64,30.56-3.47,48.11Z"/>
            <path class="cls-10" d="M132.17,41.67c-.09,1.65-.07,3.54.15,5.61.36,3.24,1.12,5.98,1.91,8.12-1.32,1-4.55,3.18-9.21,3.69-2.98.33-5.42-.15-6.98-.6-.33-.1-.54-.39-.51-.72.08-.84.12-1.77.09-2.76-.06-2.01-.38-3.75-.75-5.15"/>
            <path class="cls-10" d="M109.78,95.13s3.11,18.28,8.82,21.94"/>
            <path class="cls-10" d="M109.68,106.09s2.36,13.88,6.7,16.66"/>
            <g>
              <path class="cls-10" d="M99.29,21.01c-.35,1.4-.75,3.57-.53,6.2.28,3.46,1.23,4.03.9,6.1-.56,3.49-4.36,4.56-3.76,6.66.2.69.9,1.62,1.77,2.18.53.34,1.19.58,1.92,1.33.29.29.49.57.62.75l4.65,7.35c.6,1.06,1.79,1.62,2.99,1.43,1.31-.21,2.81-.56,4.43-1.16,1.98-.73,2.89-1.06,3.88-1.69.55-.35.98-.68,1.28-.92"/>
              <path class="cls-10" d="M107.47,44.96c-.56.38-1.19.77-1.91,1.14-1.05.54-2.03.93-2.89,1.21"/>
              <path class="cls-10" d="M102.75,30.98c.62-.31,1.37-.63,2.26-.89,1.44-.41,2.72-.5,3.67-.49-.28.81-.56,1.63-.84,2.44"/>
              <ellipse class="cls-10" cx="104.3" cy="33" rx=".45" ry="1.21" transform="translate(-3.45 14.07) rotate(-7.59)"/>
              <path class="cls-10" d="M102.41,27.43s.76-.98,3.78-1.18"/>
            </g>
            <path class="cls-10" d="M138.97,32.63c.64,1.06,1.58,1.62,2.22,1.42.88-.28.93-1.93.95-2.52.06-2.05-1.03-3.68-1.75-4.55.89-.03,1.31-.32,1.54-.58,1.05-1.19.05-4.26-2.6-7.66,1.06.13,1.46-.19,1.61-.37.72-.85-.33-2.92-1.37-4.04-1.75-1.89-4.32-2-5.2-2,.23-.52,1.28-3.01.12-5.5-.18-.39-1.51-3.23-3.61-2.98-1.31.16-2.48,1.46-2.81,3.22-.44-1.02-1.55-3.23-3.98-4.65-2.26-1.32-5.8-2.04-6.66-.72-.77,1.18.88,3.53,1.35,4.17-1.07-1.22-3.19-3.21-6.34-3.81-.8-.15-4.77-.92-5.8,1.01-.79,1.48.65,3.6.84,3.88-.85-.51-3.65-2.04-6.87-1.19-1.69.44-4.25,1.74-4.15,3.17.09,1.26,2.25,2.51,5.31,2.74-4.72-.42-8.18,2.27-8.37,4.87-.17,2.28,2.17,4.25,3.72,5.07,1.7.91,4.78,1.67,5.83.23.68-.93.21-2.38,0-2.94.29.73,1.77,4.22,5.09,5.09.74.2,2.78.73,3.91-.49,1.04-1.13.57-2.95.51-3.16.6,1.41,1.79,3.49,4.05,4.61,1.18.59,3.15,1.16,3.7.47.45-.58-.38-1.69-.07-1.91.29-.21,1.3,1.57,2.85,2.75,3.04,2.3,7.04,1.5,7.09,2.17.03.36-1.13.37-1.99,1.18-2.48,2.33-.47,8.99,1.4,9.62.68.23,1.71-1.35,2.13-1.07.42.28-.65,1.8-.25,3.69.18.83.73,2.18,1.65,2.31,1.08.15,2.04-1.47,2.25-1.83,1.21-2.05.71-4.36.45-5.29,1.58,1.96,2.33,2.05,2.69,1.92,1.23-.44.83-4.46.59-6.32Z"/>
          </g>
          <path class="cls-10" d="M92.18,125.4c-2.13.71-3.84.76-5,.68-2.67-.18-3.48-1.15-5.8-.83-1.43.2-2.38.72-3.98,1.59-1.15.63-3.5,1.91-3.28,2.92.1.46.69.69.81.74,1.78.69,3.32-1.82,5.75-2.01.16-.01.78-.07,1.58.03,1.96.26,4.63,1.46,5.36,2.08"/>
          <g>
            <path class="cls-10" d="M135.14,149.62c-3.5-.72-5.72-2.76-7.01-4.47.51-.96,1.08-1.89,1.69-2.78l.41-.6,5.41-6.29,4.74,6.86-3.62,4.44c-.58.71-1.06,1.5-1.41,2.35l-.22.51Z"/>
            <path class="cls-10" d="M135.6,136.29l4.16,6.01-3.38,4.15c-.61.75-1.11,1.58-1.48,2.47l-.05.13c-2.96-.72-4.91-2.43-6.12-3.94.46-.84.97-1.66,1.51-2.45l.38-.56,4.98-5.8M135.68,134.65l-5.86,6.83-.41.6c-.69,1-1.31,2.04-1.87,3.11,1.47,2.04,3.95,4.31,7.9,4.99,0,0,0,0,0,0l.37-.88c.34-.8.79-1.55,1.34-2.22l3.85-4.73-5.33-7.7h0Z"/>
          </g>
          <path class="cls-10" d="M128.77,83.82c-2.17-6.19-3.54-11.09-.97-14.4,1.87-2.41,5.41-3.46,8.3-3.14,1.03.11,4.18.64,8.16,5.5,2.78,3.39,4.23,6.77,6.89,16.39,5.06,18.25,4.9,24.34,4.24,28.92-.28,1.95-.63,3.52-.88,4.52-1.09,4.18-2.77,7.68-6.72,13.86-1.47,2.29-3.24,4.95-5.34,7.88-.31.43-.63.87-.96,1.32-.25.35-.51.7-.78,1.05-.78,1.05-1.6,2.13-2.46,3.24-.47-1.13-1.46-3.12-3.47-4.91-2.61-2.33-5.43-2.99-6.67-3.2,2.2-2.98,4.76-7.03,6.91-12.14,1.91-4.52,2.99-8.66,3.63-12.01-.61-2.07-1.22-4.15-1.83-6.22"/>
          <g>
            <path class="cls-10" d="M135.39,105.49c-1.41-4.81-2.83-9.63-4.24-14.44"/>
            <path class="cls-10" d="M135.39,105.49c-1.41-4.81-2.83-9.63-4.24-14.44"/>
          </g>
        </g>
        <path class="cls-10" d="M122.92,30.82c-.19-.31-.71-1.28-.52-2.52.1-.67.37-1.16.56-1.46.74.55,2.27,1.5,4.4,1.72,1.08.11,2,0,2.69-.14-.04,1.79-.22,5.01-1.14,7.52-.26.7-.6,1.4-1.28,1.63-.91.3-1.87-.43-2.08-.6"/>
        <path class="cls-10" d="M127.24,27.74c-.43-.4-1.39-1.17-2.06-.9-.83.34-1.12,2.23-.44,4.72.51-.03.99.22,1.24.65.35.6.07,1.21.04,1.26"/>
      </g>
      <g>
        <path class="cls-23" d="M155.4,117.08c-.28,1.95-.64,3.52-.88,4.51-1.09,4.19-2.77,7.68-6.72,13.87-.54.83-1.11,1.72-1.73,2.65.15,1.06.31,2.15.48,3.25-.49.14-.97.28-1.45.41,3.43,7.76,3.87,13.72,3.59,17.81-.17,2.38-.66,5.24-.85,10.48-.14,3.97-.04,7.24.07,9.4-7.82,2.11-17.95,3.95-29.75,3.89-1.44,0-2.91-.04-4.4-.1-5.62-.25-10.78-.91-15.38-1.77-.14-9.48.52-20.14,2.6-31.63.55-3.04,1.17-5.96,1.85-8.79-.81-.3-1.55-.58-2.23-.86.41-1.82.81-3.67,1.2-5.55-1.86.65-3.83,1.31-5.93,1.96-.47-.09-1.22-.3-1.93-.86-.85-.68-1.21-1.51-1.4-1.95-1.55.77-2.82,1.48-3.73,1.99-.65.37-1.25.71-1.81,1.02h-.01c-.06.18-.15.36-.28.54-.73.99-2,.89-2.07.88.02.13.07.85-.45,1.48-.5.59-1.16.68-1.3.7-.11.22-.31.53-.65.78-.96.72-2.23.39-2.59.29-.25-.07-.48-.16-.7-.29l.28.21c-.88.59-1.72.73-2.22.82-.83.14-1.81.3-2.59-.29-.34-.24-.53-.55-.64-.77-.14-.02-.81-.12-1.31-.71-.52-.63-.46-1.34-.45-1.48-.07.01-1.35.12-2.07-.87-.49-.67-.43-1.41-.41-1.6-.06-.01-.99-.15-1.4-1-.08-.17-.13-.35-.15-.53-8.11.36-14.74.95-19.56,1.48-.07.72-.19,1.44-.37,2.14-.45,1.76-.84,4.01-.85,6.62-.02,2.72.38,5.05.82,6.82.16-.04.31-.07.46-.1.15-.03.29-.06.44-.09.27.87.54,1.91.72,3.11.15,1.07.2,2.02.2,2.86h-.01c.33,1.69.67,3.48,1.02,5.38.13.69.25,1.39.38,2.1.01.03.01.07.02.1.05.29.1.59.15.9.05.3.1.61.15.91.34,1.94.67,3.96,1,6.07.13.93.28,1.87.42,2.83.14.99.3,2,.44,3.04.09.71.2,1.41.29,2.13h0s-.03.02-.1.03c-.02.01-.05.01-.08.02-.07.02-.17.04-.28.07-.02,0-.04,0-.05,0-.12.03-.28.07-.45.1-.1.03-.22.05-.35.08-.19.04-.39.08-.61.13-1.11.22-2.68.49-4.65.74-.05,0-.11,0-.17.02-.09.02-.19.03-.29.04-.32.05-.66.09-1.02.13-.34.04-.69.07-1.05.11h-.05c-.1.01-.21.02-.32.03-.09.01-.17.02-.26.03-.36.03-.73.06-1.1.09-.58.05-1.18.09-1.78.13h-.05c-.5.03-1.01.06-1.54.09-.54.03-1.09.05-1.66.07-.86.03-1.74.04-2.66.05-.73,0-1.47,0-2.23-.02-.63-.01-1.28-.03-1.93-.05-.65-.02-1.32-.05-1.99-.09-.67-.04-1.36-.08-2.05-.13-.85-.06-1.7-.13-2.58-.22-.87-.09-1.75-.18-2.65-.29s-1.81-.24-2.73-.37c-.93-.14-1.86-.29-2.81-.46h0c-1.86-.33-3.76-.72-5.69-1.17-.97-.22-1.95-.46-2.94-.72-.99-.25-1.99-.53-2.99-.82-.03,0-.05-.02-.08-.03-.02-.01-.04-.01-.05-.02-.02-.01-.03-.02-.05-.02.26-3.2.67-5.89,1.06-7.97h0c.23-1.22.44-2.2.62-2.95.27-1.18.55-2.31.87-3.42.12-.46.25-.91.39-1.36.11-.34.21-.69.32-1.02.34-1.12.71-2.19,1.09-3.21.19-.53.38-1.05.57-1.55h.01v-.03c.11-.26.21-.51.31-.76.1-.25.2-.5.29-.74.03-.07.22-.6.24-.66-.1-.81-.16-1.88,0-3.12.16-1.27.5-2.3.8-3.06.28.1.55.21.84.31.26-2.45.42-5.18.4-8.16-.02-2.49-.17-5.4-.39-7.63-.71-.13-1.2-.23-1.2-.23-1.24-.23-2.24-.43-2.88-.56.21-1.65.48-4.13.65-7.15.54-9.48-.46-14.81-.65-21.21-.12-4.09.06-9.75,1.38-16.67.33-1.74,1.01-3.41,2.02-4.87.96-1.38,2.11-2.86,3.5-4.35,1.43-1.53,2.85-2.79,4.15-3.83.23-.93.44-1.95.6-3.07-.91-.25-1.87-.82-2.87-.87-1.19-.06-2.53.79-3.81.59-1.03-.16-1.82-1.3-2.75-1.53-1.02-.24-2.24.42-3.15.13-1.01-.33-1.61-1.59-2.46-1.95-1.02-.42-2.53-.16-3.32-.56-.1-1.1.72-2.7.72-4.24.01-1.22-.9-2.61-.76-4.06.13-1.25,1.28-2.42,1.57-3.81.25-1.25-.36-2.79.05-4.12.4-1.29,1.75-2.16,2.23-3.3.52-1.25.2-2.83.78-3.9.65-1.22,2.16-1.83,2.81-2.81.54-.81.74-1.8,1.02-2.62-.7-.14-1.25-.78-1.23-1.55l.09-4.27c.01-.68.46-1.29,1.12-1.47.27-.08.54-.15.82-.23.48-2.24,2.2-8.63,8.01-12.24,3.55-2.22,7.08-2.43,10.08-2.61,3.81-.24,8.53-.52,12.97,2.46,4.61,3.1,6.23,7.92,6.78,10.03.36.05.72.1,1.07.16.68.12,1.2.66,1.29,1.35l.63,4.79c.12.89-.52,1.67-1.36,1.76-.21.36-.44.72-.42,1.03.07.9,1.07,1.67,1.02,2.02l-.42-.16.2.5-.38-.38-.02.44c-.64-.18-1.06-1.3-1.75-1.47-.03-.01-.06-.01-.09-.01.05.96.12,1.93.2,2.92.1,1.3-.34,4.92-.21,6.16.07.61.32,1.17.72,1.62.49.56.98,1.11,1.47,1.68.29.33.58.67.86,1,.96,1.11.93,2.77-.06,3.85-.59.65-1.19,1.3-1.78,1.94-.22.24-.4.52-.53.82l-3.79,7.82c-.48,1.12-1.6,1.82-2.82,1.76-1.32-.05-2.85-.24-4.53-.65-1.17-.29-2.09-.37-2.87-.4-.21,1.4-.32,3.1-.19,5.04,0,.18.02.37.04.54l.31-.04c2.1,1.82,4.9,4.54,7.68,8.24,1.86,2.47,3.03,4.53,5.29,8.56,4.19,7.48,6.3,11.29,6.71,15.38.24,2.42-.11,3.17-.77,8.63-.4,3.27-.79,7.21-1.04,11.73.29.01.59.04.89.06,3.74.28,8.92.77,15.23,1.7.42.13.94.23,1.52.24,2.7.03,3.53-2.01,5.99-2.02.78,0,1.5.28,2.6.85.87-.44,1.62-.72,2.58-.85,2.31-.31,3.12.66,5.8.84,1.13.08,2.78.02,4.85-.65.04-.41.09-.83.14-1.26,2.04-.69,4.39-1.61,6.92-2.85,1.48-.82,2.9-1.58,4.18-2.25.46-.27.94-.56,1.41-.86,2.27-15.8,2.97-30.45,2.77-43.57.13-1.28.37-3.08.88-5.18.71-2.87,1.37-5.54,3.2-8.1.82-1.16,2.65-3.36,6.08-5.04.02-.42.02-.86.01-1.32-.06-2.01-.38-3.75-.75-5.15-.3.1-.56.2-.73.31-.99.63-1.9.95-3.88,1.68-1.61.6-3.12.96-4.43,1.16-1.2.19-2.39-.38-2.99-1.43l-4.65-7.35c-.12-.19-.33-.46-.61-.75-.73-.75-1.39-.99-1.92-1.33-.87-.56-1.57-1.49-1.77-2.18-.6-2.1,3.19-3.16,3.76-6.66.33-2.06-.62-2.64-.9-6.09-.15-1.9.01-3.56.24-4.86-.69-.19-1.36-.46-1.89-.74-1.55-.83-3.89-2.8-3.72-5.08.2-2.6,3.65-5.29,8.37-4.87-3.06-.23-5.22-1.48-5.3-2.74-.1-1.43,2.46-2.72,4.15-3.17,3.22-.84,6.02.69,6.86,1.19-.19-.27-1.63-2.4-.84-3.87,1.03-1.93,5.01-1.17,5.81-1.01,3.15.61,5.27,2.59,6.34,3.81-.47-.64-2.12-2.99-1.35-4.17.86-1.32,4.4-.6,6.66.72,2.42,1.41,3.54,3.62,3.97,4.64.34-1.75,1.51-3.06,2.82-3.21,2.1-.26,3.42,2.58,3.61,2.98,1.16,2.49.11,4.98-.12,5.5.88-.01,3.45.11,5.2,2,1.03,1.11,2.09,3.18,1.36,4.03-.15.19-.55.5-1.61.38,2.65,3.4,3.66,6.47,2.61,7.66-.23.25-.66.54-1.54.57.72.88,1.82,2.5,1.75,4.56-.02.58-.07,2.23-.95,2.52-.64.2-1.57-.36-2.22-1.42.24,1.85.64,5.87-.59,6.31-.35.13-1.11.05-2.69-1.92.26.93.76,3.24-.45,5.29-.21.36-1.17,1.98-2.25,1.83-.34-.04-.63-.25-.86-.54,0,1.14.05,2.38.2,3.68.35,3.23,1.11,5.95,1.9,8.08h.12c1.3,1.04,2.72,2.31,4.15,3.84,1.39,1.48,2.55,2.96,3.51,4.35,1.01,1.45,1.68,3.12,2.01,4.87.25,1.33.47,2.61.64,3.84,2.53,3.24,3.97,6.74,6.5,15.89,5.06,18.25,4.9,24.34,4.25,28.93Z"/>
        <g>
          <path class="cls-18" d="M48.63,132.15l-.11,3.02c-.04,1.15-.17,2.3-.45,3.43-.45,1.76-.84,4.01-.85,6.62-.02,2.79.4,5.17.85,6.96-3.08.69-6.6,1.24-10.5,1.42-10.9.52-19.85-2.01-25.73-4.3.26-2.45.42-5.18.4-8.16-.02-2.77-.19-5.33-.45-7.64,4.65.89,10.53,1.61,17.31,1.46,7.86-.17,14.5-1.45,19.54-2.81Z"/>
          <path class="cls-4" d="M43.87,145.27c-.38,3.66-.2,4.62.09,4.69.31.07.87-.81,1.05-1.6.17-.75-.02-1.36-.11-1.6"/>
          <path class="cls-18" d="M53.61,113.54c-.48,3.97-.96,8.93-1.18,14.71-.05,1.14-1.16,1.62-1.5,1.98-.7.75-1.46,1.38-2.3,1.93-4.31,2.71-10.6,2.79-19.54,2.81-6.41.01-10.97-.45-14.18-.93-1.89-.28-4.26-.75-4.26-.75-1.23-.23-2.24-.43-2.88-.56.21-1.65.48-4.13.65-7.15.54-9.48-.46-14.81-.65-21.22-.12-4.09.06-9.75,1.38-16.66.33-1.74,1.01-3.41,2.02-4.87s2.12-2.86,3.51-4.35c1.43-1.53,2.85-2.8,4.15-3.83l15.89-1.91c2.1,1.82,4.9,4.54,7.68,8.23,1.86,2.48,3.03,4.54,5.28,8.56,4.19,7.48,6.3,11.29,6.71,15.38.24,2.42-.11,3.16-.77,8.63Z"/>
          <path class="cls-19" d="M53.71,181.28s-.06.02-.18.05c-.64.16-2.89.69-6.42,1.13-.14.02-.27.04-.42.06-.33.05-.67.09-1.03.13-.36.04-.73.08-1.1.12-.19.02-.39.04-.58.06l-.32.03c-.45.04-.92.08-1.38.11-.39.04-.77.06-1.17.09h0c-1.04.06-2.1.12-3.24.15-.86.03-1.74.04-2.66.05-2.53.02-5.27-.07-8.2-.29-3.37-.24-6.98-.67-10.77-1.34h0c-3.71-.67-7.6-1.54-11.61-2.72-.03,0-.06,0-.09-.02-.02,0-.04,0-.05-.02-.02,0-.03-.02-.05-.02.26-3.2.67-5.9,1.05-7.98.23-1.2.45-2.19.62-2.94.27-1.18.56-2.31.87-3.42.13-.46.25-.92.4-1.36.11-.35.2-.69.32-1.03.34-1.11.71-2.18,1.08-3.2.19-.53.39-1.04.58-1.56,0,0,0-.02,0-.02.2-.52.41-1.02.6-1.5.03-.08.06-.15.08-.2,2.22.64,4.57,1.25,7.05,1.8,3.32.74,6.87,1.37,10.65,1.83,2.21.28,4.48.49,6.84.63,0-.27,0-.53-.02-.81.22,0,.45,0,.68-.02.64-.02,1.28-.05,1.92-.09,1.64-.11,3.24-.24,4.79-.43,2.75-.3,5.34-.71,7.81-1.17.47,2.43.98,5.08,1.48,7.93,0,.03,0,.07.02.1.11.59.2,1.2.31,1.81.34,1.94.67,3.96,1,6.07.14.93.28,1.87.43,2.83.14,1,.29,2,.44,3.04.09.72.19,1.42.29,2.14Z"/>
          <g>
            <g>
              <path class="cls-5" d="M37.12,175.09c-.13.01-.27.01-.41.01-.6,0-1.18-.01-1.75-.03-.06-2.23-.12-4.6-.19-7.11-.01-.28-.01-.58-.02-.87.5,0,.99,0,1.5-.02.04.31.07.63.1.94.28,2.44.54,4.79.76,7.08Z"/>
              <path class="cls-7" d="M44.62,174.57c-1.55.19-3.17.33-4.83.44-.91.05-1.81.08-2.67.08-.22-2.28-.48-4.64-.76-7.08-.03-.31-.06-.63-.1-.94.72-.02,1.46-.05,2.21-.09,1.68-.1,3.33-.25,4.91-.44.47,2.77.87,5.45,1.24,8.03Z"/>
              <path class="cls-7" d="M37.84,183.11c1.04,0,2.13-.03,3.25-.08-1.03.07-2.11.12-3.25.16,0-.03,0-.05,0-.08Z"/>
              <polygon class="cls-7" points="41.1 183.03 41.11 183.03 41.1 183.03 41.1 183.03"/>
              <path class="cls-7" d="M45.66,182.64c-1.36.15-2.9.29-4.56.39,1.58-.1,3.1-.23,4.56-.4h0Z"/>
              <path class="cls-5" d="M45.66,182.63c.34-.04.68-.08,1.02-.12-.32.04-.66.09-1.02.13h0Z"/>
              <path class="cls-5" d="M53.53,181.32c-.67.17-3.08.72-6.84,1.19.62-.08,1.23-.17,1.82-.26.75-.12,1.48-.23,2.19-.37.35-.06.69-.13,1.04-.2.62-.12,1.22-.24,1.8-.37Z"/>
              <path class="cls-5" d="M52.56,173.28c-2.44.52-5.09.97-7.94,1.3-.37-2.58-.77-5.26-1.24-8.03,2.79-.31,5.41-.75,7.86-1.25.01.03.01.07.02.1.1.59.2,1.2.3,1.81.33,1.94.67,3.96.99,6.07Z"/>
              <path class="cls-7" d="M53.72,181.28s-.06.02-.19.04c-.58.13-1.18.25-1.8.37-.35.07-.69.13-1.04.2-.72.13-1.44.25-2.19.37-.92.14-1.86.27-2.84.38-.06-.58-.13-1.16-.21-1.76-.25-2.02-.52-4.12-.84-6.29,2.85-.33,5.5-.79,7.95-1.31.13.93.28,1.87.42,2.83.14.99.3,2,.44,3.04.09.72.2,1.42.3,2.14Z"/>
              <path class="cls-7" d="M51.24,165.3c-2.45.5-5.07.93-7.86,1.25-.43-2.59-.9-5.26-1.43-8.01,2.74-.29,5.34-.7,7.81-1.17.48,2.43.97,5.08,1.48,7.93Z"/>
              <path class="cls-5" d="M45.67,182.63c-1.46.16-2.98.3-4.57.4-1.13.06-2.21.09-3.26.08-.18-2.25-.4-4.61-.62-7.05-.04-.32-.07-.64-.1-.96.86,0,1.76-.03,2.67-.08,1.66-.1,3.28-.24,4.83-.44.41,2.8.75,5.49,1.05,8.06Z"/>
              <path class="cls-5" d="M43.38,166.55c-1.58.18-3.23.33-4.91.44-.75.04-1.49.07-2.21.09-.27-2.31-.57-4.7-.89-7.15-.04-.28-.08-.58-.12-.87.64-.02,1.28-.05,1.92-.09,1.64-.1,3.24-.24,4.79-.43.53,2.75,1,5.42,1.43,8.01Z"/>
              <path class="cls-7" d="M36.26,167.07c-.51.02-1,.02-1.5.02-.06-2.29-.12-4.7-.17-7.21-.01-.27-.01-.54-.02-.81.22,0,.46-.01.68-.02.04.29.08.59.12.87.32,2.45.62,4.83.89,7.15Z"/>
              <path class="cls-7" d="M37.84,183.11c-.91,0-1.81-.03-2.65-.07-.01-.67-.03-1.33-.05-2-.04-1.57-.09-3.24-.14-5-.01-.31-.02-.64-.03-.96.57.02,1.15.03,1.75.03.13,0,.27,0,.41-.01.03.32.06.64.1.96.22,2.45.44,4.8.62,7.05Z"/>
              <path class="cls-5" d="M37.85,183.19c-.86.03-1.74.04-2.66.04,0-.07,0-.13,0-.2.85.04,1.74.07,2.66.07,0,.03,0,.05,0,.08Z"/>
            </g>
            <g>
              <path class="cls-14" d="M35.2,183.24c-2.53.02-5.28-.07-8.2-.29l.1-2.99.13-4.44c.58.06,1.15.13,1.75.18,1.93.17,3.94.28,6.02.33.04,1.51.09,2.95.13,4.32,0,.23,0,.46.02.68.02.67.04,1.33.04,2,0,.06,0,.13,0,.2Z"/>
              <path class="cls-14" d="M34.77,167.97c-2.53-.1-4.96-.3-7.3-.57l.26-8.14c2.21.27,4.49.49,6.84.63.05,2.51.11,4.91.17,7.21.01.29.01.59.02.87Z"/>
              <path class="cls-7" d="M35,176.04c-2.08-.05-4.09-.16-6.02-.33-.6-.05-1.18-.11-1.76-.17l.25-8.13c2.33.26,4.77.47,7.3.57.07,2.51.13,4.87.19,7.11.01.32.02.65.03.96Z"/>
              <path class="cls-14" d="M16.52,173.84c-.02.45-.04.88-.05,1.29,0,.36-.03.71-.04,1.05-.02.45-.04.88-.05,1.29,0,.09,0,.19,0,.28,0,.23-.02.46-.03.68s-.02.44-.03.65c0,.13,0,.24-.02.36-.02.53-.04,1.03-.05,1.49,0,.23-.02.46-.03.68-3.7-.65-7.6-1.53-11.61-2.7-.03,0-.05-.02-.08-.03-.02,0-.04,0-.05-.02-.02,0-.03-.02-.04-.02.26-3.2.67-5.91,1.06-7.98,1.99.65,4.16,1.29,6.49,1.91,1.43.37,2.95.73,4.55,1.07Z"/>
              <path class="cls-7" d="M27.22,175.53l-.13,4.44-.1,2.99c-3.37-.24-6.98-.67-10.77-1.34h0c0-.23.02-.46.03-.69.02-.47.04-.97.05-1.49,0-.12,0-.23.02-.36,0-.21.02-.43.03-.65s.02-.45.03-.68c0-.09,0-.19,0-.28.02-.41.04-.84.05-1.29,0-.34.03-.69.04-1.05.02-.41.04-.84.05-1.29,2.73.59,5.68,1.1,8.85,1.49.61.06,1.23.13,1.85.2Z"/>
              <path class="cls-14" d="M27.48,167.4l-.25,8.13c-.63-.06-1.24-.13-1.85-.2-3.17-.39-6.12-.9-8.85-1.49.01-.41.02-.84.04-1.28.09-2.49.17-4.8.24-6.92,2.67.58,5.52,1.1,8.55,1.5.7.09,1.4.18,2.12.26Z"/>
              <path class="cls-7" d="M16.81,165.63c-.07,2.12-.15,4.44-.24,6.92-.02.44-.03.87-.04,1.28-1.6-.33-3.13-.7-4.56-1.08-2.32-.61-4.5-1.25-6.49-1.9.23-1.21.45-2.19.62-2.94.27-1.18.56-2.31.87-3.42.12-.46.25-.91.4-1.36,1.42.45,2.91.87,4.48,1.29,1.57.43,3.23.83,4.96,1.21Z"/>
              <path class="cls-14" d="M17.09,157.43c-.08,2.18-.17,4.95-.28,8.2-1.74-.38-3.39-.78-4.96-1.21-1.56-.42-3.06-.84-4.48-1.29.1-.35.2-.69.31-1.03.35-1.12.71-2.18,1.09-3.21.19-.53.39-1.05.58-1.55.01-.01.01-.02.01-.02.2-.52.41-1.02.6-1.5.03-.07.06-.14.08-.2,2.21.64,4.57,1.25,7.05,1.81Z"/>
              <path class="cls-7" d="M27.74,159.26l-.26,8.14c-.72-.08-1.42-.17-2.12-.26-3.02-.41-5.88-.92-8.55-1.5.11-3.25.2-6.02.28-8.2,3.32.73,6.87,1.37,10.65,1.83Z"/>
            </g>
          </g>
          <path class="cls-15" d="M49.85,157.81c-.3.07-.61.13-.92.21-3.04.65-6.43,1.18-10.15,1.4-1.63.1-3.23.14-4.78.13-9.85-.07-18.06-2.28-23.81-4.38-.11-.81-.16-1.88,0-3.12.16-1.27.49-2.3.8-3.05.28.1.55.21.84.3,6.49,2.32,15.81,4.63,26.95,3.95,3.54-.21,6.79-.7,9.71-1.32.15-.03.3-.05.44-.09.28.87.55,1.91.72,3.11.15,1.06.2,2.02.2,2.85Z"/>
          <path class="cls-18" d="M19.44,60.78c.24,1.62.41,3.5.39,5.58-.02,3.25-.48,6.06-1.02,8.27,1.33.83,4.56,2.6,8.99,2.54,2.82-.04,5.06-.81,6.48-1.44.3-.14.47-.45.41-.78-.15-.83-.28-1.74-.34-2.73-.14-2,0-3.76.21-5.19"/>
          <path class="cls-4" d="M50.43,115.88c-.51-.03-1.56-.07-2.9.01-1.6.1-2.7.34-3.69.55-.6.13-1.47.33-2.22.62"/>
          <path class="cls-9" d="M92.18,124.17c-.58,4.45-.34,7.95.37,9.62.19.44.54,1.28,1.4,1.96.71.57,1.47.78,1.93.87"/>
          <g>
            <path class="cls-7" d="M24.71,117.28c-.48.23-.97.45-1.49.65-2.67,1.01-5.15,1.16-7.01,1.07"/>
            <g>
              <path class="cls-18" d="M80.18,126.84c-1.94-1.06-2.92-1.59-3.98-1.59-2.46.01-3.29,2.04-5.99,2.01-.58,0-1.1-.11-1.52-.23-6.3-.93-11.49-1.43-15.23-1.71-3.07-.23-5.49-.35-7.94-.55-.48-.04-.91-.29-1.16-.7-.21-.33-.43-.67-.65-1.03-.8-1.28-1.49-2.46-2.09-3.55-1.29-2.3-2.58-4.95-3.24-6.28-.91-1.84-2.27-4.49-4.09-7.73l-11.55,8.17c1.15,2,2.22,3.75,3.15,5.24,1.2,1.9,2.2,3.39,2.78,4.25.58.86,1.19,1.73,2.31,3.32,2.12,2.99,4,5.54,5.55,7.54,1.11,1.43,2.79,2.32,4.6,2.44,3.08.2,5.31.24,6.46.11,5.13-.58,12.54-1.26,21.76-1.63"/>
              <path class="cls-20" d="M92.18,125.4c5.37-3.43,11.3-6.4,14.6-8.18,2.95-1.6,5.25-2.76,7.6-4.08.32-.18.57-.46.7-.81.25-.66.5-1.35.76-2.09.5-1.43.92-2.73,1.28-3.92.76-2.53,1.45-5.39,1.8-6.84.49-1.99,1.24-4.87,2.32-8.43l13.04,5.48c-.69,2.2-1.35,4.14-1.95,5.79-.76,2.11-1.41,3.79-1.79,4.75-.38.96-.79,1.94-1.54,3.74-1.58,3.75-2.99,6.9-4.15,9.3-.42.86-1.1,1.56-1.94,2.01-2.89,1.54-5.16,2.69-6.19,2.93-6.52,1.52-16.45,4.96-23.23,8.27-1.96.96-3.59,1.87-4.68,2.48-4.63,2.59-6.51,3.77-9.16,5.68"/>
            </g>
            <path class="cls-3" d="M11.32,87.86c-2.47,3.33-1.86,7.32-1.5,9.72.78,5.17,3.19,7.22,5.24,13.52.37,1.13,1.05,3.43,1.15,6.43.02.63.01,1.14,0,1.46,3.54-1.37,8.5-3.81,13.29-8.24,2.2-2.04,3.94-4.09,5.29-5.95-.88-2.39-2.32-5.79-4.58-9.6-3.76-6.33-6.5-10.93-10.94-11.31-3.21-.28-6.3,1.74-7.94,3.96Z"/>
          </g>
          <path class="cls-20" d="M68.54,133.44c-.55.56-.71,1.39-.4,2.06.41.85,1.34,1,1.4,1.01-.02.18-.09.93.41,1.6.73.99,2,.88,2.07.87,0,.14-.07.85.45,1.48.49.59,1.16.69,1.31.71.11.22.3.53.64.77.78.59,1.76.43,2.59.29.49-.09,1.34-.23,2.22-.82"/>
          <path class="cls-18" d="M77.46,140.08c.95.79,1.43,1.2,2.2,1.4.36.1,1.62.44,2.59-.28.34-.25.53-.56.64-.78.14-.02.81-.11,1.3-.7.52-.63.47-1.34.45-1.48.07,0,1.34.11,2.07-.88.49-.67.43-1.41.4-1.59.07,0,1-.15,1.4-1,.32-.67.16-1.5-.39-2.06-1.15-1.04-2.66-2.18-4.58-3.15-.75-.38-2.57-1.06-3.3-1.33"/>
          <path class="cls-20" d="M68.54,133.44c.45-.42,3.22-3.03,4.25-2.34.1.07.16.15.18.19.69,1.07-2.04,3.99-2.5,4.47,2.1-2.09,4.6-4.33,5.34-3.79.05.03.12.1.18.3.48,1.69-2.67,4.91-3.11,5.35.46-.62,3.06-4.09,4.22-3.55.13.06.2.15.23.19.82,1.07-1.94,4.51-2.39,5.06.5-.76,2.42-3.57,3.38-3.27.04.01.11.03.18.1.55.51-.01,2.36-1.1,3.49-.27.28-.52.46-.66.56"/>
          <g>
            <path class="cls-4" d="M17.87,63.71c-.05.97-.15,2.02-.34,3.13-.21,1.2-.49,2.27-.79,3.23"/>
            <path class="cls-4" d="M40.24,58.49s3.2,2.27,6.71,2.87"/>
            <path class="cls-12" d="M47.85,38.15c.06,1.13.14,2.27.23,3.44.1,1.3-.34,4.92-.21,6.16.06.6.32,1.17.72,1.62.49.55.98,1.11,1.47,1.67.29.33.58.67.86,1,.96,1.12.93,2.77-.06,3.85-.59.65-1.18,1.29-1.78,1.94-.22.24-.4.52-.53.82l-3.8,7.82c-.48,1.12-1.6,1.81-2.81,1.76-1.32-.06-2.86-.24-4.53-.65-3.08-.76-3.9-1.04-5.42-2.02"/>
            <path class="cls-4" d="M39.6,47.41c-.38-.79-.74-1.56-1.11-2.33.41-.21,2.58-1.19,4.64-.27.07.01.14.06.21.08.1.04.2.1.28.15.36.21.66.48.91.73"/>
            <path class="cls-4" d="M43.75,45.93c-.01.67-.22,1.21-.48,1.21-.24-.01-.43-.56-.42-1.22.01-.49.13-.91.28-1.09.07.01.14.06.21.08.1.04.2.1.28.15.08.22.14.53.13.87Z"/>
            <path class="cls-4" d="M43.76,41.68s-.99-.75-3.96-.18"/>
            <g>
              <path class="cls-22" d="M49.58,31.27c-.05.35-.65,1.58-.59,2.48.04.61,1.07,1.22,1.13,1.91s-.85,1.45-.8,2.07c.07.9,1.06,1.67,1.02,2.01,0,0-.89-.33-.89-.33s.67.67.67.67-.35-.88-.36-.88-.05.95-.05.95c-.63-.18-1.05-1.3-1.75-1.47-.65-.16-1.53.64-2.23.5-.66-.13-1.16-1.21-1.86-1.33-.67-.11-1.49.76-2.19.67-.89-.11-1.66-1.16-2.5-1.22-.9-.06-1.81.87-2.65.85-.9-.02-1.78-.98-2.6-.96-.91.03-1.33.78-2.14.85.12,1.33-.71,2.55-.65,4.07.05,1.36,1.04,2.78,1.01,4.27-.02,1.37-1.06,2.76-1.16,4.23-.1,1.38.73,2.9.55,4.36-.17,1.33-1.32,2.47-1.54,3.71-.23,1.33.46,2.79.18,4.01-.3,1.32-1.56,2.34-1.9,3.54-.37,1.32.06,3.03-.32,4.19-1.01.26-2.66-.3-4.07-.08-1.13.17-2.27,1.27-3.61,1.34-1.17.06-2.42-.91-3.73-.97-1.19-.06-2.52.78-3.81.59-1.03-.16-1.82-1.3-2.75-1.53-1.02-.24-2.24.42-3.14.13-1.01-.33-1.61-1.59-2.47-1.95-1.02-.42-2.53-.16-3.31-.56-.11-1.1.71-2.7.72-4.24,0-1.22-.91-2.61-.76-4.05.13-1.25,1.28-2.43,1.56-3.81.25-1.25-.36-2.79.05-4.12.4-1.28,1.75-2.16,2.23-3.29.52-1.25.21-2.83.78-3.9.66-1.23,2.16-1.83,2.81-2.81.82-1.23.87-2.89,1.55-3.73.36-.09,1.24.63,1.75.5.4-.1.61-1.15,1.09-1.26.41-.09,1.06.76,1.53.66.42-.09.67-1.13,1.13-1.23.47-.09,1.13.77,1.61.68s.78-1.13,1.26-1.21,1.11.8,1.59.73.82-1.1,1.3-1.17c2.45-.33,4.95.2,7.19-.26,2.43-.5,4.55-1.98,6.77-2.45,2.46-.52,4.95-.01,7.17-.27,2.49-.28,4.95-1.26,7.19-.87Z"/>
              <path class="cls-12" d="M49.58,31.27c-.05.35-.65,1.58-.59,2.48.04.61,1.07,1.22,1.13,1.91s-.85,1.45-.8,2.07c.07.9,1.06,1.67,1.02,2.01,0,0-.89-.33-.89-.33s.67.67.67.67-.35-.88-.36-.88-.05.95-.05.95c-.63-.18-1.05-1.3-1.75-1.47-.65-.16-1.53.64-2.23.5-.66-.13-1.16-1.21-1.86-1.33-.67-.11-1.49.76-2.19.67-.89-.11-1.66-1.16-2.5-1.22-.9-.06-1.81.87-2.65.85-.9-.02-1.78-.98-2.6-.96-.91.03-1.33.78-2.14.85.12,1.33-.71,2.55-.65,4.07.05,1.36,1.04,2.78,1.01,4.27-.02,1.37-1.06,2.76-1.16,4.23-.1,1.38.73,2.9.55,4.36-.17,1.33-1.32,2.47-1.54,3.71-.23,1.33.46,2.79.18,4.01-.3,1.32-1.56,2.34-1.9,3.54-.37,1.32.06,3.03-.32,4.19-1.01.26-2.66-.3-4.07-.08-1.13.17-2.27,1.27-3.61,1.34-1.17.06-2.42-.91-3.73-.97-1.19-.06-2.52.78-3.81.59-1.03-.16-1.82-1.3-2.75-1.53-1.02-.24-2.24.42-3.14.13-1.01-.33-1.61-1.59-2.47-1.95-1.02-.42-2.53-.16-3.31-.56-.11-1.1.71-2.7.72-4.24,0-1.22-.91-2.61-.76-4.05.13-1.25,1.28-2.43,1.56-3.81.25-1.25-.36-2.79.05-4.12.4-1.28,1.75-2.16,2.23-3.29.52-1.25.21-2.83.78-3.9.66-1.23,2.16-1.83,2.81-2.81.82-1.23.87-2.89,1.55-3.73.36-.09,1.24.63,1.75.5.4-.1.61-1.15,1.09-1.26.41-.09,1.06.76,1.53.66.42-.09.67-1.13,1.13-1.23.47-.09,1.13.77,1.61.68s.78-1.13,1.26-1.21,1.11.8,1.59.73.82-1.1,1.3-1.17c2.45-.33,4.95.2,7.19-.26,2.43-.5,4.55-1.98,6.77-2.45,2.46-.52,4.95-.01,7.17-.27,2.49-.28,4.95-1.26,7.19-.87Z"/>
            </g>
            <g>
              <path class="cls-18" d="M48.12,28.63c-.55-2.11-2.17-6.93-6.78-10.02-4.44-2.98-9.16-2.7-12.97-2.46-3,.18-6.53.39-10.08,2.61-5.81,3.61-7.53,10.01-8.01,12.25"/>
              <path class="cls-18" d="M8.33,32.7l-.09,4.26c-.02,1.03.93,1.8,1.93,1.56,6.9-1.67,15.59-3.03,25.62-2.9,4.94.06,9.47.48,13.54,1.08,1.03.15,1.91-.73,1.77-1.76l-.63-4.79c-.09-.68-.61-1.23-1.29-1.34-2.56-.42-5.27-.76-8.12-.96-12.45-.89-23.26,1-31.6,3.38-.66.19-1.11.79-1.13,1.48Z"/>
              <g>
                <line class="cls-4" x1="44.21" y1="28.13" x2="45.07" y2="36.15"/>
                <line class="cls-4" x1="38.19" y1="27.68" x2="38.86" y2="35.71"/>
                <line class="cls-4" x1="32.22" y1="27.66" x2="32.71" y2="35.63"/>
                <line class="cls-4" x1="26.27" y1="28.03" x2="26.59" y2="35.91"/>
                <line class="cls-4" x1="20.33" y1="28.79" x2="20.48" y2="36.56"/>
                <line class="cls-4" x1="14.36" y1="29.97" x2="14.35" y2="37.59"/>
              </g>
            </g>
          </g>
          <g>
            <path class="cls-23" d="M141.27,67.49c2.84,2.47,3.24,5.96,3.56,9.17.73,7.34-1.68,13.55-3.69,17.39-1.24,3.79-6.24,18.51-13.02,26.17-1.59,1.8-3.3,3.21-3.3,3.21-3.28,2.81-6.65,4.73-13.43,7.55-4.04,1.68-9.26,3.68-15.52,5.63.26-1.2.58-3.39-.05-6.01-.81-3.4-2.75-5.55-3.65-6.43,3.51-1.19,7.91-3.06,12.6-6.02,4.15-2.62,7.4-5.4,9.84-7.8,4.56-11.66,7.54-21.37,9.47-28.42,2.29-8.34,3.72-15.08,8.57-16.61,2.91-.91,6.42.25,8.61,2.16Z"/>
            <g>
              <path class="cls-2" d="M123.28,124.68c-2.86,2.18-6.16,3.91-11.88,6.3-4.04,1.68-9.26,3.68-15.52,5.63.26-1.2.58-3.39-.05-6.01-.81-3.4-2.75-5.55-3.65-6.43,3.51-1.19,7.91-3.06,12.6-6.02,4.15-2.62,7.4-5.4,9.84-7.8.42-1.08.83-2.15,1.23-3.2"/>
              <path class="cls-21" d="M118.96,98.52c2.23-6.49,3.89-12.08,5.13-16.58,2.29-8.34,3.72-15.08,8.57-16.61,2.91-.91,6.42.25,8.61,2.16,2.84,2.47,3.24,5.96,3.56,9.17.73,7.34-1.68,13.55-3.69,17.39-1.24,3.79-6.24,18.51-13.02,26.17-.47.53-.94,1.02-1.38,1.45"/>
            </g>
          </g>
          <g>
            <path class="cls-11" d="M109.29,126.01c.38,3.66.2,4.62-.09,4.69-.31.07-.87-.81-1.05-1.6-.17-.75.02-1.36.11-1.6"/>
            <path class="cls-8" d="M102.83,141.06c-.68,2.83-1.3,5.76-1.85,8.8-2.08,11.49-2.74,22.15-2.6,31.63,4.61.86,9.76,1.52,15.39,1.77,13.69.61,25.37-1.43,34.15-3.79-.11-2.16-.21-5.43-.07-9.41.19-5.23.68-8.09.84-10.47.29-4.15-.16-10.21-3.72-18.11"/>
            <path class="cls-13" d="M118.16,183.35c-.26-3.67-.43-7.55-.46-11.62-.05-5.31.13-10.31.46-14.96l1.51-20.15"/>
            <path class="cls-6" d="M134.81,143.68s4.61,2.94,2.48,24.81c-.32,3.3-.3,10.43-.3,13.12"/>
            <path class="cls-11" d="M127.54,145.2c-1.42-1.96-1.92-3.72-1.92-3.72"/>
            <path class="cls-17" d="M117.69,159.05s-4.66-1.62-1.31-16.7"/>
            <path class="cls-13" d="M136.99,150.89c-.31-.02-.63-.04-.96-.07-.42-.04-.82-.09-1.21-.17-7.07-1.29-9.2-8.23-9.2-8.23"/>
            <path class="cls-20" d="M103.99,122.75c-.98,6.09-2.13,11.91-3.39,17.45,2.71,1.11,6.51,2.42,11.17,3.34,7.42,1.46,13.24,1.15,17.1.92,4.54-.27,10.66-1.03,17.69-3.1-2.35-15.16-2.32-26.93-1.81-35.06.45-7.06.45-14.14.65-21.22.12-4.09-.06-9.75-1.38-16.66-.33-1.74-1.01-3.41-2.02-4.87-.96-1.38-2.12-2.86-3.51-4.35-1.43-1.53-2.85-2.8-4.15-3.83-5.23.16-10.46.32-15.68.48-4.11,1.72-6.22,4.25-7.12,5.52-1.83,2.57-2.49,5.24-3.2,8.1-.52,2.11-.76,3.9-.88,5.18.22,14.36-.64,30.56-3.47,48.11Z"/>
            <path class="cls-20" d="M132.17,41.67c-.09,1.65-.07,3.54.15,5.61.36,3.24,1.12,5.98,1.91,8.12-1.32,1-4.55,3.18-9.21,3.69-2.98.33-5.42-.15-6.98-.6-.33-.1-.54-.39-.51-.72.08-.84.12-1.77.09-2.76-.06-2.01-.38-3.75-.75-5.15"/>
            <path class="cls-11" d="M109.78,95.13s3.11,18.28,8.82,21.94"/>
            <path class="cls-11" d="M109.68,106.09s2.36,13.88,6.7,16.66"/>
            <g>
              <path class="cls-20" d="M99.29,21.01c-.35,1.4-.75,3.57-.53,6.2.28,3.46,1.23,4.03.9,6.1-.56,3.49-4.36,4.56-3.76,6.66.2.69.9,1.62,1.77,2.18.53.34,1.19.58,1.92,1.33.29.29.49.57.62.75l4.65,7.35c.6,1.06,1.79,1.62,2.99,1.43,1.31-.21,2.81-.56,4.43-1.16,1.98-.73,2.89-1.06,3.88-1.69.55-.35.98-.68,1.28-.92"/>
              <path class="cls-11" d="M107.47,44.96c-.56.38-1.19.77-1.91,1.14-1.05.54-2.03.93-2.89,1.21"/>
              <path class="cls-11" d="M102.75,30.98c.62-.31,1.37-.63,2.26-.89,1.44-.41,2.72-.5,3.67-.49-.28.81-.56,1.63-.84,2.44"/>
              <ellipse class="cls-11" cx="104.3" cy="33" rx=".45" ry="1.21" transform="translate(-3.45 14.07) rotate(-7.59)"/>
              <path class="cls-11" d="M102.41,27.43s.76-.98,3.78-1.18"/>
            </g>
            <path class="cls-8" d="M138.97,32.63c.64,1.06,1.58,1.62,2.22,1.42.88-.28.93-1.93.95-2.52.06-2.05-1.03-3.68-1.75-4.55.89-.03,1.31-.32,1.54-.58,1.05-1.19.05-4.26-2.6-7.66,1.06.13,1.46-.19,1.61-.37.72-.85-.33-2.92-1.37-4.04-1.75-1.89-4.32-2-5.2-2,.23-.52,1.28-3.01.12-5.5-.18-.39-1.51-3.23-3.61-2.98-1.31.16-2.48,1.46-2.81,3.22-.44-1.02-1.55-3.23-3.98-4.65-2.26-1.32-5.8-2.04-6.66-.72-.77,1.18.88,3.53,1.35,4.17-1.07-1.22-3.19-3.21-6.34-3.81-.8-.15-4.77-.92-5.8,1.01-.79,1.48.65,3.6.84,3.88-.85-.51-3.65-2.04-6.87-1.19-1.69.44-4.25,1.74-4.15,3.17.09,1.26,2.25,2.51,5.31,2.74-4.72-.42-8.18,2.27-8.37,4.87-.17,2.28,2.17,4.25,3.72,5.07,1.7.91,4.78,1.67,5.83.23.68-.93.21-2.38,0-2.94.29.73,1.77,4.22,5.09,5.09.74.2,2.78.73,3.91-.49,1.04-1.13.57-2.95.51-3.16.6,1.41,1.79,3.49,4.05,4.61,1.18.59,3.15,1.16,3.7.47.45-.58-.38-1.69-.07-1.91.29-.21,1.3,1.57,2.85,2.75,3.04,2.3,7.04,1.5,7.09,2.17.03.36-1.13.37-1.99,1.18-2.48,2.33-.47,8.99,1.4,9.62.68.23,1.71-1.35,2.13-1.07.42.28-.65,1.8-.25,3.69.18.83.73,2.18,1.65,2.31,1.08.15,2.04-1.47,2.25-1.83,1.21-2.05.71-4.36.45-5.29,1.58,1.96,2.33,2.05,2.69,1.92,1.23-.44.83-4.46.59-6.32Z"/>
          </g>
          <path class="cls-20" d="M92.18,125.4c-2.13.71-3.84.76-5,.68-2.67-.18-3.48-1.15-5.8-.83-1.43.2-2.38.72-3.98,1.59-1.15.63-3.5,1.91-3.28,2.92.1.46.69.69.81.74,1.78.69,3.32-1.82,5.75-2.01.16-.01.78-.07,1.58.03,1.96.26,4.63,1.46,5.36,2.08"/>
          <g>
            <path class="cls-23" d="M135.14,149.62c-3.5-.72-5.72-2.76-7.01-4.47.51-.96,1.08-1.89,1.69-2.78l.41-.6,5.41-6.29,4.74,6.86-3.62,4.44c-.58.71-1.06,1.5-1.41,2.35l-.22.51Z"/>
            <path class="cls-24" d="M135.6,136.29l4.16,6.01-3.38,4.15c-.61.75-1.11,1.58-1.48,2.47l-.05.13c-2.96-.72-4.91-2.43-6.12-3.94.46-.84.97-1.66,1.51-2.45l.38-.56,4.98-5.8M135.68,134.65l-5.86,6.83-.41.6c-.69,1-1.31,2.04-1.87,3.11,1.47,2.04,3.95,4.31,7.9,4.99,0,0,0,0,0,0l.37-.88c.34-.8.79-1.55,1.34-2.22l3.85-4.73-5.33-7.7h0Z"/>
          </g>
          <path class="cls-20" d="M128.77,83.82c-2.17-6.19-3.54-11.09-.97-14.4,1.87-2.41,5.41-3.46,8.3-3.14,1.03.11,4.18.64,8.16,5.5,2.78,3.39,4.23,6.77,6.89,16.39,5.06,18.25,4.9,24.34,4.24,28.92-.28,1.95-.63,3.52-.88,4.52-1.09,4.18-2.77,7.68-6.72,13.86-1.47,2.29-3.24,4.95-5.34,7.88-.31.43-.63.87-.96,1.32-.25.35-.51.7-.78,1.05-.78,1.05-1.6,2.13-2.46,3.24-.47-1.13-1.46-3.12-3.47-4.91-2.61-2.33-5.43-2.99-6.67-3.2,2.2-2.98,4.76-7.03,6.91-12.14,1.91-4.52,2.99-8.66,3.63-12.01-.61-2.07-1.22-4.15-1.83-6.22"/>
          <g>
            <path class="cls-23" d="M135.39,105.49c-1.41-4.81-2.83-9.63-4.24-14.44"/>
            <path class="cls-1" d="M135.39,105.49c-1.41-4.81-2.83-9.63-4.24-14.44"/>
          </g>
        </g>
        <path class="cls-11" d="M122.92,30.82c-.19-.31-.71-1.28-.52-2.52.1-.67.37-1.16.56-1.46.74.55,2.27,1.5,4.4,1.72,1.08.11,2,0,2.69-.14-.04,1.79-.22,5.01-1.14,7.52-.26.7-.6,1.4-1.28,1.63-.91.3-1.87-.43-2.08-.6"/>
        <path class="cls-16" d="M127.24,27.74c-.43-.4-1.39-1.17-2.06-.9-.83.34-1.12,2.23-.44,4.72.51-.03.99.22,1.24.65.35.6.07,1.21.04,1.26"/>
      </g>
    </g>
  </g>
</svg>